<svg xmlns="http://www.w3.org/2000/svg" xmlns:xlink="http://www.w3.org/1999/xlink" width="500" zoomAndPan="magnify" viewBox="0 0 375 374.999991" height="500" preserveAspectRatio="xMidYMid meet" version="1.0"><defs><clipPath id="a6e38ff7b6"><path d="M 38.644531 45.410156 L 336.347656 45.410156 L 336.347656 329.59375 L 38.644531 329.59375 Z M 38.644531 45.410156 " clip-rule="nonzero"/></clipPath></defs><path fill="#ffffff" d="M 161.621094 170.34375 C 155.964844 172.035156 155.464844 171.691406 154.960938 170.820312 C 154.0625 169.289062 154.988281 167.597656 157.472656 166.117188 C 158.953125 165.242188 162.574219 163.421875 163.84375 165.585938 L 172.484375 160.488281 C 169.867188 156.046875 164.476562 153.191406 157.550781 155.175781 L 154.855469 150.65625 L 146.214844 155.730469 L 148.828125 160.222656 C 143.96875 165.03125 143.625 171.375 146.292969 175.921875 C 151.078125 184.007812 159.507812 181.472656 164.527344 179.964844 C 170.820312 178.0625 171.453125 178.484375 172.351562 179.992188 C 172.90625 180.941406 172.800781 181.390625 172.75 181.550781 C 172.539062 182.34375 171.402344 183.746094 168.785156 185.304688 C 167.859375 185.832031 164.765625 187.445312 163.445312 185.226562 L 154.804688 190.324219 C 157.15625 194.289062 161.121094 196.378906 165.535156 196.378906 C 166.933594 196.378906 168.363281 196.167969 169.816406 195.742188 L 172.113281 199.65625 L 180.785156 194.554688 L 178.40625 190.535156 C 180.464844 188.554688 181.894531 186.386719 182.5 184.0625 C 183.269531 181.023438 182.765625 177.851562 180.996094 174.863281 C 175.789062 166.089844 166.933594 168.757812 161.621094 170.34375 " fill-opacity="1" fill-rule="nonzero"/><g clip-path="url(#a6e38ff7b6)"><path fill="#ffffff" d="M 271.410156 139.050781 C 268.1875 140.824219 241.414062 147.800781 207.792969 155.675781 C 202.535156 156.890625 195.664062 157.261719 192.675781 152.109375 C 191.355469 149.808594 190.984375 147.140625 191.671875 144.574219 C 192.359375 142.066406 193.917969 139.976562 196.140625 138.628906 L 205.097656 134.558594 L 236.417969 121.421875 C 238.824219 120.417969 239.960938 117.671875 238.929688 115.265625 C 237.949219 112.886719 235.175781 111.75 232.796875 112.753906 L 227.21875 115.105469 L 212.605469 90.289062 L 177.109375 111.222656 C 182.34375 94.675781 187.601562 84.765625 191.089844 83.894531 C 197.59375 82.28125 248.917969 80.667969 285.761719 79.851562 L 297.390625 121.6875 C 290.070312 126.683594 274.054688 137.519531 271.410156 139.050781 Z M 183.320312 200.132812 C 169.523438 210.941406 149.570312 208.5625 138.734375 194.738281 C 127.898438 180.941406 130.304688 160.988281 144.097656 150.179688 C 155.4375 141.273438 170.925781 141.324219 182.105469 149.28125 C 182.394531 151.898438 183.1875 154.460938 184.5625 156.8125 C 186.625 160.40625 189.714844 162.917969 193.574219 164.371094 C 198.066406 176.898438 194.367188 191.4375 183.320312 200.132812 Z M 191.433594 246.09375 C 194.472656 244.636719 197.617188 245.0625 199.996094 246.726562 L 190.828125 252.171875 C 188.578125 253.492188 187.839844 256.375 189.1875 258.59375 C 190.058594 260.074219 191.621094 260.894531 193.207031 260.894531 C 194.050781 260.894531 194.871094 260.679688 195.609375 260.230469 L 219.292969 246.199219 C 222.542969 244.53125 225.953125 245.140625 228.382812 247.042969 L 201.742188 262.847656 C 199.523438 264.171875 198.753906 267.023438 200.078125 269.269531 C 201.425781 271.492188 204.277344 272.230469 206.527344 270.910156 L 239.667969 251.246094 C 245.746094 248.179688 252.117188 252.832031 252.117188 258.882812 C 252.117188 261.710938 250.875 264.25 248.839844 265.675781 C 247.042969 266.890625 244.820312 268.425781 242.257812 270.222656 C 194.316406 303.523438 166.644531 320.4375 160.035156 320.4375 C 153.457031 320.4375 108.523438 310.871094 75.777344 303.523438 L 72.925781 260.257812 C 89.785156 255.582031 108.234375 250.847656 110.902344 250.71875 C 114.578125 250.796875 141.246094 258.144531 174.308594 268.1875 C 179.460938 269.773438 185.59375 272.890625 185.59375 278.839844 C 185.59375 284.257812 181.257812 288.671875 175.867188 288.777344 L 166.0625 287.824219 L 132.363281 283.488281 C 129.773438 283.171875 127.449219 284.996094 127.105469 287.558594 C 126.789062 290.125 128.585938 292.476562 131.175781 292.792969 L 165.003906 297.152344 L 175.207031 298.132812 C 175.363281 298.160156 175.496094 298.183594 175.65625 298.183594 C 186.308594 298.183594 194.976562 289.488281 194.976562 278.839844 C 194.976562 269.695312 188.605469 262.742188 177.03125 259.226562 C 175.601562 258.777344 174.015625 258.300781 172.324219 257.800781 Z M 336.347656 141.828125 L 316.421875 45.386719 L 278.335938 53.261719 L 283.171875 70.546875 C 258.75 71.101562 197.433594 72.6875 188.871094 74.800781 C 178.75 77.3125 170.765625 97.714844 165.191406 118.277344 L 62.75 178.695312 L 100.832031 243.238281 C 92.191406 245.273438 80.273438 248.496094 72.289062 250.691406 L 70.996094 231.371094 L 38.804688 231.292969 L 38.644531 329.792969 L 77.523438 329.847656 L 76.4375 313.277344 C 99.328125 318.402344 151.472656 329.820312 160.035156 329.820312 C 170.765625 329.820312 202.800781 309.074219 247.625 277.914062 C 250.1875 276.140625 252.382812 274.609375 254.152344 273.394531 C 258.75 270.222656 261.5 264.804688 261.5 258.882812 C 261.5 248.972656 253.4375 240.886719 243.527344 240.886719 C 241.308594 240.886719 239.113281 241.335938 236.839844 242.261719 C 233.484375 238.269531 228.566406 235.835938 223.148438 235.835938 C 220.402344 235.835938 217.679688 236.5 214.773438 237.953125 L 208.457031 241.703125 C 205.097656 238.003906 200.316406 235.835938 195.132812 235.835938 C 192.386719 235.835938 189.664062 236.5 187.046875 237.792969 C 186.941406 237.847656 186.835938 237.925781 186.703125 237.976562 L 160.246094 254.207031 C 152.503906 251.90625 143.914062 249.394531 136.089844 247.230469 L 261.527344 173.226562 L 250.691406 154.855469 C 262.980469 151.683594 273.472656 148.699219 276.089844 147.167969 C 279.945312 144.945312 298.921875 132.023438 300.058594 131.253906 L 304.816406 148.355469 L 336.347656 141.828125 " fill-opacity="1" fill-rule="nonzero"/></g></svg>