<svg xmlns="http://www.w3.org/2000/svg" xmlns:xlink="http://www.w3.org/1999/xlink" width="500" zoomAndPan="magnify" viewBox="0 0 375 374.999991" height="500" preserveAspectRatio="xMidYMid meet" version="1.0"><defs><clipPath id="5ca6889804"><path d="M 10.652344 26.582031 L 343.652344 26.582031 L 343.652344 144.332031 L 10.652344 144.332031 Z M 10.652344 26.582031 " clip-rule="nonzero"/></clipPath><clipPath id="a5d84bce8a"><path d="M 216 212 L 347 212 L 347 348.835938 L 216 348.835938 Z M 216 212 " clip-rule="nonzero"/></clipPath><clipPath id="21463f4cba"><path d="M 51 212 L 182 212 L 182 348.835938 L 51 348.835938 Z M 51 212 " clip-rule="nonzero"/></clipPath><clipPath id="8231c832aa"><path d="M 26.230469 241 L 56 241 L 56 348.835938 L 26.230469 348.835938 Z M 26.230469 241 " clip-rule="nonzero"/></clipPath></defs><g clip-path="url(#5ca6889804)"><path fill="currencolor" d="M 199.464844 111.617188 L 255.082031 111.617188 L 301.558594 144.042969 C 302.367188 144.609375 303.3125 144.890625 304.257812 144.890625 C 305.175781 144.890625 306.097656 144.625 306.898438 144.082031 C 308.511719 142.988281 309.289062 141.011719 308.847656 139.113281 L 302.464844 111.617188 L 304.964844 111.617188 C 312.914062 111.617188 319.378906 104.035156 319.378906 94.71875 L 319.378906 43.480469 C 319.378906 34.160156 312.914062 26.582031 304.964844 26.582031 L 199.464844 26.582031 C 191.519531 26.582031 185.054688 34.160156 185.054688 43.480469 L 185.054688 94.71875 C 185.054688 104.035156 191.519531 111.617188 199.464844 111.617188 Z M 194.480469 43.480469 C 194.480469 39.078125 197.105469 36.007812 199.464844 36.007812 L 304.964844 36.007812 C 307.324219 36.007812 309.949219 39.078125 309.949219 43.480469 L 309.949219 94.71875 C 309.949219 99.121094 307.324219 102.191406 304.964844 102.191406 L 296.53125 102.191406 C 295.09375 102.191406 293.738281 102.847656 292.84375 103.972656 C 291.949219 105.097656 291.617188 106.570312 291.941406 107.96875 L 296.890625 129.292969 L 259.261719 103.039062 C 258.472656 102.488281 257.53125 102.191406 256.566406 102.191406 L 199.464844 102.191406 C 197.109375 102.191406 194.480469 99.121094 194.480469 94.71875 Z M 210.285156 58.597656 C 210.285156 55.992188 212.394531 53.882812 215 53.882812 L 289.433594 53.882812 C 292.035156 53.882812 294.144531 55.992188 294.144531 58.597656 C 294.144531 61.199219 292.035156 63.308594 289.433594 63.308594 L 215 63.308594 C 212.394531 63.308594 210.285156 61.199219 210.285156 58.597656 Z M 210.285156 79.601562 C 210.285156 77 212.394531 74.886719 215 74.886719 L 289.433594 74.886719 C 292.035156 74.886719 294.144531 77 294.144531 79.601562 C 294.144531 82.203125 292.035156 84.316406 289.433594 84.316406 L 215 84.316406 C 212.394531 84.316406 210.285156 82.203125 210.285156 79.601562 Z M 48.980469 111.617188 L 51.480469 111.617188 L 45.097656 139.113281 C 44.65625 141.015625 45.433594 142.988281 47.046875 144.082031 C 47.847656 144.621094 48.769531 144.890625 49.6875 144.890625 C 50.632812 144.890625 51.578125 144.609375 52.386719 144.042969 L 98.863281 111.617188 L 154.480469 111.617188 C 162.425781 111.617188 168.890625 104.035156 168.890625 94.71875 L 168.890625 43.480469 C 168.890625 34.160156 162.425781 26.582031 154.480469 26.582031 L 48.980469 26.582031 C 41.03125 26.582031 34.566406 34.160156 34.566406 43.480469 L 34.566406 94.71875 C 34.566406 104.035156 41.03125 111.617188 48.980469 111.617188 Z M 43.996094 43.480469 C 43.996094 39.078125 46.621094 36.007812 48.980469 36.007812 L 154.480469 36.007812 C 156.839844 36.007812 159.464844 39.078125 159.464844 43.480469 L 159.464844 94.71875 C 159.464844 99.121094 156.839844 102.191406 154.480469 102.191406 L 97.378906 102.191406 C 96.414062 102.191406 95.472656 102.488281 94.683594 103.039062 L 57.054688 129.292969 L 62.003906 107.96875 C 62.328125 106.570312 61.996094 105.097656 61.101562 103.972656 C 60.210938 102.847656 58.851562 102.191406 57.414062 102.191406 L 48.980469 102.191406 C 46.621094 102.191406 43.996094 99.121094 43.996094 94.71875 Z M 66.992188 69.792969 C 66.992188 66.449219 69.703125 63.734375 73.050781 63.734375 C 76.398438 63.734375 79.109375 66.449219 79.109375 69.792969 C 79.109375 73.140625 76.398438 75.855469 73.050781 75.855469 C 69.703125 75.855469 66.992188 73.140625 66.992188 69.792969 Z M 95.667969 69.792969 C 95.667969 66.449219 98.382812 63.734375 101.730469 63.734375 C 105.078125 63.734375 107.789062 66.449219 107.789062 69.792969 C 107.789062 73.140625 105.078125 75.855469 101.730469 75.855469 C 98.382812 75.855469 95.667969 73.140625 95.667969 69.792969 Z M 124.347656 69.792969 C 124.347656 66.449219 127.0625 63.734375 130.410156 63.734375 C 133.757812 63.734375 136.46875 66.449219 136.46875 69.792969 C 136.46875 73.140625 133.757812 75.855469 130.410156 75.855469 C 127.0625 75.855469 124.347656 73.140625 124.347656 69.792969 Z M 341.753906 322.238281 L 321.128906 245.261719 C 318.539062 235.59375 312.308594 227.5 303.585938 222.460938 C 294.867188 217.429688 284.738281 216.082031 275.070312 218.671875 C 258.613281 223.082031 252.058594 237.328125 246.273438 249.898438 L 226.332031 293.167969 L 181.003906 297.792969 C 179.628906 297.933594 178.289062 298.238281 176.992188 298.667969 C 175.691406 298.234375 174.335938 297.9375 172.9375 297.792969 L 127.613281 293.167969 L 105.128906 244.382812 C 100.914062 235.234375 93.605469 222.617188 78.875 218.671875 C 69.207031 216.082031 59.078125 217.425781 50.355469 222.460938 C 41.636719 227.5 35.40625 235.59375 32.816406 245.261719 L 12.191406 322.238281 C 11.128906 326.207031 10.652344 329.804688 10.652344 333.914062 L 10.652344 354.503906 C 10.652344 357.105469 12.765625 359.21875 15.367188 359.21875 L 80.902344 359.21875 C 83.503906 359.21875 85.613281 357.105469 85.613281 354.503906 L 85.613281 338.8125 L 93.578125 309.097656 L 97.976562 318.644531 C 100.929688 325.015625 107.101562 329.167969 114.109375 329.515625 L 169.09375 335.125 C 171.835938 335.410156 174.5 335.078125 176.957031 334.25 C 178.878906 334.894531 180.890625 335.226562 182.921875 335.226562 C 183.5625 335.226562 184.203125 335.191406 184.847656 335.128906 L 213.558594 332.195312 C 211.605469 336.175781 211.042969 340.851562 212.3125 345.449219 C 214.609375 353.753906 222.179688 359.214844 230.40625 359.214844 C 232.054688 359.214844 233.730469 358.996094 235.394531 358.535156 L 268.328125 349.46875 L 268.328125 354.503906 C 268.328125 357.105469 270.441406 359.21875 273.042969 359.21875 L 338.578125 359.21875 C 341.179688 359.21875 343.289062 357.105469 343.289062 354.503906 L 343.289062 333.914062 C 343.289062 329.804688 342.816406 326.203125 341.753906 322.238281 Z M 170.054688 325.75 L 114.933594 320.121094 C 114.839844 320.113281 114.746094 320.105469 114.648438 320.101562 C 111.125 319.957031 108.015625 317.878906 106.535156 314.691406 L 96.679688 293.308594 C 95.851562 291.503906 93.976562 290.417969 92 290.585938 C 90.019531 290.753906 88.359375 292.144531 87.847656 294.058594 L 76.347656 336.972656 C 76.242188 337.371094 76.1875 337.78125 76.1875 338.195312 L 76.1875 349.789062 L 20.082031 349.789062 L 20.082031 333.914062 C 20.082031 330.621094 20.445312 327.859375 21.296875 324.675781 L 41.921875 247.703125 C 43.863281 240.46875 48.53125 234.402344 55.070312 230.625 C 61.613281 226.851562 69.199219 225.839844 76.433594 227.777344 C 84.734375 230 91.132812 236.53125 96.566406 248.328125 L 120.175781 299.554688 C 120.875 301.070312 122.320312 302.101562 123.980469 302.273438 L 171.972656 307.171875 C 177.097656 307.699219 180.835938 312.292969 180.304688 317.417969 C 179.777344 322.539062 175.171875 326.277344 170.054688 325.75 Z M 333.863281 349.789062 L 277.757812 349.789062 L 277.757812 346.871094 L 288.6875 343.863281 C 295.539062 342.355469 300.933594 337.234375 302.789062 330.453125 L 312.578125 294.359375 C 313.261719 291.847656 311.777344 289.257812 309.265625 288.578125 C 306.753906 287.894531 304.164062 289.378906 303.480469 291.890625 L 293.695312 327.976562 C 292.765625 331.375 290.042969 333.941406 286.585938 334.671875 L 286.449219 334.699219 L 232.886719 349.449219 C 227.929688 350.820312 222.769531 347.898438 221.398438 342.933594 C 220.027344 337.972656 222.949219 332.816406 227.90625 331.445312 L 277.019531 317.921875 L 292.625 260.390625 C 293.304688 257.878906 291.820312 255.289062 289.308594 254.609375 C 286.796875 253.929688 284.207031 255.410156 283.527344 257.925781 L 269.890625 308.203125 L 266.101562 294.078125 C 266.101562 294.066406 266.097656 294.054688 266.09375 294.046875 L 264.195312 286.953125 C 263.519531 284.441406 260.933594 282.949219 258.421875 283.621094 C 255.90625 284.292969 254.414062 286.878906 255.089844 289.394531 L 256.550781 294.851562 L 247.414062 314.679688 C 247.085938 315.386719 246.671875 316.039062 246.191406 316.632812 L 230.296875 321.011719 L 187.523438 325.375 C 188.667969 323.269531 189.425781 320.910156 189.683594 318.382812 C 190.113281 314.230469 189.167969 310.148438 187.015625 306.652344 L 229.964844 302.269531 C 231.625 302.101562 233.070312 301.066406 233.769531 299.554688 L 254.835938 253.835938 C 260.230469 242.113281 265.328125 231.039062 277.511719 227.773438 C 284.746094 225.835938 292.332031 226.847656 298.875 230.625 C 305.414062 234.398438 310.085938 240.464844 312.023438 247.699219 L 332.648438 324.675781 C 333.5 327.855469 333.863281 330.617188 333.863281 333.910156 Z M 258.449219 313.261719 L 260.367188 309.097656 L 261.273438 312.480469 Z M 54.675781 179.304688 C 54.675781 198.460938 70.261719 214.050781 89.421875 214.050781 C 108.582031 214.050781 124.167969 198.464844 124.167969 179.304688 C 124.167969 160.144531 108.582031 144.558594 89.421875 144.558594 C 70.261719 144.558594 54.675781 160.144531 54.675781 179.304688 Z M 114.742188 179.304688 C 114.742188 193.265625 103.382812 204.621094 89.421875 204.621094 C 75.460938 204.621094 64.105469 193.265625 64.105469 179.304688 C 64.105469 165.34375 75.460938 153.984375 89.421875 153.984375 C 103.382812 153.984375 114.742188 165.34375 114.742188 179.304688 Z M 229.777344 179.304688 C 229.777344 198.460938 245.363281 214.046875 264.523438 214.046875 C 283.683594 214.046875 299.269531 198.460938 299.269531 179.304688 C 299.269531 160.144531 283.683594 144.558594 264.523438 144.558594 C 245.363281 144.558594 229.777344 160.144531 229.777344 179.304688 Z M 289.839844 179.304688 C 289.839844 193.265625 278.484375 204.621094 264.523438 204.621094 C 250.5625 204.621094 239.203125 193.265625 239.203125 179.304688 C 239.203125 165.34375 250.5625 153.984375 264.523438 153.984375 C 278.484375 153.984375 289.839844 165.34375 289.839844 179.304688 Z M 289.839844 179.304688 " fill-opacity="1" fill-rule="nonzero"/></g><g clip-path="url(#a5d84bce8a)"><path fill="#ffffff" d="M 295.113281 269.71875 C 295.113281 281.640625 295.113281 293.371094 295.113281 305.101562 C 295.179688 351.890625 295.242188 398.683594 295.308594 445.410156 C 295.308594 454.125 289.859375 459.765625 281.589844 459.832031 C 272.808594 459.894531 267.234375 454.382812 267.234375 445.34375 C 267.167969 416.179688 267.167969 387.015625 267.105469 357.851562 C 267.105469 356.441406 267.554688 354.839844 266.015625 353.878906 C 263.964844 352.46875 261.335938 353.621094 260.886719 356.25 C 257.492188 375.609375 254.15625 394.964844 250.761719 414.320312 C 248.773438 425.796875 246.914062 437.269531 244.671875 448.679688 C 243.003906 457.074219 236.210938 461.371094 228.070312 459.765625 C 220.121094 458.164062 215.636719 451.5625 217.109375 443.230469 C 221.722656 416.820312 226.402344 390.414062 231.082031 364.007812 C 233.644531 349.585938 236.210938 335.164062 238.710938 320.742188 C 238.964844 319.394531 238.839844 318.046875 238.839844 316.703125 C 238.644531 291.511719 238.453125 266.257812 238.195312 241.070312 C 238.195312 237.605469 238.261719 234.210938 239.222656 230.878906 C 242.105469 220.492188 251.207031 213.316406 262.617188 212.289062 C 272.617188 211.390625 281.078125 213.890625 288.191406 221.648438 C 299.730469 234.210938 311.84375 246.261719 323.765625 258.566406 C 325.496094 260.296875 326.714844 262.285156 327.546875 264.59375 C 333.507812 282.089844 339.46875 299.589844 345.367188 317.152344 C 348.636719 326.894531 344.148438 334.457031 334.214844 336.378906 C 327.484375 337.664062 321.457031 334.074219 319.023438 326.957031 C 315.175781 315.996094 311.523438 304.910156 307.742188 293.949219 C 306.394531 290.039062 304.859375 286.128906 303.832031 282.089844 C 302.421875 276.769531 299.21875 272.988281 295.113281 269.71875 Z M 295.113281 269.71875 " fill-opacity="1" fill-rule="nonzero"/></g><g clip-path="url(#21463f4cba)"><path fill="#ffffff" d="M 116.542969 288.5625 C 116.925781 301.0625 117.375 313.113281 117.757812 325.164062 C 118.527344 349.839844 118.078125 374.519531 118.464844 399.257812 C 118.65625 414.578125 118.785156 429.898438 118.914062 445.214844 C 118.976562 454.0625 113.464844 459.832031 105.066406 459.832031 C 96.285156 459.894531 90.839844 454.253906 90.773438 445.28125 C 90.582031 415.089844 90.324219 384.835938 90.132812 354.648438 C 90.132812 354.457031 90.132812 354.199219 90.132812 354.007812 C 90.132812 352.726562 90.261719 351.316406 88.53125 351.1875 C 86.738281 351.058594 86.671875 352.46875 86.609375 353.75 C 86.160156 359.648438 85.648438 365.609375 85.199219 371.503906 C 83.789062 389.261719 82.378906 407.015625 80.96875 424.707031 C 80.328125 432.460938 79.941406 440.28125 79.042969 448.035156 C 78.148438 456.175781 71.867188 460.601562 63.210938 459.832031 C 56.035156 459.191406 50.84375 453.230469 51.226562 445.664062 C 51.613281 438.167969 52.253906 430.730469 52.828125 423.230469 C 53.984375 408.808594 55.199219 394.386719 56.355469 379.964844 C 57.699219 362.917969 58.984375 345.929688 60.328125 328.882812 C 61.355469 315.550781 61.097656 302.214844 60.394531 288.882812 C 59.558594 273.054688 58.277344 257.285156 57.699219 241.453125 C 57.1875 227.800781 64.75 217.738281 77.3125 214.082031 C 90.96875 210.171875 103.785156 214.660156 110.835938 225.941406 C 119.363281 239.464844 127.886719 253.054688 136.285156 266.644531 C 137.179688 268.117188 138.335938 269.078125 139.9375 269.785156 C 151.152344 274.910156 162.433594 280.039062 173.585938 285.359375 C 183.652344 290.167969 184.804688 302.984375 175.894531 309.714844 C 171.792969 312.792969 167.242188 313.304688 162.628906 311.191406 C 148.847656 304.972656 135.066406 298.5 121.347656 292.152344 C 119.554688 291.449219 118.207031 290.167969 116.542969 288.5625 Z M 116.542969 288.5625 " fill-opacity="1" fill-rule="nonzero"/></g><path fill="#ffffff" d="M 252.554688 207.351562 C 233.519531 207.417969 218.328125 192.226562 218.390625 173.316406 C 218.390625 155.308594 233.582031 140.246094 251.015625 139.539062 C 269.734375 138.835938 286.398438 153.960938 286.398438 173.316406 C 286.398438 192.289062 271.398438 207.351562 252.554688 207.351562 Z M 252.554688 207.351562 " fill-opacity="1" fill-rule="nonzero"/><path fill="#ffffff" d="M 87.121094 207.351562 C 68.339844 207.351562 53.148438 192.164062 53.214844 173.511719 C 53.277344 153.0625 70.710938 138.835938 88.660156 139.539062 C 106.09375 140.242188 121.15625 155.242188 121.15625 173.316406 C 121.21875 192.226562 106.03125 207.417969 87.121094 207.351562 Z M 87.121094 207.351562 " fill-opacity="1" fill-rule="nonzero"/><g clip-path="url(#8231c832aa)"><path fill="#ffffff" d="M 51.675781 241.453125 C 52.378906 252.734375 53.085938 263.246094 53.726562 273.820312 C 54.496094 287.21875 55.457031 300.613281 55.007812 314.074219 C 54.753906 322.277344 54.175781 330.484375 53.789062 338.6875 C 53.40625 345.800781 47.574219 351.058594 40.265625 350.996094 C 32.832031 350.929688 26.355469 345.226562 26.355469 338.238281 C 26.355469 330.738281 26.742188 323.242188 27 315.742188 C 27.382812 305.742188 27.832031 295.742188 28.214844 285.808594 C 28.34375 282.089844 29.304688 278.691406 31.292969 275.488281 C 38.023438 264.398438 44.6875 253.246094 51.675781 241.453125 Z M 51.675781 241.453125 " fill-opacity="1" fill-rule="nonzero"/></g><path fill="#ffffff" d="M 185.316406 307.921875 C 189.035156 294.71875 187.625 289.398438 178.136719 281.066406 C 183.457031 279.527344 188.585938 278.050781 193.714844 276.578125 C 200.828125 274.589844 207.878906 272.539062 214.996094 270.679688 C 216.789062 270.234375 217.8125 269.269531 218.710938 267.734375 C 223.132812 260.105469 227.621094 252.542969 232.042969 244.914062 C 233.003906 245.425781 232.621094 246.132812 232.621094 246.644531 C 232.75 261.835938 232.878906 277.027344 233.003906 292.21875 C 233.003906 293.5 233.070312 294.523438 231.339844 294.972656 C 216.148438 299.269531 201.019531 303.625 185.828125 307.921875 C 185.703125 308.113281 185.507812 307.984375 185.316406 307.921875 Z M 185.316406 307.921875 " fill-opacity="1" fill-rule="nonzero"/></svg>