<svg xmlns="http://www.w3.org/2000/svg" xmlns:xlink="http://www.w3.org/1999/xlink" width="500" zoomAndPan="magnify" viewBox="0 0 375 374.999991" height="500" preserveAspectRatio="xMidYMid meet" version="1.0"><defs><clipPath id="b6265c3051"><path d="M 37.5 122 L 162 122 L 162 247 L 37.5 247 Z M 37.5 122 " clip-rule="nonzero"/></clipPath><clipPath id="c5b3d78711"><path d="M 132 15.332031 L 291 15.332031 L 291 174 L 132 174 Z M 132 15.332031 " clip-rule="nonzero"/></clipPath><clipPath id="5aa2a2b670"><path d="M 143 165 L 341.25 165 L 341.25 364.082031 L 143 364.082031 Z M 143 165 " clip-rule="nonzero"/></clipPath></defs><g clip-path="url(#b6265c3051)"><path fill="currentcolor" d="M 94.855469 157.339844 C 109.949219 154.710938 124.320312 164.816406 126.949219 179.90625 C 129.582031 194.996094 119.476562 209.367188 104.386719 212 C 89.285156 214.632812 74.921875 204.527344 72.289062 189.4375 C 69.660156 174.34375 79.753906 159.972656 94.855469 157.339844 Z M 37.5 187.105469 L 40.339844 203.402344 L 61.832031 205.820312 C 62.609375 207.21875 63.453125 208.570312 64.371094 209.851562 L 57.410156 230.316406 L 70.953125 239.824219 L 87.84375 226.351562 C 89.371094 226.78125 90.925781 227.128906 92.5 227.390625 L 102.042969 246.785156 L 118.351562 243.941406 L 120.769531 222.460938 C 122.160156 221.683594 123.507812 220.832031 124.800781 219.910156 L 145.253906 226.875 L 154.777344 213.339844 L 141.304688 196.441406 C 141.734375 194.921875 142.070312 193.367188 142.328125 191.785156 L 161.734375 182.238281 L 158.890625 165.941406 L 137.402344 163.523438 C 136.621094 162.125 135.78125 160.777344 134.859375 159.492188 L 141.824219 139.03125 L 128.28125 129.515625 L 111.390625 142.988281 C 109.859375 142.558594 108.304688 142.214844 106.734375 141.953125 L 97.1875 122.558594 L 80.882812 125.402344 L 78.460938 146.882812 C 77.074219 147.660156 75.726562 148.507812 74.433594 149.433594 L 53.980469 142.472656 L 44.457031 156.003906 L 57.929688 172.902344 C 57.5 174.421875 57.164062 175.976562 56.902344 177.554688 L 37.5 187.105469 " fill-opacity="1" fill-rule="nonzero"/></g><g clip-path="url(#c5b3d78711)"><path fill="currentcolor" d="M 210.546875 58.921875 C 230.121094 58.386719 246.433594 73.828125 246.96875 93.40625 C 247.503906 112.984375 232.0625 129.292969 212.484375 129.828125 C 192.894531 130.363281 176.597656 114.921875 176.058594 95.34375 C 175.527344 75.769531 190.953125 59.457031 210.546875 58.921875 Z M 132.484375 85.957031 L 133.0625 107.101562 L 159.796875 114.132812 C 160.523438 116.050781 161.335938 117.914062 162.265625 119.707031 L 149.675781 144.304688 L 165.042969 158.839844 L 188.902344 144.921875 C 190.757812 145.75 192.660156 146.476562 194.601562 147.097656 L 203.085938 173.394531 L 224.238281 172.816406 L 231.273438 146.09375 C 233.175781 145.367188 235.039062 144.539062 236.847656 143.609375 L 261.429688 156.203125 L 275.980469 140.847656 L 262.0625 116.976562 C 262.890625 115.132812 263.601562 113.230469 264.222656 111.277344 L 290.535156 102.792969 L 289.957031 81.648438 L 263.21875 74.617188 C 262.492188 72.703125 261.675781 70.839844 260.75 69.042969 L 273.34375 44.449219 L 257.976562 29.910156 L 234.117188 43.828125 C 232.261719 43 230.355469 42.277344 228.417969 41.65625 L 219.933594 15.355469 L 198.777344 15.933594 L 191.742188 42.660156 C 189.839844 43.382812 187.976562 44.214844 186.171875 45.140625 L 161.585938 32.546875 L 147.039062 47.902344 L 160.957031 71.773438 C 160.128906 73.617188 159.414062 75.523438 158.792969 77.472656 L 132.484375 85.957031 " fill-opacity="1" fill-rule="nonzero"/></g><g clip-path="url(#5aa2a2b670)"><path fill="currentcolor" d="M 285.921875 271.804688 C 282.128906 295.933594 259.488281 312.421875 235.359375 308.628906 C 211.214844 304.832031 194.738281 282.191406 198.53125 258.0625 C 202.324219 233.933594 224.953125 217.441406 249.097656 221.238281 C 273.226562 225.03125 289.714844 247.675781 285.921875 271.804688 Z M 274.9375 204.125 L 270.511719 169.949219 L 244.4375 165.851562 L 229.738281 197.019531 C 227.242188 197.476562 224.769531 198.070312 222.339844 198.796875 L 195.058594 177.769531 L 173.726562 193.289062 L 185.367188 225.722656 C 183.929688 227.796875 182.625 229.96875 181.417969 232.222656 L 147.226562 236.644531 L 143.128906 262.703125 L 174.316406 277.40625 C 174.773438 279.921875 175.347656 282.390625 176.078125 284.800781 L 155.046875 312.097656 L 170.585938 333.417969 L 203.007812 321.777344 C 205.09375 323.214844 207.265625 324.535156 209.5 325.738281 L 213.925781 359.914062 L 240 364.015625 L 254.703125 332.84375 C 257.199219 332.386719 259.667969 331.792969 262.097656 331.066406 L 289.382812 352.097656 L 310.714844 336.574219 L 299.074219 304.136719 C 300.507812 302.066406 301.8125 299.894531 303.019531 297.640625 L 337.210938 293.21875 L 341.308594 267.160156 L 310.125 252.457031 C 309.667969 249.945312 309.089844 247.476562 308.363281 245.0625 L 329.394531 217.765625 L 313.851562 196.441406 L 281.433594 208.085938 C 279.347656 206.652344 277.175781 205.328125 274.9375 204.125 " fill-opacity="1" fill-rule="nonzero"/></g></svg>