<svg xmlns="http://www.w3.org/2000/svg" xmlns:xlink="http://www.w3.org/1999/xlink" width="500" zoomAndPan="magnify" viewBox="0 0 375 374.999991" height="500" preserveAspectRatio="xMidYMid meet" version="1.0"><defs><clipPath id="727cee5fa1"><path d="M 60.609375 22.171875 L 314.109375 22.171875 L 314.109375 352.921875 L 60.609375 352.921875 Z M 60.609375 22.171875 " clip-rule="nonzero"/></clipPath></defs><g clip-path="url(#727cee5fa1)"><path fill="#ffffff" d="M 131.488281 117.773438 L 97.117188 117.773438 L 97.117188 96.9375 L 118.070312 92.203125 C 119.996094 91.761719 121.546875 90.34375 122.144531 88.460938 C 123.195312 85.175781 124.546875 81.929688 126.167969 78.804688 C 127.078125 77.046875 126.988281 74.9375 125.929688 73.269531 L 114.445312 55.089844 L 129.976562 39.558594 L 148.15625 51.027344 C 149.820312 52.078125 151.914062 52.167969 153.667969 51.273438 C 156.839844 49.652344 160.09375 48.300781 163.347656 47.265625 C 165.230469 46.667969 166.652344 45.109375 167.089844 43.183594 L 171.824219 22.214844 L 193.796875 22.214844 L 198.53125 43.183594 C 198.964844 45.109375 200.390625 46.667969 202.265625 47.265625 C 205.554688 48.308594 208.804688 49.664062 211.929688 51.277344 C 213.6875 52.1875 215.796875 52.097656 217.464844 51.042969 L 235.644531 39.558594 L 251.175781 55.089844 L 239.691406 73.269531 C 238.632812 74.9375 238.542969 77.046875 239.449219 78.796875 C 241.070312 81.929688 242.425781 85.183594 243.46875 88.457031 C 244.066406 90.34375 245.617188 91.769531 247.542969 92.199219 L 268.519531 96.9375 L 268.519531 117.773438 L 222.730469 117.773438 C 223.523438 114.558594 223.925781 111.265625 223.925781 107.925781 C 223.925781 85.253906 205.480469 66.808594 182.808594 66.808594 C 160.132812 66.808594 141.695312 85.253906 141.695312 107.925781 C 141.695312 111.265625 142.09375 114.558594 142.894531 117.773438 Z M 163.074219 179.285156 L 87.28125 179.285156 L 87.28125 257.839844 C 93.296875 251.601562 101.226562 247.277344 114.085938 247.277344 L 177.238281 247.277344 L 177.238281 152.828125 L 168.257812 175.746094 C 167.421875 177.878906 165.363281 179.285156 163.074219 179.285156 Z M 304.8125 226.953125 C 301.820312 223.964844 295.929688 223.949219 290.527344 225.714844 C 290.351562 225.785156 290.164062 225.847656 289.984375 225.902344 C 286.867188 227.003906 283.953125 228.683594 281.910156 230.730469 L 224.363281 288.269531 C 219.726562 293.511719 213.089844 296.566406 205.953125 296.566406 L 163.367188 296.566406 C 160.296875 296.566406 157.796875 294.066406 157.796875 290.996094 C 157.796875 287.921875 160.296875 285.421875 163.367188 285.421875 L 205.953125 285.421875 C 209.875 285.421875 213.527344 283.738281 216.074219 280.832031 C 216.085938 280.820312 216.101562 280.796875 216.113281 280.777344 C 218.277344 278.316406 219.46875 275.171875 219.46875 271.929688 C 219.46875 264.480469 213.410156 258.417969 205.953125 258.417969 L 114.085938 258.417969 C 101.492188 258.417969 96.023438 263.402344 90.230469 271.984375 C 90.113281 272.195312 89.972656 272.394531 89.820312 272.597656 C 88.617188 274.414062 87.386719 276.386719 86.066406 278.503906 C 85.25 279.808594 84.417969 281.152344 83.546875 282.515625 L 60.582031 318.546875 L 94.808594 352.78125 L 106.832031 333.988281 C 107.839844 332.410156 109.570312 331.449219 111.441406 331.421875 L 208.191406 330.042969 L 210.085938 329.851562 C 218.359375 329.007812 224.96875 325.871094 230.886719 319.972656 L 314.355469 236.5 Z M 197.359375 175.746094 L 188.378906 152.820312 L 188.378906 247.277344 L 205.953125 247.277344 C 217.792969 247.277344 227.710938 255.664062 230.074219 266.804688 L 274.035156 222.851562 C 276.464844 220.421875 279.515625 218.371094 282.871094 216.8125 L 282.871094 179.285156 L 202.546875 179.285156 C 200.25 179.285156 198.191406 177.878906 197.359375 175.746094 Z M 206.34375 168.144531 L 301.410156 168.144531 L 286.039062 128.910156 L 190.972656 128.910156 Z M 174.644531 128.910156 L 79.597656 128.910156 L 64.210938 168.144531 L 159.273438 168.144531 Z M 174.644531 128.910156 " fill-opacity="1" fill-rule="nonzero"/></g></svg>