<svg xmlns="http://www.w3.org/2000/svg" xmlns:xlink="http://www.w3.org/1999/xlink" width="500" zoomAndPan="magnify" viewBox="0 0 375 374.999991" height="500" preserveAspectRatio="xMidYMid meet" version="1.0"><defs><clipPath id="b5ad4d27de"><path d="M 63.1875 37.5 L 306.1875 37.5 L 306.1875 331 L 63.1875 331 Z M 63.1875 37.5 " clip-rule="nonzero"/></clipPath></defs><g clip-path="url(#b5ad4d27de)"><path fill="currentcolor" d="M 288.277344 330.683594 L 81.4375 330.683594 C 80.839844 330.683594 80.242188 330.652344 79.644531 330.59375 C 79.046875 330.535156 78.457031 330.449219 77.867188 330.332031 C 77.28125 330.214844 76.699219 330.070312 76.125 329.894531 C 75.554688 329.71875 74.988281 329.519531 74.4375 329.289062 C 73.882812 329.058594 73.339844 328.804688 72.8125 328.523438 C 72.285156 328.238281 71.769531 327.933594 71.273438 327.597656 C 70.773438 327.265625 70.292969 326.910156 69.832031 326.527344 C 69.367188 326.148438 68.925781 325.746094 68.5 325.324219 C 68.078125 324.898438 67.675781 324.457031 67.292969 323.992188 C 66.914062 323.53125 66.558594 323.050781 66.226562 322.550781 C 65.890625 322.050781 65.585938 321.539062 65.300781 321.011719 C 65.019531 320.480469 64.765625 319.941406 64.535156 319.386719 C 64.304688 318.835938 64.105469 318.269531 63.929688 317.695312 C 63.753906 317.125 63.609375 316.542969 63.492188 315.957031 C 63.375 315.367188 63.289062 314.777344 63.230469 314.179688 C 63.171875 313.582031 63.140625 312.984375 63.140625 312.386719 L 63.140625 56.238281 C 63.140625 55.640625 63.171875 55.042969 63.230469 54.445312 C 63.289062 53.847656 63.375 53.257812 63.492188 52.667969 C 63.609375 52.082031 63.753906 51.5 63.929688 50.929688 C 64.105469 50.355469 64.304688 49.789062 64.535156 49.238281 C 64.765625 48.683594 65.019531 48.144531 65.300781 47.613281 C 65.585938 47.085938 65.890625 46.574219 66.226562 46.074219 C 66.558594 45.574219 66.914062 45.09375 67.292969 44.632812 C 67.675781 44.167969 68.078125 43.726562 68.5 43.300781 C 68.925781 42.878906 69.367188 42.476562 69.832031 42.097656 C 70.292969 41.714844 70.773438 41.359375 71.273438 41.027344 C 71.769531 40.691406 72.285156 40.386719 72.8125 40.101562 C 73.339844 39.820312 73.882812 39.566406 74.4375 39.335938 C 74.988281 39.105469 75.554688 38.90625 76.125 38.730469 C 76.699219 38.554688 77.28125 38.410156 77.867188 38.292969 C 78.457031 38.175781 79.046875 38.089844 79.644531 38.03125 C 80.242188 37.972656 80.839844 37.941406 81.4375 37.941406 L 288.277344 37.941406 C 288.875 37.941406 289.472656 37.972656 290.070312 38.03125 C 290.667969 38.089844 291.257812 38.175781 291.847656 38.292969 C 292.433594 38.410156 293.015625 38.554688 293.589844 38.730469 C 294.160156 38.90625 294.726562 39.105469 295.277344 39.335938 C 295.832031 39.566406 296.375 39.820312 296.902344 40.101562 C 297.429688 40.386719 297.945312 40.691406 298.441406 41.027344 C 298.941406 41.359375 299.421875 41.714844 299.882812 42.097656 C 300.347656 42.476562 300.789062 42.878906 301.214844 43.300781 C 301.636719 43.726562 302.039062 44.167969 302.421875 44.632812 C 302.800781 45.09375 303.15625 45.574219 303.488281 46.074219 C 303.824219 46.574219 304.128906 47.085938 304.414062 47.613281 C 304.695312 48.144531 304.949219 48.683594 305.179688 49.238281 C 305.410156 49.789062 305.609375 50.355469 305.785156 50.929688 C 305.960938 51.5 306.105469 52.082031 306.222656 52.667969 C 306.339844 53.257812 306.425781 53.847656 306.484375 54.445312 C 306.542969 55.042969 306.574219 55.640625 306.574219 56.238281 L 306.574219 312.386719 C 306.574219 312.984375 306.542969 313.582031 306.484375 314.179688 C 306.425781 314.777344 306.339844 315.367188 306.222656 315.957031 C 306.105469 316.542969 305.960938 317.125 305.785156 317.695312 C 305.609375 318.269531 305.410156 318.835938 305.179688 319.386719 C 304.949219 319.941406 304.695312 320.480469 304.414062 321.011719 C 304.128906 321.539062 303.824219 322.050781 303.488281 322.550781 C 303.15625 323.050781 302.800781 323.53125 302.421875 323.992188 C 302.039062 324.457031 301.636719 324.898438 301.214844 325.324219 C 300.789062 325.746094 300.347656 326.148438 299.882812 326.527344 C 299.421875 326.910156 298.941406 327.265625 298.441406 327.597656 C 297.945312 327.933594 297.429688 328.238281 296.902344 328.523438 C 296.375 328.804688 295.832031 329.058594 295.277344 329.289062 C 294.726562 329.519531 294.160156 329.71875 293.589844 329.894531 C 293.015625 330.070312 292.433594 330.214844 291.847656 330.332031 C 291.257812 330.449219 290.667969 330.535156 290.070312 330.59375 C 289.472656 330.652344 288.875 330.683594 288.277344 330.683594 Z M 81.4375 47.089844 C 80.835938 47.089844 80.242188 47.148438 79.652344 47.265625 C 79.0625 47.382812 78.492188 47.558594 77.9375 47.789062 C 77.382812 48.015625 76.855469 48.296875 76.355469 48.632812 C 75.855469 48.964844 75.394531 49.34375 74.96875 49.769531 C 74.542969 50.195312 74.164062 50.65625 73.832031 51.15625 C 73.496094 51.65625 73.214844 52.183594 72.984375 52.738281 C 72.757812 53.292969 72.582031 53.863281 72.464844 54.453125 C 72.347656 55.042969 72.289062 55.636719 72.289062 56.238281 L 72.289062 312.386719 C 72.289062 312.988281 72.347656 313.582031 72.464844 314.171875 C 72.582031 314.761719 72.757812 315.332031 72.984375 315.886719 C 73.214844 316.441406 73.496094 316.96875 73.832031 317.46875 C 74.164062 317.96875 74.542969 318.429688 74.96875 318.855469 C 75.394531 319.28125 75.855469 319.660156 76.355469 319.992188 C 76.855469 320.324219 77.382812 320.609375 77.9375 320.835938 C 78.492188 321.066406 79.0625 321.242188 79.652344 321.359375 C 80.242188 321.476562 80.835938 321.535156 81.4375 321.535156 L 288.277344 321.535156 C 288.878906 321.535156 289.472656 321.476562 290.0625 321.359375 C 290.652344 321.242188 291.222656 321.066406 291.777344 320.835938 C 292.332031 320.609375 292.859375 320.324219 293.359375 319.992188 C 293.859375 319.660156 294.320312 319.28125 294.746094 318.855469 C 295.171875 318.429688 295.550781 317.96875 295.882812 317.46875 C 296.21875 316.96875 296.5 316.441406 296.730469 315.886719 C 296.957031 315.332031 297.132812 314.761719 297.25 314.171875 C 297.367188 313.582031 297.425781 312.988281 297.425781 312.386719 L 297.425781 56.238281 C 297.425781 55.636719 297.367188 55.042969 297.25 54.453125 C 297.132812 53.863281 296.957031 53.292969 296.730469 52.738281 C 296.5 52.183594 296.21875 51.65625 295.882812 51.15625 C 295.550781 50.65625 295.171875 50.195312 294.746094 49.769531 C 294.320312 49.34375 293.859375 48.964844 293.359375 48.632812 C 292.859375 48.296875 292.332031 48.015625 291.777344 47.789062 C 291.222656 47.558594 290.652344 47.382812 290.0625 47.265625 C 289.472656 47.148438 288.878906 47.089844 288.277344 47.089844 Z M 81.4375 47.089844 " fill-opacity="1" fill-rule="nonzero"/></g><path fill="currentcolor" d="M 133.078125 133.996094 C 127.394531 133.941406 121.789062 133.234375 116.265625 131.882812 C 110.742188 130.53125 105.445312 128.566406 100.375 125.992188 C 99.988281 125.804688 99.636719 125.566406 99.320312 125.277344 C 99.003906 124.992188 98.730469 124.667969 98.503906 124.300781 C 98.277344 123.9375 98.105469 123.550781 97.988281 123.136719 C 97.871094 122.726562 97.8125 122.304688 97.8125 121.875 C 97.851562 120.398438 97.992188 118.933594 98.242188 117.476562 C 98.496094 116.023438 98.847656 114.59375 99.308594 113.1875 C 99.765625 111.785156 100.324219 110.421875 100.984375 109.097656 C 101.640625 107.777344 102.390625 106.507812 103.234375 105.296875 C 104.078125 104.082031 105.003906 102.9375 106.015625 101.859375 C 107.027344 100.78125 108.109375 99.78125 109.265625 98.863281 C 110.421875 97.941406 111.636719 97.113281 112.914062 96.371094 C 114.191406 95.628906 115.515625 94.980469 116.886719 94.433594 C 116.210938 93.4375 115.628906 92.390625 115.148438 91.289062 C 114.664062 90.1875 114.289062 89.050781 114.019531 87.878906 C 113.75 86.707031 113.59375 85.519531 113.546875 84.316406 C 113.496094 83.117188 113.5625 81.921875 113.738281 80.730469 C 113.914062 79.539062 114.199219 78.378906 114.59375 77.242188 C 114.984375 76.105469 115.480469 75.015625 116.078125 73.96875 C 116.675781 72.925781 117.363281 71.945312 118.144531 71.03125 C 118.925781 70.117188 119.78125 69.28125 120.71875 68.527344 C 121.65625 67.773438 122.652344 67.109375 123.714844 66.542969 C 124.773438 65.972656 125.875 65.507812 127.023438 65.148438 C 128.171875 64.785156 129.339844 64.53125 130.535156 64.390625 C 131.730469 64.246094 132.925781 64.214844 134.125 64.296875 C 135.324219 64.375 136.507812 64.566406 137.671875 64.867188 C 138.835938 65.171875 139.960938 65.578125 141.050781 66.089844 C 142.140625 66.601562 143.171875 67.210938 144.144531 67.914062 C 145.121094 68.617188 146.019531 69.40625 146.847656 70.28125 C 147.621094 71.058594 148.320312 71.898438 148.949219 72.796875 C 149.578125 73.695312 150.128906 74.640625 150.59375 75.632812 C 151.0625 76.625 151.441406 77.652344 151.734375 78.710938 C 152.023438 79.765625 152.226562 80.84375 152.332031 81.933594 C 152.441406 83.027344 152.453125 84.117188 152.375 85.210938 C 152.292969 86.308594 152.121094 87.386719 151.859375 88.449219 C 151.59375 89.515625 151.238281 90.550781 150.796875 91.554688 C 150.355469 92.558594 149.832031 93.519531 149.226562 94.433594 C 152.320312 95.785156 155.15625 97.554688 157.734375 99.738281 C 159.363281 101.074219 160.832031 102.570312 162.132812 104.230469 C 163.4375 105.886719 164.542969 107.667969 165.457031 109.566406 C 166.367188 111.46875 167.066406 113.445312 167.542969 115.496094 C 168.023438 117.550781 168.277344 119.632812 168.300781 121.738281 C 168.300781 122.167969 168.242188 122.589844 168.125 123 C 168.007812 123.414062 167.835938 123.800781 167.609375 124.164062 C 167.382812 124.527344 167.109375 124.855469 166.792969 125.140625 C 166.472656 125.429688 166.121094 125.667969 165.738281 125.855469 C 160.679688 128.449219 155.394531 130.4375 149.878906 131.8125 C 144.363281 133.1875 138.761719 133.914062 133.078125 133.996094 Z M 107.097656 119.179688 C 109.113281 120.128906 111.175781 120.96875 113.285156 121.691406 C 115.394531 122.414062 117.535156 123.019531 119.710938 123.507812 C 121.886719 123.996094 124.082031 124.363281 126.296875 124.605469 C 128.511719 124.851562 130.734375 124.976562 132.964844 124.976562 C 135.195312 124.976562 137.417969 124.851562 139.632812 124.605469 C 141.847656 124.363281 144.042969 123.996094 146.21875 123.507812 C 148.394531 123.019531 150.535156 122.414062 152.644531 121.691406 C 154.753906 120.96875 156.816406 120.128906 158.832031 119.179688 C 158.425781 116.769531 157.609375 114.507812 156.382812 112.398438 C 155.152344 110.285156 153.589844 108.460938 151.695312 106.917969 C 148.167969 103.992188 144.15625 102.074219 139.664062 101.15625 C 139.230469 101.046875 138.816406 100.878906 138.429688 100.652344 C 138.042969 100.421875 137.695312 100.144531 137.390625 99.8125 C 137.085938 99.480469 136.835938 99.113281 136.640625 98.707031 C 136.445312 98.304688 136.3125 97.878906 136.238281 97.433594 C 136.167969 96.988281 136.164062 96.542969 136.222656 96.097656 C 136.285156 95.652344 136.410156 95.226562 136.59375 94.816406 C 136.78125 94.40625 137.023438 94.03125 137.320312 93.695312 C 137.617188 93.355469 137.957031 93.070312 138.339844 92.832031 C 138.667969 92.632812 138.984375 92.417969 139.289062 92.183594 C 139.59375 91.949219 139.886719 91.699219 140.164062 91.433594 C 140.4375 91.167969 140.699219 90.886719 140.945312 90.589844 C 141.1875 90.292969 141.414062 89.984375 141.625 89.664062 C 141.832031 89.339844 142.023438 89.007812 142.195312 88.664062 C 142.367188 88.320312 142.519531 87.96875 142.652344 87.609375 C 142.78125 87.246094 142.894531 86.878906 142.984375 86.507812 C 143.074219 86.132812 143.140625 85.753906 143.1875 85.375 C 143.238281 84.992188 143.261719 84.609375 143.265625 84.226562 C 143.269531 83.84375 143.25 83.460938 143.210938 83.078125 C 143.171875 82.695312 143.113281 82.316406 143.027344 81.941406 C 142.945312 81.566406 142.84375 81.199219 142.71875 80.835938 C 142.59375 80.472656 142.449219 80.117188 142.285156 79.769531 C 142.121094 79.421875 141.9375 79.085938 141.734375 78.757812 C 141.53125 78.433594 141.308594 78.121094 141.070312 77.820312 C 140.832031 77.519531 140.578125 77.230469 140.304688 76.960938 C 139.605469 76.21875 138.808594 75.601562 137.921875 75.101562 C 137.03125 74.601562 136.089844 74.242188 135.09375 74.027344 C 134.097656 73.808594 133.089844 73.746094 132.074219 73.832031 C 131.058594 73.921875 130.078125 74.15625 129.132812 74.539062 C 128.1875 74.921875 127.320312 75.433594 126.527344 76.078125 C 125.738281 76.722656 125.058594 77.46875 124.492188 78.316406 C 123.929688 79.164062 123.5 80.078125 123.207031 81.054688 C 122.917969 82.03125 122.777344 83.03125 122.789062 84.050781 C 122.785156 84.933594 122.894531 85.804688 123.117188 86.664062 C 123.34375 87.519531 123.675781 88.332031 124.109375 89.105469 C 124.546875 89.875 125.078125 90.574219 125.699219 91.207031 C 126.320312 91.839844 127.011719 92.378906 127.773438 92.832031 C 128.160156 93.0625 128.507812 93.34375 128.8125 93.675781 C 129.117188 94.007812 129.367188 94.378906 129.5625 94.785156 C 129.757812 95.191406 129.890625 95.621094 129.960938 96.066406 C 130.027344 96.511719 130.03125 96.957031 129.96875 97.40625 C 129.894531 97.863281 129.757812 98.296875 129.550781 98.710938 C 129.347656 99.125 129.085938 99.5 128.765625 99.835938 C 128.449219 100.167969 128.085938 100.449219 127.683594 100.675781 C 127.28125 100.898438 126.851562 101.058594 126.402344 101.15625 C 125.242188 101.332031 124.105469 101.59375 122.984375 101.941406 C 121.867188 102.289062 120.78125 102.71875 119.726562 103.226562 C 118.671875 103.738281 117.660156 104.324219 116.695312 104.988281 C 115.726562 105.648438 114.816406 106.378906 113.960938 107.179688 C 113.105469 107.980469 112.3125 108.839844 111.585938 109.757812 C 110.859375 110.675781 110.203125 111.644531 109.621094 112.660156 C 109.039062 113.675781 108.539062 114.730469 108.117188 115.824219 C 107.691406 116.917969 107.351562 118.035156 107.097656 119.179688 Z M 163.632812 121.96875 Z M 163.632812 121.96875 " fill-opacity="1" fill-rule="nonzero"/><path fill="currentcolor" d="M 267.191406 92.558594 L 180.96875 92.558594 C 180.667969 92.558594 180.371094 92.527344 180.078125 92.46875 C 179.78125 92.410156 179.496094 92.324219 179.21875 92.207031 C 178.941406 92.09375 178.679688 91.953125 178.429688 91.785156 C 178.179688 91.621094 177.949219 91.429688 177.734375 91.21875 C 177.523438 91.003906 177.332031 90.773438 177.167969 90.523438 C 177 90.273438 176.859375 90.011719 176.742188 89.734375 C 176.628906 89.457031 176.542969 89.167969 176.484375 88.875 C 176.425781 88.582031 176.394531 88.28125 176.394531 87.984375 C 176.394531 87.683594 176.425781 87.386719 176.484375 87.089844 C 176.542969 86.796875 176.628906 86.511719 176.742188 86.234375 C 176.859375 85.953125 177 85.691406 177.167969 85.441406 C 177.332031 85.191406 177.523438 84.960938 177.734375 84.75 C 177.949219 84.535156 178.179688 84.347656 178.429688 84.179688 C 178.679688 84.011719 178.941406 83.871094 179.21875 83.757812 C 179.496094 83.640625 179.78125 83.554688 180.078125 83.496094 C 180.371094 83.4375 180.667969 83.410156 180.96875 83.410156 L 267.191406 83.410156 C 267.492188 83.410156 267.789062 83.4375 268.082031 83.496094 C 268.378906 83.554688 268.664062 83.640625 268.941406 83.757812 C 269.21875 83.871094 269.480469 84.011719 269.730469 84.179688 C 269.980469 84.347656 270.210938 84.535156 270.425781 84.75 C 270.636719 84.960938 270.828125 85.191406 270.992188 85.441406 C 271.160156 85.691406 271.300781 85.953125 271.417969 86.234375 C 271.53125 86.511719 271.617188 86.796875 271.675781 87.089844 C 271.734375 87.386719 271.765625 87.683594 271.765625 87.984375 C 271.765625 88.28125 271.734375 88.582031 271.675781 88.875 C 271.617188 89.167969 271.53125 89.457031 271.417969 89.734375 C 271.300781 90.011719 271.160156 90.273438 270.992188 90.523438 C 270.828125 90.773438 270.636719 91.003906 270.425781 91.21875 C 270.210938 91.429688 269.980469 91.621094 269.730469 91.785156 C 269.480469 91.953125 269.21875 92.09375 268.941406 92.207031 C 268.664062 92.324219 268.378906 92.410156 268.082031 92.46875 C 267.789062 92.527344 267.492188 92.558594 267.191406 92.558594 Z M 267.191406 92.558594 " fill-opacity="1" fill-rule="nonzero"/><path fill="currentcolor" d="M 224.148438 115.246094 L 180.96875 115.246094 C 180.667969 115.246094 180.371094 115.214844 180.078125 115.15625 C 179.78125 115.097656 179.496094 115.011719 179.21875 114.894531 C 178.941406 114.78125 178.679688 114.640625 178.429688 114.472656 C 178.179688 114.304688 177.949219 114.117188 177.734375 113.90625 C 177.523438 113.691406 177.332031 113.460938 177.167969 113.210938 C 177 112.960938 176.859375 112.699219 176.742188 112.421875 C 176.628906 112.144531 176.542969 111.855469 176.484375 111.5625 C 176.425781 111.269531 176.394531 110.96875 176.394531 110.671875 C 176.394531 110.371094 176.425781 110.074219 176.484375 109.777344 C 176.542969 109.484375 176.628906 109.195312 176.742188 108.917969 C 176.859375 108.640625 177 108.378906 177.167969 108.128906 C 177.332031 107.878906 177.523438 107.648438 177.734375 107.4375 C 177.949219 107.222656 178.179688 107.035156 178.429688 106.867188 C 178.679688 106.699219 178.941406 106.558594 179.21875 106.445312 C 179.496094 106.328125 179.78125 106.242188 180.078125 106.183594 C 180.371094 106.125 180.667969 106.097656 180.96875 106.097656 L 224.148438 106.097656 C 224.449219 106.097656 224.746094 106.125 225.039062 106.183594 C 225.335938 106.242188 225.621094 106.328125 225.898438 106.445312 C 226.175781 106.558594 226.441406 106.699219 226.691406 106.867188 C 226.9375 107.035156 227.171875 107.222656 227.382812 107.4375 C 227.59375 107.648438 227.785156 107.878906 227.953125 108.128906 C 228.117188 108.378906 228.257812 108.640625 228.375 108.917969 C 228.488281 109.195312 228.574219 109.484375 228.632812 109.777344 C 228.691406 110.074219 228.722656 110.371094 228.722656 110.671875 C 228.722656 110.96875 228.691406 111.269531 228.632812 111.5625 C 228.574219 111.855469 228.488281 112.144531 228.375 112.421875 C 228.257812 112.699219 228.117188 112.960938 227.953125 113.210938 C 227.785156 113.460938 227.59375 113.691406 227.382812 113.90625 C 227.171875 114.117188 226.9375 114.304688 226.691406 114.472656 C 226.441406 114.640625 226.175781 114.78125 225.898438 114.894531 C 225.621094 115.011719 225.335938 115.097656 225.039062 115.15625 C 224.746094 115.214844 224.449219 115.246094 224.148438 115.246094 Z M 224.148438 115.246094 " fill-opacity="1" fill-rule="nonzero"/><path fill="currentcolor" d="M 133.078125 219.074219 C 127.394531 219.015625 121.789062 218.3125 116.265625 216.960938 C 110.742188 215.609375 105.445312 213.644531 100.375 211.070312 C 99.652344 210.6875 99.074219 210.148438 98.640625 209.453125 C 98.207031 208.757812 97.976562 208 97.949219 207.183594 C 97.988281 205.707031 98.128906 204.238281 98.382812 202.785156 C 98.632812 201.328125 98.984375 199.898438 99.445312 198.496094 C 99.90625 197.089844 100.464844 195.726562 101.121094 194.40625 C 101.777344 193.082031 102.53125 191.8125 103.371094 190.601562 C 104.214844 189.386719 105.140625 188.242188 106.152344 187.164062 C 107.164062 186.085938 108.246094 185.089844 109.402344 184.167969 C 110.558594 183.25 111.773438 182.417969 113.050781 181.675781 C 114.328125 180.933594 115.652344 180.289062 117.023438 179.738281 C 116.046875 178.277344 115.285156 176.714844 114.734375 175.046875 C 114.1875 173.378906 113.871094 171.667969 113.785156 169.914062 C 113.703125 168.15625 113.855469 166.425781 114.242188 164.710938 C 114.628906 163 115.242188 161.367188 116.074219 159.824219 C 116.90625 158.277344 117.929688 156.867188 119.144531 155.601562 C 120.359375 154.332031 121.722656 153.25 123.230469 152.351562 C 124.742188 151.457031 126.34375 150.777344 128.039062 150.316406 C 129.734375 149.855469 131.460938 149.632812 133.214844 149.640625 C 135.800781 149.6875 138.28125 150.21875 140.65625 151.242188 C 143.035156 152.261719 145.128906 153.695312 146.9375 155.542969 C 148.738281 157.371094 150.121094 159.472656 151.085938 161.851562 C 152.054688 164.226562 152.53125 166.699219 152.519531 169.265625 C 152.5 171.113281 152.21875 172.921875 151.671875 174.6875 C 151.128906 176.457031 150.34375 178.109375 149.316406 179.648438 C 152.410156 181 155.246094 182.769531 157.824219 184.953125 C 159.460938 186.304688 160.933594 187.820312 162.234375 189.5 C 163.535156 191.175781 164.640625 192.976562 165.546875 194.898438 C 166.453125 196.820312 167.136719 198.816406 167.601562 200.886719 C 168.066406 202.960938 168.296875 205.058594 168.300781 207.183594 C 168.300781 207.613281 168.242188 208.03125 168.125 208.445312 C 168.007812 208.855469 167.835938 209.246094 167.609375 209.609375 C 167.382812 209.972656 167.109375 210.296875 166.792969 210.585938 C 166.472656 210.871094 166.121094 211.109375 165.738281 211.300781 C 160.664062 213.832031 155.371094 215.753906 149.855469 217.066406 C 144.339844 218.378906 138.75 219.050781 133.078125 219.074219 Z M 107.097656 204.164062 C 109.113281 205.117188 111.175781 205.953125 113.285156 206.675781 C 115.394531 207.402344 117.535156 208.007812 119.710938 208.492188 C 121.886719 208.980469 124.082031 209.347656 126.296875 209.59375 C 128.511719 209.839844 130.734375 209.960938 132.964844 209.960938 C 135.195312 209.960938 137.417969 209.839844 139.632812 209.59375 C 141.847656 209.347656 144.042969 208.980469 146.21875 208.492188 C 148.394531 208.007812 150.535156 207.402344 152.644531 206.675781 C 154.753906 205.953125 156.816406 205.117188 158.832031 204.164062 C 158.425781 201.753906 157.609375 199.496094 156.382812 197.382812 C 155.152344 195.273438 153.589844 193.445312 151.695312 191.90625 C 148.167969 188.980469 144.15625 187.058594 139.664062 186.140625 C 139.21875 186.046875 138.792969 185.890625 138.390625 185.667969 C 137.988281 185.445312 137.628906 185.167969 137.3125 184.839844 C 136.992188 184.507812 136.730469 184.136719 136.523438 183.730469 C 136.316406 183.320312 136.175781 182.890625 136.097656 182.4375 C 136.03125 181.992188 136.03125 181.546875 136.097656 181.101562 C 136.164062 180.660156 136.292969 180.234375 136.484375 179.828125 C 136.675781 179.417969 136.921875 179.050781 137.222656 178.714844 C 137.523438 178.378906 137.863281 178.097656 138.246094 177.863281 C 138.996094 177.414062 139.671875 176.878906 140.28125 176.253906 C 140.890625 175.632812 141.410156 174.941406 141.84375 174.183594 C 142.277344 173.425781 142.605469 172.628906 142.835938 171.789062 C 143.0625 170.945312 143.179688 170.089844 143.1875 169.21875 C 143.1875 168.546875 143.121094 167.878906 142.992188 167.21875 C 142.859375 166.558594 142.664062 165.917969 142.40625 165.296875 C 142.148438 164.675781 141.835938 164.085938 141.460938 163.527344 C 141.085938 162.964844 140.664062 162.449219 140.1875 161.972656 C 139.710938 161.496094 139.195312 161.074219 138.632812 160.699219 C 138.074219 160.324219 137.484375 160.007812 136.863281 159.753906 C 136.242188 159.496094 135.601562 159.300781 134.941406 159.167969 C 134.28125 159.039062 133.613281 158.972656 132.941406 158.972656 C 132.269531 158.972656 131.601562 159.039062 130.941406 159.167969 C 130.28125 159.300781 129.640625 159.496094 129.019531 159.753906 C 128.398438 160.007812 127.808594 160.324219 127.25 160.699219 C 126.691406 161.074219 126.171875 161.496094 125.695312 161.972656 C 125.222656 162.449219 124.796875 162.964844 124.421875 163.527344 C 124.050781 164.085938 123.734375 164.675781 123.476562 165.296875 C 123.21875 165.917969 123.023438 166.558594 122.894531 167.21875 C 122.761719 167.878906 122.695312 168.546875 122.695312 169.21875 C 122.691406 170.105469 122.804688 170.976562 123.027344 171.832031 C 123.25 172.6875 123.582031 173.503906 124.019531 174.273438 C 124.457031 175.042969 124.984375 175.746094 125.605469 176.375 C 126.226562 177.007812 126.917969 177.550781 127.683594 178 C 128.070312 178.230469 128.417969 178.511719 128.722656 178.84375 C 129.027344 179.179688 129.277344 179.546875 129.472656 179.953125 C 129.667969 180.363281 129.800781 180.789062 129.867188 181.234375 C 129.9375 181.679688 129.941406 182.128906 129.878906 182.574219 C 129.804688 183.03125 129.664062 183.464844 129.460938 183.878906 C 129.253906 184.292969 128.992188 184.667969 128.675781 185.003906 C 128.355469 185.335938 127.996094 185.617188 127.59375 185.84375 C 127.1875 186.070312 126.761719 186.230469 126.308594 186.324219 C 125.160156 186.503906 124.03125 186.761719 122.921875 187.109375 C 121.8125 187.453125 120.738281 187.878906 119.691406 188.386719 C 118.644531 188.890625 117.640625 189.472656 116.683594 190.128906 C 115.722656 190.785156 114.820312 191.507812 113.96875 192.296875 C 113.117188 193.089844 112.328125 193.9375 111.601562 194.84375 C 110.878906 195.753906 110.226562 196.710938 109.644531 197.714844 C 109.0625 198.722656 108.558594 199.765625 108.128906 200.84375 C 107.703125 201.925781 107.359375 203.03125 107.097656 204.164062 Z M 163.726562 207.183594 Z M 163.726562 207.183594 " fill-opacity="1" fill-rule="nonzero"/><path fill="currentcolor" d="M 267.191406 177.542969 L 180.96875 177.542969 C 180.667969 177.542969 180.371094 177.511719 180.078125 177.453125 C 179.78125 177.394531 179.496094 177.308594 179.21875 177.195312 C 178.941406 177.078125 178.679688 176.9375 178.429688 176.773438 C 178.179688 176.605469 177.949219 176.414062 177.734375 176.203125 C 177.523438 175.992188 177.332031 175.757812 177.167969 175.511719 C 177 175.261719 176.859375 174.996094 176.742188 174.71875 C 176.628906 174.441406 176.542969 174.15625 176.484375 173.859375 C 176.425781 173.566406 176.394531 173.269531 176.394531 172.96875 C 176.394531 172.667969 176.425781 172.371094 176.484375 172.078125 C 176.542969 171.78125 176.628906 171.496094 176.742188 171.21875 C 176.859375 170.941406 177 170.675781 177.167969 170.425781 C 177.332031 170.179688 177.523438 169.945312 177.734375 169.734375 C 177.949219 169.523438 178.179688 169.332031 178.429688 169.164062 C 178.679688 169 178.941406 168.859375 179.21875 168.742188 C 179.496094 168.628906 179.78125 168.542969 180.078125 168.484375 C 180.371094 168.425781 180.667969 168.394531 180.96875 168.394531 L 267.191406 168.394531 C 267.492188 168.394531 267.789062 168.425781 268.082031 168.484375 C 268.378906 168.542969 268.664062 168.628906 268.941406 168.742188 C 269.21875 168.859375 269.480469 169 269.730469 169.164062 C 269.980469 169.332031 270.210938 169.523438 270.425781 169.734375 C 270.636719 169.945312 270.828125 170.179688 270.992188 170.425781 C 271.160156 170.675781 271.300781 170.941406 271.417969 171.21875 C 271.53125 171.496094 271.617188 171.78125 271.675781 172.078125 C 271.734375 172.371094 271.765625 172.667969 271.765625 172.96875 C 271.765625 173.269531 271.734375 173.566406 271.675781 173.859375 C 271.617188 174.15625 271.53125 174.441406 271.417969 174.71875 C 271.300781 174.996094 271.160156 175.261719 270.992188 175.511719 C 270.828125 175.757812 270.636719 175.992188 270.425781 176.203125 C 270.210938 176.414062 269.980469 176.605469 269.730469 176.773438 C 269.480469 176.9375 269.21875 177.078125 268.941406 177.195312 C 268.664062 177.308594 268.378906 177.394531 268.082031 177.453125 C 267.789062 177.511719 267.492188 177.542969 267.191406 177.542969 Z M 267.191406 177.542969 " fill-opacity="1" fill-rule="nonzero"/><path fill="currentcolor" d="M 224.148438 200.230469 L 180.96875 200.230469 C 180.667969 200.230469 180.371094 200.199219 180.078125 200.140625 C 179.78125 200.082031 179.496094 199.996094 179.21875 199.882812 C 178.941406 199.765625 178.679688 199.625 178.429688 199.460938 C 178.179688 199.292969 177.949219 199.101562 177.734375 198.890625 C 177.523438 198.679688 177.332031 198.445312 177.167969 198.199219 C 177 197.949219 176.859375 197.683594 176.742188 197.40625 C 176.628906 197.128906 176.542969 196.84375 176.484375 196.546875 C 176.425781 196.253906 176.394531 195.957031 176.394531 195.65625 C 176.394531 195.355469 176.425781 195.058594 176.484375 194.765625 C 176.542969 194.46875 176.628906 194.183594 176.742188 193.90625 C 176.859375 193.628906 177 193.363281 177.167969 193.113281 C 177.332031 192.863281 177.523438 192.632812 177.734375 192.421875 C 177.949219 192.210938 178.179688 192.019531 178.429688 191.851562 C 178.679688 191.6875 178.941406 191.546875 179.21875 191.429688 C 179.496094 191.316406 179.78125 191.230469 180.078125 191.171875 C 180.371094 191.113281 180.667969 191.082031 180.96875 191.082031 L 224.148438 191.082031 C 224.449219 191.082031 224.746094 191.113281 225.039062 191.171875 C 225.335938 191.230469 225.621094 191.316406 225.898438 191.429688 C 226.175781 191.546875 226.441406 191.6875 226.691406 191.851562 C 226.9375 192.019531 227.171875 192.210938 227.382812 192.421875 C 227.59375 192.632812 227.785156 192.863281 227.953125 193.113281 C 228.117188 193.363281 228.257812 193.628906 228.375 193.90625 C 228.488281 194.183594 228.574219 194.46875 228.632812 194.765625 C 228.691406 195.058594 228.722656 195.355469 228.722656 195.65625 C 228.722656 195.957031 228.691406 196.253906 228.632812 196.546875 C 228.574219 196.84375 228.488281 197.128906 228.375 197.40625 C 228.257812 197.683594 228.117188 197.949219 227.953125 198.199219 C 227.785156 198.445312 227.59375 198.679688 227.382812 198.890625 C 227.171875 199.101562 226.9375 199.292969 226.691406 199.460938 C 226.441406 199.625 226.175781 199.765625 225.898438 199.882812 C 225.621094 199.996094 225.335938 200.082031 225.039062 200.140625 C 224.746094 200.199219 224.449219 200.230469 224.148438 200.230469 Z M 224.148438 200.230469 " fill-opacity="1" fill-rule="nonzero"/><path fill="currentcolor" d="M 133.078125 304.0625 C 127.394531 304.003906 121.789062 303.296875 116.265625 301.945312 C 110.742188 300.59375 105.445312 298.632812 100.375 296.058594 C 99.988281 295.867188 99.636719 295.628906 99.320312 295.34375 C 99.003906 295.054688 98.730469 294.730469 98.503906 294.367188 C 98.277344 294 98.105469 293.613281 97.988281 293.203125 C 97.871094 292.789062 97.8125 292.367188 97.8125 291.941406 C 97.851562 290.464844 97.992188 288.996094 98.242188 287.542969 C 98.496094 286.085938 98.847656 284.65625 99.308594 283.25 C 99.765625 281.847656 100.324219 280.484375 100.984375 279.160156 C 101.640625 277.839844 102.390625 276.570312 103.234375 275.359375 C 104.078125 274.144531 105.003906 273 106.015625 271.921875 C 107.027344 270.84375 108.109375 269.84375 109.265625 268.925781 C 110.421875 268.007812 111.636719 267.175781 112.914062 266.433594 C 114.191406 265.691406 115.515625 265.042969 116.886719 264.496094 C 115.941406 263.035156 115.207031 261.480469 114.679688 259.820312 C 114.15625 258.164062 113.859375 256.46875 113.792969 254.730469 C 113.722656 252.992188 113.886719 251.277344 114.28125 249.585938 C 114.675781 247.894531 115.285156 246.28125 116.117188 244.753906 C 116.945312 243.226562 117.960938 241.835938 119.164062 240.582031 C 120.367188 239.324219 121.714844 238.253906 123.207031 237.363281 C 124.699219 236.472656 126.285156 235.792969 127.957031 235.328125 C 129.632812 234.867188 131.339844 234.632812 133.078125 234.628906 C 135.664062 234.671875 138.144531 235.207031 140.519531 236.226562 C 142.894531 237.25 144.988281 238.683594 146.800781 240.527344 C 148.601562 242.355469 149.984375 244.460938 150.949219 246.835938 C 151.917969 249.214844 152.394531 251.683594 152.382812 254.25 C 152.363281 256.097656 152.082031 257.90625 151.535156 259.675781 C 150.992188 261.441406 150.207031 263.09375 149.179688 264.632812 C 152.273438 265.984375 155.109375 267.753906 157.6875 269.9375 C 159.316406 271.273438 160.785156 272.773438 162.085938 274.429688 C 163.390625 276.089844 164.496094 277.867188 165.410156 279.769531 C 166.324219 281.667969 167.019531 283.644531 167.5 285.699219 C 167.976562 287.75 168.230469 289.832031 168.253906 291.941406 C 168.253906 292.367188 168.195312 292.789062 168.078125 293.203125 C 167.960938 293.613281 167.789062 294 167.5625 294.367188 C 167.335938 294.730469 167.066406 295.054688 166.746094 295.34375 C 166.429688 295.628906 166.078125 295.867188 165.691406 296.058594 C 160.636719 298.625 155.355469 300.582031 149.847656 301.9375 C 144.339844 303.289062 138.75 303.996094 133.078125 304.0625 Z M 107.097656 289.148438 C 109.113281 290.101562 111.175781 290.9375 113.285156 291.664062 C 115.394531 292.386719 117.535156 292.992188 119.710938 293.480469 C 121.886719 293.96875 124.082031 294.332031 126.296875 294.578125 C 128.511719 294.824219 130.734375 294.945312 132.964844 294.945312 C 135.195312 294.945312 137.417969 294.824219 139.632812 294.578125 C 141.847656 294.332031 144.042969 293.96875 146.21875 293.480469 C 148.394531 292.992188 150.535156 292.386719 152.644531 291.664062 C 154.753906 290.9375 156.816406 290.101562 158.832031 289.148438 C 158.425781 286.742188 157.609375 284.480469 156.382812 282.371094 C 155.152344 280.257812 153.589844 278.433594 151.695312 276.890625 C 148.183594 274.011719 144.207031 272.121094 139.757812 271.21875 C 139.308594 271.125 138.882812 270.96875 138.480469 270.746094 C 138.082031 270.523438 137.722656 270.246094 137.402344 269.917969 C 137.085938 269.585938 136.824219 269.214844 136.617188 268.804688 C 136.410156 268.398438 136.265625 267.964844 136.1875 267.515625 C 136.125 267.070312 136.125 266.625 136.191406 266.179688 C 136.253906 265.734375 136.382812 265.308594 136.574219 264.902344 C 136.765625 264.496094 137.011719 264.125 137.3125 263.792969 C 137.613281 263.457031 137.957031 263.175781 138.339844 262.941406 C 139.085938 262.492188 139.765625 261.953125 140.375 261.332031 C 140.984375 260.707031 141.503906 260.019531 141.9375 259.261719 C 142.367188 258.503906 142.699219 257.707031 142.925781 256.863281 C 143.152344 256.023438 143.269531 255.167969 143.277344 254.296875 C 143.277344 253.621094 143.214844 252.957031 143.082031 252.296875 C 142.949219 251.636719 142.757812 250.996094 142.5 250.375 C 142.242188 249.753906 141.925781 249.164062 141.550781 248.601562 C 141.179688 248.042969 140.753906 247.527344 140.277344 247.050781 C 139.800781 246.574219 139.285156 246.148438 138.726562 245.777344 C 138.167969 245.402344 137.574219 245.085938 136.953125 244.828125 C 136.332031 244.570312 135.691406 244.378906 135.03125 244.246094 C 134.371094 244.117188 133.707031 244.050781 133.035156 244.050781 C 132.359375 244.050781 131.695312 244.117188 131.035156 244.246094 C 130.375 244.378906 129.734375 244.570312 129.113281 244.828125 C 128.492188 245.085938 127.902344 245.402344 127.339844 245.777344 C 126.78125 246.148438 126.265625 246.574219 125.789062 247.050781 C 125.3125 247.527344 124.886719 248.042969 124.515625 248.601562 C 124.140625 249.164062 123.824219 249.753906 123.566406 250.375 C 123.308594 250.996094 123.117188 251.636719 122.984375 252.296875 C 122.851562 252.957031 122.789062 253.621094 122.789062 254.296875 C 122.785156 255.179688 122.894531 256.050781 123.117188 256.910156 C 123.34375 257.765625 123.675781 258.582031 124.109375 259.351562 C 124.546875 260.121094 125.078125 260.820312 125.699219 261.453125 C 126.320312 262.085938 127.011719 262.625 127.773438 263.078125 C 128.160156 263.308594 128.507812 263.589844 128.8125 263.921875 C 129.117188 264.253906 129.367188 264.625 129.5625 265.03125 C 129.757812 265.441406 129.890625 265.867188 129.960938 266.3125 C 130.027344 266.757812 130.03125 267.203125 129.96875 267.652344 C 129.894531 268.109375 129.757812 268.542969 129.550781 268.957031 C 129.347656 269.371094 129.085938 269.746094 128.765625 270.082031 C 128.449219 270.414062 128.085938 270.695312 127.683594 270.921875 C 127.28125 271.144531 126.851562 271.308594 126.402344 271.402344 C 125.25 271.574219 124.121094 271.828125 123.011719 272.167969 C 121.898438 272.507812 120.820312 272.929688 119.769531 273.429688 C 118.722656 273.929688 117.714844 274.507812 116.753906 275.160156 C 115.792969 275.808594 114.882812 276.527344 114.027344 277.316406 C 113.171875 278.101562 112.378906 278.945312 111.648438 279.851562 C 110.921875 280.757812 110.261719 281.710938 109.675781 282.710938 C 109.089844 283.714844 108.578125 284.757812 108.148438 285.835938 C 107.714844 286.914062 107.367188 288.019531 107.097656 289.148438 Z M 163.632812 291.941406 Z M 163.632812 291.941406 " fill-opacity="1" fill-rule="nonzero"/><path fill="currentcolor" d="M 267.191406 262.527344 L 180.96875 262.527344 C 180.667969 262.527344 180.371094 262.5 180.078125 262.441406 C 179.78125 262.382812 179.496094 262.296875 179.21875 262.179688 C 178.941406 262.066406 178.679688 261.925781 178.429688 261.757812 C 178.179688 261.589844 177.949219 261.402344 177.734375 261.1875 C 177.523438 260.976562 177.332031 260.746094 177.167969 260.496094 C 177 260.246094 176.859375 259.984375 176.742188 259.707031 C 176.628906 259.425781 176.542969 259.140625 176.484375 258.847656 C 176.425781 258.550781 176.394531 258.253906 176.394531 257.953125 C 176.394531 257.65625 176.425781 257.355469 176.484375 257.0625 C 176.542969 256.769531 176.628906 256.480469 176.742188 256.203125 C 176.859375 255.925781 177 255.664062 177.167969 255.414062 C 177.332031 255.164062 177.523438 254.933594 177.734375 254.71875 C 177.949219 254.507812 178.179688 254.320312 178.429688 254.152344 C 178.679688 253.984375 178.941406 253.84375 179.21875 253.730469 C 179.496094 253.613281 179.78125 253.527344 180.078125 253.46875 C 180.371094 253.410156 180.667969 253.378906 180.96875 253.378906 L 267.191406 253.378906 C 267.492188 253.378906 267.789062 253.410156 268.082031 253.46875 C 268.378906 253.527344 268.664062 253.613281 268.941406 253.730469 C 269.21875 253.84375 269.480469 253.984375 269.730469 254.152344 C 269.980469 254.320312 270.210938 254.507812 270.425781 254.71875 C 270.636719 254.933594 270.828125 255.164062 270.992188 255.414062 C 271.160156 255.664062 271.300781 255.925781 271.417969 256.203125 C 271.53125 256.480469 271.617188 256.769531 271.675781 257.0625 C 271.734375 257.355469 271.765625 257.65625 271.765625 257.953125 C 271.765625 258.253906 271.734375 258.550781 271.675781 258.847656 C 271.617188 259.140625 271.53125 259.425781 271.417969 259.707031 C 271.300781 259.984375 271.160156 260.246094 270.992188 260.496094 C 270.828125 260.746094 270.636719 260.976562 270.425781 261.1875 C 270.210938 261.402344 269.980469 261.589844 269.730469 261.757812 C 269.480469 261.925781 269.21875 262.066406 268.941406 262.179688 C 268.664062 262.296875 268.378906 262.382812 268.082031 262.441406 C 267.789062 262.5 267.492188 262.527344 267.191406 262.527344 Z M 267.191406 262.527344 " fill-opacity="1" fill-rule="nonzero"/><path fill="currentcolor" d="M 224.148438 285.214844 L 180.96875 285.214844 C 180.667969 285.214844 180.371094 285.1875 180.078125 285.128906 C 179.78125 285.070312 179.496094 284.984375 179.21875 284.867188 C 178.941406 284.753906 178.679688 284.613281 178.429688 284.445312 C 178.179688 284.277344 177.949219 284.089844 177.734375 283.875 C 177.523438 283.664062 177.332031 283.433594 177.167969 283.183594 C 177 282.933594 176.859375 282.671875 176.742188 282.390625 C 176.628906 282.113281 176.542969 281.828125 176.484375 281.535156 C 176.425781 281.238281 176.394531 280.941406 176.394531 280.640625 C 176.394531 280.339844 176.425781 280.042969 176.484375 279.75 C 176.542969 279.457031 176.628906 279.167969 176.742188 278.890625 C 176.859375 278.613281 177 278.351562 177.167969 278.101562 C 177.332031 277.851562 177.523438 277.621094 177.734375 277.40625 C 177.949219 277.195312 178.179688 277.003906 178.429688 276.839844 C 178.679688 276.671875 178.941406 276.53125 179.21875 276.417969 C 179.496094 276.300781 179.78125 276.214844 180.078125 276.15625 C 180.371094 276.097656 180.667969 276.066406 180.96875 276.066406 L 224.148438 276.066406 C 224.449219 276.066406 224.746094 276.097656 225.039062 276.15625 C 225.335938 276.214844 225.621094 276.300781 225.898438 276.417969 C 226.175781 276.53125 226.441406 276.671875 226.691406 276.839844 C 226.9375 277.003906 227.171875 277.195312 227.382812 277.40625 C 227.59375 277.621094 227.785156 277.851562 227.953125 278.101562 C 228.117188 278.351562 228.257812 278.613281 228.375 278.890625 C 228.488281 279.167969 228.574219 279.457031 228.632812 279.75 C 228.691406 280.042969 228.722656 280.339844 228.722656 280.640625 C 228.722656 280.941406 228.691406 281.238281 228.632812 281.535156 C 228.574219 281.828125 228.488281 282.113281 228.375 282.390625 C 228.257812 282.671875 228.117188 282.933594 227.953125 283.183594 C 227.785156 283.433594 227.59375 283.664062 227.382812 283.875 C 227.171875 284.089844 226.9375 284.277344 226.691406 284.445312 C 226.441406 284.613281 226.175781 284.753906 225.898438 284.867188 C 225.621094 284.984375 225.335938 285.070312 225.039062 285.128906 C 224.746094 285.1875 224.449219 285.214844 224.148438 285.214844 Z M 224.148438 285.214844 " fill-opacity="1" fill-rule="nonzero"/></svg>