<svg xmlns="http://www.w3.org/2000/svg" xmlns:xlink="http://www.w3.org/1999/xlink" width="500" zoomAndPan="magnify" viewBox="0 0 375 374.999991" height="500" preserveAspectRatio="xMidYMid meet" version="1.0"><defs><clipPath id="c636aecc7c"><path d="M 42.15625 54.511719 L 333 54.511719 L 333 320.761719 L 42.15625 320.761719 Z M 42.15625 54.511719 " clip-rule="nonzero"/></clipPath><clipPath id="17073984ee"><path d="M 220.34375 91 L 314.09375 91 L 314.09375 170.457031 L 220.34375 170.457031 Z M 220.34375 91 " clip-rule="nonzero"/></clipPath><clipPath id="85a0d2f7f4"><path d="M 82.933594 72.179688 L 134.683594 72.179688 L 134.683594 125.429688 L 82.933594 125.429688 Z M 82.933594 72.179688 " clip-rule="nonzero"/></clipPath><clipPath id="fe7a1ecf37"><path d="M 72 196.875 L 146 196.875 L 146 260 L 72 260 Z M 72 196.875 " clip-rule="nonzero"/></clipPath><clipPath id="96af5d5684"><path d="M 64 243 L 154 243 L 154 287.625 L 64 287.625 Z M 64 243 " clip-rule="nonzero"/></clipPath><clipPath id="d435a56681"><path d="M 276 281 L 301 281 L 301 299.9375 L 276 299.9375 Z M 276 281 " clip-rule="nonzero"/></clipPath><clipPath id="c67581461d"><path d="M 233.175781 278 L 267 278 L 267 299.9375 L 233.175781 299.9375 Z M 233.175781 278 " clip-rule="nonzero"/></clipPath></defs><g clip-path="url(#c636aecc7c)"><path fill="#ffffff" d="M 231.605469 54.484375 L 300.003906 54.484375 C 309.039062 54.484375 317.242188 58.164062 323.179688 64.117188 C 329.121094 70.058594 332.8125 78.273438 332.8125 87.292969 L 332.8125 176.035156 C 332.8125 185.070312 329.136719 193.273438 323.179688 199.214844 C 317.242188 205.152344 309.023438 208.847656 300.003906 208.847656 L 231.605469 208.847656 C 222.570312 208.847656 214.367188 205.152344 208.425781 199.214844 C 202.488281 193.273438 198.792969 185.070312 198.792969 176.035156 L 198.792969 87.292969 C 198.792969 78.261719 202.488281 70.058594 208.425781 64.117188 C 214.367188 58.175781 222.570312 54.484375 231.605469 54.484375 Z M 75.035156 129.941406 L 143.433594 129.941406 C 148.707031 129.941406 153.503906 127.773438 156.976562 124.300781 C 160.453125 120.8125 162.617188 116.03125 162.617188 110.757812 L 162.617188 87.292969 C 162.617188 82.019531 160.453125 77.226562 156.976562 73.75 C 153.488281 70.261719 148.695312 68.109375 143.433594 68.109375 L 75.035156 68.109375 C 69.761719 68.109375 64.964844 70.277344 61.492188 73.75 C 58.003906 77.238281 55.851562 82.019531 55.851562 87.292969 L 55.851562 110.757812 C 55.851562 116.03125 58.015625 120.828125 61.492188 124.300781 C 64.964844 127.773438 69.761719 129.941406 75.035156 129.941406 Z M 143.433594 143.566406 L 75.035156 143.566406 C 66 143.566406 57.796875 139.875 51.859375 133.933594 C 45.917969 127.992188 42.222656 119.777344 42.222656 110.757812 L 42.222656 87.292969 C 42.222656 78.261719 45.902344 70.058594 51.859375 64.117188 C 57.796875 58.175781 66.015625 54.484375 75.035156 54.484375 L 143.433594 54.484375 C 152.46875 54.484375 160.671875 58.175781 166.609375 64.117188 C 172.550781 70.058594 176.246094 78.273438 176.246094 87.292969 L 176.246094 110.757812 C 176.246094 119.789062 172.550781 127.992188 166.609375 133.933594 C 160.671875 139.875 152.453125 143.566406 143.433594 143.566406 Z M 75.035156 306.800781 L 143.433594 306.800781 C 148.707031 306.800781 153.503906 304.632812 156.976562 301.160156 C 160.464844 297.683594 162.617188 292.886719 162.617188 287.617188 L 162.617188 198.871094 C 162.617188 193.601562 160.464844 188.804688 156.976562 185.328125 C 153.488281 181.839844 148.707031 179.6875 143.433594 179.6875 L 75.035156 179.6875 C 69.761719 179.6875 64.964844 181.855469 61.492188 185.328125 C 58.003906 188.816406 55.851562 193.601562 55.851562 198.871094 L 55.851562 287.617188 C 55.851562 292.886719 58.015625 297.683594 61.492188 301.160156 C 64.964844 304.648438 69.761719 306.800781 75.035156 306.800781 Z M 143.433594 320.425781 L 75.035156 320.425781 C 66 320.425781 57.796875 316.734375 51.859375 310.792969 C 45.917969 304.851562 42.222656 296.636719 42.222656 287.617188 L 42.222656 198.871094 C 42.222656 189.839844 45.902344 181.636719 51.859375 175.695312 C 57.796875 169.753906 66.015625 166.0625 75.035156 166.0625 L 143.433594 166.0625 C 152.46875 166.0625 160.671875 169.753906 166.609375 175.695312 C 172.550781 181.636719 176.246094 189.839844 176.246094 198.871094 L 176.246094 287.617188 C 176.246094 296.648438 172.550781 304.851562 166.609375 310.792969 C 160.671875 316.734375 152.46875 320.425781 143.433594 320.425781 Z M 231.617188 231.34375 L 300.019531 231.34375 C 309.050781 231.34375 317.253906 235.035156 323.195312 240.976562 C 329.136719 246.917969 332.828125 255.132812 332.828125 264.152344 L 332.828125 287.617188 C 332.828125 296.648438 329.136719 304.851562 323.195312 310.792969 C 317.253906 316.734375 309.039062 320.425781 300.019531 320.425781 L 231.617188 320.425781 C 222.585938 320.425781 214.382812 316.734375 208.441406 310.792969 C 202.5 304.835938 198.808594 296.636719 198.808594 287.617188 L 198.808594 264.152344 C 198.808594 255.117188 202.5 246.917969 208.441406 240.976562 C 214.382812 235.035156 222.585938 231.34375 231.617188 231.34375 Z M 300.019531 244.96875 L 231.617188 244.96875 C 226.34375 244.96875 221.546875 247.132812 218.074219 250.609375 C 214.585938 254.097656 212.433594 258.878906 212.433594 264.152344 L 212.433594 287.617188 C 212.433594 292.886719 214.601562 297.683594 218.074219 301.160156 C 221.5625 304.648438 226.34375 306.800781 231.617188 306.800781 L 300.019531 306.800781 C 305.289062 306.800781 310.085938 304.632812 313.5625 301.160156 C 317.050781 297.671875 319.203125 292.886719 319.203125 287.617188 L 319.203125 264.152344 C 319.203125 258.878906 317.035156 254.082031 313.5625 250.609375 C 310.074219 247.132812 305.289062 244.96875 300.019531 244.96875 Z M 300.019531 68.109375 L 231.617188 68.109375 C 226.34375 68.109375 221.546875 70.277344 218.074219 73.75 C 214.585938 77.226562 212.433594 82.019531 212.433594 87.292969 L 212.433594 176.035156 C 212.433594 181.308594 214.601562 186.105469 218.074219 189.582031 C 221.5625 193.066406 226.34375 195.222656 231.617188 195.222656 L 300.019531 195.222656 C 305.289062 195.222656 310.085938 193.054688 313.5625 189.582031 C 317.050781 186.09375 319.203125 181.308594 319.203125 176.035156 L 319.203125 87.292969 C 319.203125 82.019531 317.035156 77.226562 313.5625 73.75 C 310.074219 70.261719 305.289062 68.109375 300.019531 68.109375 Z M 300.019531 68.109375 " fill-opacity="1" fill-rule="nonzero"/></g><g clip-path="url(#17073984ee)"><path fill="#ffffff" d="M 408.476562 195.433594 C 408.476562 199.8125 405.472656 203.460938 401.421875 204.507812 L 401.421875 280.09375 C 401.421875 281.394531 400.367188 282.445312 399.070312 282.445312 C 397.769531 282.445312 396.71875 281.394531 396.71875 280.09375 L 396.71875 204.507812 C 395.675781 204.238281 394.691406 203.828125 393.824219 203.242188 L 365.078125 228.792969 C 365.738281 230.078125 366.144531 231.515625 366.144531 233.0625 C 366.144531 237.4375 363.140625 241.085938 359.089844 242.136719 L 359.089844 280.09375 C 359.089844 281.394531 358.039062 282.445312 356.738281 282.445312 C 355.4375 282.445312 354.386719 281.394531 354.386719 280.09375 L 354.386719 242.136719 C 352.386719 241.617188 350.660156 240.460938 349.410156 238.894531 L 323.660156 250.335938 C 323.742188 250.839844 323.816406 251.347656 323.816406 251.875 C 323.816406 256.253906 320.8125 259.898438 316.761719 260.949219 L 316.761719 280.09375 C 316.761719 281.394531 315.710938 282.445312 314.410156 282.445312 C 313.109375 282.445312 312.058594 281.394531 312.058594 280.09375 L 312.058594 260.949219 C 308.007812 259.898438 305.003906 256.253906 305.003906 251.875 C 305.003906 250.546875 305.285156 249.285156 305.78125 248.140625 L 277.796875 226.375 C 276.808594 227.136719 275.675781 227.703125 274.429688 228.027344 L 274.429688 280.09375 C 274.429688 281.394531 273.378906 282.445312 272.078125 282.445312 C 270.78125 282.445312 269.726562 281.394531 269.726562 280.09375 L 269.726562 228.027344 C 268.003906 227.578125 266.46875 226.675781 265.277344 225.421875 L 238.824219 240.117188 C 239.019531 240.875 239.15625 241.652344 239.15625 242.46875 C 239.15625 246.847656 236.152344 250.492188 232.101562 251.542969 L 232.101562 280.09375 C 232.101562 281.394531 231.050781 282.445312 229.75 282.445312 C 228.449219 282.445312 227.398438 281.394531 227.398438 280.09375 L 227.398438 251.542969 C 223.347656 250.492188 220.34375 246.847656 220.34375 242.46875 C 220.34375 237.273438 224.554688 233.0625 229.75 233.0625 C 232.433594 233.0625 234.839844 234.199219 236.550781 236 L 263.003906 221.300781 C 262.808594 220.546875 262.671875 219.769531 262.671875 218.953125 C 262.671875 213.757812 266.882812 209.542969 272.078125 209.542969 C 277.273438 209.542969 281.488281 213.757812 281.488281 218.953125 C 281.488281 220.277344 281.203125 221.539062 280.707031 222.683594 L 308.695312 244.453125 C 310.28125 243.226562 312.25 242.46875 314.410156 242.46875 C 317.390625 242.46875 320.015625 243.882812 321.738281 246.042969 L 347.488281 234.597656 C 347.40625 234.097656 347.332031 233.589844 347.332031 233.0625 C 347.332031 227.867188 351.542969 223.65625 356.738281 223.65625 C 358.683594 223.65625 360.484375 224.246094 361.984375 225.253906 L 390.730469 199.703125 C 390.070312 198.417969 389.664062 196.980469 389.664062 195.433594 C 389.664062 190.238281 393.875 186.027344 399.070312 186.027344 C 404.265625 186.027344 408.476562 190.238281 408.476562 195.433594 Z M 389.425781 127.234375 L 408.355469 127.234375 C 407.1875 108.339844 392.097656 93.25 373.199219 92.082031 L 373.199219 111.011719 C 381.691406 112.082031 388.355469 118.746094 389.425781 127.234375 Z M 345.984375 157.777344 C 352.617188 163.632812 361.304688 167.214844 370.847656 167.214844 C 390.835938 167.214844 407.136719 151.617188 408.355469 131.941406 L 389.425781 131.941406 C 388.257812 141.207031 380.433594 148.402344 370.847656 148.402344 C 366.503906 148.402344 362.554688 146.867188 359.367188 144.394531 Z M 356.042969 141.070312 C 353.566406 137.882812 352.035156 133.933594 352.035156 129.589844 C 352.035156 120.003906 359.230469 112.179688 368.496094 111.011719 L 368.496094 92.082031 C 348.816406 93.300781 333.222656 109.601562 333.222656 129.589844 C 333.222656 139.132812 336.804688 147.816406 342.660156 154.449219 Z M 229.75 110.773438 C 234.945312 110.773438 239.15625 106.5625 239.15625 101.367188 C 239.15625 96.171875 234.945312 91.960938 229.75 91.960938 C 224.554688 91.960938 220.34375 96.171875 220.34375 101.367188 C 220.34375 106.5625 224.554688 110.773438 229.75 110.773438 Z M 257.96875 103.71875 L 305.003906 103.71875 C 306.300781 103.71875 307.355469 102.667969 307.355469 101.367188 C 307.355469 100.066406 306.300781 99.015625 305.003906 99.015625 L 257.96875 99.015625 C 256.667969 99.015625 255.617188 100.066406 255.617188 101.367188 C 255.617188 102.667969 256.667969 103.71875 257.96875 103.71875 Z M 229.75 138.996094 C 234.945312 138.996094 239.15625 134.785156 239.15625 129.589844 C 239.15625 124.394531 234.945312 120.179688 229.75 120.179688 C 224.554688 120.179688 220.34375 124.394531 220.34375 129.589844 C 220.34375 134.785156 224.554688 138.996094 229.75 138.996094 Z M 257.96875 131.941406 L 305.003906 131.941406 C 306.300781 131.941406 307.355469 130.886719 307.355469 129.589844 C 307.355469 128.289062 306.300781 127.234375 305.003906 127.234375 L 257.96875 127.234375 C 256.667969 127.234375 255.617188 128.289062 255.617188 129.589844 C 255.617188 130.886719 256.667969 131.941406 257.96875 131.941406 Z M 229.75 167.214844 C 234.945312 167.214844 239.15625 163.003906 239.15625 157.808594 C 239.15625 152.613281 234.945312 148.402344 229.75 148.402344 C 224.554688 148.402344 220.34375 152.613281 220.34375 157.808594 C 220.34375 163.003906 224.554688 167.214844 229.75 167.214844 Z M 257.96875 160.160156 L 305.003906 160.160156 C 306.300781 160.160156 307.355469 159.109375 307.355469 157.808594 C 307.355469 156.507812 306.300781 155.457031 305.003906 155.457031 L 257.96875 155.457031 C 256.667969 155.457031 255.617188 156.507812 255.617188 157.808594 C 255.617188 159.109375 256.667969 160.160156 257.96875 160.160156 Z M 257.96875 160.160156 " fill-opacity="1" fill-rule="nonzero"/></g><g clip-path="url(#85a0d2f7f4)"><path fill="#ffffff" d="M 134.898438 143.222656 C 134.898438 146.199219 132.855469 148.679688 130.101562 149.394531 L 130.101562 200.792969 C 130.101562 201.675781 129.386719 202.390625 128.503906 202.390625 C 127.617188 202.390625 126.902344 201.675781 126.902344 200.792969 L 126.902344 149.394531 C 126.195312 149.210938 125.527344 148.929688 124.933594 148.53125 L 105.386719 165.90625 C 105.835938 166.78125 106.113281 167.757812 106.113281 168.808594 C 106.113281 171.785156 104.070312 174.265625 101.316406 174.980469 L 101.316406 200.792969 C 101.316406 201.675781 100.601562 202.390625 99.71875 202.390625 C 98.832031 202.390625 98.117188 201.675781 98.117188 200.792969 L 98.117188 174.980469 C 96.757812 174.628906 95.585938 173.84375 94.734375 172.773438 L 77.222656 180.558594 C 77.28125 180.898438 77.328125 181.246094 77.328125 181.601562 C 77.328125 184.578125 75.285156 187.058594 72.53125 187.773438 L 72.53125 200.792969 C 72.53125 201.675781 71.816406 202.390625 70.933594 202.390625 C 70.046875 202.390625 69.332031 201.675781 69.332031 200.792969 L 69.332031 187.773438 C 66.578125 187.058594 64.535156 184.582031 64.535156 181.601562 C 64.535156 180.699219 64.726562 179.84375 65.066406 179.0625 L 46.035156 164.261719 C 45.363281 164.78125 44.59375 165.164062 43.746094 165.386719 L 43.746094 200.792969 C 43.746094 201.675781 43.03125 202.390625 42.148438 202.390625 C 41.261719 202.390625 40.546875 201.675781 40.546875 200.792969 L 40.546875 165.386719 C 39.375 165.082031 38.332031 164.464844 37.523438 163.613281 L 19.53125 173.609375 C 19.667969 174.121094 19.757812 174.652344 19.757812 175.207031 C 19.757812 178.183594 17.714844 180.664062 14.960938 181.378906 L 14.960938 200.792969 C 14.960938 201.675781 14.246094 202.390625 13.363281 202.390625 C 12.476562 202.390625 11.761719 201.675781 11.761719 200.792969 L 11.761719 181.378906 C 9.007812 180.664062 6.964844 178.183594 6.964844 175.207031 C 6.964844 171.671875 9.828125 168.808594 13.363281 168.808594 C 15.1875 168.808594 16.824219 169.582031 17.988281 170.808594 L 35.976562 160.8125 C 35.84375 160.300781 35.75 159.769531 35.75 159.214844 C 35.75 155.679688 38.613281 152.816406 42.148438 152.816406 C 45.679688 152.816406 48.542969 155.679688 48.542969 159.214844 C 48.542969 160.117188 48.351562 160.972656 48.015625 161.753906 L 67.046875 176.554688 C 68.125 175.722656 69.460938 175.207031 70.933594 175.207031 C 72.960938 175.207031 74.742188 176.167969 75.914062 177.636719 L 93.425781 169.855469 C 93.371094 169.511719 93.320312 169.167969 93.320312 168.808594 C 93.320312 165.277344 96.183594 162.414062 99.71875 162.414062 C 101.039062 162.414062 102.265625 162.8125 103.285156 163.5 L 122.832031 146.125 C 122.382812 145.25 122.105469 144.273438 122.105469 143.222656 C 122.105469 139.691406 124.96875 136.824219 128.503906 136.824219 C 132.035156 136.824219 134.898438 139.691406 134.898438 143.222656 Z M 121.945312 96.847656 L 134.816406 96.847656 C 134.023438 83.996094 123.761719 73.734375 110.910156 72.941406 L 110.910156 85.8125 C 116.683594 86.542969 121.214844 91.074219 121.945312 96.847656 Z M 92.402344 117.613281 C 96.914062 121.597656 102.824219 124.03125 109.3125 124.03125 C 122.902344 124.03125 133.988281 113.425781 134.816406 100.042969 L 121.945312 100.042969 C 121.148438 106.347656 115.832031 111.238281 109.3125 111.238281 C 106.359375 111.238281 103.671875 110.195312 101.503906 108.515625 Z M 99.242188 106.253906 C 97.5625 104.085938 96.519531 101.398438 96.519531 98.445312 C 96.519531 91.929688 101.410156 86.609375 107.714844 85.8125 L 107.714844 72.941406 C 94.332031 73.769531 83.726562 84.855469 83.726562 98.445312 C 83.726562 104.933594 86.160156 110.84375 90.140625 115.351562 Z M 13.363281 85.652344 C 16.894531 85.652344 19.757812 82.789062 19.757812 79.253906 C 19.757812 75.722656 16.894531 72.859375 13.363281 72.859375 C 9.828125 72.859375 6.964844 75.722656 6.964844 79.253906 C 6.964844 82.789062 9.828125 85.652344 13.363281 85.652344 Z M 32.550781 80.855469 L 64.535156 80.855469 C 65.417969 80.855469 66.136719 80.140625 66.136719 79.253906 C 66.136719 78.371094 65.417969 77.65625 64.535156 77.65625 L 32.550781 77.65625 C 31.667969 77.65625 30.953125 78.371094 30.953125 79.253906 C 30.953125 80.140625 31.667969 80.855469 32.550781 80.855469 Z M 13.363281 104.84375 C 16.894531 104.84375 19.757812 101.980469 19.757812 98.445312 C 19.757812 94.914062 16.894531 92.050781 13.363281 92.050781 C 9.828125 92.050781 6.964844 94.914062 6.964844 98.445312 C 6.964844 101.980469 9.828125 104.84375 13.363281 104.84375 Z M 32.550781 100.042969 L 64.535156 100.042969 C 65.417969 100.042969 66.136719 99.328125 66.136719 98.445312 C 66.136719 97.5625 65.417969 96.847656 64.535156 96.847656 L 32.550781 96.847656 C 31.667969 96.847656 30.953125 97.5625 30.953125 98.445312 C 30.953125 99.328125 31.667969 100.042969 32.550781 100.042969 Z M 13.363281 124.03125 C 16.894531 124.03125 19.757812 121.167969 19.757812 117.636719 C 19.757812 114.101562 16.894531 111.238281 13.363281 111.238281 C 9.828125 111.238281 6.964844 114.101562 6.964844 117.636719 C 6.964844 121.167969 9.828125 124.03125 13.363281 124.03125 Z M 32.550781 119.234375 L 64.535156 119.234375 C 65.417969 119.234375 66.136719 118.519531 66.136719 117.636719 C 66.136719 116.75 65.417969 116.035156 64.535156 116.035156 L 32.550781 116.035156 C 31.667969 116.035156 30.953125 116.75 30.953125 117.636719 C 30.953125 118.519531 31.667969 119.234375 32.550781 119.234375 Z M 32.550781 119.234375 " fill-opacity="1" fill-rule="nonzero"/></g><path fill="#ffffff" d="M 106.261719 220.757812 L 118.171875 220.757812 C 119.84375 220.757812 121.195312 219.40625 121.195312 217.738281 C 121.195312 216.066406 119.84375 214.714844 118.171875 214.714844 L 113.035156 214.714844 L 113.035156 211.976562 C 113.035156 210.308594 111.683594 208.957031 110.015625 208.957031 C 108.347656 208.957031 106.992188 210.308594 106.992188 211.976562 L 106.992188 214.714844 L 106.261719 214.714844 C 101.109375 214.714844 96.914062 218.910156 96.914062 224.0625 C 96.914062 229.21875 101.109375 233.414062 106.261719 233.414062 L 111.847656 233.414062 C 113.667969 233.414062 115.152344 234.894531 115.152344 236.714844 C 115.152344 238.515625 113.667969 239.980469 111.847656 239.980469 L 99.9375 239.980469 C 98.269531 239.980469 96.914062 241.328125 96.914062 243 C 96.914062 244.667969 98.269531 246.019531 99.9375 246.019531 L 106.992188 246.019531 L 106.992188 248.757812 C 106.992188 250.425781 108.347656 251.777344 110.015625 251.777344 C 111.683594 251.777344 113.035156 250.425781 113.035156 248.757812 L 113.035156 245.902344 C 117.625 245.3125 121.195312 241.441406 121.195312 236.714844 C 121.195312 231.5625 117 227.371094 111.847656 227.371094 L 106.261719 227.371094 C 104.4375 227.371094 102.957031 225.886719 102.957031 224.0625 C 102.957031 222.242188 104.4375 220.757812 106.261719 220.757812 Z M 106.261719 220.757812 " fill-opacity="1" fill-rule="nonzero"/><g clip-path="url(#fe7a1ecf37)"><path fill="#ffffff" d="M 85.882812 259.710938 C 86.667969 259.710938 87.449219 259.40625 88.042969 258.800781 C 89.210938 257.609375 89.191406 255.699219 88 254.53125 C 82.164062 248.820312 78.953125 241.179688 78.953125 233.015625 C 78.953125 216.417969 92.457031 202.917969 109.054688 202.917969 C 125.652344 202.917969 139.15625 216.417969 139.15625 233.015625 C 139.15625 234.300781 139.074219 235.582031 138.917969 236.835938 C 138.707031 238.488281 139.878906 240.003906 141.53125 240.210938 C 143.210938 240.402344 144.703125 239.25 144.910156 237.59375 C 145.097656 236.09375 145.195312 234.554688 145.195312 233.015625 C 145.195312 213.085938 128.984375 196.875 109.054688 196.875 C 89.125 196.875 72.910156 213.085938 72.910156 233.015625 C 72.910156 242.816406 76.769531 251.992188 83.769531 258.847656 C 84.359375 259.425781 85.121094 259.710938 85.882812 259.710938 Z M 85.882812 259.710938 " fill-opacity="1" fill-rule="nonzero"/></g><g clip-path="url(#96af5d5684)"><path fill="#ffffff" d="M 153.382812 247.417969 C 153.367188 247.292969 153.390625 247.164062 153.359375 247.042969 C 153.328125 246.929688 153.246094 246.832031 153.203125 246.722656 C 153.097656 246.445312 153.007812 246.160156 152.820312 245.921875 C 152.378906 245.355469 151.738281 245.035156 151.050781 244.886719 C 150.957031 244.867188 150.871094 244.824219 150.777344 244.8125 C 150.710938 244.804688 150.652344 244.765625 150.582031 244.761719 L 129.0625 243.726562 C 127.445312 243.648438 125.984375 244.933594 125.902344 246.597656 C 125.820312 248.265625 127.109375 249.679688 128.773438 249.761719 L 142.160156 250.40625 L 114.445312 271.90625 L 103.023438 256.597656 C 102.535156 255.941406 101.800781 255.511719 100.992188 255.40625 C 100.175781 255.296875 99.363281 255.527344 98.726562 256.03125 L 65.796875 282.105469 C 64.488281 283.140625 64.265625 285.042969 65.300781 286.351562 C 65.898438 287.105469 66.78125 287.496094 67.671875 287.496094 C 68.328125 287.496094 68.992188 287.285156 69.546875 286.84375 L 100.039062 262.699219 L 111.441406 277.984375 C 111.925781 278.636719 112.652344 279.066406 113.457031 279.175781 C 114.253906 279.277344 115.074219 279.0625 115.714844 278.566406 L 145.886719 255.164062 L 143.261719 268.316406 C 142.933594 269.949219 143.996094 271.542969 145.632812 271.867188 C 145.832031 271.910156 146.03125 271.925781 146.226562 271.925781 C 147.636719 271.925781 148.898438 270.933594 149.183594 269.496094 L 153.402344 248.367188 C 153.40625 248.34375 153.394531 248.320312 153.398438 248.296875 C 153.449219 248.003906 153.421875 247.710938 153.382812 247.417969 Z M 153.382812 247.417969 " fill-opacity="1" fill-rule="nonzero"/></g><path fill="#ffffff" d="M 249.542969 264.121094 C 252.738281 261.628906 258.175781 258.792969 265.910156 259.425781 C 268.820312 259.664062 271.402344 259.492188 273.902344 259.324219 C 281.136719 258.84375 286.894531 258.460938 293.265625 268.863281 C 295.710938 265.730469 296.785156 262.261719 296.46875 258.503906 C 291.882812 253.558594 283.496094 250.773438 271.476562 250.214844 C 263.253906 249.683594 256.328125 250.234375 250.871094 251.859375 C 246.410156 253.1875 242.917969 255.238281 240.46875 257.957031 C 240.128906 262.101562 241.601562 265.808594 244.867188 269.019531 C 246.179688 267.152344 247.738281 265.519531 249.542969 264.121094 Z M 254.277344 253.4375 C 259.167969 252.496094 264.980469 252.234375 271.558594 252.664062 C 271.757812 252.675781 271.921875 252.757812 272.050781 252.90625 C 272.183594 253.054688 272.242188 253.230469 272.226562 253.425781 C 272.214844 253.625 272.132812 253.789062 271.984375 253.921875 C 271.835938 254.050781 271.664062 254.109375 271.464844 254.097656 C 265.007812 253.679688 259.320312 253.929688 254.550781 254.847656 C 254.503906 254.859375 254.460938 254.863281 254.414062 254.863281 C 254.230469 254.863281 254.066406 254.800781 253.929688 254.675781 C 253.792969 254.550781 253.714844 254.394531 253.699219 254.210938 C 253.679688 254.027344 253.726562 253.859375 253.839844 253.710938 C 253.949219 253.5625 254.097656 253.472656 254.277344 253.4375 Z M 249.570312 254.640625 C 250.058594 254.480469 250.570312 254.328125 251.082031 254.183594 C 251.273438 254.128906 251.457031 254.148438 251.632812 254.246094 C 251.808594 254.34375 251.921875 254.488281 251.976562 254.679688 C 252.03125 254.875 252.007812 255.058594 251.90625 255.230469 C 251.808594 255.40625 251.660156 255.515625 251.46875 255.570312 C 250.976562 255.707031 250.488281 255.855469 250.015625 256.007812 C 249.828125 256.0625 249.648438 256.046875 249.476562 255.957031 C 249.304688 255.867188 249.1875 255.730469 249.125 255.542969 C 249.066406 255.359375 249.078125 255.179688 249.164062 255.003906 C 249.25 254.828125 249.386719 254.707031 249.570312 254.640625 Z M 249.570312 254.640625 " fill-opacity="1" fill-rule="nonzero"/><path fill="#ffffff" d="M 289.167969 274.660156 C 286.277344 276.703125 283.167969 278.3125 279.832031 279.492188 C 279.820312 279.527344 279.808594 279.5625 279.796875 279.597656 C 280.558594 280.507812 283.066406 283.21875 286.921875 284.5625 C 287.378906 284.71875 287.8125 284.867188 288.230469 285.011719 C 289.609375 284.605469 297.574219 282.054688 299.171875 277.007812 C 301.292969 270.320312 300.875 264.722656 297.945312 260.367188 C 297.726562 265.761719 294.726562 270.667969 289.167969 274.660156 Z M 289.167969 274.660156 " fill-opacity="1" fill-rule="nonzero"/><path fill="#ffffff" d="M 278.402344 277.234375 C 276.550781 272.980469 265.171875 275.882812 260.023438 277.449219 L 274.246094 286.4375 C 274.375 286.519531 274.515625 286.539062 274.664062 286.5 C 274.8125 286.457031 274.917969 286.367188 274.988281 286.230469 L 278.324219 279.394531 C 278.683594 278.6875 278.707031 277.964844 278.402344 277.234375 Z M 278.402344 277.234375 " fill-opacity="1" fill-rule="nonzero"/><path fill="#ffffff" d="M 247.367188 285.152344 C 252.949219 282.132812 256.800781 279.105469 258.257812 277.890625 C 256.671875 277.441406 252.566406 276.132812 248.519531 273.632812 C 242.539062 269.945312 239.289062 265.214844 239.003906 259.851562 C 237.578125 262.019531 236.699219 264.523438 236.394531 267.316406 C 236.066406 270.363281 236.410156 273.679688 237.425781 277.175781 C 238.632812 281.328125 245.828125 284.511719 247.367188 285.152344 Z M 247.367188 285.152344 " fill-opacity="1" fill-rule="nonzero"/><g clip-path="url(#d435a56681)"><path fill="#ffffff" d="M 300.382812 292.433594 C 295.296875 288.925781 292.734375 288.058594 288.496094 286.621094 C 287.851562 286.402344 287.175781 286.171875 286.449219 285.921875 C 282.792969 284.648438 280.292969 282.304688 279.128906 281.023438 L 276.503906 286.398438 C 276.535156 287.460938 276.457031 288.511719 276.257812 289.554688 C 277.246094 290.316406 280.191406 292.554688 283.65625 294.746094 C 289.191406 298.25 293.519531 300.054688 296.160156 299.96875 C 296.527344 299.957031 296.8125 299.792969 297.011719 299.484375 L 300.675781 293.90625 C 300.753906 293.785156 300.808594 293.660156 300.832031 293.519531 C 300.859375 293.382812 300.859375 293.246094 300.832031 293.109375 C 300.804688 292.96875 300.753906 292.84375 300.675781 292.726562 C 300.597656 292.609375 300.5 292.511719 300.382812 292.433594 Z M 300.382812 292.433594 " fill-opacity="1" fill-rule="nonzero"/></g><path fill="#ffffff" d="M 273.476562 287.652344 L 267.269531 283.726562 C 266.457031 284.773438 264.4375 287.1875 261.0625 290.058594 C 260.667969 290.394531 260.246094 290.742188 259.796875 291.101562 C 261.179688 291.792969 262.605469 292.382812 264.074219 292.871094 C 266.644531 293.710938 270.195312 294.421875 272.507812 293.03125 C 274 292.132812 274.847656 290.402344 275.03125 287.886719 C 274.480469 288.039062 273.960938 287.960938 273.480469 287.652344 Z M 273.476562 287.652344 " fill-opacity="1" fill-rule="nonzero"/><g clip-path="url(#c67581461d)"><path fill="#ffffff" d="M 238.816406 299.859375 C 238.949219 300.011719 239.113281 300.113281 239.308594 300.167969 C 239.503906 300.21875 239.695312 300.214844 239.890625 300.152344 C 255.726562 294.964844 264.082031 285.429688 266.046875 282.953125 L 259.441406 278.78125 C 255.277344 282.378906 245.679688 288.882812 234.007812 292.160156 C 233.648438 292.253906 233.414062 292.484375 233.3125 292.84375 C 233.203125 293.195312 233.269531 293.507812 233.515625 293.785156 Z M 238.816406 299.859375 " fill-opacity="1" fill-rule="nonzero"/></g></svg>