<svg xmlns="http://www.w3.org/2000/svg" xmlns:xlink="http://www.w3.org/1999/xlink" width="500" zoomAndPan="magnify" viewBox="0 0 375 374.999991" height="500" preserveAspectRatio="xMidYMid meet" version="1.0"><defs><clipPath id="f65d688de9"><path d="M 31.410156 39 L 343.410156 39 L 343.410156 336 L 31.410156 336 Z M 31.410156 39 " clip-rule="nonzero"/></clipPath></defs><g clip-path="url(#f65d688de9)"><path fill="#ffffff" d="M 343.585938 188.785156 C 343.585938 157.808594 318.378906 132.601562 287.398438 132.601562 C 256.421875 132.601562 231.214844 157.808594 231.214844 188.785156 C 231.214844 205.640625 238.683594 220.769531 250.472656 231.078125 L 221.027344 251.007812 C 215.699219 246.015625 209.300781 242.164062 202.175781 239.929688 C 202.140625 239.917969 202.105469 239.902344 202.066406 239.890625 C 198.222656 238.695312 194.15625 238.019531 189.972656 237.808594 L 189.972656 151.394531 C 198.652344 151.015625 206.828125 148.660156 214.054688 144.765625 C 214.113281 144.742188 214.160156 144.710938 214.214844 144.683594 C 231.75 135.167969 243.679688 116.585938 243.679688 95.273438 C 243.679688 64.296875 218.476562 39.089844 187.496094 39.089844 C 156.515625 39.089844 131.3125 64.296875 131.3125 95.273438 C 131.3125 116.585938 143.242188 135.167969 160.773438 144.683594 C 160.828125 144.710938 160.878906 144.746094 160.9375 144.769531 C 168.167969 148.664062 176.339844 151.015625 185.015625 151.394531 L 185.015625 237.808594 C 180.832031 238.019531 176.769531 238.691406 172.921875 239.890625 C 172.886719 239.898438 172.851562 239.914062 172.8125 239.925781 C 165.6875 242.164062 159.289062 246.015625 153.964844 251.003906 L 124.519531 231.074219 C 136.308594 220.765625 143.773438 205.636719 143.773438 188.785156 C 143.773438 157.804688 118.570312 132.601562 87.589844 132.601562 C 56.609375 132.601562 31.410156 157.808594 31.410156 188.785156 C 31.410156 210.105469 43.339844 228.683594 60.875 238.203125 C 60.925781 238.230469 60.972656 238.257812 61.027344 238.28125 C 68.941406 242.546875 77.988281 244.96875 87.589844 244.96875 C 97.191406 244.96875 106.238281 242.546875 114.152344 238.28125 C 114.207031 238.257812 114.253906 238.230469 114.304688 238.203125 C 116.445312 237.039062 118.496094 235.730469 120.457031 234.3125 L 150.46875 254.625 C 148.46875 256.925781 146.683594 259.410156 145.128906 262.054688 C 144.984375 262.246094 144.847656 262.4375 144.761719 262.664062 C 140.710938 269.804688 138.367188 278.03125 138.367188 286.808594 C 138.367188 295.585938 140.710938 303.816406 144.757812 310.953125 C 144.847656 311.1875 144.984375 311.386719 145.136719 311.578125 C 151.265625 322.019531 161.101562 330.035156 172.863281 333.707031 C 172.921875 333.726562 172.976562 333.742188 173.035156 333.753906 C 177.609375 335.164062 182.460938 335.933594 187.488281 335.933594 C 192.519531 335.933594 197.371094 335.167969 201.941406 333.753906 C 202.003906 333.738281 202.058594 333.726562 202.113281 333.707031 C 213.863281 330.035156 223.6875 322.035156 229.816406 311.613281 C 229.984375 311.410156 230.128906 311.195312 230.226562 310.945312 C 234.273438 303.808594 236.613281 295.582031 236.613281 286.808594 C 236.613281 278.035156 234.273438 269.808594 230.226562 262.671875 C 230.132812 262.429688 229.988281 262.21875 229.832031 262.019531 C 228.285156 259.390625 226.507812 256.914062 224.515625 254.625 L 254.523438 234.316406 C 256.488281 235.738281 258.535156 237.042969 260.679688 238.203125 C 260.730469 238.230469 260.777344 238.257812 260.832031 238.28125 C 268.742188 242.546875 277.789062 244.972656 287.390625 244.972656 C 296.996094 244.972656 306.042969 242.546875 313.953125 238.285156 C 314.007812 238.261719 314.054688 238.230469 314.109375 238.203125 C 331.652344 228.683594 343.585938 210.101562 343.585938 188.785156 Z M 36.363281 188.785156 C 36.363281 160.539062 59.34375 137.558594 87.59375 137.558594 C 115.84375 137.558594 138.820312 160.535156 138.820312 188.785156 C 138.820312 206.765625 129.496094 222.574219 115.449219 231.71875 C 114.746094 222.257812 111.925781 199.566406 100.871094 189.160156 C 105.679688 185.277344 108.761719 179.34375 108.761719 172.695312 C 108.761719 161.023438 99.265625 151.527344 87.59375 151.527344 C 75.921875 151.527344 66.425781 161.023438 66.425781 172.695312 C 66.425781 179.34375 69.511719 185.277344 74.316406 189.160156 C 63.261719 199.5625 60.441406 222.257812 59.738281 231.71875 C 45.6875 222.574219 36.363281 206.761719 36.363281 188.785156 Z M 71.378906 172.699219 C 71.378906 163.761719 78.652344 156.484375 87.59375 156.484375 C 96.53125 156.484375 103.804688 163.761719 103.804688 172.699219 C 103.804688 181.636719 96.53125 188.914062 87.59375 188.914062 C 78.652344 188.914062 71.378906 181.636719 71.378906 172.699219 Z M 64.535156 234.46875 C 64.90625 227.695312 67.105469 201.203125 78.714844 191.890625 C 81.417969 193.148438 84.417969 193.867188 87.59375 193.867188 C 90.765625 193.867188 93.765625 193.148438 96.46875 191.890625 C 108.078125 201.203125 110.277344 227.695312 110.652344 234.46875 C 103.710938 237.988281 95.890625 240.015625 87.59375 240.015625 C 79.292969 240.015625 71.472656 237.988281 64.535156 234.46875 Z M 226.445312 307.597656 L 213.0625 307.597656 C 214.515625 301.5 215.328125 295.398438 215.496094 289.289062 L 231.539062 289.289062 C 231.171875 295.871094 229.398438 302.085938 226.445312 307.597656 Z M 189.972656 330.851562 L 189.972656 312.550781 L 206.558594 312.550781 C 204.824219 318.125 202.535156 323.683594 199.671875 329.230469 C 196.5625 330.125 193.320312 330.664062 189.972656 330.851562 Z M 175.320312 329.234375 C 172.457031 323.6875 170.167969 318.125 168.433594 312.554688 L 185.019531 312.554688 L 185.019531 330.855469 C 181.675781 330.664062 178.429688 330.125 175.320312 329.234375 Z M 143.453125 289.289062 L 159.496094 289.289062 C 159.667969 295.394531 160.476562 301.5 161.929688 307.597656 L 148.546875 307.597656 C 145.59375 302.085938 143.820312 295.871094 143.453125 289.289062 Z M 148.542969 266.019531 L 161.933594 266.019531 C 160.476562 272.121094 159.667969 278.226562 159.496094 284.332031 L 143.453125 284.332031 C 143.820312 277.746094 145.59375 271.53125 148.542969 266.019531 Z M 168.527344 246.980469 C 166.378906 251.667969 164.648438 256.363281 163.261719 261.066406 L 151.679688 261.066406 C 156.003906 255.0625 161.792969 250.199219 168.527344 246.980469 Z M 185.019531 242.761719 L 185.019531 261.066406 L 168.4375 261.066406 C 170.171875 255.492188 172.460938 249.929688 175.324219 244.382812 C 178.429688 243.492188 181.675781 242.953125 185.019531 242.761719 Z M 199.667969 244.382812 C 202.53125 249.933594 204.820312 255.496094 206.554688 261.066406 L 189.972656 261.066406 L 189.972656 242.761719 C 193.320312 242.953125 196.5625 243.492188 199.667969 244.382812 Z M 189.972656 266.019531 L 207.957031 266.019531 C 209.488281 272.117188 210.324219 278.226562 210.507812 284.332031 L 189.972656 284.332031 Z M 185.019531 284.332031 L 164.480469 284.332031 C 164.664062 278.226562 165.503906 272.121094 167.035156 266.019531 L 185.019531 266.019531 Z M 164.480469 289.289062 L 185.019531 289.289062 L 185.019531 307.597656 L 167.035156 307.597656 C 165.503906 301.5 164.664062 295.394531 164.480469 289.289062 Z M 189.972656 307.597656 L 189.972656 289.289062 L 210.511719 289.289062 C 210.328125 295.394531 209.492188 301.5 207.960938 307.597656 Z M 215.496094 284.332031 C 215.324219 278.226562 214.511719 272.121094 213.058594 266.019531 L 226.445312 266.019531 C 229.398438 271.53125 231.171875 277.746094 231.539062 284.332031 Z M 211.734375 261.066406 C 210.34375 256.363281 208.617188 251.667969 206.46875 246.980469 C 213.199219 250.199219 218.988281 255.0625 223.316406 261.066406 Z M 164.4375 140.957031 C 164.808594 134.179688 166.996094 107.695312 178.621094 98.378906 C 181.324219 99.636719 184.324219 100.355469 187.496094 100.355469 C 190.667969 100.355469 193.667969 99.636719 196.375 98.378906 C 207.984375 107.6875 210.179688 134.179688 210.554688 140.957031 C 203.617188 144.476562 195.796875 146.5 187.496094 146.5 C 179.195312 146.503906 171.378906 144.476562 164.4375 140.957031 Z M 187.496094 95.402344 C 178.558594 95.402344 171.28125 88.128906 171.28125 79.1875 C 171.28125 70.25 178.558594 62.976562 187.496094 62.976562 C 196.433594 62.976562 203.710938 70.25 203.710938 79.1875 C 203.710938 88.128906 196.433594 95.402344 187.496094 95.402344 Z M 136.265625 95.273438 C 136.265625 67.027344 159.25 44.046875 187.496094 44.046875 C 215.742188 44.046875 238.726562 67.027344 238.726562 95.273438 C 238.726562 113.25 229.398438 129.0625 215.351562 138.210938 C 214.648438 128.746094 211.832031 106.050781 200.777344 95.648438 C 205.582031 91.765625 208.664062 85.832031 208.664062 79.183594 C 208.664062 67.511719 199.167969 58.015625 187.496094 58.015625 C 175.824219 58.015625 166.328125 67.511719 166.328125 79.183594 C 166.328125 85.832031 169.414062 91.765625 174.214844 95.648438 C 163.160156 106.050781 160.34375 128.746094 159.640625 138.207031 C 145.59375 129.0625 136.265625 113.25 136.265625 95.273438 Z M 151.679688 312.554688 L 163.253906 312.554688 C 164.644531 317.253906 166.371094 321.953125 168.523438 326.636719 C 161.792969 323.414062 156.003906 318.554688 151.679688 312.554688 Z M 206.46875 326.632812 C 208.621094 321.949219 210.347656 317.253906 211.738281 312.550781 L 223.316406 312.550781 C 218.988281 318.554688 213.199219 323.414062 206.46875 326.632812 Z M 236.171875 188.785156 C 236.171875 160.539062 259.152344 137.558594 287.398438 137.558594 C 315.648438 137.558594 338.628906 160.539062 338.628906 188.785156 C 338.628906 206.765625 329.304688 222.574219 315.253906 231.71875 C 314.550781 222.257812 311.734375 199.5625 300.679688 189.160156 C 305.484375 185.277344 308.570312 179.34375 308.570312 172.695312 C 308.570312 161.023438 299.070312 151.527344 287.398438 151.527344 C 275.726562 151.527344 266.230469 161.023438 266.230469 172.695312 C 266.230469 179.34375 269.316406 185.277344 274.121094 189.160156 C 263.066406 199.566406 260.25 222.257812 259.546875 231.71875 C 245.5 222.574219 236.171875 206.761719 236.171875 188.785156 Z M 271.1875 172.699219 C 271.1875 163.761719 278.460938 156.484375 287.398438 156.484375 C 296.339844 156.484375 303.613281 163.761719 303.613281 172.699219 C 303.613281 181.636719 296.339844 188.914062 287.398438 188.914062 C 278.460938 188.914062 271.1875 181.636719 271.1875 172.699219 Z M 264.339844 234.46875 C 264.710938 227.695312 266.898438 201.210938 278.523438 191.890625 C 281.226562 193.148438 284.230469 193.867188 287.398438 193.867188 C 290.570312 193.867188 293.574219 193.148438 296.277344 191.890625 C 307.886719 201.203125 310.085938 227.695312 310.457031 234.46875 C 303.519531 237.988281 295.699219 240.015625 287.398438 240.015625 C 279.101562 240.015625 271.28125 237.988281 264.339844 234.46875 Z M 264.339844 234.46875 " fill-opacity="1" fill-rule="nonzero"/></g></svg>