<svg xmlns="http://www.w3.org/2000/svg" xmlns:xlink="http://www.w3.org/1999/xlink" width="500" zoomAndPan="magnify" viewBox="0 0 375 374.999991" height="500" preserveAspectRatio="xMidYMid meet" version="1.0"><defs><clipPath id="0c8e9aca49"><path d="M 30.011719 30.40625 L 345 30.40625 L 345 344.65625 L 30.011719 344.65625 Z M 30.011719 30.40625 " clip-rule="nonzero"/></clipPath></defs><g clip-path="url(#0c8e9aca49)"><path fill="#ffffff" d="M 110.171875 144.34375 L 132.160156 144.34375 C 134.617188 144.34375 136.609375 142.351562 136.609375 139.894531 L 136.609375 117.910156 C 136.609375 115.449219 134.617188 113.457031 132.160156 113.457031 L 110.171875 113.457031 C 107.714844 113.457031 105.722656 115.449219 105.722656 117.910156 L 105.722656 139.894531 C 105.722656 142.351562 107.714844 144.34375 110.171875 144.34375 Z M 114.625 122.359375 L 127.707031 122.359375 L 127.707031 135.441406 L 114.625 135.441406 Z M 153.375 144.34375 L 175.359375 144.34375 C 177.816406 144.34375 179.808594 142.351562 179.808594 139.894531 L 179.808594 117.910156 C 179.808594 115.449219 177.816406 113.457031 175.359375 113.457031 L 153.375 113.457031 C 150.914062 113.457031 148.921875 115.449219 148.921875 117.910156 L 148.921875 139.894531 C 148.921875 142.351562 150.914062 144.34375 153.375 144.34375 Z M 157.824219 122.359375 L 170.90625 122.359375 L 170.90625 135.441406 L 157.824219 135.441406 Z M 196.574219 144.34375 L 218.558594 144.34375 C 221.015625 144.34375 223.007812 142.351562 223.007812 139.894531 L 223.007812 117.910156 C 223.007812 115.449219 221.015625 113.457031 218.558594 113.457031 L 196.574219 113.457031 C 194.113281 113.457031 192.121094 115.449219 192.121094 117.910156 L 192.121094 139.894531 C 192.121094 142.351562 194.113281 144.34375 196.574219 144.34375 Z M 201.023438 122.359375 L 214.105469 122.359375 L 214.105469 135.441406 L 201.023438 135.441406 Z M 88.957031 156.65625 L 66.972656 156.65625 C 64.515625 156.65625 62.523438 158.648438 62.523438 161.109375 L 62.523438 183.09375 C 62.523438 185.550781 64.515625 187.542969 66.972656 187.542969 L 88.957031 187.542969 C 91.417969 187.542969 93.410156 185.550781 93.410156 183.09375 L 93.410156 161.109375 C 93.410156 158.648438 91.417969 156.65625 88.957031 156.65625 Z M 84.507812 178.640625 L 71.425781 178.640625 L 71.425781 165.558594 L 84.507812 165.558594 Z M 110.171875 187.542969 L 132.160156 187.542969 C 134.617188 187.542969 136.609375 185.550781 136.609375 183.09375 L 136.609375 161.109375 C 136.609375 158.648438 134.617188 156.65625 132.160156 156.65625 L 110.171875 156.65625 C 107.714844 156.65625 105.722656 158.648438 105.722656 161.109375 L 105.722656 183.09375 C 105.722656 185.550781 107.714844 187.542969 110.171875 187.542969 Z M 114.625 165.558594 L 127.707031 165.558594 L 127.707031 178.640625 L 114.625 178.640625 Z M 88.957031 199.855469 L 66.972656 199.855469 C 64.515625 199.855469 62.523438 201.847656 62.523438 204.308594 L 62.523438 226.292969 C 62.523438 228.75 64.515625 230.742188 66.972656 230.742188 L 88.957031 230.742188 C 91.417969 230.742188 93.410156 228.75 93.410156 226.292969 L 93.410156 204.308594 C 93.410156 201.847656 91.417969 199.855469 88.957031 199.855469 Z M 84.507812 221.839844 L 71.425781 221.839844 L 71.425781 208.757812 L 84.507812 208.757812 Z M 88.957031 113.457031 L 66.972656 113.457031 C 64.515625 113.457031 62.523438 115.449219 62.523438 117.90625 L 62.523438 139.890625 C 62.523438 142.351562 64.515625 144.34375 66.972656 144.34375 L 88.957031 144.34375 C 91.417969 144.34375 93.410156 142.351562 93.410156 139.890625 L 93.410156 117.90625 C 93.410156 115.449219 91.417969 113.457031 88.957031 113.457031 Z M 84.507812 135.441406 L 71.425781 135.441406 L 71.425781 122.359375 L 84.507812 122.359375 Z M 153.375 187.542969 L 175.359375 187.542969 C 177.816406 187.542969 179.808594 185.550781 179.808594 183.09375 L 179.808594 161.109375 C 179.808594 158.648438 177.816406 156.65625 175.359375 156.65625 L 153.375 156.65625 C 150.914062 156.65625 148.921875 158.648438 148.921875 161.109375 L 148.921875 183.09375 C 148.921875 185.550781 150.914062 187.542969 153.375 187.542969 Z M 157.824219 165.558594 L 170.90625 165.558594 L 170.90625 178.640625 L 157.824219 178.640625 Z M 290.585938 189.015625 C 285.789062 186.25 280.238281 185.4375 274.871094 186.6875 L 264.726562 148.820312 C 263.394531 143.863281 260.203125 139.710938 255.734375 137.128906 C 255.617188 137.0625 255.5 137.003906 255.382812 136.9375 L 255.382812 73.863281 C 255.382812 61.410156 245.25 51.277344 232.796875 51.277344 L 218.667969 51.277344 L 218.667969 34.867188 C 218.667969 32.40625 216.671875 30.414062 214.214844 30.414062 L 190.910156 30.414062 C 188.453125 30.414062 186.460938 32.40625 186.460938 34.867188 L 186.460938 51.277344 L 158.867188 51.277344 L 158.867188 34.867188 C 158.867188 32.40625 156.875 30.414062 154.417969 30.414062 L 131.113281 30.414062 C 128.65625 30.414062 126.664062 32.40625 126.664062 34.867188 L 126.664062 51.277344 L 99.070312 51.277344 L 99.070312 34.867188 C 99.070312 32.40625 97.078125 30.414062 94.621094 30.414062 L 71.316406 30.414062 C 68.859375 30.414062 66.863281 32.40625 66.863281 34.867188 L 66.863281 51.277344 L 52.734375 51.277344 C 40.28125 51.277344 30.148438 61.410156 30.148438 73.863281 L 30.148438 230.160156 C 30.148438 242.613281 40.28125 252.746094 52.734375 252.746094 L 96.707031 252.746094 C 96.90625 254.027344 97.171875 255.308594 97.511719 256.578125 C 101.847656 272.757812 116.53125 283.457031 132.539062 283.453125 C 135.636719 283.453125 138.785156 283.054688 141.914062 282.214844 L 143.585938 281.769531 L 166 337.882812 C 167.105469 340.65625 169.351562 342.847656 172.164062 343.898438 C 173.378906 344.355469 174.65625 344.578125 175.929688 344.578125 C 177.632812 344.578125 179.328125 344.179688 180.871094 343.386719 L 189.960938 338.707031 C 194.902344 336.167969 197.070312 330.328125 195.011719 325.125 L 173.609375 271.101562 C 205.25 266.597656 235.183594 268.050781 258.691406 275.253906 L 258.964844 276.273438 C 260.292969 281.230469 263.484375 285.378906 267.953125 287.960938 C 270.9375 289.683594 274.238281 290.5625 277.582031 290.5625 C 279.246094 290.5625 280.921875 290.34375 282.570312 289.902344 C 287.527344 288.574219 291.679688 285.382812 294.261719 280.910156 C 296.839844 276.441406 297.53125 271.25 296.199219 266.292969 L 286.054688 228.425781 C 291.328125 226.828125 295.730469 223.347656 298.496094 218.554688 C 301.382812 213.550781 302.152344 207.726562 300.65625 202.144531 C 299.164062 196.566406 295.585938 191.902344 290.585938 189.015625 Z M 195.363281 39.316406 L 209.761719 39.316406 L 209.761719 71.746094 L 195.363281 71.746094 Z M 135.566406 39.316406 L 149.964844 39.316406 L 149.964844 71.746094 L 135.566406 71.746094 Z M 75.769531 39.316406 L 90.167969 39.316406 L 90.167969 71.746094 L 75.769531 71.746094 Z M 52.734375 60.179688 L 66.863281 60.179688 L 66.863281 76.195312 C 66.863281 78.65625 68.859375 80.648438 71.316406 80.648438 L 94.621094 80.648438 C 97.078125 80.648438 99.070312 78.65625 99.070312 76.195312 L 99.070312 60.179688 L 126.664062 60.179688 L 126.664062 76.195312 C 126.664062 78.65625 128.65625 80.648438 131.113281 80.648438 L 154.417969 80.648438 C 156.875 80.648438 158.871094 78.65625 158.871094 76.195312 L 158.871094 60.179688 L 186.460938 60.179688 L 186.460938 76.195312 C 186.460938 78.65625 188.453125 80.648438 190.914062 80.648438 L 214.214844 80.648438 C 216.675781 80.648438 218.667969 78.65625 218.667969 76.195312 L 218.667969 60.179688 L 232.796875 60.179688 C 240.339844 60.179688 246.476562 66.316406 246.476562 73.863281 L 246.476562 91.453125 L 39.054688 91.453125 L 39.054688 73.863281 C 39.054688 66.316406 45.191406 60.179688 52.734375 60.179688 Z M 96.4375 243.839844 L 52.734375 243.839844 C 45.191406 243.839844 39.054688 237.703125 39.054688 230.160156 L 39.054688 100.359375 L 246.476562 100.359375 L 246.476562 134.539062 C 244.691406 134.503906 242.886719 134.714844 241.117188 135.191406 C 236.160156 136.519531 232.007812 139.710938 229.429688 144.179688 C 226.847656 148.648438 226.160156 153.839844 227.488281 158.796875 L 227.757812 159.8125 C 210.886719 177.929688 185.457031 194.253906 155.542969 206.199219 C 155.207031 205.789062 154.800781 205.4375 154.332031 205.167969 C 153.3125 204.578125 152.09375 204.417969 150.957031 204.722656 L 123.148438 212.171875 C 113.828125 214.671875 106.023438 220.675781 101.167969 229.085938 C 98.503906 233.695312 96.921875 238.714844 96.4375 243.839844 Z M 139.609375 273.613281 C 137.25 274.246094 134.875 274.550781 132.539062 274.550781 C 120.464844 274.550781 109.382812 266.480469 106.113281 254.273438 C 104.230469 247.25 105.210938 239.886719 108.878906 233.539062 C 112.542969 227.191406 118.429688 222.65625 125.453125 220.777344 L 148.957031 214.476562 L 163.117188 267.316406 Z M 185.886719 330.789062 L 176.796875 335.464844 C 176.152344 335.796875 175.570312 335.667969 175.28125 335.558594 C 175.007812 335.457031 174.511719 335.191406 174.269531 334.578125 L 152.246094 279.445312 L 165.890625 275.789062 L 186.730469 328.402344 C 187.105469 329.34375 186.75 330.347656 185.886719 330.789062 Z M 171.039062 262.472656 L 158.238281 214.710938 C 187.445312 203.125 212.675781 187.421875 230.441406 169.828125 L 256.007812 265.238281 C 231.824219 258.886719 202.125 257.902344 171.039062 262.472656 Z M 286.550781 276.460938 C 285.160156 278.867188 282.925781 280.589844 280.265625 281.300781 C 277.605469 282.015625 274.816406 281.640625 272.40625 280.25 C 269.996094 278.859375 268.277344 276.628906 267.5625 273.964844 L 236.085938 156.492188 C 235.375 153.832031 235.746094 151.039062 237.140625 148.632812 C 238.53125 146.222656 240.761719 144.503906 243.421875 143.789062 C 244.304688 143.554688 245.199219 143.4375 246.09375 143.4375 C 247.890625 143.4375 249.671875 143.914062 251.28125 144.84375 C 253.691406 146.234375 255.410156 148.464844 256.125 151.125 L 287.601562 268.597656 C 288.3125 271.257812 287.941406 274.050781 286.550781 276.460938 Z M 290.785156 214.101562 C 289.210938 216.835938 286.722656 218.832031 283.746094 219.808594 L 277.179688 195.308594 C 280.246094 194.664062 283.398438 195.148438 286.132812 196.726562 C 289.074219 198.425781 291.179688 201.167969 292.058594 204.449219 C 292.9375 207.730469 292.484375 211.160156 290.785156 214.101562 Z M 341.03125 195.9375 L 320.496094 201.4375 C 320.113281 201.542969 319.722656 201.589844 319.34375 201.589844 C 317.378906 201.589844 315.578125 200.28125 315.046875 198.289062 C 314.410156 195.914062 315.820312 193.472656 318.195312 192.835938 L 338.726562 187.335938 C 341.097656 186.699219 343.542969 188.109375 344.179688 190.484375 C 344.8125 192.859375 343.40625 195.300781 341.03125 195.9375 Z M 294.265625 172.808594 C 292.527344 171.070312 292.527344 168.25 294.265625 166.511719 L 310.121094 150.65625 C 311.859375 148.917969 314.679688 148.917969 316.417969 150.65625 C 318.15625 152.394531 318.15625 155.214844 316.417969 156.953125 L 300.5625 172.808594 C 299.691406 173.675781 298.554688 174.113281 297.414062 174.113281 C 296.273438 174.113281 295.136719 173.675781 294.265625 172.808594 Z M 340.050781 238.855469 C 339.519531 240.84375 337.71875 242.15625 335.753906 242.15625 C 335.371094 242.15625 334.984375 242.105469 334.597656 242.003906 L 312.941406 236.199219 C 310.566406 235.5625 309.15625 233.121094 309.792969 230.746094 C 310.429688 228.375 312.871094 226.964844 315.242188 227.601562 L 336.902344 233.402344 C 339.277344 234.039062 340.6875 236.480469 340.050781 238.855469 Z M 340.050781 238.855469 " fill-opacity="1" fill-rule="nonzero"/></g></svg>