<svg xmlns="http://www.w3.org/2000/svg" xmlns:xlink="http://www.w3.org/1999/xlink" width="500" zoomAndPan="magnify" viewBox="0 0 375 374.999991" height="500" preserveAspectRatio="xMidYMid meet" version="1.0"><defs><clipPath id="f8e58e9a7b"><path d="M 34.644531 263 L 340.644531 263 L 340.644531 340.644531 L 34.644531 340.644531 Z M 34.644531 263 " clip-rule="nonzero"/></clipPath><clipPath id="99f1f2f069"><path d="M 34.644531 34.644531 L 340.644531 34.644531 L 340.644531 194 L 34.644531 194 Z M 34.644531 34.644531 " clip-rule="nonzero"/></clipPath></defs><path fill="currentcolor" d="M 88.257812 257.546875 C 104.050781 257.460938 116.835938 244.535156 116.757812 228.730469 C 116.65625 212.933594 103.734375 200.144531 87.9375 200.234375 C 72.136719 200.324219 59.34375 213.253906 59.4375 229.046875 C 59.515625 244.855469 72.449219 257.644531 88.257812 257.546875 Z M 88.003906 212.972656 C 96.785156 212.921875 103.960938 220.023438 104.011719 228.800781 C 104.0625 237.589844 96.96875 244.757812 88.191406 244.8125 C 79.398438 244.863281 72.21875 237.765625 72.175781 228.976562 C 72.117188 220.203125 79.21875 213.015625 88.003906 212.972656 Z M 88.003906 212.972656 " fill-opacity="1" fill-rule="nonzero"/><path fill="currentcolor" d="M 187.65625 257.546875 C 203.449219 257.460938 216.238281 244.535156 216.15625 228.730469 C 216.054688 212.933594 203.132812 200.144531 187.335938 200.234375 C 171.542969 200.324219 158.742188 213.253906 158.835938 229.046875 C 158.925781 244.855469 171.847656 257.644531 187.65625 257.546875 Z M 187.40625 212.972656 C 196.191406 212.921875 203.367188 220.023438 203.417969 228.800781 C 203.46875 237.589844 196.367188 244.757812 187.597656 244.8125 C 178.804688 244.863281 171.625 237.765625 171.574219 228.976562 C 171.523438 220.203125 178.625 213.015625 187.40625 212.972656 Z M 187.40625 212.972656 " fill-opacity="1" fill-rule="nonzero"/><path fill="currentcolor" d="M 287.066406 257.546875 C 302.863281 257.460938 315.644531 244.535156 315.570312 228.730469 C 315.46875 212.933594 302.542969 200.144531 286.75 200.234375 C 270.949219 200.324219 258.152344 213.253906 258.25 229.046875 C 258.324219 244.855469 271.253906 257.644531 287.066406 257.546875 Z M 286.8125 212.972656 C 295.597656 212.921875 302.773438 220.023438 302.824219 228.800781 C 302.875 237.589844 295.78125 244.757812 287.003906 244.8125 C 278.210938 244.863281 271.03125 237.765625 270.988281 228.976562 C 270.929688 220.203125 278.03125 213.015625 286.8125 212.972656 Z M 286.8125 212.972656 " fill-opacity="1" fill-rule="nonzero"/><g clip-path="url(#f8e58e9a7b)"><path fill="currentcolor" d="M 312.402344 263.921875 L 261.453125 263.921875 C 251.097656 263.921875 242.640625 272.210938 242.351562 282.496094 L 237.210938 315.933594 L 232.09375 282.496094 C 231.8125 272.210938 223.355469 263.921875 212.996094 263.921875 L 162.046875 263.921875 C 151.691406 263.921875 143.234375 272.210938 142.945312 282.496094 L 137.808594 315.914062 L 132.691406 282.496094 C 132.414062 272.210938 123.949219 263.921875 113.59375 263.921875 L 62.640625 263.921875 C 52.285156 263.921875 43.828125 272.210938 43.539062 282.496094 L 34.644531 340.351562 L 47.527344 340.351562 L 56.195312 284 L 56.273438 283.03125 C 56.273438 279.519531 59.125 276.660156 62.640625 276.660156 L 113.59375 276.660156 C 117.109375 276.660156 119.960938 279.519531 119.960938 283.03125 L 128.726562 340.351562 L 146.933594 340.351562 L 155.601562 284 L 155.679688 283.03125 C 155.679688 279.519531 158.53125 276.660156 162.046875 276.660156 L 212.996094 276.660156 C 216.511719 276.660156 219.367188 279.519531 219.367188 283.03125 L 228.128906 340.351562 L 246.34375 340.351562 L 255.011719 284 L 255.082031 283.03125 C 255.082031 279.519531 257.9375 276.660156 261.453125 276.660156 L 312.402344 276.660156 C 315.917969 276.660156 318.773438 279.519531 318.773438 283.03125 L 327.535156 340.351562 L 340.351562 340.351562 L 331.503906 282.496094 C 331.21875 272.210938 322.757812 263.921875 312.402344 263.921875 Z M 312.402344 263.921875 " fill-opacity="1" fill-rule="nonzero"/></g><path fill="currentcolor" d="M 308.507812 66.488281 L 174.757812 66.488281 C 171.238281 66.488281 168.390625 69.339844 168.390625 72.855469 C 168.390625 76.371094 171.238281 79.226562 174.757812 79.226562 L 308.507812 79.226562 C 312.027344 79.226562 314.875 76.371094 314.875 72.855469 C 314.875 69.339844 312.027344 66.488281 308.507812 66.488281 Z M 308.507812 66.488281 " fill-opacity="1" fill-rule="nonzero"/><path fill="currentcolor" d="M 308.507812 85.59375 L 174.757812 85.59375 C 171.238281 85.59375 168.390625 88.449219 168.390625 91.964844 C 168.390625 95.480469 171.238281 98.332031 174.757812 98.332031 L 308.507812 98.332031 C 312.027344 98.332031 314.875 95.480469 314.875 91.964844 C 314.875 88.449219 312.027344 85.59375 308.507812 85.59375 Z M 308.507812 85.59375 " fill-opacity="1" fill-rule="nonzero"/><path fill="currentcolor" d="M 308.507812 104.703125 L 174.757812 104.703125 C 171.238281 104.703125 168.390625 107.554688 168.390625 111.070312 C 168.390625 114.585938 171.238281 117.4375 174.757812 117.4375 L 308.507812 117.4375 C 312.027344 117.4375 314.875 114.585938 314.875 111.070312 C 314.875 107.554688 312.027344 104.703125 308.507812 104.703125 Z M 308.507812 104.703125 " fill-opacity="1" fill-rule="nonzero"/><path fill="currentcolor" d="M 308.507812 123.808594 L 174.757812 123.808594 C 171.238281 123.808594 168.390625 126.660156 168.390625 130.175781 C 168.390625 133.691406 171.238281 136.546875 174.757812 136.546875 L 308.507812 136.546875 C 312.027344 136.546875 314.875 133.691406 314.875 130.175781 C 314.875 126.660156 312.027344 123.808594 308.507812 123.808594 Z M 308.507812 123.808594 " fill-opacity="1" fill-rule="nonzero"/><g clip-path="url(#99f1f2f069)"><path fill="currentcolor" d="M 321.242188 34.644531 L 53.75 34.644531 C 43.214844 34.644531 34.644531 43.214844 34.644531 53.75 L 34.644531 149.285156 C 34.644531 159.816406 43.214844 168.390625 53.75 168.390625 L 79.226562 168.390625 L 79.226562 187.496094 C 79.226562 189.941406 80.632812 192.179688 82.832031 193.234375 C 83.714844 193.65625 84.660156 193.867188 85.59375 193.867188 C 87.015625 193.867188 88.421875 193.386719 89.574219 192.472656 L 119.675781 168.390625 L 165.207031 168.390625 L 182.402344 191.316406 C 183.597656 192.921875 185.492188 193.867188 187.496094 193.867188 C 189.503906 193.867188 191.386719 192.921875 192.59375 191.316406 L 209.789062 168.390625 L 255.320312 168.390625 L 285.417969 192.472656 C 286.570312 193.386719 287.980469 193.867188 289.398438 193.867188 C 290.335938 193.867188 291.285156 193.65625 292.164062 193.234375 C 294.359375 192.179688 295.769531 189.941406 295.769531 187.496094 L 295.769531 168.390625 L 321.242188 168.390625 C 331.777344 168.390625 340.351562 159.816406 340.351562 149.285156 L 340.351562 53.75 C 340.351562 43.214844 331.777344 34.644531 321.242188 34.644531 Z M 327.613281 149.285156 C 327.613281 152.792969 324.757812 155.652344 321.242188 155.652344 L 283.03125 155.652344 L 283.03125 174.242188 L 259.789062 155.652344 L 203.417969 155.652344 L 187.496094 176.878906 L 171.574219 155.652344 L 115.203125 155.652344 L 91.964844 174.242188 L 91.964844 155.652344 L 53.75 155.652344 C 50.234375 155.652344 47.382812 152.792969 47.382812 149.285156 L 47.382812 53.75 C 47.382812 50.242188 50.234375 47.382812 53.75 47.382812 L 321.242188 47.382812 C 324.757812 47.382812 327.613281 50.242188 327.613281 53.75 Z M 327.613281 149.285156 " fill-opacity="1" fill-rule="nonzero"/></g><path fill="currentcolor" d="M 136.546875 66.488281 L 79.226562 66.488281 C 68.691406 66.488281 60.117188 75.058594 60.117188 85.59375 L 60.117188 117.4375 C 60.117188 127.972656 68.691406 136.546875 79.226562 136.546875 L 136.546875 136.546875 C 147.078125 136.546875 155.652344 127.972656 155.652344 117.4375 L 155.652344 85.59375 C 155.652344 75.058594 147.078125 66.488281 136.546875 66.488281 Z M 142.914062 117.4375 C 142.914062 120.949219 140.0625 123.808594 136.546875 123.808594 L 79.226562 123.808594 C 75.710938 123.808594 72.855469 120.949219 72.855469 117.4375 L 72.855469 85.59375 C 72.855469 82.085938 75.710938 79.226562 79.226562 79.226562 L 136.546875 79.226562 C 140.0625 79.226562 142.914062 82.085938 142.914062 85.59375 Z M 142.914062 117.4375 " fill-opacity="1" fill-rule="nonzero"/></svg>