<svg xmlns="http://www.w3.org/2000/svg" xmlns:xlink="http://www.w3.org/1999/xlink" width="500" zoomAndPan="magnify" viewBox="0 0 375 374.999991" height="500" preserveAspectRatio="xMidYMid meet" version="1.0"><defs><clipPath id="1b4652e2fe"><path d="M 28 27 L 348.59375 27 L 348.59375 348 L 28 348 Z M 28 27 " clip-rule="nonzero"/></clipPath></defs><g clip-path="url(#1b4652e2fe)"><path fill="#ffffff" d="M 28.230469 139.394531 L 28.230469 53.886719 C 28.234375 53.011719 28.277344 52.136719 28.363281 51.265625 C 28.449219 50.394531 28.578125 49.53125 28.75 48.671875 C 28.921875 47.816406 29.132812 46.96875 29.390625 46.132812 C 29.644531 45.292969 29.9375 44.472656 30.273438 43.664062 C 30.609375 42.855469 30.984375 42.066406 31.394531 41.292969 C 31.808594 40.523438 32.257812 39.773438 32.746094 39.046875 C 33.230469 38.320312 33.75 37.617188 34.308594 36.941406 C 34.863281 36.265625 35.449219 35.617188 36.066406 35 C 36.6875 34.378906 37.332031 33.792969 38.011719 33.238281 C 38.6875 32.683594 39.386719 32.160156 40.113281 31.675781 C 40.84375 31.1875 41.59375 30.738281 42.363281 30.328125 C 43.132812 29.914062 43.925781 29.539062 44.734375 29.203125 C 45.539062 28.871094 46.363281 28.574219 47.199219 28.320312 C 48.039062 28.066406 48.886719 27.851562 49.742188 27.679688 C 50.601562 27.511719 51.464844 27.378906 52.335938 27.292969 C 53.207031 27.207031 54.078125 27.164062 54.953125 27.164062 L 183.21875 27.164062 C 184.09375 27.164062 184.96875 27.207031 185.839844 27.292969 C 186.710938 27.378906 187.574219 27.511719 188.429688 27.679688 C 189.289062 27.851562 190.136719 28.066406 190.972656 28.320312 C 191.8125 28.574219 192.632812 28.871094 193.441406 29.203125 C 194.25 29.539062 195.039062 29.914062 195.8125 30.328125 C 196.582031 30.738281 197.332031 31.1875 198.058594 31.675781 C 198.785156 32.160156 199.488281 32.683594 200.164062 33.238281 C 200.839844 33.792969 201.488281 34.378906 202.105469 35 C 202.726562 35.617188 203.3125 36.265625 203.867188 36.941406 C 204.421875 37.617188 204.945312 38.320312 205.429688 39.046875 C 205.914062 39.773438 206.367188 40.523438 206.777344 41.292969 C 207.191406 42.066406 207.566406 42.855469 207.898438 43.664062 C 208.234375 44.472656 208.53125 45.292969 208.785156 46.132812 C 209.039062 46.96875 209.253906 47.816406 209.425781 48.671875 C 209.59375 49.53125 209.726562 50.394531 209.8125 51.265625 C 209.898438 52.136719 209.941406 53.011719 209.941406 53.886719 L 209.941406 59.230469 C 209.941406 59.582031 209.910156 59.925781 209.839844 60.273438 C 209.773438 60.617188 209.671875 60.949219 209.535156 61.273438 C 209.402344 61.597656 209.238281 61.90625 209.042969 62.199219 C 208.847656 62.492188 208.625 62.761719 208.378906 63.007812 C 208.128906 63.257812 207.859375 63.476562 207.566406 63.671875 C 207.277344 63.867188 206.96875 64.03125 206.644531 64.167969 C 206.320312 64.300781 205.984375 64.402344 205.640625 64.472656 C 205.296875 64.539062 204.949219 64.574219 204.597656 64.574219 C 204.246094 64.574219 203.898438 64.539062 203.554688 64.472656 C 203.210938 64.402344 202.878906 64.300781 202.554688 64.167969 C 202.230469 64.03125 201.921875 63.867188 201.628906 63.671875 C 201.335938 63.476562 201.066406 63.257812 200.820312 63.007812 C 200.570312 62.761719 200.347656 62.492188 200.15625 62.199219 C 199.960938 61.90625 199.796875 61.597656 199.660156 61.273438 C 199.527344 60.949219 199.425781 60.617188 199.355469 60.273438 C 199.289062 59.925781 199.253906 59.582031 199.253906 59.230469 L 199.253906 53.886719 C 199.253906 53.359375 199.226562 52.835938 199.175781 52.3125 C 199.125 51.792969 199.046875 51.273438 198.941406 50.757812 C 198.839844 50.242188 198.710938 49.734375 198.558594 49.234375 C 198.40625 48.730469 198.230469 48.238281 198.027344 47.75 C 197.828125 47.265625 197.601562 46.792969 197.355469 46.332031 C 197.109375 45.867188 196.839844 45.417969 196.546875 44.980469 C 196.253906 44.542969 195.941406 44.125 195.609375 43.71875 C 195.277344 43.3125 194.925781 42.925781 194.550781 42.550781 C 194.179688 42.179688 193.792969 41.828125 193.386719 41.496094 C 192.980469 41.164062 192.558594 40.851562 192.125 40.558594 C 191.6875 40.265625 191.238281 39.996094 190.773438 39.75 C 190.3125 39.503906 189.839844 39.277344 189.355469 39.078125 C 188.867188 38.875 188.375 38.699219 187.871094 38.546875 C 187.371094 38.394531 186.863281 38.265625 186.347656 38.164062 C 185.832031 38.058594 185.3125 37.980469 184.792969 37.929688 C 184.269531 37.878906 183.746094 37.851562 183.21875 37.851562 L 54.953125 37.851562 C 54.429688 37.851562 53.90625 37.878906 53.382812 37.929688 C 52.859375 37.980469 52.34375 38.058594 51.828125 38.164062 C 51.3125 38.265625 50.804688 38.394531 50.300781 38.546875 C 49.800781 38.699219 49.304688 38.875 48.820312 39.078125 C 48.335938 39.277344 47.863281 39.503906 47.398438 39.75 C 46.9375 39.996094 46.488281 40.265625 46.050781 40.558594 C 45.613281 40.851562 45.191406 41.164062 44.785156 41.496094 C 44.382812 41.828125 43.992188 42.179688 43.621094 42.550781 C 43.25 42.925781 42.898438 43.3125 42.566406 43.71875 C 42.230469 44.125 41.917969 44.542969 41.628906 44.980469 C 41.335938 45.417969 41.066406 45.867188 40.820312 46.332031 C 40.570312 46.792969 40.347656 47.265625 40.144531 47.75 C 39.945312 48.238281 39.765625 48.730469 39.613281 49.234375 C 39.460938 49.734375 39.335938 50.242188 39.230469 50.757812 C 39.128906 51.273438 39.050781 51.792969 39 52.3125 C 38.949219 52.835938 38.921875 53.359375 38.921875 53.886719 L 38.921875 139.394531 C 38.921875 139.921875 38.949219 140.445312 39 140.96875 C 39.050781 141.488281 39.128906 142.007812 39.230469 142.523438 C 39.335938 143.039062 39.460938 143.546875 39.613281 144.046875 C 39.765625 144.550781 39.945312 145.042969 40.144531 145.527344 C 40.347656 146.015625 40.570312 146.488281 40.820312 146.949219 C 41.066406 147.414062 41.335938 147.863281 41.628906 148.300781 C 41.917969 148.734375 42.230469 149.15625 42.566406 149.5625 C 42.898438 149.96875 43.25 150.355469 43.621094 150.726562 C 43.992188 151.097656 44.382812 151.453125 44.785156 151.785156 C 45.191406 152.117188 45.613281 152.429688 46.050781 152.722656 C 46.488281 153.011719 46.9375 153.285156 47.398438 153.53125 C 47.863281 153.777344 48.335938 154.003906 48.820312 154.203125 C 49.304688 154.40625 49.800781 154.582031 50.300781 154.734375 C 50.804688 154.886719 51.3125 155.015625 51.828125 155.117188 C 52.34375 155.222656 52.859375 155.296875 53.382812 155.351562 C 53.90625 155.402344 54.429688 155.429688 54.953125 155.429688 L 70.988281 155.429688 C 71.695312 155.429688 72.378906 155.566406 73.03125 155.835938 C 73.6875 156.109375 74.265625 156.492188 74.765625 156.996094 L 104.621094 186.847656 C 104.949219 187.128906 105.324219 187.300781 105.75 187.367188 C 106.175781 187.4375 106.589844 187.386719 106.988281 187.222656 C 107.386719 187.058594 107.710938 186.800781 107.964844 186.449219 C 108.21875 186.101562 108.363281 185.710938 108.398438 185.28125 L 108.398438 160.773438 C 108.398438 160.421875 108.433594 160.074219 108.5 159.730469 C 108.570312 159.386719 108.671875 159.050781 108.804688 158.726562 C 108.9375 158.402344 109.101562 158.09375 109.296875 157.804688 C 109.492188 157.511719 109.714844 157.242188 109.960938 156.992188 C 110.210938 156.746094 110.480469 156.523438 110.773438 156.328125 C 111.066406 156.132812 111.371094 155.96875 111.695312 155.835938 C 112.019531 155.699219 112.355469 155.601562 112.699219 155.53125 C 113.042969 155.464844 113.390625 155.429688 113.742188 155.429688 L 151.152344 155.429688 C 151.503906 155.429688 151.851562 155.464844 152.195312 155.53125 C 152.539062 155.601562 152.875 155.703125 153.199219 155.835938 C 153.523438 155.96875 153.832031 156.136719 154.125 156.328125 C 154.414062 156.523438 154.683594 156.746094 154.933594 156.996094 C 155.179688 157.242188 155.402344 157.511719 155.597656 157.804688 C 155.792969 158.097656 155.957031 158.40625 156.089844 158.730469 C 156.226562 159.054688 156.328125 159.386719 156.394531 159.730469 C 156.464844 160.074219 156.5 160.421875 156.5 160.773438 C 156.5 161.125 156.464844 161.472656 156.394531 161.816406 C 156.328125 162.160156 156.226562 162.496094 156.089844 162.820312 C 155.957031 163.144531 155.792969 163.453125 155.597656 163.742188 C 155.402344 164.035156 155.179688 164.304688 154.933594 164.554688 C 154.683594 164.800781 154.414062 165.023438 154.121094 165.21875 C 153.832031 165.414062 153.523438 165.578125 153.199219 165.710938 C 152.875 165.84375 152.539062 165.945312 152.195312 166.015625 C 151.851562 166.082031 151.503906 166.117188 151.152344 166.117188 L 119.085938 166.117188 L 119.085938 185.28125 C 119.085938 186.558594 118.902344 187.808594 118.53125 189.027344 C 118.160156 190.25 117.621094 191.390625 116.914062 192.449219 C 116.203125 193.511719 115.355469 194.445312 114.371094 195.257812 C 113.382812 196.066406 112.300781 196.714844 111.121094 197.203125 C 109.945312 197.691406 108.71875 197.996094 107.449219 198.121094 C 106.179688 198.246094 104.917969 198.1875 103.667969 197.9375 C 102.417969 197.6875 101.230469 197.261719 100.101562 196.660156 C 98.976562 196.058594 97.964844 195.308594 97.0625 194.40625 L 68.773438 166.117188 L 54.953125 166.117188 C 54.078125 166.117188 53.207031 166.074219 52.335938 165.988281 C 51.464844 165.898438 50.601562 165.769531 49.742188 165.597656 C 48.886719 165.429688 48.039062 165.214844 47.199219 164.960938 C 46.363281 164.707031 45.539062 164.410156 44.734375 164.074219 C 43.925781 163.742188 43.132812 163.367188 42.363281 162.953125 C 41.59375 162.539062 40.84375 162.089844 40.113281 161.605469 C 39.386719 161.117188 38.6875 160.597656 38.011719 160.042969 C 37.332031 159.488281 36.6875 158.902344 36.066406 158.28125 C 35.449219 157.664062 34.863281 157.015625 34.308594 156.339844 C 33.75 155.664062 33.230469 154.960938 32.746094 154.234375 C 32.257812 153.507812 31.808594 152.757812 31.394531 151.988281 C 30.984375 151.214844 30.609375 150.425781 30.273438 149.617188 C 29.9375 148.808594 29.644531 147.988281 29.390625 147.148438 C 29.132812 146.3125 28.921875 145.464844 28.75 144.605469 C 28.578125 143.75 28.449219 142.886719 28.363281 142.015625 C 28.277344 141.144531 28.234375 140.269531 28.230469 139.394531 Z M 348.898438 101.984375 L 348.898438 187.496094 C 348.898438 188.371094 348.855469 189.242188 348.765625 190.113281 C 348.679688 190.984375 348.550781 191.847656 348.378906 192.707031 C 348.207031 193.566406 347.996094 194.414062 347.742188 195.25 C 347.484375 196.085938 347.191406 196.910156 346.855469 197.71875 C 346.519531 198.527344 346.148438 199.316406 345.734375 200.085938 C 345.320312 200.859375 344.871094 201.605469 344.386719 202.335938 C 343.898438 203.0625 343.378906 203.765625 342.824219 204.441406 C 342.269531 205.117188 341.679688 205.765625 341.0625 206.382812 C 340.445312 207 339.796875 207.585938 339.121094 208.144531 C 338.445312 208.699219 337.742188 209.21875 337.015625 209.707031 C 336.289062 210.191406 335.539062 210.640625 334.765625 211.054688 C 333.996094 211.464844 333.207031 211.839844 332.398438 212.175781 C 331.589844 212.511719 330.765625 212.804688 329.929688 213.0625 C 329.09375 213.316406 328.246094 213.527344 327.386719 213.699219 C 326.53125 213.871094 325.664062 214 324.792969 214.085938 C 323.925781 214.171875 323.050781 214.21875 322.175781 214.21875 L 276.289062 214.21875 L 248 242.507812 C 247.097656 243.410156 246.085938 244.160156 244.960938 244.761719 C 243.835938 245.363281 242.644531 245.789062 241.394531 246.039062 C 240.144531 246.285156 238.882812 246.347656 237.613281 246.222656 C 236.34375 246.097656 235.121094 245.792969 233.941406 245.304688 C 232.761719 244.816406 231.679688 244.164062 230.691406 243.355469 C 229.707031 242.546875 228.859375 241.613281 228.152344 240.550781 C 227.441406 239.488281 226.902344 238.347656 226.53125 237.128906 C 226.160156 235.90625 225.976562 234.660156 225.976562 233.382812 L 225.976562 214.21875 L 193.910156 214.21875 C 193.035156 214.21875 192.160156 214.171875 191.292969 214.085938 C 190.421875 214 189.554688 213.871094 188.699219 213.699219 C 187.839844 213.527344 186.992188 213.316406 186.15625 213.0625 C 185.320312 212.804688 184.496094 212.511719 183.6875 212.175781 C 182.878906 211.839844 182.089844 211.464844 181.320312 211.054688 C 180.546875 210.640625 179.796875 210.191406 179.070312 209.707031 C 178.34375 209.21875 177.640625 208.699219 176.964844 208.144531 C 176.289062 207.585938 175.640625 207 175.023438 206.382812 C 174.40625 205.765625 173.816406 205.117188 173.261719 204.441406 C 172.707031 203.765625 172.1875 203.0625 171.699219 202.335938 C 171.214844 201.605469 170.765625 200.859375 170.351562 200.085938 C 169.9375 199.316406 169.566406 198.527344 169.230469 197.71875 C 168.894531 196.910156 168.597656 196.085938 168.34375 195.25 C 168.089844 194.414062 167.878906 193.566406 167.707031 192.707031 C 167.535156 191.847656 167.40625 190.984375 167.320312 190.113281 C 167.230469 189.242188 167.1875 188.371094 167.1875 187.496094 L 167.1875 101.984375 C 167.1875 101.109375 167.230469 100.238281 167.320312 99.367188 C 167.40625 98.496094 167.535156 97.632812 167.707031 96.773438 C 167.878906 95.914062 168.089844 95.066406 168.34375 94.230469 C 168.597656 93.394531 168.894531 92.570312 169.230469 91.761719 C 169.566406 90.957031 169.9375 90.164062 170.351562 89.394531 C 170.765625 88.621094 171.214844 87.875 171.699219 87.144531 C 172.1875 86.417969 172.707031 85.71875 173.261719 85.039062 C 173.816406 84.363281 174.40625 83.71875 175.023438 83.097656 C 175.640625 82.480469 176.289062 81.894531 176.964844 81.335938 C 177.640625 80.78125 178.34375 80.261719 179.070312 79.777344 C 179.796875 79.289062 180.546875 78.839844 181.320312 78.425781 C 182.089844 78.015625 182.878906 77.640625 183.6875 77.304688 C 184.496094 76.96875 185.320312 76.675781 186.15625 76.421875 C 186.992188 76.164062 187.839844 75.953125 188.699219 75.78125 C 189.554688 75.609375 190.421875 75.480469 191.292969 75.394531 C 192.160156 75.308594 193.035156 75.261719 193.910156 75.261719 L 322.175781 75.261719 C 323.050781 75.261719 323.925781 75.308594 324.792969 75.394531 C 325.664062 75.480469 326.53125 75.609375 327.386719 75.78125 C 328.246094 75.953125 329.09375 76.164062 329.929688 76.421875 C 330.765625 76.675781 331.589844 76.96875 332.398438 77.304688 C 333.207031 77.640625 333.996094 78.015625 334.765625 78.425781 C 335.539062 78.839844 336.289062 79.289062 337.015625 79.777344 C 337.742188 80.261719 338.445312 80.78125 339.121094 81.335938 C 339.796875 81.894531 340.445312 82.480469 341.0625 83.097656 C 341.679688 83.71875 342.269531 84.363281 342.824219 85.039062 C 343.378906 85.71875 343.898438 86.417969 344.386719 87.144531 C 344.871094 87.875 345.320312 88.621094 345.734375 89.394531 C 346.148438 90.164062 346.519531 90.957031 346.855469 91.761719 C 347.191406 92.570312 347.484375 93.394531 347.742188 94.230469 C 347.996094 95.066406 348.207031 95.914062 348.378906 96.773438 C 348.550781 97.632812 348.679688 98.496094 348.765625 99.367188 C 348.855469 100.238281 348.898438 101.109375 348.898438 101.984375 Z M 338.210938 101.984375 C 338.207031 101.460938 338.183594 100.9375 338.128906 100.414062 C 338.078125 99.890625 338 99.371094 337.898438 98.859375 C 337.796875 98.34375 337.667969 97.835938 337.515625 97.332031 C 337.363281 96.832031 337.1875 96.335938 336.984375 95.851562 C 336.785156 95.367188 336.558594 94.894531 336.3125 94.429688 C 336.0625 93.96875 335.792969 93.519531 335.503906 93.082031 C 335.210938 92.644531 334.898438 92.222656 334.566406 91.816406 C 334.230469 91.414062 333.878906 91.023438 333.507812 90.652344 C 333.136719 90.28125 332.75 89.929688 332.34375 89.597656 C 331.9375 89.261719 331.515625 88.949219 331.078125 88.660156 C 330.644531 88.367188 330.195312 88.097656 329.730469 87.851562 C 329.269531 87.601562 328.792969 87.378906 328.308594 87.175781 C 327.824219 86.976562 327.332031 86.796875 326.828125 86.644531 C 326.328125 86.492188 325.816406 86.367188 325.304688 86.261719 C 324.789062 86.160156 324.269531 86.082031 323.746094 86.03125 C 323.226562 85.976562 322.699219 85.953125 322.175781 85.953125 L 193.910156 85.953125 C 193.382812 85.953125 192.859375 85.976562 192.339844 86.03125 C 191.816406 86.082031 191.296875 86.160156 190.78125 86.261719 C 190.269531 86.367188 189.757812 86.492188 189.257812 86.644531 C 188.753906 86.796875 188.261719 86.976562 187.777344 87.175781 C 187.292969 87.378906 186.816406 87.601562 186.355469 87.851562 C 185.890625 88.097656 185.441406 88.367188 185.007812 88.660156 C 184.570312 88.949219 184.148438 89.261719 183.742188 89.597656 C 183.335938 89.929688 182.949219 90.28125 182.578125 90.652344 C 182.207031 91.023438 181.855469 91.414062 181.519531 91.816406 C 181.1875 92.222656 180.875 92.644531 180.582031 93.082031 C 180.292969 93.519531 180.023438 93.96875 179.773438 94.429688 C 179.527344 94.894531 179.300781 95.367188 179.101562 95.851562 C 178.898438 96.335938 178.722656 96.832031 178.570312 97.332031 C 178.417969 97.835938 178.289062 98.34375 178.1875 98.859375 C 178.085938 99.371094 178.007812 99.890625 177.953125 100.414062 C 177.902344 100.9375 177.875 101.460938 177.875 101.984375 L 177.875 187.496094 C 177.875 188.019531 177.902344 188.542969 177.953125 189.066406 C 178.007812 189.589844 178.085938 190.109375 178.1875 190.621094 C 178.289062 191.136719 178.417969 191.644531 178.570312 192.148438 C 178.722656 192.652344 178.898438 193.144531 179.101562 193.628906 C 179.300781 194.113281 179.527344 194.585938 179.773438 195.050781 C 180.023438 195.511719 180.292969 195.964844 180.582031 196.398438 C 180.875 196.835938 181.1875 197.257812 181.519531 197.664062 C 181.855469 198.070312 182.207031 198.457031 182.578125 198.828125 C 182.949219 199.199219 183.335938 199.550781 183.742188 199.882812 C 184.148438 200.21875 184.570312 200.53125 185.007812 200.820312 C 185.441406 201.113281 185.890625 201.382812 186.355469 201.632812 C 186.816406 201.878906 187.292969 202.101562 187.777344 202.304688 C 188.261719 202.503906 188.753906 202.683594 189.257812 202.835938 C 189.757812 202.988281 190.269531 203.117188 190.78125 203.21875 C 191.296875 203.320312 191.816406 203.398438 192.339844 203.449219 C 192.859375 203.503906 193.382812 203.527344 193.910156 203.53125 L 231.320312 203.53125 C 231.671875 203.527344 232.019531 203.5625 232.363281 203.632812 C 232.707031 203.699219 233.042969 203.800781 233.367188 203.933594 C 233.691406 204.070312 234 204.234375 234.289062 204.429688 C 234.582031 204.625 234.851562 204.84375 235.101562 205.09375 C 235.347656 205.34375 235.570312 205.613281 235.765625 205.902344 C 235.960938 206.195312 236.125 206.503906 236.257812 206.828125 C 236.394531 207.152344 236.496094 207.488281 236.5625 207.832031 C 236.632812 208.175781 236.664062 208.523438 236.664062 208.875 L 236.664062 233.382812 C 236.699219 233.8125 236.84375 234.203125 237.097656 234.550781 C 237.351562 234.898438 237.675781 235.15625 238.074219 235.320312 C 238.472656 235.484375 238.886719 235.535156 239.3125 235.46875 C 239.738281 235.402344 240.113281 235.226562 240.445312 234.949219 L 270.296875 205.09375 C 270.796875 204.59375 271.375 204.207031 272.03125 203.9375 C 272.6875 203.664062 273.367188 203.53125 274.074219 203.53125 L 322.175781 203.53125 C 322.699219 203.527344 323.226562 203.503906 323.746094 203.449219 C 324.269531 203.398438 324.789062 203.320312 325.304688 203.21875 C 325.816406 203.117188 326.328125 202.988281 326.828125 202.835938 C 327.332031 202.683594 327.824219 202.503906 328.308594 202.304688 C 328.792969 202.101562 329.269531 201.878906 329.730469 201.632812 C 330.195312 201.382812 330.644531 201.113281 331.078125 200.820312 C 331.515625 200.53125 331.9375 200.21875 332.34375 199.882812 C 332.75 199.550781 333.136719 199.199219 333.507812 198.828125 C 333.878906 198.457031 334.230469 198.070312 334.566406 197.664062 C 334.898438 197.257812 335.210938 196.835938 335.503906 196.398438 C 335.792969 195.964844 336.0625 195.511719 336.3125 195.050781 C 336.558594 194.585938 336.785156 194.113281 336.984375 193.628906 C 337.183594 193.144531 337.363281 192.652344 337.515625 192.148438 C 337.667969 191.644531 337.796875 191.136719 337.898438 190.621094 C 338 190.109375 338.078125 189.589844 338.128906 189.066406 C 338.183594 188.542969 338.207031 188.019531 338.210938 187.496094 Z M 138.390625 85.953125 L 132.28125 107.328125 L 145.808594 107.328125 C 146.160156 107.328125 146.507812 107.363281 146.851562 107.433594 C 147.195312 107.5 147.53125 107.601562 147.855469 107.734375 C 148.179688 107.871094 148.488281 108.035156 148.777344 108.230469 C 149.070312 108.425781 149.339844 108.648438 149.589844 108.894531 C 149.835938 109.144531 150.058594 109.414062 150.253906 109.703125 C 150.449219 109.996094 150.613281 110.304688 150.746094 110.628906 C 150.882812 110.953125 150.984375 111.285156 151.050781 111.632812 C 151.121094 111.976562 151.152344 112.324219 151.152344 112.671875 C 151.152344 113.023438 151.121094 113.371094 151.050781 113.714844 C 150.984375 114.0625 150.882812 114.394531 150.746094 114.71875 C 150.613281 115.042969 150.449219 115.351562 150.253906 115.644531 C 150.058594 115.933594 149.835938 116.203125 149.589844 116.453125 C 149.339844 116.699219 149.070312 116.921875 148.777344 117.117188 C 148.488281 117.3125 148.179688 117.476562 147.855469 117.613281 C 147.53125 117.746094 147.195312 117.847656 146.851562 117.914062 C 146.507812 117.984375 146.160156 118.019531 145.808594 118.019531 L 129.226562 118.019531 L 124.226562 135.519531 C 124.066406 136.074219 123.824219 136.59375 123.496094 137.074219 C 123.167969 137.550781 122.773438 137.964844 122.308594 138.316406 C 121.84375 138.664062 121.339844 138.933594 120.789062 139.117188 C 120.238281 139.300781 119.671875 139.394531 119.09375 139.394531 C 118.59375 139.394531 118.101562 139.328125 117.621094 139.191406 C 117.285156 139.097656 116.957031 138.96875 116.648438 138.808594 C 116.335938 138.644531 116.039062 138.457031 115.765625 138.238281 C 115.492188 138.019531 115.242188 137.777344 115.011719 137.511719 C 114.785156 137.242188 114.585938 136.957031 114.417969 136.648438 C 114.246094 136.34375 114.105469 136.023438 114 135.6875 C 113.890625 135.351562 113.816406 135.011719 113.777344 134.664062 C 113.738281 134.316406 113.730469 133.964844 113.761719 133.617188 C 113.789062 133.265625 113.851562 132.921875 113.945312 132.585938 L 118.109375 118.019531 L 97.160156 118.019531 L 92.160156 135.519531 C 92 136.074219 91.757812 136.59375 91.429688 137.074219 C 91.101562 137.550781 90.703125 137.964844 90.242188 138.316406 C 89.777344 138.664062 89.273438 138.933594 88.722656 139.117188 C 88.171875 139.300781 87.605469 139.394531 87.027344 139.394531 C 86.527344 139.394531 86.035156 139.328125 85.554688 139.191406 C 85.214844 139.097656 84.890625 138.96875 84.578125 138.808594 C 84.269531 138.644531 83.972656 138.457031 83.699219 138.238281 C 83.425781 138.019531 83.171875 137.777344 82.945312 137.511719 C 82.71875 137.242188 82.519531 136.957031 82.351562 136.648438 C 82.179688 136.34375 82.039062 136.023438 81.933594 135.6875 C 81.824219 135.351562 81.75 135.011719 81.710938 134.664062 C 81.671875 134.316406 81.664062 133.964844 81.691406 133.617188 C 81.722656 133.265625 81.785156 132.921875 81.878906 132.585938 L 86.042969 118.019531 L 70.988281 118.019531 C 70.636719 118.019531 70.289062 117.984375 69.945312 117.914062 C 69.601562 117.847656 69.265625 117.746094 68.941406 117.613281 C 68.617188 117.476562 68.308594 117.3125 68.019531 117.117188 C 67.726562 116.921875 67.457031 116.699219 67.207031 116.453125 C 66.960938 116.203125 66.738281 115.933594 66.542969 115.644531 C 66.347656 115.351562 66.183594 115.042969 66.050781 114.71875 C 65.914062 114.394531 65.8125 114.0625 65.746094 113.714844 C 65.675781 113.371094 65.644531 113.023438 65.644531 112.671875 C 65.644531 112.324219 65.675781 111.976562 65.746094 111.632812 C 65.8125 111.285156 65.914062 110.953125 66.050781 110.628906 C 66.183594 110.304688 66.347656 109.996094 66.542969 109.703125 C 66.738281 109.414062 66.960938 109.144531 67.207031 108.894531 C 67.457031 108.648438 67.726562 108.425781 68.019531 108.230469 C 68.308594 108.035156 68.617188 107.871094 68.941406 107.734375 C 69.265625 107.601562 69.601562 107.5 69.945312 107.433594 C 70.289062 107.363281 70.636719 107.328125 70.988281 107.328125 L 89.09375 107.328125 L 95.203125 85.953125 L 81.675781 85.953125 C 81.324219 85.953125 80.976562 85.917969 80.632812 85.847656 C 80.289062 85.78125 79.953125 85.679688 79.628906 85.542969 C 79.304688 85.410156 79 85.246094 78.707031 85.050781 C 78.414062 84.855469 78.144531 84.632812 77.898438 84.386719 C 77.648438 84.136719 77.425781 83.867188 77.230469 83.578125 C 77.039062 83.285156 76.871094 82.976562 76.738281 82.652344 C 76.605469 82.328125 76.503906 81.992188 76.433594 81.648438 C 76.367188 81.304688 76.332031 80.957031 76.332031 80.605469 C 76.332031 80.257812 76.367188 79.910156 76.433594 79.5625 C 76.503906 79.21875 76.605469 78.886719 76.738281 78.5625 C 76.871094 78.238281 77.039062 77.929688 77.230469 77.636719 C 77.425781 77.347656 77.648438 77.074219 77.898438 76.828125 C 78.144531 76.578125 78.414062 76.359375 78.707031 76.164062 C 79 75.96875 79.304688 75.804688 79.628906 75.667969 C 79.953125 75.535156 80.289062 75.433594 80.632812 75.367188 C 80.976562 75.296875 81.324219 75.261719 81.675781 75.261719 L 98.257812 75.261719 L 103.257812 57.761719 C 103.355469 57.425781 103.484375 57.101562 103.644531 56.789062 C 103.804688 56.480469 103.996094 56.1875 104.214844 55.914062 C 104.429688 55.640625 104.675781 55.390625 104.941406 55.164062 C 105.210938 54.9375 105.496094 54.738281 105.800781 54.570312 C 106.109375 54.398438 106.429688 54.261719 106.761719 54.152344 C 107.097656 54.046875 107.4375 53.972656 107.785156 53.933594 C 108.132812 53.894531 108.480469 53.886719 108.832031 53.917969 C 109.179688 53.945312 109.523438 54.007812 109.859375 54.105469 C 110.199219 54.199219 110.523438 54.328125 110.832031 54.488281 C 111.144531 54.648438 111.4375 54.835938 111.714844 55.054688 C 111.988281 55.269531 112.238281 55.511719 112.464844 55.78125 C 112.691406 56.046875 112.890625 56.332031 113.0625 56.640625 C 113.234375 56.945312 113.371094 57.265625 113.480469 57.597656 C 113.589844 57.933594 113.664062 58.273438 113.703125 58.621094 C 113.746094 58.96875 113.75 59.316406 113.722656 59.667969 C 113.695312 60.015625 113.632812 60.359375 113.539062 60.695312 L 109.378906 75.261719 L 130.324219 75.261719 L 135.324219 57.761719 C 135.421875 57.425781 135.550781 57.101562 135.710938 56.789062 C 135.871094 56.480469 136.0625 56.1875 136.28125 55.914062 C 136.496094 55.640625 136.742188 55.390625 137.007812 55.164062 C 137.277344 54.9375 137.5625 54.738281 137.871094 54.570312 C 138.175781 54.398438 138.496094 54.261719 138.828125 54.152344 C 139.164062 54.046875 139.503906 53.972656 139.851562 53.933594 C 140.199219 53.894531 140.550781 53.886719 140.898438 53.917969 C 141.246094 53.945312 141.589844 54.007812 141.925781 54.105469 C 142.265625 54.199219 142.589844 54.328125 142.898438 54.488281 C 143.210938 54.648438 143.503906 54.835938 143.78125 55.054688 C 144.054688 55.269531 144.304688 55.511719 144.53125 55.78125 C 144.757812 56.046875 144.957031 56.332031 145.128906 56.640625 C 145.300781 56.945312 145.4375 57.265625 145.546875 57.597656 C 145.65625 57.933594 145.730469 58.273438 145.769531 58.621094 C 145.8125 58.96875 145.816406 59.316406 145.789062 59.667969 C 145.761719 60.015625 145.699219 60.359375 145.605469 60.695312 L 141.445312 75.261719 L 156.5 75.261719 C 156.847656 75.261719 157.195312 75.296875 157.539062 75.367188 C 157.886719 75.433594 158.21875 75.535156 158.542969 75.667969 C 158.867188 75.804688 159.175781 75.96875 159.46875 76.164062 C 159.757812 76.359375 160.027344 76.578125 160.277344 76.828125 C 160.527344 77.074219 160.746094 77.347656 160.941406 77.636719 C 161.136719 77.929688 161.300781 78.238281 161.4375 78.5625 C 161.570312 78.886719 161.671875 79.21875 161.738281 79.5625 C 161.808594 79.910156 161.84375 80.257812 161.84375 80.605469 C 161.84375 80.957031 161.808594 81.304688 161.738281 81.648438 C 161.671875 81.992188 161.570312 82.328125 161.4375 82.652344 C 161.300781 82.976562 161.136719 83.285156 160.941406 83.578125 C 160.746094 83.867188 160.527344 84.136719 160.277344 84.386719 C 160.027344 84.632812 159.757812 84.855469 159.46875 85.050781 C 159.175781 85.246094 158.867188 85.410156 158.542969 85.542969 C 158.21875 85.679688 157.886719 85.78125 157.539062 85.847656 C 157.195312 85.917969 156.847656 85.953125 156.5 85.953125 Z M 127.269531 85.953125 L 106.324219 85.953125 L 100.214844 107.328125 L 121.160156 107.328125 Z M 306.144531 144.742188 L 306.144531 176.808594 C 306.140625 177.332031 306.117188 177.855469 306.0625 178.378906 C 306.011719 178.902344 305.933594 179.417969 305.832031 179.933594 C 305.730469 180.449219 305.601562 180.957031 305.449219 181.460938 C 305.296875 181.960938 305.117188 182.457031 304.917969 182.941406 C 304.714844 183.425781 304.492188 183.898438 304.246094 184.363281 C 303.996094 184.824219 303.726562 185.273438 303.433594 185.710938 C 303.144531 186.148438 302.832031 186.566406 302.5 186.972656 C 302.164062 187.378906 301.8125 187.769531 301.441406 188.140625 C 301.070312 188.511719 300.683594 188.863281 300.277344 189.195312 C 299.871094 189.527344 299.449219 189.839844 299.011719 190.132812 C 298.578125 190.425781 298.125 190.695312 297.664062 190.941406 C 297.203125 191.191406 296.726562 191.414062 296.242188 191.617188 C 295.757812 191.816406 295.265625 191.992188 294.761719 192.144531 C 294.257812 192.300781 293.75 192.425781 293.234375 192.53125 C 292.722656 192.632812 292.203125 192.710938 291.679688 192.761719 C 291.15625 192.8125 290.632812 192.839844 290.109375 192.839844 L 263.386719 192.839844 C 259.449219 192.804688 255.582031 192.257812 251.789062 191.191406 C 247.996094 190.128906 244.410156 188.585938 241.027344 186.566406 C 240.601562 187.5 240.058594 188.355469 239.386719 189.132812 C 238.71875 189.90625 237.953125 190.574219 237.09375 191.128906 C 236.234375 191.683594 235.3125 192.109375 234.332031 192.398438 C 233.347656 192.691406 232.34375 192.839844 231.320312 192.839844 L 220.632812 192.839844 C 219.929688 192.839844 219.234375 192.769531 218.546875 192.632812 C 217.859375 192.496094 217.191406 192.292969 216.542969 192.023438 C 215.894531 191.753906 215.28125 191.425781 214.695312 191.035156 C 214.113281 190.644531 213.574219 190.203125 213.078125 189.707031 C 212.582031 189.210938 212.136719 188.667969 211.75 188.085938 C 211.359375 187.503906 211.027344 186.886719 210.761719 186.238281 C 210.492188 185.59375 210.289062 184.925781 210.152344 184.234375 C 210.011719 183.546875 209.945312 182.851562 209.941406 182.152344 L 209.941406 134.050781 C 209.945312 133.351562 210.011719 132.65625 210.152344 131.96875 C 210.289062 131.277344 210.492188 130.609375 210.761719 129.964844 C 211.027344 129.316406 211.359375 128.699219 211.75 128.117188 C 212.136719 127.53125 212.582031 126.992188 213.078125 126.496094 C 213.574219 126 214.113281 125.558594 214.695312 125.167969 C 215.28125 124.777344 215.894531 124.449219 216.542969 124.179688 C 217.191406 123.910156 217.859375 123.707031 218.546875 123.570312 C 219.234375 123.433594 219.929688 123.363281 220.632812 123.363281 L 231.320312 123.363281 C 231.933594 123.363281 232.542969 123.417969 233.148438 123.523438 C 233.753906 123.628906 234.34375 123.785156 234.921875 123.992188 C 235.5 124.199219 236.054688 124.457031 236.589844 124.761719 C 237.125 125.0625 237.628906 125.410156 238.101562 125.800781 C 238.574219 126.191406 239.011719 126.617188 239.414062 127.082031 C 239.8125 127.546875 240.171875 128.042969 240.488281 128.570312 C 240.800781 129.097656 241.070312 129.648438 241.289062 130.21875 C 241.511719 130.792969 241.679688 131.382812 241.800781 131.984375 C 243.078125 131.105469 244.246094 130.105469 245.3125 128.984375 C 247.46875 126.847656 249.183594 124.402344 250.457031 121.644531 C 251.730469 118.890625 252.480469 116 252.707031 112.972656 C 252.566406 110.839844 252.847656 108.765625 253.554688 106.75 C 254.265625 104.734375 255.339844 102.9375 256.785156 101.363281 C 257.558594 100.574219 258.410156 99.875 259.332031 99.261719 C 260.253906 98.648438 261.226562 98.140625 262.257812 97.734375 C 263.285156 97.328125 264.347656 97.03125 265.4375 96.847656 C 266.527344 96.664062 267.625 96.59375 268.730469 96.640625 C 269.890625 96.671875 271.03125 96.847656 272.144531 97.167969 C 273.261719 97.492188 274.316406 97.953125 275.3125 98.546875 C 276.3125 99.140625 277.214844 99.851562 278.027344 100.683594 C 278.84375 101.511719 279.539062 102.429688 280.113281 103.4375 C 281.132812 105.367188 281.9375 107.378906 282.535156 109.476562 C 283.128906 111.574219 283.503906 113.710938 283.652344 115.886719 C 283.804688 118.0625 283.726562 120.230469 283.425781 122.390625 C 283.121094 124.550781 282.601562 126.65625 281.859375 128.707031 L 290.109375 128.707031 C 290.632812 128.707031 291.15625 128.734375 291.679688 128.785156 C 292.203125 128.835938 292.722656 128.914062 293.234375 129.019531 C 293.75 129.121094 294.257812 129.25 294.761719 129.402344 C 295.265625 129.554688 295.757812 129.730469 296.242188 129.933594 C 296.726562 130.132812 297.203125 130.359375 297.664062 130.605469 C 298.128906 130.851562 298.578125 131.121094 299.011719 131.414062 C 299.449219 131.707031 299.871094 132.019531 300.277344 132.351562 C 300.683594 132.683594 301.070312 133.035156 301.441406 133.410156 C 301.8125 133.78125 302.164062 134.167969 302.5 134.574219 C 302.832031 134.980469 303.144531 135.402344 303.433594 135.835938 C 303.726562 136.273438 303.996094 136.722656 304.246094 137.1875 C 304.492188 137.648438 304.714844 138.121094 304.917969 138.609375 C 305.117188 139.09375 305.296875 139.585938 305.449219 140.089844 C 305.601562 140.589844 305.730469 141.097656 305.832031 141.613281 C 305.933594 142.128906 306.011719 142.648438 306.0625 143.167969 C 306.117188 143.691406 306.140625 144.214844 306.144531 144.742188 Z M 231.332031 182.152344 L 231.320312 134.050781 L 220.632812 134.050781 L 220.632812 182.152344 Z M 295.453125 144.742188 C 295.453125 144.390625 295.417969 144.042969 295.351562 143.699219 C 295.28125 143.355469 295.179688 143.019531 295.046875 142.695312 C 294.910156 142.371094 294.746094 142.0625 294.550781 141.773438 C 294.355469 141.480469 294.136719 141.210938 293.886719 140.960938 C 293.640625 140.714844 293.371094 140.492188 293.078125 140.296875 C 292.785156 140.101562 292.476562 139.9375 292.152344 139.804688 C 291.832031 139.667969 291.496094 139.566406 291.152344 139.5 C 290.808594 139.429688 290.460938 139.394531 290.109375 139.394531 L 274.074219 139.394531 C 273.851562 139.394531 273.628906 139.382812 273.402344 139.355469 C 273.179688 139.324219 272.960938 139.285156 272.742188 139.226562 C 272.523438 139.171875 272.3125 139.101562 272.101562 139.019531 C 271.890625 138.933594 271.6875 138.839844 271.492188 138.730469 C 271.296875 138.621094 271.105469 138.5 270.925781 138.367188 C 270.742188 138.234375 270.570312 138.09375 270.40625 137.9375 C 270.242188 137.78125 270.089844 137.617188 269.945312 137.445312 C 269.804688 137.269531 269.671875 137.089844 269.550781 136.898438 C 269.433594 136.707031 269.324219 136.511719 269.230469 136.308594 C 269.136719 136.101562 269.054688 135.894531 268.984375 135.679688 C 268.917969 135.464844 268.863281 135.246094 268.820312 135.027344 C 268.78125 134.804688 268.753906 134.582031 268.742188 134.355469 C 268.726562 134.132812 268.730469 133.90625 268.746094 133.683594 C 268.761719 133.457031 268.789062 133.234375 268.832031 133.015625 C 268.878906 132.792969 268.933594 132.578125 269.007812 132.363281 C 269.078125 132.152344 269.160156 131.941406 269.257812 131.738281 C 274.050781 121.75 273.621094 113.183594 271.066406 109.128906 C 270.640625 108.457031 269.777344 107.328125 268.730469 107.328125 C 267.96875 107.261719 267.226562 107.347656 266.5 107.589844 C 265.773438 107.828125 265.121094 108.203125 264.550781 108.710938 C 264.117188 109.21875 263.800781 109.792969 263.597656 110.425781 C 263.394531 111.0625 263.320312 111.710938 263.375 112.375 C 263.324219 114.609375 263.058594 116.816406 262.582031 118.996094 C 262.105469 121.179688 261.425781 123.296875 260.542969 125.347656 C 259.660156 127.398438 258.59375 129.347656 257.335938 131.195312 C 256.082031 133.042969 254.664062 134.753906 253.078125 136.328125 C 250.007812 139.71875 246.316406 142.183594 242.007812 143.726562 L 242.007812 174.355469 C 245.046875 176.796875 248.394531 178.679688 252.054688 180.015625 C 255.714844 181.351562 259.492188 182.0625 263.386719 182.152344 L 290.109375 182.152344 C 290.460938 182.152344 290.808594 182.117188 291.152344 182.046875 C 291.496094 181.980469 291.832031 181.878906 292.152344 181.742188 C 292.476562 181.609375 292.785156 181.445312 293.078125 181.25 C 293.371094 181.054688 293.640625 180.832031 293.886719 180.585938 C 294.136719 180.335938 294.355469 180.066406 294.550781 179.777344 C 294.746094 179.484375 294.910156 179.175781 295.046875 178.851562 C 295.179688 178.527344 295.28125 178.195312 295.351562 177.847656 C 295.417969 177.503906 295.453125 177.15625 295.453125 176.808594 Z M 177.875 262.316406 C 177.875 263.019531 177.839844 263.714844 177.769531 264.414062 C 177.703125 265.109375 177.597656 265.800781 177.460938 266.488281 C 177.324219 267.171875 177.15625 267.851562 176.949219 268.523438 C 176.746094 269.191406 176.511719 269.847656 176.242188 270.496094 C 175.976562 271.140625 175.675781 271.773438 175.34375 272.390625 C 175.015625 273.007812 174.65625 273.609375 174.265625 274.191406 C 173.878906 274.773438 173.460938 275.332031 173.015625 275.875 C 172.574219 276.414062 172.101562 276.933594 171.609375 277.429688 C 171.113281 277.921875 170.59375 278.394531 170.054688 278.835938 C 169.511719 279.28125 168.953125 279.699219 168.371094 280.085938 C 167.789062 280.476562 167.1875 280.835938 166.570312 281.164062 C 165.953125 281.496094 165.324219 281.792969 164.675781 282.0625 C 164.03125 282.332031 163.371094 282.566406 162.703125 282.769531 C 162.03125 282.972656 161.355469 283.144531 160.667969 283.28125 C 159.980469 283.417969 159.289062 283.523438 158.59375 283.589844 C 157.898438 283.660156 157.199219 283.695312 156.5 283.695312 L 156.5 321.105469 C 156.5 321.691406 156.40625 322.261719 156.21875 322.8125 C 156.03125 323.367188 155.761719 323.878906 155.40625 324.34375 C 155.054688 324.808594 154.636719 325.203125 154.152344 325.53125 C 153.667969 325.859375 153.144531 326.101562 152.582031 326.257812 C 152.019531 326.414062 151.445312 326.476562 150.859375 326.445312 C 150.277344 326.410156 149.714844 326.289062 149.171875 326.070312 C 148.628906 325.855469 148.136719 325.554688 147.691406 325.175781 C 147.246094 324.796875 146.871094 324.359375 146.570312 323.859375 C 146.007812 322.941406 132.304688 301.695312 92.363281 299.90625 L 92.363281 329.125 C 92.363281 329.738281 92.335938 330.347656 92.273438 330.957031 C 92.214844 331.566406 92.125 332.171875 92.003906 332.773438 C 91.886719 333.375 91.738281 333.96875 91.558594 334.554688 C 91.382812 335.140625 91.175781 335.714844 90.941406 336.28125 C 90.707031 336.847656 90.445312 337.402344 90.15625 337.941406 C 89.867188 338.480469 89.554688 339.007812 89.210938 339.515625 C 88.871094 340.027344 88.507812 340.515625 88.117188 340.992188 C 87.730469 341.464844 87.320312 341.917969 86.886719 342.351562 C 86.453125 342.785156 86 343.195312 85.527344 343.582031 C 85.050781 343.972656 84.5625 344.335938 84.050781 344.675781 C 83.542969 345.015625 83.015625 345.332031 82.476562 345.621094 C 81.9375 345.910156 81.382812 346.171875 80.816406 346.40625 C 80.25 346.640625 79.675781 346.847656 79.089844 347.023438 C 78.503906 347.203125 77.910156 347.351562 77.308594 347.46875 C 76.707031 347.589844 76.101562 347.679688 75.492188 347.738281 C 74.882812 347.800781 74.273438 347.828125 73.660156 347.828125 C 73.046875 347.828125 72.4375 347.800781 71.824219 347.738281 C 71.214844 347.679688 70.609375 347.589844 70.011719 347.46875 C 69.410156 347.351562 68.816406 347.203125 68.230469 347.023438 C 67.644531 346.847656 67.066406 346.640625 66.5 346.40625 C 65.933594 346.171875 65.382812 345.910156 64.839844 345.621094 C 64.300781 345.332031 63.777344 345.015625 63.265625 344.675781 C 62.757812 344.335938 62.265625 343.972656 61.792969 343.582031 C 61.320312 343.195312 60.867188 342.785156 60.433594 342.351562 C 60 341.917969 59.589844 341.464844 59.199219 340.992188 C 58.8125 340.515625 58.445312 340.027344 58.105469 339.515625 C 57.765625 339.007812 57.453125 338.480469 57.164062 337.941406 C 56.875 337.402344 56.613281 336.847656 56.378906 336.28125 C 56.144531 335.714844 55.9375 335.140625 55.757812 334.554688 C 55.582031 333.96875 55.433594 333.375 55.3125 332.773438 C 55.195312 332.171875 55.105469 331.566406 55.042969 330.957031 C 54.984375 330.347656 54.953125 329.738281 54.953125 329.125 L 54.953125 298.152344 C 53.886719 297.835938 52.839844 297.472656 51.804688 297.0625 C 50.773438 296.648438 49.757812 296.191406 48.765625 295.691406 C 47.773438 295.191406 46.804688 294.644531 45.863281 294.058594 C 44.917969 293.46875 44.003906 292.839844 43.113281 292.171875 C 42.226562 291.503906 41.371094 290.792969 40.546875 290.050781 C 39.722656 289.304688 38.929688 288.523438 38.175781 287.707031 C 37.421875 286.890625 36.703125 286.039062 36.023438 285.160156 C 35.34375 284.28125 34.707031 283.371094 34.109375 282.433594 C 33.507812 281.496094 32.953125 280.535156 32.441406 279.546875 C 31.929688 278.5625 31.460938 277.554688 31.039062 276.523438 C 30.617188 275.496094 30.238281 274.453125 29.910156 273.390625 C 29.582031 272.328125 29.300781 271.253906 29.066406 270.164062 C 28.832031 269.078125 28.648438 267.984375 28.511719 266.878906 C 28.375 265.773438 28.289062 264.667969 28.253906 263.554688 C 28.214844 262.445312 28.226562 261.335938 28.289062 260.222656 C 28.351562 259.113281 28.460938 258.007812 28.625 256.90625 C 28.785156 255.808594 28.992188 254.714844 29.25 253.636719 C 29.507812 252.554688 29.816406 251.484375 30.167969 250.429688 C 30.519531 249.375 30.921875 248.339844 31.367188 247.320312 C 31.8125 246.300781 32.300781 245.304688 32.835938 244.332031 C 33.371094 243.355469 33.949219 242.40625 34.566406 241.480469 C 35.1875 240.558594 35.84375 239.664062 36.542969 238.800781 C 37.242188 237.933594 37.980469 237.101562 38.753906 236.304688 C 39.523438 235.503906 40.332031 234.742188 41.171875 234.011719 C 42.015625 233.285156 42.886719 232.597656 43.789062 231.949219 C 44.691406 231.300781 45.621094 230.691406 46.578125 230.125 C 47.535156 229.558594 48.515625 229.035156 49.519531 228.554688 C 50.523438 228.078125 51.546875 227.644531 52.585938 227.257812 C 53.628906 226.867188 54.6875 226.527344 55.761719 226.234375 C 56.832031 225.941406 57.914062 225.695312 59.011719 225.5 C 60.105469 225.300781 61.207031 225.152344 62.3125 225.054688 C 63.421875 224.957031 64.53125 224.90625 65.644531 224.90625 L 87.019531 224.90625 C 131.152344 224.90625 145.980469 201.734375 146.585938 200.746094 C 146.894531 200.253906 147.273438 199.820312 147.71875 199.449219 C 148.167969 199.078125 148.664062 198.785156 149.207031 198.574219 C 149.75 198.363281 150.308594 198.242188 150.890625 198.214844 C 151.472656 198.183594 152.042969 198.25 152.605469 198.402344 C 153.164062 198.5625 153.683594 198.804688 154.164062 199.128906 C 154.644531 199.457031 155.058594 199.851562 155.410156 200.3125 C 155.761719 200.777344 156.03125 201.28125 156.21875 201.832031 C 156.402344 202.382812 156.496094 202.949219 156.5 203.53125 L 156.5 240.941406 C 157.199219 240.941406 157.898438 240.976562 158.59375 241.046875 C 159.289062 241.113281 159.980469 241.21875 160.667969 241.355469 C 161.355469 241.492188 162.03125 241.664062 162.703125 241.867188 C 163.371094 242.070312 164.03125 242.304688 164.675781 242.574219 C 165.324219 242.839844 165.953125 243.140625 166.570312 243.472656 C 167.1875 243.800781 167.789062 244.160156 168.371094 244.550781 C 168.953125 244.9375 169.511719 245.355469 170.054688 245.800781 C 170.59375 246.242188 171.113281 246.714844 171.609375 247.207031 C 172.101562 247.703125 172.574219 248.222656 173.015625 248.761719 C 173.460938 249.304688 173.878906 249.863281 174.265625 250.445312 C 174.65625 251.027344 175.015625 251.628906 175.34375 252.246094 C 175.675781 252.863281 175.976562 253.492188 176.242188 254.140625 C 176.511719 254.789062 176.746094 255.445312 176.949219 256.113281 C 177.15625 256.785156 177.324219 257.460938 177.460938 258.148438 C 177.597656 258.835938 177.703125 259.527344 177.769531 260.222656 C 177.839844 260.921875 177.875 261.617188 177.875 262.316406 Z M 65.644531 289.039062 L 81.675781 289.039062 L 81.675781 235.597656 L 65.644531 235.597656 C 64.765625 235.597656 63.894531 235.640625 63.023438 235.726562 C 62.152344 235.808594 61.289062 235.9375 60.429688 236.109375 C 59.570312 236.28125 58.722656 236.492188 57.886719 236.746094 C 57.046875 237 56.226562 237.296875 55.417969 237.628906 C 54.609375 237.964844 53.816406 238.339844 53.046875 238.75 C 52.273438 239.164062 51.523438 239.613281 50.796875 240.097656 C 50.070312 240.585938 49.367188 241.105469 48.691406 241.660156 C 48.015625 242.21875 47.367188 242.804688 46.746094 243.421875 C 46.128906 244.042969 45.542969 244.6875 44.984375 245.367188 C 44.429688 246.042969 43.910156 246.746094 43.425781 247.472656 C 42.9375 248.199219 42.488281 248.949219 42.074219 249.722656 C 41.664062 250.492188 41.289062 251.285156 40.953125 252.09375 C 40.621094 252.902344 40.324219 253.722656 40.070312 254.5625 C 39.816406 255.398438 39.605469 256.246094 39.433594 257.105469 C 39.261719 257.964844 39.136719 258.828125 39.050781 259.699219 C 38.964844 260.570312 38.921875 261.441406 38.921875 262.316406 C 38.921875 263.195312 38.964844 264.066406 39.050781 264.9375 C 39.136719 265.808594 39.261719 266.671875 39.433594 267.53125 C 39.605469 268.390625 39.816406 269.238281 40.070312 270.074219 C 40.324219 270.914062 40.621094 271.734375 40.953125 272.542969 C 41.289062 273.351562 41.664062 274.144531 42.074219 274.914062 C 42.488281 275.6875 42.9375 276.4375 43.425781 277.164062 C 43.910156 277.890625 44.429688 278.59375 44.984375 279.269531 C 45.542969 279.945312 46.128906 280.59375 46.746094 281.214844 C 47.367188 281.832031 48.015625 282.417969 48.691406 282.976562 C 49.367188 283.53125 50.070312 284.050781 50.796875 284.535156 C 51.523438 285.023438 52.273438 285.472656 53.046875 285.886719 C 53.816406 286.296875 54.609375 286.671875 55.417969 287.007812 C 56.226562 287.339844 57.046875 287.636719 57.886719 287.890625 C 58.722656 288.144531 59.570312 288.355469 60.429688 288.527344 C 61.289062 288.699219 62.152344 288.824219 63.023438 288.910156 C 63.894531 288.996094 64.765625 289.039062 65.644531 289.039062 Z M 81.675781 329.125 L 81.675781 299.730469 L 65.644531 299.730469 L 65.644531 329.125 C 65.644531 329.648438 65.695312 330.171875 65.796875 330.6875 C 65.898438 331.203125 66.050781 331.707031 66.253906 332.191406 C 66.453125 332.679688 66.703125 333.140625 66.992188 333.578125 C 67.285156 334.015625 67.617188 334.421875 67.992188 334.792969 C 68.363281 335.164062 68.769531 335.496094 69.207031 335.789062 C 69.644531 336.082031 70.105469 336.328125 70.589844 336.53125 C 71.078125 336.730469 71.578125 336.882812 72.09375 336.988281 C 72.613281 337.089844 73.132812 337.140625 73.660156 337.140625 C 74.1875 337.140625 74.707031 337.089844 75.222656 336.988281 C 75.738281 336.882812 76.242188 336.730469 76.726562 336.53125 C 77.214844 336.328125 77.675781 336.082031 78.113281 335.789062 C 78.550781 335.496094 78.957031 335.164062 79.328125 334.792969 C 79.699219 334.421875 80.03125 334.015625 80.324219 333.578125 C 80.617188 333.140625 80.863281 332.679688 81.066406 332.191406 C 81.265625 331.707031 81.417969 331.203125 81.523438 330.6875 C 81.625 330.171875 81.675781 329.648438 81.675781 329.125 Z M 145.808594 217.105469 C 136.398438 224.949219 119.464844 234.242188 92.363281 235.371094 L 92.363281 289.261719 C 119.464844 290.394531 136.398438 299.6875 145.808594 307.53125 Z M 167.1875 262.316406 C 167.1875 261.617188 167.117188 260.921875 166.980469 260.234375 C 166.84375 259.546875 166.640625 258.878906 166.371094 258.230469 C 166.101562 257.582031 165.773438 256.964844 165.382812 256.382812 C 164.992188 255.800781 164.546875 255.261719 164.050781 254.765625 C 163.554688 254.269531 163.015625 253.824219 162.433594 253.433594 C 161.851562 253.046875 161.234375 252.714844 160.585938 252.445312 C 159.9375 252.179688 159.269531 251.976562 158.582031 251.835938 C 157.894531 251.699219 157.199219 251.628906 156.5 251.628906 L 156.5 273.007812 C 157.199219 273.007812 157.894531 272.9375 158.582031 272.800781 C 159.269531 272.660156 159.9375 272.457031 160.585938 272.191406 C 161.234375 271.921875 161.851562 271.589844 162.433594 271.203125 C 163.015625 270.8125 163.554688 270.367188 164.050781 269.871094 C 164.546875 269.375 164.992188 268.835938 165.382812 268.253906 C 165.773438 267.671875 166.101562 267.054688 166.371094 266.40625 C 166.640625 265.757812 166.84375 265.089844 166.980469 264.402344 C 167.117188 263.714844 167.1875 263.019531 167.1875 262.316406 Z M 209.941406 256.972656 L 193.910156 256.972656 C 193.558594 256.972656 193.210938 257.007812 192.867188 257.078125 C 192.523438 257.144531 192.1875 257.246094 191.863281 257.378906 C 191.539062 257.515625 191.230469 257.679688 190.941406 257.875 C 190.648438 258.070312 190.378906 258.292969 190.128906 258.539062 C 189.882812 258.789062 189.660156 259.058594 189.464844 259.347656 C 189.269531 259.640625 189.105469 259.949219 188.972656 260.273438 C 188.835938 260.597656 188.734375 260.929688 188.667969 261.277344 C 188.597656 261.621094 188.566406 261.96875 188.566406 262.316406 C 188.566406 262.667969 188.597656 263.015625 188.667969 263.359375 C 188.734375 263.707031 188.835938 264.039062 188.972656 264.363281 C 189.105469 264.6875 189.269531 264.996094 189.464844 265.289062 C 189.660156 265.578125 189.882812 265.847656 190.128906 266.097656 C 190.378906 266.34375 190.648438 266.566406 190.941406 266.761719 C 191.230469 266.957031 191.539062 267.121094 191.863281 267.257812 C 192.1875 267.390625 192.523438 267.492188 192.867188 267.558594 C 193.210938 267.628906 193.558594 267.664062 193.910156 267.664062 L 209.941406 267.664062 C 210.292969 267.664062 210.640625 267.628906 210.984375 267.558594 C 211.328125 267.492188 211.664062 267.390625 211.988281 267.257812 C 212.3125 267.121094 212.621094 266.957031 212.910156 266.761719 C 213.203125 266.566406 213.472656 266.34375 213.722656 266.097656 C 213.96875 265.847656 214.191406 265.578125 214.386719 265.289062 C 214.582031 264.996094 214.746094 264.6875 214.878906 264.363281 C 215.015625 264.039062 215.117188 263.707031 215.183594 263.359375 C 215.253906 263.015625 215.289062 262.667969 215.289062 262.316406 C 215.289062 261.96875 215.253906 261.621094 215.183594 261.277344 C 215.117188 260.929688 215.015625 260.597656 214.878906 260.273438 C 214.746094 259.949219 214.582031 259.640625 214.386719 259.347656 C 214.191406 259.058594 213.96875 258.789062 213.722656 258.539062 C 213.472656 258.292969 213.203125 258.070312 212.910156 257.875 C 212.621094 257.679688 212.3125 257.515625 211.988281 257.378906 C 211.664062 257.246094 211.328125 257.144531 210.984375 257.078125 C 210.640625 257.007812 210.292969 256.972656 209.941406 256.972656 Z M 211.632812 283.972656 L 195.601562 278.628906 C 195.265625 278.515625 194.925781 278.4375 194.578125 278.394531 C 194.230469 278.347656 193.878906 278.335938 193.53125 278.363281 C 193.179688 278.386719 192.835938 278.445312 192.496094 278.535156 C 192.15625 278.628906 191.828125 278.753906 191.515625 278.910156 C 191.199219 279.066406 190.90625 279.253906 190.625 279.46875 C 190.347656 279.683594 190.09375 279.921875 189.863281 280.1875 C 189.632812 280.453125 189.429688 280.738281 189.257812 281.042969 C 189.082031 281.347656 188.941406 281.667969 188.828125 282 C 188.71875 282.335938 188.640625 282.675781 188.597656 283.023438 C 188.550781 283.371094 188.542969 283.722656 188.566406 284.074219 C 188.59375 284.421875 188.652344 284.765625 188.746094 285.105469 C 188.839844 285.445312 188.964844 285.773438 189.121094 286.085938 C 189.277344 286.398438 189.464844 286.695312 189.679688 286.972656 C 189.894531 287.25 190.136719 287.503906 190.402344 287.734375 C 190.667969 287.964844 190.953125 288.164062 191.257812 288.339844 C 191.566406 288.511719 191.886719 288.652344 192.21875 288.765625 L 208.25 294.109375 C 208.585938 294.21875 208.925781 294.296875 209.273438 294.339844 C 209.621094 294.382812 209.96875 294.390625 210.316406 294.363281 C 210.667969 294.339844 211.011719 294.28125 211.347656 294.1875 C 211.683594 294.09375 212.011719 293.96875 212.324219 293.8125 C 212.636719 293.65625 212.933594 293.46875 213.207031 293.253906 C 213.484375 293.039062 213.738281 292.800781 213.96875 292.535156 C 214.195312 292.269531 214.398438 291.988281 214.570312 291.683594 C 214.746094 291.378906 214.886719 291.058594 214.996094 290.726562 C 215.109375 290.394531 215.1875 290.054688 215.230469 289.707031 C 215.273438 289.359375 215.285156 289.011719 215.257812 288.664062 C 215.234375 288.3125 215.175781 287.96875 215.085938 287.632812 C 214.992188 287.292969 214.867188 286.96875 214.710938 286.65625 C 214.554688 286.339844 214.371094 286.046875 214.15625 285.769531 C 213.941406 285.492188 213.703125 285.238281 213.4375 285.007812 C 213.175781 284.777344 212.890625 284.574219 212.585938 284.402344 C 212.285156 284.226562 211.964844 284.085938 211.632812 283.972656 Z M 193.910156 246.285156 C 194.488281 246.285156 195.050781 246.191406 195.601562 246.007812 L 211.632812 240.664062 C 211.96875 240.554688 212.285156 240.410156 212.59375 240.238281 C 212.898438 240.066406 213.183594 239.863281 213.449219 239.632812 C 213.714844 239.402344 213.957031 239.148438 214.171875 238.871094 C 214.386719 238.59375 214.574219 238.300781 214.730469 237.984375 C 214.890625 237.671875 215.015625 237.34375 215.105469 237.007812 C 215.199219 236.667969 215.257812 236.324219 215.285156 235.972656 C 215.308594 235.621094 215.300781 235.273438 215.257812 234.921875 C 215.210938 234.574219 215.132812 234.234375 215.023438 233.902344 C 214.910156 233.566406 214.769531 233.25 214.59375 232.941406 C 214.421875 232.636719 214.21875 232.351562 213.988281 232.085938 C 213.757812 231.824219 213.503906 231.582031 213.226562 231.367188 C 212.949219 231.152344 212.652344 230.964844 212.335938 230.808594 C 212.023438 230.652344 211.695312 230.527344 211.355469 230.4375 C 211.019531 230.34375 210.671875 230.285156 210.324219 230.261719 C 209.972656 230.238281 209.621094 230.25 209.273438 230.292969 C 208.925781 230.335938 208.585938 230.417969 208.25 230.527344 L 192.21875 235.871094 C 191.617188 236.074219 191.066406 236.371094 190.574219 236.769531 C 190.078125 237.164062 189.667969 237.632812 189.335938 238.175781 C 189.007812 238.71875 188.785156 239.300781 188.664062 239.925781 C 188.542969 240.546875 188.535156 241.171875 188.636719 241.796875 C 188.738281 242.425781 188.945312 243.011719 189.257812 243.566406 C 189.566406 244.117188 189.964844 244.601562 190.449219 245.011719 C 190.929688 245.421875 191.46875 245.738281 192.066406 245.957031 C 192.660156 246.175781 193.273438 246.285156 193.910156 246.285156 Z M 193.910156 246.285156 " fill-opacity="1" fill-rule="nonzero"/></g></svg>