<svg xmlns="http://www.w3.org/2000/svg" xmlns:xlink="http://www.w3.org/1999/xlink" width="500" zoomAndPan="magnify" viewBox="0 0 375 374.999991" height="500" preserveAspectRatio="xMidYMid meet" version="1.0"><defs><clipPath id="205c1efe09"><path d="M 46.261719 46.261719 L 329 46.261719 L 329 329 L 46.261719 329 Z M 46.261719 46.261719 " clip-rule="nonzero"/></clipPath></defs><g clip-path="url(#205c1efe09)"><path fill="#ffffff" d="M 313.148438 147.289062 L 303.097656 147.289062 L 303.097656 61.84375 C 303.042969 60.800781 302.886719 59.777344 302.628906 58.765625 C 302.371094 57.757812 302.019531 56.78125 301.570312 55.839844 C 301.125 54.898438 300.589844 54.007812 299.964844 53.171875 C 299.34375 52.335938 298.644531 51.570312 297.871094 50.871094 C 297.097656 50.171875 296.265625 49.550781 295.371094 49.015625 C 294.476562 48.480469 293.539062 48.035156 292.558594 47.683594 C 291.578125 47.332031 290.570312 47.078125 289.539062 46.925781 C 288.507812 46.769531 287.472656 46.714844 286.429688 46.765625 L 88.5625 46.765625 C 87.519531 46.714844 86.484375 46.769531 85.453125 46.925781 C 84.421875 47.078125 83.417969 47.332031 82.4375 47.683594 C 81.453125 48.035156 80.515625 48.480469 79.621094 49.015625 C 78.726562 49.550781 77.894531 50.171875 77.121094 50.871094 C 76.347656 51.570312 75.652344 52.335938 75.027344 53.171875 C 74.40625 54.007812 73.871094 54.898438 73.421875 55.839844 C 72.972656 56.78125 72.621094 57.757812 72.363281 58.765625 C 72.109375 59.777344 71.953125 60.800781 71.894531 61.84375 L 71.894531 147.289062 L 61.84375 147.289062 C 60.855469 147.289062 59.871094 147.382812 58.902344 147.578125 C 57.929688 147.769531 56.988281 148.058594 56.074219 148.4375 C 55.160156 148.816406 54.289062 149.277344 53.464844 149.828125 C 52.644531 150.378906 51.882812 151.003906 51.179688 151.703125 C 50.480469 152.40625 49.855469 153.164062 49.304688 153.988281 C 48.757812 154.8125 48.292969 155.679688 47.914062 156.597656 C 47.535156 157.511719 47.25 158.453125 47.054688 159.425781 C 46.863281 160.394531 46.765625 161.375 46.765625 162.367188 L 46.765625 212.628906 C 46.765625 213.617188 46.863281 214.597656 47.054688 215.570312 C 47.25 216.539062 47.535156 217.484375 47.914062 218.398438 C 48.292969 219.3125 48.757812 220.179688 49.304688 221.003906 C 49.855469 221.828125 50.480469 222.589844 51.179688 223.289062 C 51.882812 223.988281 52.644531 224.613281 53.464844 225.164062 C 54.289062 225.714844 55.160156 226.179688 56.074219 226.558594 C 56.988281 226.9375 57.929688 227.222656 58.902344 227.417969 C 59.871094 227.609375 60.855469 227.707031 61.84375 227.707031 L 71.894531 227.707031 L 71.894531 313.148438 C 71.953125 314.191406 72.109375 315.21875 72.363281 316.226562 C 72.621094 317.238281 72.972656 318.214844 73.421875 319.15625 C 73.871094 320.097656 74.40625 320.984375 75.027344 321.820312 C 75.652344 322.65625 76.347656 323.425781 77.121094 324.125 C 77.894531 324.824219 78.726562 325.441406 79.621094 325.976562 C 80.515625 326.511719 81.453125 326.957031 82.4375 327.308594 C 83.417969 327.660156 84.421875 327.914062 85.453125 328.070312 C 86.484375 328.222656 87.519531 328.277344 88.5625 328.230469 L 286.429688 328.230469 C 287.472656 328.277344 288.507812 328.222656 289.539062 328.070312 C 290.570312 327.914062 291.578125 327.660156 292.558594 327.308594 C 293.539062 326.957031 294.476562 326.511719 295.371094 325.976562 C 296.265625 325.441406 297.097656 324.824219 297.871094 324.125 C 298.644531 323.425781 299.34375 322.65625 299.964844 321.820312 C 300.589844 320.984375 301.125 320.097656 301.570312 319.15625 C 302.019531 318.214844 302.371094 317.238281 302.628906 316.226562 C 302.886719 315.21875 303.042969 314.191406 303.097656 313.148438 L 303.097656 227.707031 L 313.148438 227.707031 C 314.140625 227.707031 315.121094 227.609375 316.09375 227.417969 C 317.0625 227.222656 318.003906 226.9375 318.921875 226.558594 C 319.835938 226.179688 320.703125 225.714844 321.527344 225.164062 C 322.351562 224.613281 323.113281 223.988281 323.8125 223.289062 C 324.511719 222.589844 325.136719 221.828125 325.6875 221.003906 C 326.238281 220.179688 326.703125 219.3125 327.082031 218.398438 C 327.460938 217.484375 327.746094 216.539062 327.9375 215.570312 C 328.132812 214.597656 328.230469 213.617188 328.230469 212.628906 L 328.230469 162.367188 C 328.230469 161.375 328.132812 160.394531 327.9375 159.425781 C 327.746094 158.453125 327.460938 157.511719 327.082031 156.597656 C 326.703125 155.679688 326.238281 154.8125 325.6875 153.988281 C 325.136719 153.164062 324.511719 152.402344 323.8125 151.703125 C 323.113281 151.003906 322.351562 150.378906 321.527344 149.828125 C 320.703125 149.277344 319.835938 148.816406 318.921875 148.4375 C 318.003906 148.058594 317.0625 147.769531 316.09375 147.578125 C 315.121094 147.382812 314.140625 147.289062 313.148438 147.289062 Z M 81.949219 61.84375 C 81.949219 59.121094 84.964844 56.816406 88.5625 56.816406 L 286.429688 56.816406 C 290.03125 56.816406 293.046875 59.121094 293.046875 61.84375 L 293.046875 147.289062 L 81.949219 147.289062 Z M 293.046875 313.148438 C 293.046875 315.875 290.03125 318.175781 286.429688 318.175781 L 88.5625 318.175781 C 84.964844 318.175781 81.949219 315.875 81.949219 313.148438 L 81.949219 227.707031 L 293.046875 227.707031 Z M 318.175781 212.628906 C 318.175781 212.957031 318.144531 213.285156 318.078125 213.609375 C 318.015625 213.933594 317.921875 214.246094 317.792969 214.550781 C 317.667969 214.855469 317.511719 215.144531 317.328125 215.421875 C 317.144531 215.695312 316.9375 215.949219 316.703125 216.179688 C 316.472656 216.414062 316.21875 216.625 315.941406 216.808594 C 315.667969 216.988281 315.378906 217.144531 315.074219 217.269531 C 314.769531 217.398438 314.453125 217.492188 314.128906 217.558594 C 313.808594 217.621094 313.480469 217.652344 313.148438 217.652344 L 61.84375 217.652344 C 61.511719 217.652344 61.1875 217.621094 60.863281 217.558594 C 60.539062 217.492188 60.226562 217.398438 59.921875 217.269531 C 59.617188 217.144531 59.324219 216.988281 59.050781 216.808594 C 58.777344 216.625 58.523438 216.414062 58.289062 216.179688 C 58.054688 215.949219 57.847656 215.695312 57.664062 215.421875 C 57.480469 215.144531 57.328125 214.855469 57.199219 214.550781 C 57.074219 214.246094 56.976562 213.933594 56.914062 213.609375 C 56.851562 213.285156 56.816406 212.957031 56.816406 212.628906 L 56.816406 162.367188 C 56.816406 162.035156 56.851562 161.710938 56.914062 161.386719 C 56.976562 161.0625 57.074219 160.746094 57.199219 160.441406 C 57.328125 160.136719 57.480469 159.847656 57.664062 159.574219 C 57.847656 159.300781 58.054688 159.046875 58.289062 158.8125 C 58.523438 158.578125 58.777344 158.371094 59.050781 158.1875 C 59.324219 158.003906 59.617188 157.847656 59.921875 157.722656 C 60.226562 157.597656 60.539062 157.5 60.863281 157.4375 C 61.1875 157.371094 61.511719 157.339844 61.84375 157.339844 L 313.148438 157.339844 C 313.480469 157.339844 313.808594 157.371094 314.128906 157.4375 C 314.453125 157.5 314.769531 157.597656 315.074219 157.722656 C 315.378906 157.847656 315.667969 158.003906 315.941406 158.1875 C 316.21875 158.371094 316.472656 158.578125 316.703125 158.8125 C 316.9375 159.046875 317.144531 159.300781 317.328125 159.574219 C 317.511719 159.847656 317.667969 160.136719 317.792969 160.441406 C 317.921875 160.746094 318.015625 161.0625 318.078125 161.386719 C 318.144531 161.710938 318.175781 162.035156 318.175781 162.367188 Z M 318.175781 212.628906 " fill-opacity="1" fill-rule="nonzero"/></g><path fill="#ffffff" d="M 71.894531 167.390625 C 71.566406 167.390625 71.238281 167.425781 70.914062 167.488281 C 70.589844 167.554688 70.277344 167.648438 69.972656 167.773438 C 69.667969 167.902344 69.378906 168.054688 69.101562 168.238281 C 68.828125 168.421875 68.574219 168.632812 68.34375 168.863281 C 68.109375 169.097656 67.898438 169.351562 67.714844 169.625 C 67.535156 169.902344 67.378906 170.191406 67.253906 170.496094 C 67.125 170.800781 67.03125 171.113281 66.964844 171.4375 C 66.902344 171.761719 66.871094 172.089844 66.871094 172.417969 L 66.871094 202.574219 C 66.871094 202.90625 66.902344 203.230469 66.964844 203.554688 C 67.03125 203.878906 67.125 204.195312 67.253906 204.5 C 67.378906 204.804688 67.535156 205.09375 67.714844 205.367188 C 67.898438 205.640625 68.109375 205.894531 68.34375 206.128906 C 68.574219 206.363281 68.828125 206.570312 69.101562 206.753906 C 69.378906 206.9375 69.667969 207.09375 69.972656 207.21875 C 70.277344 207.34375 70.589844 207.441406 70.914062 207.503906 C 71.238281 207.570312 71.566406 207.601562 71.894531 207.601562 C 72.226562 207.601562 72.550781 207.570312 72.875 207.503906 C 73.199219 207.441406 73.515625 207.34375 73.820312 207.21875 C 74.125 207.09375 74.414062 206.9375 74.6875 206.753906 C 74.960938 206.570312 75.214844 206.363281 75.449219 206.128906 C 75.683594 205.894531 75.890625 205.640625 76.074219 205.367188 C 76.257812 205.09375 76.414062 204.804688 76.539062 204.5 C 76.664062 204.195312 76.761719 203.878906 76.824219 203.554688 C 76.890625 203.230469 76.921875 202.90625 76.921875 202.574219 L 76.921875 172.417969 C 76.921875 172.089844 76.890625 171.761719 76.824219 171.4375 C 76.761719 171.113281 76.664062 170.800781 76.539062 170.496094 C 76.414062 170.191406 76.257812 169.902344 76.074219 169.625 C 75.890625 169.351562 75.683594 169.097656 75.449219 168.863281 C 75.214844 168.632812 74.960938 168.421875 74.6875 168.238281 C 74.414062 168.054688 74.125 167.902344 73.820312 167.773438 C 73.515625 167.648438 73.199219 167.554688 72.875 167.488281 C 72.550781 167.425781 72.226562 167.390625 71.894531 167.390625 Z M 71.894531 167.390625 " fill-opacity="1" fill-rule="nonzero"/><path fill="#ffffff" d="M 227.707031 167.390625 C 227.375 167.390625 227.050781 167.425781 226.726562 167.488281 C 226.402344 167.554688 226.085938 167.648438 225.78125 167.773438 C 225.476562 167.902344 225.1875 168.054688 224.914062 168.238281 C 224.640625 168.421875 224.386719 168.632812 224.152344 168.863281 C 223.917969 169.097656 223.710938 169.351562 223.527344 169.625 C 223.34375 169.902344 223.1875 170.191406 223.0625 170.496094 C 222.9375 170.800781 222.839844 171.113281 222.777344 171.4375 C 222.710938 171.761719 222.679688 172.089844 222.679688 172.417969 L 222.679688 202.574219 C 222.679688 202.90625 222.710938 203.230469 222.777344 203.554688 C 222.839844 203.878906 222.9375 204.195312 223.0625 204.5 C 223.1875 204.804688 223.34375 205.09375 223.527344 205.367188 C 223.710938 205.640625 223.917969 205.894531 224.152344 206.128906 C 224.386719 206.363281 224.640625 206.570312 224.914062 206.753906 C 225.1875 206.9375 225.476562 207.09375 225.78125 207.21875 C 226.085938 207.34375 226.402344 207.441406 226.726562 207.503906 C 227.050781 207.570312 227.375 207.601562 227.707031 207.601562 C 228.035156 207.601562 228.363281 207.570312 228.6875 207.503906 C 229.011719 207.441406 229.324219 207.34375 229.628906 207.21875 C 229.933594 207.09375 230.222656 206.9375 230.5 206.753906 C 230.773438 206.570312 231.027344 206.363281 231.261719 206.128906 C 231.492188 205.894531 231.703125 205.640625 231.886719 205.367188 C 232.070312 205.09375 232.222656 204.804688 232.347656 204.5 C 232.476562 204.195312 232.570312 203.878906 232.636719 203.554688 C 232.699219 203.230469 232.730469 202.90625 232.730469 202.574219 L 232.730469 172.417969 C 232.730469 172.089844 232.699219 171.761719 232.636719 171.4375 C 232.570312 171.113281 232.476562 170.800781 232.347656 170.496094 C 232.222656 170.191406 232.070312 169.902344 231.886719 169.625 C 231.703125 169.351562 231.492188 169.097656 231.261719 168.863281 C 231.027344 168.632812 230.773438 168.421875 230.5 168.238281 C 230.222656 168.054688 229.933594 167.902344 229.628906 167.773438 C 229.324219 167.648438 229.011719 167.554688 228.6875 167.488281 C 228.363281 167.425781 228.035156 167.390625 227.707031 167.390625 Z M 227.707031 167.390625 " fill-opacity="1" fill-rule="nonzero"/><path fill="#ffffff" d="M 303.097656 177.445312 C 303.429688 177.445312 303.753906 177.414062 304.078125 177.347656 C 304.402344 177.285156 304.714844 177.1875 305.019531 177.0625 C 305.328125 176.9375 305.617188 176.78125 305.890625 176.597656 C 306.164062 176.414062 306.417969 176.207031 306.652344 175.972656 C 306.886719 175.738281 307.09375 175.484375 307.277344 175.210938 C 307.460938 174.9375 307.617188 174.648438 307.742188 174.34375 C 307.867188 174.035156 307.964844 173.722656 308.027344 173.398438 C 308.09375 173.074219 308.125 172.75 308.125 172.417969 C 308.125 172.089844 308.09375 171.761719 308.027344 171.4375 C 307.964844 171.113281 307.867188 170.800781 307.742188 170.496094 C 307.617188 170.191406 307.460938 169.902344 307.277344 169.625 C 307.09375 169.351562 306.886719 169.097656 306.652344 168.863281 C 306.417969 168.632812 306.164062 168.421875 305.890625 168.238281 C 305.617188 168.054688 305.328125 167.902344 305.019531 167.773438 C 304.714844 167.648438 304.402344 167.554688 304.078125 167.488281 C 303.753906 167.425781 303.429688 167.390625 303.097656 167.390625 L 288.019531 167.390625 C 287.691406 167.390625 287.363281 167.425781 287.039062 167.488281 C 286.714844 167.554688 286.402344 167.648438 286.097656 167.773438 C 285.792969 167.902344 285.5 168.054688 285.226562 168.238281 C 284.953125 168.421875 284.699219 168.632812 284.464844 168.863281 C 284.230469 169.097656 284.023438 169.351562 283.839844 169.625 C 283.65625 169.902344 283.503906 170.191406 283.375 170.496094 C 283.25 170.800781 283.15625 171.113281 283.089844 171.4375 C 283.027344 171.761719 282.992188 172.089844 282.992188 172.417969 L 282.992188 202.574219 C 282.992188 202.90625 283.027344 203.230469 283.089844 203.554688 C 283.15625 203.878906 283.25 204.195312 283.375 204.5 C 283.503906 204.804688 283.65625 205.09375 283.839844 205.367188 C 284.023438 205.640625 284.230469 205.894531 284.464844 206.128906 C 284.699219 206.363281 284.953125 206.570312 285.226562 206.753906 C 285.5 206.9375 285.792969 207.09375 286.097656 207.21875 C 286.402344 207.34375 286.714844 207.441406 287.039062 207.503906 C 287.363281 207.570312 287.691406 207.601562 288.019531 207.601562 L 303.097656 207.601562 C 303.429688 207.601562 303.753906 207.570312 304.078125 207.503906 C 304.402344 207.441406 304.714844 207.34375 305.019531 207.21875 C 305.328125 207.09375 305.617188 206.9375 305.890625 206.753906 C 306.164062 206.570312 306.417969 206.363281 306.652344 206.128906 C 306.886719 205.894531 307.09375 205.640625 307.277344 205.367188 C 307.460938 205.09375 307.617188 204.804688 307.742188 204.5 C 307.867188 204.195312 307.964844 203.878906 308.027344 203.554688 C 308.09375 203.230469 308.125 202.90625 308.125 202.574219 C 308.125 202.246094 308.09375 201.917969 308.027344 201.59375 C 307.964844 201.269531 307.867188 200.957031 307.742188 200.652344 C 307.617188 200.347656 307.460938 200.058594 307.277344 199.78125 C 307.09375 199.507812 306.886719 199.253906 306.652344 199.019531 C 306.417969 198.789062 306.164062 198.578125 305.890625 198.394531 C 305.617188 198.214844 305.328125 198.058594 305.019531 197.933594 C 304.714844 197.804688 304.402344 197.710938 304.078125 197.644531 C 303.753906 197.582031 303.429688 197.550781 303.097656 197.550781 L 293.046875 197.550781 L 293.046875 192.523438 L 303.097656 192.523438 C 303.429688 192.523438 303.753906 192.492188 304.078125 192.425781 C 304.402344 192.363281 304.714844 192.265625 305.019531 192.140625 C 305.328125 192.015625 305.617188 191.859375 305.890625 191.675781 C 306.164062 191.492188 306.417969 191.285156 306.652344 191.050781 C 306.886719 190.816406 307.09375 190.5625 307.277344 190.289062 C 307.460938 190.015625 307.617188 189.726562 307.742188 189.421875 C 307.867188 189.117188 307.964844 188.800781 308.027344 188.476562 C 308.09375 188.152344 308.125 187.828125 308.125 187.496094 C 308.125 187.167969 308.09375 186.839844 308.027344 186.515625 C 307.964844 186.191406 307.867188 185.878906 307.742188 185.574219 C 307.617188 185.269531 307.460938 184.980469 307.277344 184.703125 C 307.09375 184.429688 306.886719 184.175781 306.652344 183.941406 C 306.417969 183.710938 306.164062 183.5 305.890625 183.316406 C 305.617188 183.132812 305.328125 182.980469 305.019531 182.851562 C 304.714844 182.726562 304.402344 182.632812 304.078125 182.566406 C 303.753906 182.503906 303.429688 182.472656 303.097656 182.472656 L 293.046875 182.472656 L 293.046875 177.445312 Z M 303.097656 177.445312 " fill-opacity="1" fill-rule="nonzero"/><path fill="#ffffff" d="M 117.132812 167.390625 C 116.800781 167.390625 116.472656 167.425781 116.152344 167.488281 C 115.828125 167.554688 115.511719 167.648438 115.207031 167.773438 C 114.902344 167.902344 114.613281 168.054688 114.339844 168.238281 C 114.0625 168.421875 113.808594 168.632812 113.578125 168.863281 C 113.34375 169.097656 113.136719 169.351562 112.953125 169.625 C 112.769531 169.902344 112.613281 170.191406 112.488281 170.496094 C 112.359375 170.800781 112.265625 171.113281 112.203125 171.4375 C 112.136719 171.761719 112.105469 172.089844 112.105469 172.417969 L 112.105469 188.691406 L 95.859375 169.195312 C 95.53125 168.800781 95.148438 168.460938 94.710938 168.183594 C 94.277344 167.90625 93.808594 167.699219 93.3125 167.5625 C 92.8125 167.429688 92.304688 167.371094 91.789062 167.394531 C 91.273438 167.414062 90.773438 167.515625 90.289062 167.691406 C 89.800781 167.867188 89.355469 168.113281 88.945312 168.425781 C 88.535156 168.738281 88.179688 169.109375 87.882812 169.53125 C 87.585938 169.953125 87.363281 170.414062 87.207031 170.90625 C 87.050781 171.398438 86.972656 171.902344 86.972656 172.417969 L 86.972656 202.574219 C 86.972656 202.90625 87.007812 203.230469 87.070312 203.554688 C 87.136719 203.878906 87.230469 204.195312 87.355469 204.5 C 87.484375 204.804688 87.636719 205.09375 87.820312 205.367188 C 88.003906 205.640625 88.214844 205.894531 88.445312 206.128906 C 88.679688 206.363281 88.933594 206.570312 89.207031 206.753906 C 89.480469 206.9375 89.773438 207.09375 90.078125 207.21875 C 90.382812 207.34375 90.695312 207.441406 91.019531 207.503906 C 91.34375 207.570312 91.671875 207.601562 92 207.601562 C 92.332031 207.601562 92.65625 207.570312 92.980469 207.503906 C 93.304688 207.441406 93.617188 207.34375 93.921875 207.21875 C 94.230469 207.09375 94.519531 206.9375 94.792969 206.753906 C 95.066406 206.570312 95.320312 206.363281 95.554688 206.128906 C 95.789062 205.894531 95.996094 205.640625 96.179688 205.367188 C 96.363281 205.09375 96.519531 204.804688 96.644531 204.5 C 96.769531 204.195312 96.867188 203.878906 96.929688 203.554688 C 96.996094 203.230469 97.027344 202.90625 97.027344 202.574219 L 97.027344 186.300781 L 113.269531 205.796875 C 113.601562 206.195312 113.984375 206.53125 114.417969 206.808594 C 114.855469 207.089844 115.320312 207.296875 115.820312 207.429688 C 116.320312 207.566406 116.824219 207.621094 117.339844 207.601562 C 117.859375 207.578125 118.359375 207.480469 118.84375 207.304688 C 119.328125 207.128906 119.777344 206.882812 120.1875 206.566406 C 120.597656 206.253906 120.949219 205.886719 121.246094 205.460938 C 121.542969 205.039062 121.769531 204.582031 121.925781 204.089844 C 122.078125 203.597656 122.15625 203.09375 122.15625 202.574219 L 122.15625 172.417969 C 122.15625 172.089844 122.125 171.761719 122.0625 171.4375 C 121.996094 171.113281 121.902344 170.800781 121.773438 170.496094 C 121.648438 170.191406 121.492188 169.902344 121.308594 169.625 C 121.125 169.351562 120.917969 169.097656 120.683594 168.863281 C 120.453125 168.632812 120.199219 168.421875 119.921875 168.238281 C 119.648438 168.054688 119.359375 167.902344 119.054688 167.773438 C 118.75 167.648438 118.433594 167.554688 118.113281 167.488281 C 117.789062 167.425781 117.460938 167.390625 117.132812 167.390625 Z M 117.132812 167.390625 " fill-opacity="1" fill-rule="nonzero"/><path fill="#ffffff" d="M 169.648438 167.925781 C 169.355469 167.777344 169.046875 167.660156 168.730469 167.570312 C 168.410156 167.484375 168.085938 167.425781 167.757812 167.402344 C 167.429688 167.378906 167.101562 167.386719 166.773438 167.429688 C 166.445312 167.46875 166.125 167.539062 165.8125 167.644531 C 165.496094 167.75 165.195312 167.882812 164.910156 168.046875 C 164.621094 168.207031 164.355469 168.398438 164.105469 168.613281 C 163.855469 168.828125 163.628906 169.066406 163.425781 169.328125 C 163.222656 169.589844 163.046875 169.867188 162.898438 170.160156 L 152.257812 191.335938 L 141.757812 170.183594 C 141.613281 169.886719 141.4375 169.609375 141.234375 169.347656 C 141.035156 169.085938 140.808594 168.847656 140.558594 168.628906 C 140.3125 168.414062 140.042969 168.222656 139.757812 168.058594 C 139.472656 167.894531 139.171875 167.761719 138.859375 167.65625 C 138.546875 167.550781 138.226562 167.476562 137.898438 167.433594 C 137.570312 167.394531 137.242188 167.382812 136.914062 167.40625 C 136.585938 167.429688 136.261719 167.484375 135.941406 167.570312 C 135.625 167.65625 135.316406 167.773438 135.019531 167.917969 C 134.726562 168.066406 134.445312 168.238281 134.1875 168.441406 C 133.925781 168.644531 133.683594 168.867188 133.46875 169.117188 C 133.25 169.367188 133.0625 169.632812 132.898438 169.917969 C 132.734375 170.207031 132.597656 170.503906 132.492188 170.816406 C 132.386719 171.128906 132.3125 171.449219 132.269531 171.777344 C 132.230469 172.105469 132.21875 172.433594 132.242188 172.761719 C 132.261719 173.089844 132.316406 173.414062 132.402344 173.734375 C 132.488281 174.050781 132.605469 174.359375 132.753906 174.65625 L 147.753906 204.8125 C 147.964844 205.230469 148.222656 205.613281 148.539062 205.957031 C 148.851562 206.304688 149.207031 206.597656 149.605469 206.84375 C 150.003906 207.09375 150.425781 207.28125 150.875 207.40625 C 151.324219 207.535156 151.78125 207.601562 152.25 207.601562 C 152.714844 207.601562 153.171875 207.539062 153.617188 207.410156 C 154.066406 207.28125 154.488281 207.097656 154.886719 206.851562 C 155.28125 206.609375 155.636719 206.3125 155.953125 205.972656 C 156.265625 205.628906 156.527344 205.25 156.738281 204.832031 L 171.894531 174.675781 C 172.042969 174.378906 172.160156 174.074219 172.25 173.753906 C 172.335938 173.4375 172.394531 173.113281 172.417969 172.78125 C 172.441406 172.453125 172.429688 172.125 172.390625 171.796875 C 172.347656 171.46875 172.277344 171.148438 172.171875 170.835938 C 172.066406 170.519531 171.933594 170.21875 171.769531 169.933594 C 171.605469 169.644531 171.417969 169.378906 171.199219 169.128906 C 170.984375 168.878906 170.746094 168.652344 170.484375 168.449219 C 170.222656 168.246094 169.945312 168.074219 169.648438 167.925781 Z M 169.648438 167.925781 " fill-opacity="1" fill-rule="nonzero"/><path fill="#ffffff" d="M 197.550781 167.390625 C 196.558594 167.390625 195.578125 167.488281 194.609375 167.683594 C 193.636719 167.875 192.695312 168.160156 191.777344 168.539062 C 190.863281 168.917969 189.996094 169.382812 189.171875 169.933594 C 188.347656 170.484375 187.585938 171.109375 186.886719 171.808594 C 186.1875 172.507812 185.5625 173.269531 185.011719 174.09375 C 184.460938 174.917969 183.996094 175.785156 183.617188 176.699219 C 183.238281 177.617188 182.953125 178.558594 182.761719 179.527344 C 182.566406 180.5 182.472656 181.480469 182.472656 182.472656 L 182.472656 192.523438 C 182.472656 193.511719 182.566406 194.492188 182.761719 195.464844 C 182.953125 196.4375 183.238281 197.378906 183.617188 198.292969 C 183.996094 199.207031 184.460938 200.078125 185.011719 200.898438 C 185.5625 201.722656 186.1875 202.484375 186.886719 203.183594 C 187.585938 203.886719 188.347656 204.511719 189.171875 205.058594 C 189.996094 205.609375 190.863281 206.074219 191.777344 206.453125 C 192.695312 206.832031 193.636719 207.117188 194.609375 207.3125 C 195.578125 207.503906 196.558594 207.601562 197.550781 207.601562 C 198.539062 207.601562 199.519531 207.503906 200.492188 207.3125 C 201.460938 207.117188 202.40625 206.832031 203.320312 206.453125 C 204.234375 206.074219 205.101562 205.609375 205.925781 205.058594 C 206.75 204.511719 207.511719 203.886719 208.210938 203.183594 C 208.910156 202.484375 209.535156 201.722656 210.085938 200.898438 C 210.636719 200.078125 211.101562 199.207031 211.480469 198.292969 C 211.859375 197.378906 212.144531 196.4375 212.335938 195.464844 C 212.53125 194.492188 212.628906 193.511719 212.628906 192.523438 L 212.628906 182.472656 C 212.628906 181.480469 212.53125 180.5 212.335938 179.527344 C 212.144531 178.558594 211.859375 177.617188 211.480469 176.699219 C 211.101562 175.785156 210.636719 174.917969 210.085938 174.09375 C 209.535156 173.269531 208.910156 172.507812 208.210938 171.808594 C 207.511719 171.109375 206.75 170.484375 205.925781 169.933594 C 205.101562 169.382812 204.234375 168.917969 203.320312 168.539062 C 202.40625 168.160156 201.460938 167.875 200.492188 167.683594 C 199.519531 167.488281 198.539062 167.390625 197.550781 167.390625 Z M 202.574219 192.523438 C 202.574219 192.851562 202.542969 193.179688 202.480469 193.503906 C 202.414062 193.828125 202.320312 194.140625 202.191406 194.445312 C 202.066406 194.75 201.910156 195.042969 201.726562 195.316406 C 201.542969 195.589844 201.335938 195.84375 201.101562 196.078125 C 200.871094 196.308594 200.617188 196.519531 200.339844 196.703125 C 200.066406 196.886719 199.777344 197.039062 199.472656 197.167969 C 199.167969 197.292969 198.851562 197.386719 198.53125 197.453125 C 198.207031 197.515625 197.878906 197.550781 197.550781 197.550781 C 197.21875 197.550781 196.890625 197.515625 196.570312 197.453125 C 196.246094 197.386719 195.929688 197.292969 195.625 197.167969 C 195.320312 197.039062 195.03125 196.886719 194.757812 196.703125 C 194.480469 196.519531 194.230469 196.308594 193.996094 196.078125 C 193.761719 195.84375 193.554688 195.589844 193.371094 195.316406 C 193.1875 195.042969 193.03125 194.75 192.90625 194.445312 C 192.78125 194.140625 192.683594 193.828125 192.621094 193.503906 C 192.554688 193.179688 192.523438 192.851562 192.523438 192.523438 L 192.523438 182.472656 C 192.523438 182.140625 192.554688 181.8125 192.621094 181.492188 C 192.683594 181.167969 192.78125 180.851562 192.90625 180.546875 C 193.03125 180.242188 193.1875 179.953125 193.371094 179.679688 C 193.554688 179.402344 193.761719 179.148438 193.996094 178.917969 C 194.230469 178.683594 194.480469 178.476562 194.757812 178.292969 C 195.03125 178.109375 195.320312 177.953125 195.625 177.828125 C 195.929688 177.699219 196.246094 177.605469 196.570312 177.542969 C 196.890625 177.476562 197.21875 177.445312 197.550781 177.445312 C 197.878906 177.445312 198.207031 177.476562 198.53125 177.542969 C 198.851562 177.605469 199.167969 177.699219 199.472656 177.828125 C 199.777344 177.953125 200.066406 178.109375 200.339844 178.292969 C 200.617188 178.476562 200.871094 178.683594 201.101562 178.917969 C 201.335938 179.148438 201.542969 179.402344 201.726562 179.679688 C 201.910156 179.953125 202.066406 180.242188 202.191406 180.546875 C 202.320312 180.851562 202.414062 181.167969 202.480469 181.492188 C 202.542969 181.8125 202.574219 182.140625 202.574219 182.472656 Z M 202.574219 192.523438 " fill-opacity="1" fill-rule="nonzero"/><path fill="#ffffff" d="M 257.863281 177.445312 L 267.914062 177.445312 C 268.246094 177.445312 268.570312 177.414062 268.894531 177.347656 C 269.21875 177.285156 269.535156 177.1875 269.839844 177.0625 C 270.144531 176.9375 270.433594 176.78125 270.707031 176.597656 C 270.980469 176.414062 271.234375 176.207031 271.46875 175.972656 C 271.703125 175.738281 271.910156 175.484375 272.09375 175.210938 C 272.277344 174.9375 272.433594 174.648438 272.558594 174.34375 C 272.683594 174.035156 272.78125 173.722656 272.84375 173.398438 C 272.910156 173.074219 272.941406 172.75 272.941406 172.417969 C 272.941406 172.089844 272.910156 171.761719 272.84375 171.4375 C 272.78125 171.113281 272.683594 170.800781 272.558594 170.496094 C 272.433594 170.191406 272.277344 169.902344 272.09375 169.625 C 271.910156 169.351562 271.703125 169.097656 271.46875 168.863281 C 271.234375 168.632812 270.980469 168.421875 270.707031 168.238281 C 270.433594 168.054688 270.144531 167.902344 269.839844 167.773438 C 269.535156 167.648438 269.21875 167.554688 268.894531 167.488281 C 268.570312 167.425781 268.246094 167.390625 267.914062 167.390625 L 257.863281 167.390625 C 256.871094 167.390625 255.890625 167.488281 254.921875 167.683594 C 253.949219 167.875 253.007812 168.160156 252.09375 168.539062 C 251.179688 168.917969 250.308594 169.382812 249.484375 169.933594 C 248.664062 170.484375 247.902344 171.109375 247.199219 171.808594 C 246.5 172.507812 245.875 173.269531 245.324219 174.09375 C 244.777344 174.917969 244.3125 175.785156 243.933594 176.699219 C 243.554688 177.617188 243.265625 178.558594 243.074219 179.527344 C 242.882812 180.5 242.785156 181.480469 242.785156 182.472656 L 242.785156 192.523438 C 242.785156 193.511719 242.882812 194.492188 243.074219 195.464844 C 243.265625 196.4375 243.554688 197.378906 243.933594 198.292969 C 244.3125 199.207031 244.777344 200.078125 245.324219 200.898438 C 245.875 201.722656 246.5 202.484375 247.199219 203.183594 C 247.902344 203.886719 248.664062 204.511719 249.484375 205.058594 C 250.308594 205.609375 251.179688 206.074219 252.09375 206.453125 C 253.007812 206.832031 253.949219 207.117188 254.921875 207.3125 C 255.890625 207.503906 256.871094 207.601562 257.863281 207.601562 L 267.914062 207.601562 C 268.246094 207.601562 268.570312 207.570312 268.894531 207.503906 C 269.21875 207.441406 269.535156 207.34375 269.839844 207.21875 C 270.144531 207.09375 270.433594 206.9375 270.707031 206.753906 C 270.980469 206.570312 271.234375 206.363281 271.46875 206.128906 C 271.703125 205.894531 271.910156 205.640625 272.09375 205.367188 C 272.277344 205.09375 272.433594 204.804688 272.558594 204.5 C 272.683594 204.195312 272.78125 203.878906 272.84375 203.554688 C 272.910156 203.230469 272.941406 202.90625 272.941406 202.574219 C 272.941406 202.246094 272.910156 201.917969 272.84375 201.59375 C 272.78125 201.269531 272.683594 200.957031 272.558594 200.652344 C 272.433594 200.347656 272.277344 200.058594 272.09375 199.78125 C 271.910156 199.507812 271.703125 199.253906 271.46875 199.019531 C 271.234375 198.789062 270.980469 198.578125 270.707031 198.394531 C 270.433594 198.214844 270.144531 198.058594 269.839844 197.933594 C 269.535156 197.804688 269.21875 197.710938 268.894531 197.644531 C 268.570312 197.582031 268.246094 197.550781 267.914062 197.550781 L 257.863281 197.550781 C 257.53125 197.550781 257.207031 197.515625 256.882812 197.453125 C 256.558594 197.386719 256.246094 197.292969 255.9375 197.167969 C 255.632812 197.039062 255.34375 196.886719 255.070312 196.703125 C 254.796875 196.519531 254.542969 196.308594 254.308594 196.078125 C 254.074219 195.84375 253.867188 195.589844 253.683594 195.316406 C 253.5 195.042969 253.34375 194.75 253.21875 194.445312 C 253.09375 194.140625 252.996094 193.828125 252.933594 193.503906 C 252.867188 193.179688 252.835938 192.851562 252.835938 192.523438 L 252.835938 182.472656 C 252.835938 182.140625 252.867188 181.8125 252.933594 181.492188 C 252.996094 181.167969 253.09375 180.851562 253.21875 180.546875 C 253.34375 180.242188 253.5 179.953125 253.683594 179.679688 C 253.867188 179.402344 254.074219 179.148438 254.308594 178.917969 C 254.542969 178.683594 254.796875 178.476562 255.070312 178.292969 C 255.34375 178.109375 255.632812 177.953125 255.9375 177.828125 C 256.246094 177.699219 256.558594 177.605469 256.882812 177.542969 C 257.207031 177.476562 257.53125 177.445312 257.863281 177.445312 Z M 257.863281 177.445312 " fill-opacity="1" fill-rule="nonzero"/><path fill="#ffffff" d="M 247.808594 71.894531 L 127.183594 71.894531 C 126.191406 71.894531 125.210938 71.992188 124.242188 72.1875 C 123.269531 72.378906 122.328125 72.664062 121.414062 73.042969 C 120.5 73.421875 119.628906 73.886719 118.804688 74.4375 C 117.984375 74.988281 117.222656 75.613281 116.519531 76.3125 C 115.820312 77.011719 115.195312 77.773438 114.644531 78.597656 C 114.097656 79.421875 113.632812 80.289062 113.253906 81.203125 C 112.875 82.117188 112.585938 83.0625 112.394531 84.03125 C 112.203125 85.003906 112.105469 85.984375 112.105469 86.972656 L 112.105469 117.132812 C 112.105469 118.121094 112.203125 119.101562 112.394531 120.074219 C 112.585938 121.042969 112.875 121.988281 113.253906 122.902344 C 113.632812 123.816406 114.097656 124.683594 114.644531 125.507812 C 115.195312 126.332031 115.820312 127.09375 116.519531 127.792969 C 117.222656 128.492188 117.984375 129.117188 118.804688 129.667969 C 119.628906 130.21875 120.5 130.683594 121.414062 131.0625 C 122.328125 131.441406 123.269531 131.726562 124.242188 131.917969 C 125.210938 132.113281 126.191406 132.210938 127.183594 132.210938 L 247.808594 132.210938 C 248.800781 132.210938 249.78125 132.113281 250.753906 131.917969 C 251.722656 131.726562 252.667969 131.441406 253.582031 131.0625 C 254.496094 130.683594 255.363281 130.21875 256.1875 129.667969 C 257.011719 129.117188 257.773438 128.492188 258.472656 127.792969 C 259.171875 127.09375 259.796875 126.332031 260.347656 125.507812 C 260.898438 124.683594 261.363281 123.816406 261.742188 122.902344 C 262.121094 121.988281 262.40625 121.042969 262.597656 120.074219 C 262.792969 119.101562 262.890625 118.121094 262.890625 117.132812 L 262.890625 86.972656 C 262.890625 85.984375 262.792969 85.003906 262.597656 84.03125 C 262.40625 83.0625 262.121094 82.117188 261.742188 81.203125 C 261.363281 80.289062 260.898438 79.421875 260.347656 78.597656 C 259.796875 77.773438 259.171875 77.011719 258.472656 76.3125 C 257.773438 75.613281 257.011719 74.988281 256.1875 74.4375 C 255.363281 73.886719 254.496094 73.421875 253.582031 73.042969 C 252.667969 72.664062 251.722656 72.378906 250.753906 72.1875 C 249.78125 71.992188 248.800781 71.894531 247.808594 71.894531 Z M 252.835938 117.132812 C 252.835938 117.460938 252.804688 117.789062 252.738281 118.113281 C 252.675781 118.433594 252.582031 118.75 252.453125 119.054688 C 252.328125 119.359375 252.171875 119.648438 251.988281 119.921875 C 251.804688 120.199219 251.597656 120.453125 251.363281 120.683594 C 251.132812 120.917969 250.878906 121.125 250.601562 121.308594 C 250.328125 121.492188 250.039062 121.648438 249.734375 121.773438 C 249.429688 121.902344 249.113281 121.996094 248.792969 122.0625 C 248.46875 122.125 248.140625 122.15625 247.808594 122.15625 L 127.183594 122.15625 C 126.851562 122.15625 126.527344 122.125 126.203125 122.0625 C 125.878906 121.996094 125.566406 121.902344 125.261719 121.773438 C 124.953125 121.648438 124.664062 121.492188 124.390625 121.308594 C 124.117188 121.125 123.863281 120.917969 123.628906 120.683594 C 123.394531 120.453125 123.1875 120.199219 123.003906 119.921875 C 122.820312 119.648438 122.667969 119.359375 122.539062 119.054688 C 122.414062 118.75 122.316406 118.433594 122.253906 118.113281 C 122.1875 117.789062 122.15625 117.460938 122.15625 117.132812 L 122.15625 86.972656 C 122.15625 86.644531 122.1875 86.316406 122.253906 85.992188 C 122.316406 85.671875 122.414062 85.355469 122.539062 85.050781 C 122.667969 84.746094 122.820312 84.457031 123.003906 84.183594 C 123.1875 83.90625 123.394531 83.652344 123.628906 83.421875 C 123.863281 83.1875 124.117188 82.980469 124.390625 82.796875 C 124.664062 82.613281 124.953125 82.457031 125.261719 82.332031 C 125.566406 82.203125 125.878906 82.109375 126.203125 82.042969 C 126.527344 81.980469 126.851562 81.949219 127.183594 81.949219 L 247.808594 81.949219 C 248.140625 81.949219 248.46875 81.980469 248.792969 82.042969 C 249.113281 82.109375 249.429688 82.203125 249.734375 82.332031 C 250.039062 82.457031 250.328125 82.613281 250.601562 82.796875 C 250.878906 82.980469 251.132812 83.1875 251.363281 83.421875 C 251.597656 83.652344 251.804688 83.90625 251.988281 84.183594 C 252.171875 84.457031 252.328125 84.746094 252.453125 85.050781 C 252.582031 85.355469 252.675781 85.671875 252.738281 85.992188 C 252.804688 86.316406 252.835938 86.644531 252.835938 86.972656 Z M 252.835938 117.132812 " fill-opacity="1" fill-rule="nonzero"/><path fill="#ffffff" d="M 137.234375 252.835938 L 237.757812 252.835938 C 238.089844 252.835938 238.414062 252.804688 238.738281 252.738281 C 239.0625 252.675781 239.375 252.582031 239.683594 252.453125 C 239.988281 252.328125 240.277344 252.171875 240.550781 251.988281 C 240.824219 251.804688 241.078125 251.597656 241.3125 251.363281 C 241.546875 251.132812 241.753906 250.878906 241.9375 250.601562 C 242.121094 250.328125 242.277344 250.039062 242.402344 249.734375 C 242.527344 249.429688 242.625 249.113281 242.6875 248.792969 C 242.753906 248.46875 242.785156 248.140625 242.785156 247.808594 C 242.785156 247.480469 242.753906 247.152344 242.6875 246.828125 C 242.625 246.507812 242.527344 246.191406 242.402344 245.886719 C 242.277344 245.582031 242.121094 245.292969 241.9375 245.019531 C 241.753906 244.742188 241.546875 244.488281 241.3125 244.257812 C 241.078125 244.023438 240.824219 243.816406 240.550781 243.632812 C 240.277344 243.449219 239.988281 243.292969 239.683594 243.167969 C 239.375 243.039062 239.0625 242.945312 238.738281 242.882812 C 238.414062 242.816406 238.089844 242.785156 237.757812 242.785156 L 137.234375 242.785156 C 136.90625 242.785156 136.578125 242.816406 136.253906 242.882812 C 135.929688 242.945312 135.617188 243.039062 135.3125 243.167969 C 135.007812 243.292969 134.71875 243.449219 134.441406 243.632812 C 134.167969 243.816406 133.914062 244.023438 133.679688 244.257812 C 133.449219 244.488281 133.238281 244.742188 133.054688 245.019531 C 132.875 245.292969 132.71875 245.582031 132.59375 245.886719 C 132.464844 246.191406 132.371094 246.507812 132.304688 246.828125 C 132.242188 247.152344 132.210938 247.480469 132.210938 247.808594 C 132.210938 248.140625 132.242188 248.46875 132.304688 248.792969 C 132.371094 249.113281 132.464844 249.429688 132.59375 249.734375 C 132.71875 250.039062 132.875 250.328125 133.054688 250.601562 C 133.238281 250.878906 133.449219 251.132812 133.679688 251.363281 C 133.914062 251.597656 134.167969 251.804688 134.441406 251.988281 C 134.71875 252.171875 135.007812 252.328125 135.3125 252.453125 C 135.617188 252.582031 135.929688 252.675781 136.253906 252.738281 C 136.578125 252.804688 136.90625 252.835938 137.234375 252.835938 Z M 137.234375 252.835938 " fill-opacity="1" fill-rule="nonzero"/><path fill="#ffffff" d="M 227.707031 267.914062 L 147.289062 267.914062 C 146.957031 267.914062 146.632812 267.949219 146.308594 268.011719 C 145.984375 268.074219 145.667969 268.171875 145.363281 268.296875 C 145.058594 268.425781 144.769531 268.578125 144.496094 268.761719 C 144.222656 268.945312 143.96875 269.152344 143.734375 269.386719 C 143.5 269.621094 143.292969 269.875 143.109375 270.148438 C 142.925781 270.421875 142.769531 270.710938 142.644531 271.019531 C 142.519531 271.324219 142.421875 271.636719 142.359375 271.960938 C 142.292969 272.285156 142.261719 272.609375 142.261719 272.941406 C 142.261719 273.269531 142.292969 273.597656 142.359375 273.921875 C 142.421875 274.246094 142.519531 274.558594 142.644531 274.863281 C 142.769531 275.167969 142.925781 275.460938 143.109375 275.734375 C 143.292969 276.007812 143.5 276.261719 143.734375 276.496094 C 143.96875 276.730469 144.222656 276.9375 144.496094 277.121094 C 144.769531 277.304688 145.058594 277.457031 145.363281 277.585938 C 145.667969 277.710938 145.984375 277.804688 146.308594 277.871094 C 146.632812 277.933594 146.957031 277.96875 147.289062 277.96875 L 227.707031 277.96875 C 228.035156 277.96875 228.363281 277.933594 228.6875 277.871094 C 229.011719 277.804688 229.324219 277.710938 229.628906 277.585938 C 229.933594 277.457031 230.222656 277.304688 230.5 277.121094 C 230.773438 276.9375 231.027344 276.730469 231.261719 276.496094 C 231.492188 276.261719 231.703125 276.007812 231.886719 275.734375 C 232.070312 275.460938 232.222656 275.167969 232.347656 274.863281 C 232.476562 274.558594 232.570312 274.246094 232.636719 273.921875 C 232.699219 273.597656 232.730469 273.269531 232.730469 272.941406 C 232.730469 272.609375 232.699219 272.285156 232.636719 271.960938 C 232.570312 271.636719 232.476562 271.324219 232.347656 271.019531 C 232.222656 270.710938 232.070312 270.421875 231.886719 270.148438 C 231.703125 269.875 231.492188 269.621094 231.261719 269.386719 C 231.027344 269.152344 230.773438 268.945312 230.5 268.761719 C 230.222656 268.578125 229.933594 268.425781 229.628906 268.296875 C 229.324219 268.171875 229.011719 268.074219 228.6875 268.011719 C 228.363281 267.949219 228.035156 267.914062 227.707031 267.914062 Z M 227.707031 267.914062 " fill-opacity="1" fill-rule="nonzero"/><path fill="#ffffff" d="M 217.652344 293.046875 L 157.339844 293.046875 C 157.011719 293.046875 156.683594 293.078125 156.359375 293.140625 C 156.035156 293.207031 155.722656 293.300781 155.417969 293.429688 C 155.113281 293.554688 154.820312 293.710938 154.546875 293.894531 C 154.273438 294.074219 154.019531 294.285156 153.785156 294.519531 C 153.554688 294.75 153.34375 295.003906 153.160156 295.28125 C 152.976562 295.554688 152.824219 295.84375 152.695312 296.148438 C 152.570312 296.453125 152.476562 296.769531 152.410156 297.089844 C 152.347656 297.414062 152.3125 297.742188 152.3125 298.070312 C 152.3125 298.402344 152.347656 298.730469 152.410156 299.050781 C 152.476562 299.375 152.570312 299.691406 152.695312 299.996094 C 152.824219 300.300781 152.976562 300.589844 153.160156 300.863281 C 153.34375 301.136719 153.554688 301.390625 153.785156 301.625 C 154.019531 301.859375 154.273438 302.066406 154.546875 302.25 C 154.820312 302.433594 155.113281 302.589844 155.417969 302.714844 C 155.722656 302.839844 156.035156 302.9375 156.359375 303 C 156.683594 303.066406 157.011719 303.097656 157.339844 303.097656 L 217.652344 303.097656 C 217.984375 303.097656 218.3125 303.066406 218.632812 303 C 218.957031 302.9375 219.273438 302.839844 219.578125 302.714844 C 219.882812 302.589844 220.171875 302.433594 220.445312 302.25 C 220.71875 302.066406 220.972656 301.859375 221.207031 301.625 C 221.441406 301.390625 221.648438 301.136719 221.832031 300.863281 C 222.015625 300.589844 222.171875 300.300781 222.296875 299.996094 C 222.421875 299.691406 222.519531 299.375 222.582031 299.050781 C 222.648438 298.730469 222.679688 298.402344 222.679688 298.070312 C 222.679688 297.742188 222.648438 297.414062 222.582031 297.089844 C 222.519531 296.769531 222.421875 296.453125 222.296875 296.148438 C 222.171875 295.84375 222.015625 295.554688 221.832031 295.28125 C 221.648438 295.003906 221.441406 294.75 221.207031 294.519531 C 220.972656 294.285156 220.71875 294.074219 220.445312 293.894531 C 220.171875 293.710938 219.882812 293.554688 219.578125 293.429688 C 219.273438 293.300781 218.957031 293.207031 218.632812 293.140625 C 218.3125 293.078125 217.984375 293.046875 217.652344 293.046875 Z M 217.652344 293.046875 " fill-opacity="1" fill-rule="nonzero"/></svg>