<svg xmlns="http://www.w3.org/2000/svg" xmlns:xlink="http://www.w3.org/1999/xlink" width="500" zoomAndPan="magnify" viewBox="0 0 375 374.999991" height="500" preserveAspectRatio="xMidYMid meet" version="1.0"><defs><clipPath id="d123850eba"><path d="M 39.675781 43 L 335.175781 43 L 335.175781 332 L 39.675781 332 Z M 39.675781 43 " clip-rule="nonzero"/></clipPath></defs><path fill="#ffffff" d="M 210.054688 81.871094 C 220.765625 81.871094 229.46875 73.167969 229.46875 62.453125 C 229.46875 51.738281 220.765625 43.039062 210.054688 43.039062 C 199.339844 43.039062 190.636719 51.738281 190.636719 62.453125 C 190.636719 73.167969 199.339844 81.871094 210.054688 81.871094 Z M 210.054688 49.289062 C 217.308594 49.289062 223.1875 55.195312 223.1875 62.421875 C 223.1875 69.648438 217.277344 75.554688 210.054688 75.554688 C 202.828125 75.554688 196.921875 69.648438 196.921875 62.421875 C 196.921875 55.195312 202.796875 49.289062 210.054688 49.289062 Z M 210.054688 49.289062 " fill-opacity="1" fill-rule="nonzero"/><g clip-path="url(#d123850eba)"><path fill="#ffffff" d="M 50.703125 215.363281 C 56.359375 215.363281 61.132812 211.121094 61.792969 205.464844 L 63.238281 193.308594 C 64.085938 186.175781 67.355469 179.421875 72.445312 174.332031 L 77.597656 169.148438 L 77.597656 197.769531 C 77.597656 201.539062 78.570312 205.183594 80.359375 208.386719 L 73.953125 292.492188 L 68.328125 292.492188 C 66.601562 292.492188 65.1875 293.90625 65.1875 295.636719 L 65.1875 328.5 C 65.1875 330.226562 66.601562 331.640625 68.328125 331.640625 L 320.453125 331.640625 C 322.183594 331.640625 323.597656 330.226562 323.597656 328.5 L 323.597656 73.730469 L 331.953125 73.730469 C 333.148438 73.730469 334.246094 73.042969 334.78125 71.972656 C 335.316406 70.875 335.160156 69.585938 334.402344 68.644531 L 315.019531 44.199219 C 314.421875 43.445312 313.511719 43.003906 312.570312 43.003906 C 311.625 43.003906 310.714844 43.445312 310.117188 44.199219 L 290.734375 68.644531 C 289.980469 69.585938 289.855469 70.875 290.355469 71.972656 C 290.890625 73.074219 291.992188 73.730469 293.183594 73.730469 L 301.542969 73.730469 L 301.542969 217.5 L 288.972656 194.125 C 286.679688 189.851562 285.457031 185.046875 285.457031 180.175781 L 285.457031 170.277344 C 285.457031 161.417969 283.195312 152.652344 278.921875 144.863281 L 248.445312 89.472656 C 246.214844 85.449219 242.570312 82.5625 238.109375 81.398438 C 233.679688 80.234375 229.0625 80.925781 225.132812 83.347656 L 212.15625 91.390625 C 205.96875 95.253906 202.261719 101.882812 202.261719 109.140625 L 202.261719 119.097656 C 202.261719 124.03125 199.621094 128.652344 195.382812 131.101562 L 179.984375 140.210938 C 177.191406 141.8125 175.210938 144.484375 174.363281 147.53125 C 171.285156 146.558594 167.859375 146.808594 164.8125 148.476562 L 158.058594 152.214844 C 155.292969 153.753906 151.929688 153.28125 149.699219 151.050781 L 141.9375 143.292969 C 136.945312 138.296875 130.285156 135.53125 123.214844 135.53125 L 89.535156 135.53125 C 80.519531 135.53125 71.910156 139.394531 65.878906 146.117188 L 51.109375 162.644531 C 45.738281 168.613281 42.3125 176.3125 41.527344 184.324219 L 39.582031 203.046875 C 39.550781 203.425781 39.550781 203.769531 39.550781 204.179688 C 39.550781 210.335938 44.542969 215.363281 50.703125 215.363281 Z M 86.171875 215.300781 C 86.328125 215.425781 86.519531 215.519531 86.675781 215.644531 C 87.242188 216.054688 87.808594 216.429688 88.402344 216.808594 C 88.6875 216.964844 88.96875 217.121094 89.25 217.28125 C 89.785156 217.5625 90.351562 217.84375 90.917969 218.097656 C 91.230469 218.222656 91.546875 218.378906 91.859375 218.472656 C 92.457031 218.695312 93.085938 218.914062 93.714844 219.070312 C 93.996094 219.164062 94.277344 219.257812 94.5625 219.320312 C 95.472656 219.542969 96.414062 219.730469 97.390625 219.824219 L 104.582031 220.609375 L 94.65625 292.523438 L 80.296875 292.523438 Z M 133.832031 223.816406 C 134.777344 223.910156 135.5 224.726562 135.5 225.667969 L 135.5 259.695312 L 122.617188 259.695312 C 120.890625 259.695312 119.476562 261.109375 119.476562 262.835938 L 119.476562 292.523438 L 100.972656 292.523438 L 110.835938 221.300781 Z M 182.3125 162.394531 C 185.515625 163.460938 189.128906 163.179688 192.175781 161.449219 L 206.722656 153.25 C 212.222656 150.109375 216.652344 145.207031 219.132812 139.488281 L 222.304688 132.230469 L 229.71875 151.429688 C 231.730469 156.644531 230.472656 162.550781 226.515625 166.507812 L 213.699219 179.328125 C 208.261719 184.761719 205.152344 192.300781 205.152344 200 L 205.152344 226.863281 L 182.21875 226.863281 C 180.488281 226.863281 179.074219 228.277344 179.074219 230.003906 L 179.074219 259.726562 L 163.554688 259.726562 L 163.554688 219.824219 C 163.554688 208.984375 156.644531 199.464844 146.402344 196.136719 L 131.730469 191.328125 C 130.910156 191.046875 130.347656 190.261719 130.347656 189.378906 L 130.347656 172.824219 L 140.148438 176.59375 C 148.285156 179.703125 157.460938 179.265625 165.25 175.367188 L 176.089844 169.964844 C 179.167969 168.332031 181.398438 165.628906 182.3125 162.394531 Z M 265.222656 209.300781 L 276.597656 226.832031 L 231.449219 226.832031 L 231.449219 207.351562 C 231.449219 204.019531 233.019531 200.785156 235.628906 198.710938 L 259.503906 179.734375 L 259.503906 189.882812 C 259.472656 196.796875 261.453125 203.488281 265.222656 209.300781 Z M 304.714844 233.113281 L 317.34375 233.113281 L 317.34375 259.695312 L 185.359375 259.695312 L 185.359375 233.113281 Z M 317.34375 265.976562 L 317.34375 292.523438 L 125.757812 292.523438 L 125.757812 265.976562 Z M 317.34375 325.386719 L 71.53125 325.386719 L 71.53125 298.808594 L 317.375 298.808594 L 317.375 325.386719 Z M 312.601562 51.207031 L 325.480469 67.449219 L 299.71875 67.449219 Z M 317.34375 73.730469 L 317.34375 226.832031 L 307.855469 226.832031 L 307.855469 73.730469 Z M 299.46875 226.832031 L 284.074219 226.832031 L 270.5 205.875 C 267.421875 201.101562 265.789062 195.570312 265.789062 189.882812 L 265.789062 174.773438 L 274.363281 167.953125 C 276.125 166.570312 277.539062 164.90625 278.636719 163.085938 C 279.015625 165.472656 279.234375 167.890625 279.234375 170.308594 L 279.234375 180.207031 C 279.234375 186.082031 280.710938 191.925781 283.507812 197.109375 Z M 183.128906 145.648438 L 198.585938 136.597656 C 204.742188 133.015625 208.578125 126.324219 208.578125 119.164062 L 208.578125 109.203125 C 208.578125 104.144531 211.183594 99.496094 215.519531 96.792969 L 228.496094 88.75 C 230.945312 87.242188 233.804688 86.800781 236.539062 87.554688 C 239.304688 88.277344 241.597656 90.070312 242.949219 92.582031 L 273.421875 147.972656 C 276.25 153.0625 274.960938 159.441406 270.375 163.085938 L 231.667969 193.84375 C 227.550781 197.078125 225.101562 202.136719 225.101562 207.382812 L 225.101562 226.863281 L 211.371094 226.863281 L 211.371094 200 C 211.371094 193.96875 213.824219 188.03125 218.097656 183.789062 L 230.914062 170.96875 C 236.632812 165.285156 238.421875 156.738281 235.53125 149.199219 L 225.351562 122.902344 C 224.882812 121.707031 223.75 120.921875 222.496094 120.890625 C 221.144531 120.796875 220.042969 121.613281 219.542969 122.773438 L 213.289062 137.039062 C 211.339844 141.53125 207.855469 145.363281 203.550781 147.847656 L 189.003906 156.046875 C 186.710938 157.335938 183.851562 156.925781 181.996094 155.105469 C 181.933594 154.882812 181.871094 154.664062 181.777344 154.414062 C 181.398438 153.5 180.867188 152.652344 180.269531 151.835938 C 180.207031 151.523438 180.144531 151.207031 180.144531 150.832031 C 180.175781 148.664062 181.304688 146.683594 183.128906 145.648438 Z M 45.832031 203.675781 L 47.78125 184.949219 C 48.472656 178.257812 51.300781 171.816406 55.792969 166.824219 L 70.558594 150.296875 C 75.398438 144.894531 82.308594 141.8125 89.535156 141.8125 L 123.214844 141.8125 C 128.617188 141.8125 133.675781 143.917969 137.476562 147.722656 L 145.238281 155.480469 C 149.417969 159.660156 155.953125 160.570312 161.105469 157.710938 L 167.828125 154.003906 C 170.246094 152.683594 173.199219 153.1875 174.992188 155.199219 C 175.429688 155.699219 175.777344 156.265625 175.996094 156.769531 C 176.121094 157.082031 176.214844 157.398438 176.308594 157.710938 C 176.4375 158.121094 176.46875 158.589844 176.46875 159.09375 C 176.46875 161.292969 175.210938 163.335938 173.261719 164.308594 L 162.421875 169.714844 C 156.203125 172.824219 148.882812 173.199219 142.378906 170.6875 L 128.304688 165.285156 C 127.332031 164.90625 126.261719 165.03125 125.414062 165.628906 C 124.566406 166.226562 124.0625 167.167969 124.0625 168.207031 L 124.0625 189.347656 C 124.0625 192.960938 126.355469 196.136719 129.78125 197.265625 L 144.453125 202.074219 C 152.117188 204.554688 157.269531 211.6875 157.269531 219.792969 L 157.269531 259.695312 L 141.78125 259.695312 L 141.78125 225.667969 C 141.78125 221.519531 138.640625 218.035156 134.492188 217.5625 L 98.050781 213.605469 C 97.421875 213.542969 96.824219 213.445312 96.226562 213.289062 C 92.078125 212.347656 88.496094 209.800781 86.203125 206.09375 C 84.664062 203.644531 83.847656 200.753906 83.847656 197.800781 L 83.847656 161.574219 C 83.847656 160.320312 83.09375 159.15625 81.898438 158.6875 C 80.738281 158.214844 79.386719 158.464844 78.476562 159.375 L 67.949219 169.933594 C 61.886719 175.996094 57.960938 184.039062 56.953125 192.585938 L 55.507812 204.742188 C 55.226562 207.226562 53.121094 209.078125 50.671875 209.078125 C 47.96875 209.078125 45.800781 206.878906 45.800781 204.179688 C 45.832031 203.988281 45.832031 203.832031 45.832031 203.675781 Z M 45.832031 203.675781 " fill-opacity="1" fill-rule="nonzero"/></g><path fill="#ffffff" d="M 108.164062 131.570312 C 120.292969 131.570312 130.1875 121.707031 130.1875 109.546875 C 130.1875 97.390625 120.324219 87.523438 108.164062 87.523438 C 96.007812 87.523438 86.140625 97.390625 86.140625 109.546875 C 86.140625 121.707031 96.007812 131.570312 108.164062 131.570312 Z M 108.164062 93.808594 C 116.835938 93.808594 123.90625 100.878906 123.90625 109.546875 C 123.90625 118.21875 116.835938 125.289062 108.164062 125.289062 C 99.492188 125.289062 92.425781 118.21875 92.425781 109.546875 C 92.425781 100.878906 99.492188 93.808594 108.164062 93.808594 Z M 108.164062 93.808594 " fill-opacity="1" fill-rule="nonzero"/><path fill="#ffffff" d="M 204.082031 249.546875 L 222.933594 249.546875 C 224.664062 249.546875 226.074219 248.132812 226.074219 246.402344 C 226.074219 244.675781 224.664062 243.261719 222.933594 243.261719 L 204.082031 243.261719 C 202.355469 243.261719 200.941406 244.675781 200.941406 246.402344 C 200.941406 248.132812 202.355469 249.546875 204.082031 249.546875 Z M 204.082031 249.546875 " fill-opacity="1" fill-rule="nonzero"/><path fill="#ffffff" d="M 279.484375 249.546875 L 298.335938 249.546875 C 300.066406 249.546875 301.480469 248.132812 301.480469 246.402344 C 301.480469 244.675781 300.066406 243.261719 298.335938 243.261719 L 279.484375 243.261719 C 277.757812 243.261719 276.34375 244.675781 276.34375 246.402344 C 276.34375 248.132812 277.757812 249.546875 279.484375 249.546875 Z M 279.484375 249.546875 " fill-opacity="1" fill-rule="nonzero"/><path fill="#ffffff" d="M 241.785156 249.546875 L 260.636719 249.546875 C 262.363281 249.546875 263.777344 248.132812 263.777344 246.402344 C 263.777344 244.675781 262.363281 243.261719 260.636719 243.261719 L 241.785156 243.261719 C 240.058594 243.261719 238.644531 244.675781 238.644531 246.402344 C 238.644531 248.132812 240.058594 249.546875 241.785156 249.546875 Z M 241.785156 249.546875 " fill-opacity="1" fill-rule="nonzero"/><path fill="#ffffff" d="M 144.484375 282.378906 L 166.476562 282.378906 C 168.203125 282.378906 169.617188 280.964844 169.617188 279.234375 C 169.617188 277.507812 168.203125 276.09375 166.476562 276.09375 L 144.484375 276.09375 C 142.757812 276.09375 141.34375 277.507812 141.34375 279.234375 C 141.34375 280.964844 142.757812 282.378906 144.484375 282.378906 Z M 144.484375 282.378906 " fill-opacity="1" fill-rule="nonzero"/><path fill="#ffffff" d="M 188.46875 282.378906 L 210.460938 282.378906 C 212.1875 282.378906 213.601562 280.964844 213.601562 279.234375 C 213.601562 277.507812 212.1875 276.09375 210.460938 276.09375 L 188.46875 276.09375 C 186.742188 276.09375 185.328125 277.507812 185.328125 279.234375 C 185.328125 280.964844 186.742188 282.378906 188.46875 282.378906 Z M 188.46875 282.378906 " fill-opacity="1" fill-rule="nonzero"/><path fill="#ffffff" d="M 232.453125 282.378906 L 254.445312 282.378906 C 256.175781 282.378906 257.589844 280.964844 257.589844 279.234375 C 257.589844 277.507812 256.175781 276.09375 254.445312 276.09375 L 232.453125 276.09375 C 230.726562 276.09375 229.3125 277.507812 229.3125 279.234375 C 229.3125 280.964844 230.726562 282.378906 232.453125 282.378906 Z M 232.453125 282.378906 " fill-opacity="1" fill-rule="nonzero"/><path fill="#ffffff" d="M 276.4375 282.378906 L 298.429688 282.378906 C 300.160156 282.378906 301.574219 280.964844 301.574219 279.234375 C 301.574219 277.507812 300.160156 276.09375 298.429688 276.09375 L 276.4375 276.09375 C 274.710938 276.09375 273.296875 277.507812 273.296875 279.234375 C 273.296875 280.964844 274.710938 282.378906 276.4375 282.378906 Z M 276.4375 282.378906 " fill-opacity="1" fill-rule="nonzero"/><path fill="#ffffff" d="M 215.898438 315.238281 L 231.605469 315.238281 C 233.332031 315.238281 234.746094 313.828125 234.746094 312.097656 C 234.746094 310.371094 233.332031 308.957031 231.605469 308.957031 L 215.898438 308.957031 C 214.167969 308.957031 212.753906 310.371094 212.753906 312.097656 C 212.753906 313.828125 214.167969 315.238281 215.898438 315.238281 Z M 215.898438 315.238281 " fill-opacity="1" fill-rule="nonzero"/><path fill="#ffffff" d="M 105.933594 308.957031 L 90.226562 308.957031 C 88.496094 308.957031 87.085938 310.371094 87.085938 312.097656 C 87.085938 313.828125 88.496094 315.238281 90.226562 315.238281 L 105.933594 315.238281 C 107.664062 315.238281 109.078125 313.828125 109.078125 312.097656 C 109.078125 310.371094 107.695312 308.957031 105.933594 308.957031 Z M 105.933594 308.957031 " fill-opacity="1" fill-rule="nonzero"/><path fill="#ffffff" d="M 278.730469 315.238281 L 294.441406 315.238281 C 296.167969 315.238281 297.582031 313.828125 297.582031 312.097656 C 297.582031 310.371094 296.167969 308.957031 294.441406 308.957031 L 278.730469 308.957031 C 277.003906 308.957031 275.589844 310.371094 275.589844 312.097656 C 275.589844 313.828125 277.003906 315.238281 278.730469 315.238281 Z M 278.730469 315.238281 " fill-opacity="1" fill-rule="nonzero"/><path fill="#ffffff" d="M 247.3125 315.238281 L 263.023438 315.238281 C 264.75 315.238281 266.164062 313.828125 266.164062 312.097656 C 266.164062 310.371094 264.75 308.957031 263.023438 308.957031 L 247.3125 308.957031 C 245.585938 308.957031 244.171875 310.371094 244.171875 312.097656 C 244.171875 313.828125 245.585938 315.238281 247.3125 315.238281 Z M 247.3125 315.238281 " fill-opacity="1" fill-rule="nonzero"/><path fill="#ffffff" d="M 118.5 312.097656 C 118.5 313.828125 119.914062 315.238281 121.644531 315.238281 L 137.351562 315.238281 C 139.082031 315.238281 140.496094 313.828125 140.496094 312.097656 C 140.496094 310.371094 139.082031 308.957031 137.351562 308.957031 L 121.644531 308.957031 C 119.914062 308.957031 118.5 310.339844 118.5 312.097656 Z M 118.5 312.097656 " fill-opacity="1" fill-rule="nonzero"/><path fill="#ffffff" d="M 184.480469 315.238281 L 200.1875 315.238281 C 201.914062 315.238281 203.328125 313.828125 203.328125 312.097656 C 203.328125 310.371094 201.914062 308.957031 200.1875 308.957031 L 184.480469 308.957031 C 182.75 308.957031 181.335938 310.371094 181.335938 312.097656 C 181.335938 313.828125 182.75 315.238281 184.480469 315.238281 Z M 184.480469 315.238281 " fill-opacity="1" fill-rule="nonzero"/><path fill="#ffffff" d="M 153.0625 315.238281 L 168.769531 315.238281 C 170.5 315.238281 171.910156 313.828125 171.910156 312.097656 C 171.910156 310.371094 170.5 308.957031 168.769531 308.957031 L 153.0625 308.957031 C 151.332031 308.957031 149.917969 310.371094 149.917969 312.097656 C 149.917969 313.828125 151.332031 315.238281 153.0625 315.238281 Z M 153.0625 315.238281 " fill-opacity="1" fill-rule="nonzero"/></svg>