<svg xmlns="http://www.w3.org/2000/svg" xmlns:xlink="http://www.w3.org/1999/xlink" width="500" zoomAndPan="magnify" viewBox="0 0 375 374.999991" height="500" preserveAspectRatio="xMidYMid meet" version="1.0"><defs><g/><clipPath id="c5dffda8a0"><path d="M 55 54.691406 L 321 54.691406 L 321 321.691406 L 55 321.691406 Z M 55 54.691406 " clip-rule="nonzero"/></clipPath><clipPath id="8216c1472a"><path d="M 335 194 L 346.597656 194 L 346.597656 208 L 335 208 Z M 335 194 " clip-rule="nonzero"/></clipPath><clipPath id="6f7e015d70"><path d="M 335 172 L 346.597656 172 L 346.597656 186 L 335 186 Z M 335 172 " clip-rule="nonzero"/></clipPath><clipPath id="0b732ca619"><path d="M 30.097656 168 L 41 168 L 41 182 L 30.097656 182 Z M 30.097656 168 " clip-rule="nonzero"/></clipPath><clipPath id="804b874041"><path d="M 30.097656 191 L 41 191 L 41 204 L 30.097656 204 Z M 30.097656 191 " clip-rule="nonzero"/></clipPath></defs><path fill="currentcolor" d="M 188.226562 80.386719 C 129.175781 80.386719 81.246094 128.8125 81.246094 188.109375 C 81.246094 247.40625 129.175781 295.832031 188.226562 295.832031 C 247.277344 295.832031 295.207031 247.40625 295.207031 188.109375 C 295.207031 128.8125 247.277344 80.386719 188.226562 80.386719 Z M 188.226562 285.949219 C 134.613281 285.949219 91.128906 241.972656 91.128906 188.109375 C 91.128906 134.25 134.613281 90.269531 188.226562 90.269531 C 241.839844 90.269531 285.324219 134.25 285.324219 188.109375 C 285.324219 241.972656 241.839844 285.949219 188.226562 285.949219 Z M 188.226562 285.949219 " fill-opacity="1" fill-rule="nonzero"/><g clip-path="url(#c5dffda8a0)"><path fill="currentcolor" d="M 188.226562 54.691406 C 115.09375 54.691406 55.550781 114.484375 55.550781 188.109375 C 55.550781 261.738281 115.09375 321.527344 188.226562 321.527344 C 261.359375 321.527344 320.902344 261.738281 320.902344 188.109375 C 320.902344 114.484375 261.359375 54.691406 188.226562 54.691406 Z M 188.226562 311.644531 C 120.527344 311.644531 65.433594 256.300781 65.433594 188.109375 C 65.433594 119.917969 120.527344 64.574219 188.226562 64.574219 C 255.921875 64.574219 311.019531 119.917969 311.019531 188.109375 C 311.019531 256.300781 255.921875 311.644531 188.226562 311.644531 Z M 188.226562 311.644531 " fill-opacity="1" fill-rule="nonzero"/></g><path fill="currentcolor" d="M 327.328125 112.261719 C 326.089844 109.789062 323.125 109.046875 320.65625 110.285156 C 318.183594 111.519531 317.445312 114.484375 318.679688 116.953125 C 319.171875 117.695312 319.421875 118.4375 319.667969 118.929688 C 320.65625 120.660156 322.386719 121.648438 324.113281 121.648438 C 324.855469 121.648438 325.597656 121.402344 326.339844 121.15625 C 328.808594 119.917969 329.796875 116.953125 328.5625 114.484375 C 328.066406 113.742188 327.574219 113 327.328125 112.261719 Z M 327.328125 112.261719 " fill-opacity="1" fill-rule="nonzero"/><path fill="currentcolor" d="M 313.242188 277.304688 C 311.019531 275.574219 308.054688 276.066406 306.324219 278.292969 C 305.832031 279.03125 305.335938 279.527344 304.84375 280.269531 C 303.113281 282.492188 303.609375 285.457031 305.585938 287.1875 C 306.574219 287.925781 307.5625 288.175781 308.550781 288.175781 C 310.03125 288.175781 311.515625 287.433594 312.503906 286.199219 C 312.996094 285.457031 313.492188 284.960938 313.984375 284.222656 C 315.960938 281.996094 315.46875 278.785156 313.242188 277.304688 Z M 313.242188 277.304688 " fill-opacity="1" fill-rule="nonzero"/><path fill="currentcolor" d="M 308.054688 92 C 305.832031 93.730469 305.335938 96.695312 307.066406 98.917969 C 307.5625 99.660156 308.054688 100.152344 308.550781 100.894531 C 309.539062 102.128906 311.019531 102.871094 312.503906 102.871094 C 313.492188 102.871094 314.480469 102.625 315.46875 101.882812 C 317.691406 100.402344 318.183594 97.1875 316.703125 94.964844 C 316.207031 94.222656 315.714844 93.484375 315.21875 92.988281 C 313.492188 90.765625 310.277344 90.519531 308.054688 92 Z M 308.054688 92 " fill-opacity="1" fill-rule="nonzero"/><path fill="currentcolor" d="M 333.257812 156.980469 C 333.503906 157.722656 333.503906 158.460938 333.75 159.203125 C 334.246094 161.675781 336.222656 163.15625 338.691406 163.15625 C 338.9375 163.15625 339.433594 163.15625 339.679688 163.15625 C 342.398438 162.664062 344.128906 159.945312 343.632812 157.472656 C 343.386719 156.734375 343.386719 155.746094 343.140625 155.003906 C 342.644531 152.285156 339.925781 150.554688 337.210938 151.296875 C 334.246094 151.542969 332.761719 154.261719 333.257812 156.980469 Z M 333.257812 156.980469 " fill-opacity="1" fill-rule="nonzero"/><path fill="currentcolor" d="M 336.714844 133.015625 C 335.726562 130.542969 333.007812 129.0625 330.292969 130.050781 C 327.820312 131.039062 326.339844 133.753906 327.328125 136.472656 C 327.574219 137.214844 327.820312 137.957031 328.066406 138.695312 C 328.808594 140.671875 330.785156 141.910156 332.761719 141.910156 C 333.257812 141.910156 333.75 141.910156 334.492188 141.660156 C 336.960938 140.671875 338.445312 137.957031 337.457031 135.484375 C 337.210938 134.496094 336.960938 133.753906 336.714844 133.015625 Z M 336.714844 133.015625 " fill-opacity="1" fill-rule="nonzero"/><g clip-path="url(#8216c1472a)"><path fill="currentcolor" d="M 341.410156 194.78125 C 338.691406 194.535156 336.222656 196.511719 336.222656 199.230469 C 336.222656 199.96875 335.972656 200.710938 335.972656 201.699219 C 335.726562 204.417969 337.703125 206.886719 340.421875 207.136719 C 340.667969 207.136719 340.667969 207.136719 340.914062 207.136719 C 343.386719 207.136719 345.609375 205.160156 345.855469 202.6875 C 345.855469 201.945312 346.105469 200.957031 346.105469 200.21875 C 346.105469 197.5 344.128906 195.027344 341.410156 194.78125 Z M 341.410156 194.78125 " fill-opacity="1" fill-rule="nonzero"/></g><g clip-path="url(#6f7e015d70)"><path fill="currentcolor" d="M 340.667969 172.792969 C 337.949219 173.039062 335.972656 175.261719 335.972656 177.980469 C 335.972656 178.722656 335.972656 179.464844 336.222656 180.453125 C 336.46875 183.167969 338.445312 185.144531 341.164062 185.144531 C 341.164062 185.144531 341.410156 185.144531 341.410156 185.144531 C 344.128906 184.898438 346.351562 182.675781 346.105469 179.957031 C 346.105469 179.214844 346.105469 178.226562 345.855469 177.488281 C 345.855469 174.769531 343.386719 172.546875 340.667969 172.792969 Z M 340.667969 172.792969 " fill-opacity="1" fill-rule="nonzero"/></g><path fill="currentcolor" d="M 338.9375 216.769531 C 336.222656 216.277344 333.75 217.757812 333.007812 220.476562 C 332.761719 221.21875 332.761719 221.960938 332.515625 222.699219 C 331.773438 225.417969 333.503906 228.136719 336.222656 228.628906 C 336.714844 228.628906 336.960938 228.878906 337.457031 228.878906 C 339.679688 228.878906 341.65625 227.394531 342.152344 225.171875 C 342.398438 224.429688 342.644531 223.441406 342.644531 222.699219 C 343.140625 219.984375 341.410156 217.265625 338.9375 216.769531 Z M 338.9375 216.769531 " fill-opacity="1" fill-rule="nonzero"/><path fill="currentcolor" d="M 324.609375 258.277344 C 322.136719 257.042969 319.171875 257.785156 317.9375 260.253906 C 317.445312 260.996094 317.195312 261.738281 316.703125 262.230469 C 315.46875 264.703125 316.207031 267.667969 318.433594 268.902344 C 319.171875 269.398438 320.160156 269.644531 320.902344 269.644531 C 322.632812 269.644531 324.363281 268.65625 325.101562 267.171875 C 325.597656 266.433594 325.84375 265.691406 326.339844 264.949219 C 328.066406 262.726562 327.078125 259.761719 324.609375 258.277344 Z M 324.609375 258.277344 " fill-opacity="1" fill-rule="nonzero"/><path fill="currentcolor" d="M 333.257812 238.019531 C 330.785156 237.03125 327.820312 238.265625 326.832031 240.984375 C 326.585938 241.726562 326.339844 242.464844 326.089844 243.207031 C 325.101562 245.679688 326.339844 248.644531 328.808594 249.632812 C 329.304688 249.878906 330.042969 249.878906 330.539062 249.878906 C 332.515625 249.878906 334.492188 248.644531 335.234375 246.667969 C 335.480469 245.925781 335.726562 245.183594 336.222656 244.195312 C 337.210938 241.726562 335.726562 239.007812 333.257812 238.019531 Z M 333.257812 238.019531 " fill-opacity="1" fill-rule="nonzero"/><g clip-path="url(#0b732ca619)"><path fill="currentcolor" d="M 30.84375 173.535156 C 30.84375 174.273438 30.59375 175.261719 30.59375 176.003906 C 30.347656 178.722656 32.324219 181.191406 35.042969 181.191406 C 35.289062 181.191406 35.289062 181.191406 35.535156 181.191406 C 38.007812 181.191406 40.230469 179.214844 40.476562 176.5 C 40.476562 175.757812 40.726562 175.015625 40.726562 174.027344 C 40.972656 171.308594 38.996094 168.839844 36.277344 168.59375 C 33.3125 168.839844 31.089844 170.816406 30.84375 173.535156 Z M 30.84375 173.535156 " fill-opacity="1" fill-rule="nonzero"/></g><path fill="currentcolor" d="M 34.300781 151.050781 C 34.054688 151.792969 33.808594 152.78125 33.808594 153.519531 C 33.3125 156.238281 35.042969 158.957031 37.511719 159.449219 C 37.761719 159.449219 38.253906 159.449219 38.5 159.449219 C 40.726562 159.449219 42.703125 157.96875 43.441406 155.496094 C 43.691406 154.757812 43.691406 154.015625 43.9375 153.273438 C 44.679688 150.554688 42.949219 147.839844 40.230469 147.34375 C 37.761719 146.851562 35.042969 148.578125 34.300781 151.050781 Z M 34.300781 151.050781 " fill-opacity="1" fill-rule="nonzero"/><path fill="currentcolor" d="M 43.195312 219.242188 C 42.949219 218.5 42.949219 217.757812 42.703125 217.019531 C 42.207031 214.300781 39.488281 212.570312 37.019531 213.066406 C 34.300781 213.558594 32.570312 216.277344 33.066406 218.746094 C 33.3125 219.488281 33.3125 220.476562 33.558594 221.21875 C 34.054688 223.441406 36.03125 225.171875 38.5 225.171875 C 38.75 225.171875 39.242188 225.171875 39.488281 225.171875 C 42.207031 224.675781 43.691406 221.960938 43.195312 219.242188 Z M 43.195312 219.242188 " fill-opacity="1" fill-rule="nonzero"/><path fill="currentcolor" d="M 49.125 239.75 C 48.878906 239.007812 48.632812 238.265625 48.382812 237.523438 C 47.394531 235.054688 44.679688 233.570312 42.207031 234.558594 C 39.738281 235.546875 38.253906 238.265625 39.242188 240.738281 C 39.488281 241.476562 39.738281 242.21875 39.984375 243.207031 C 40.726562 245.183594 42.703125 246.417969 44.679688 246.417969 C 45.171875 246.417969 45.914062 246.417969 46.40625 246.171875 C 48.632812 245.183594 50.113281 242.464844 49.125 239.75 Z M 49.125 239.75 " fill-opacity="1" fill-rule="nonzero"/><path fill="currentcolor" d="M 41.21875 129.554688 C 40.972656 130.296875 40.726562 131.039062 40.230469 132.027344 C 39.242188 134.496094 40.476562 137.460938 43.195312 138.449219 C 43.691406 138.695312 44.429688 138.695312 44.925781 138.695312 C 46.902344 138.695312 48.878906 137.460938 49.621094 135.484375 C 49.867188 134.496094 50.113281 133.753906 50.359375 133.015625 C 51.347656 130.542969 50.113281 127.578125 47.644531 126.589844 C 45.171875 125.601562 42.207031 126.835938 41.21875 129.554688 Z M 41.21875 129.554688 " fill-opacity="1" fill-rule="nonzero"/><path fill="currentcolor" d="M 56.785156 257.289062 C 55.550781 254.820312 52.585938 253.832031 50.113281 255.066406 C 47.644531 256.300781 46.65625 259.265625 47.890625 261.738281 C 48.382812 262.480469 48.632812 263.21875 49.125 263.960938 C 50.113281 265.691406 51.84375 266.433594 53.574219 266.433594 C 54.3125 266.433594 55.054688 266.183594 55.796875 265.9375 C 58.265625 264.703125 59.007812 261.738281 57.773438 259.265625 C 57.527344 258.527344 57.03125 257.785156 56.785156 257.289062 Z M 56.785156 257.289062 " fill-opacity="1" fill-rule="nonzero"/><path fill="currentcolor" d="M 51.101562 109.046875 C 50.609375 109.789062 50.359375 110.53125 49.867188 111.273438 C 48.632812 113.742188 49.371094 116.707031 51.84375 117.941406 C 52.585938 118.4375 53.324219 118.4375 54.3125 118.4375 C 56.042969 118.4375 57.773438 117.449219 58.761719 115.964844 C 59.253906 115.226562 59.503906 114.484375 59.996094 113.988281 C 61.230469 111.519531 60.492188 108.554688 58.265625 107.320312 C 55.300781 105.835938 52.335938 106.578125 51.101562 109.046875 Z M 51.101562 109.046875 " fill-opacity="1" fill-rule="nonzero"/><g clip-path="url(#804b874041)"><path fill="currentcolor" d="M 35.785156 203.429688 C 38.5 203.183594 40.476562 200.957031 40.476562 198.242188 C 40.476562 197.5 40.476562 196.757812 40.230469 195.769531 C 39.984375 193.050781 37.761719 190.828125 35.042969 191.074219 C 32.324219 191.324219 30.101562 193.546875 30.347656 196.265625 C 30.347656 197.003906 30.347656 197.992188 30.59375 198.734375 C 30.84375 201.453125 32.820312 203.429688 35.535156 203.429688 C 35.535156 203.429688 35.535156 203.429688 35.785156 203.429688 Z M 35.785156 203.429688 " fill-opacity="1" fill-rule="nonzero"/></g><path fill="currentcolor" d="M 67.902344 275.328125 C 66.421875 273.101562 63.207031 272.609375 60.984375 274.089844 C 58.761719 275.574219 58.265625 278.785156 59.75 281.007812 C 60.242188 281.75 60.738281 282.492188 61.230469 282.984375 C 62.21875 284.222656 63.703125 284.960938 65.183594 284.960938 C 66.171875 284.960938 67.160156 284.714844 68.148438 283.972656 C 70.375 282.246094 70.867188 279.28125 69.136719 277.054688 C 68.890625 276.5625 68.398438 276.066406 67.902344 275.328125 Z M 67.902344 275.328125 " fill-opacity="1" fill-rule="nonzero"/><path fill="currentcolor" d="M 63.207031 98.917969 C 64.195312 99.660156 65.183594 99.90625 66.171875 99.90625 C 67.65625 99.90625 69.136719 99.164062 70.125 97.929688 C 70.621094 97.1875 71.113281 96.695312 71.609375 95.953125 C 73.339844 93.730469 72.84375 90.765625 70.867188 89.035156 C 68.644531 87.304688 65.679688 87.800781 63.949219 89.777344 C 63.457031 90.519531 62.960938 91.011719 62.46875 91.753906 C 60.492188 94.222656 60.984375 97.4375 63.207031 98.917969 Z M 63.207031 98.917969 " fill-opacity="1" fill-rule="nonzero"/><path fill="currentcolor" d="M 133.625 184.898438 C 132.636719 183.910156 131.648438 183.167969 130.164062 182.429688 C 128.929688 181.6875 127.445312 180.945312 125.71875 180.453125 L 123 179.214844 C 122.011719 178.722656 121.023438 178.476562 120.28125 177.734375 C 119.539062 177.238281 119.046875 176.25 119.046875 175.261719 C 119.046875 174.523438 119.292969 174.027344 119.539062 173.535156 C 119.789062 173.039062 120.28125 172.792969 120.527344 172.546875 C 121.023438 172.296875 121.515625 172.050781 122.011719 172.050781 C 122.503906 172.050781 123.246094 171.804688 123.742188 171.804688 C 125.71875 171.804688 127.445312 172.050781 128.929688 172.546875 C 130.410156 173.039062 131.398438 173.535156 132.636719 174.027344 C 133.375 172.792969 133.871094 171.308594 134.117188 169.828125 C 134.613281 168.34375 134.859375 166.863281 134.859375 165.628906 C 132.636719 164.886719 130.660156 164.390625 128.929688 163.898438 C 126.953125 163.402344 125.222656 163.402344 123 163.402344 C 120.777344 163.402344 118.800781 163.652344 116.824219 164.144531 C 115.09375 164.640625 113.363281 165.628906 112.128906 166.617188 C 110.894531 167.851562 109.90625 169.085938 109.164062 170.816406 C 108.421875 172.546875 108.175781 174.273438 108.175781 176.25 C 108.175781 177.980469 108.421875 179.464844 108.917969 180.699219 C 109.410156 181.933594 109.90625 183.167969 110.894531 184.15625 C 111.882812 185.144531 112.621094 185.886719 113.859375 186.628906 C 115.09375 187.371094 116.328125 187.863281 117.8125 188.359375 L 121.023438 189.59375 C 121.515625 189.839844 122.011719 190.085938 122.503906 190.335938 C 123 190.582031 123.492188 190.828125 123.742188 191.074219 C 123.988281 191.324219 124.480469 191.816406 124.730469 192.3125 C 124.976562 192.804688 124.976562 193.300781 124.976562 194.039062 C 124.976562 195.523438 124.480469 196.511719 123.246094 197.253906 C 122.011719 197.746094 120.527344 198.242188 118.550781 198.242188 C 115.835938 198.242188 112.621094 197.5 109.164062 195.769531 C 108.667969 197.5 108.175781 198.980469 107.679688 200.464844 C 107.1875 201.945312 106.941406 203.429688 106.941406 204.910156 C 109.164062 205.652344 111.140625 206.394531 113.117188 206.640625 C 115.09375 207.136719 117.070312 207.136719 119.539062 207.136719 C 122.257812 207.136719 124.480469 206.886719 126.707031 206.148438 C 128.683594 205.40625 130.410156 204.664062 131.894531 203.429688 C 133.375 202.195312 134.363281 200.710938 135.105469 199.230469 C 135.847656 197.746094 136.339844 195.523438 136.339844 193.300781 C 136.339844 191.324219 136.09375 189.839844 135.601562 188.359375 C 135.105469 187.121094 134.363281 185.886719 133.625 184.898438 Z M 133.625 184.898438 " fill-opacity="1" fill-rule="nonzero"/><path fill="currentcolor" d="M 169.449219 168.34375 C 169.449219 167.605469 169.449219 166.863281 169.449219 166.121094 C 169.449219 165.378906 169.203125 164.640625 169.203125 163.652344 L 138.8125 163.652344 C 138.566406 165.378906 138.316406 166.863281 138.316406 168.097656 C 138.316406 169.582031 138.566406 171.0625 138.8125 172.792969 L 148.695312 172.792969 L 148.695312 205.898438 C 150.671875 206.148438 152.402344 206.394531 153.882812 206.394531 C 155.367188 206.394531 157.09375 206.148438 159.070312 205.898438 L 159.070312 173.039062 L 168.953125 173.039062 C 169.449219 171.308594 169.449219 169.582031 169.449219 168.34375 Z M 169.449219 168.34375 " fill-opacity="1" fill-rule="nonzero"/><path fill="currentcolor" d="M 186.496094 163.652344 C 185.507812 163.652344 184.765625 163.652344 184.027344 163.652344 C 183.039062 163.652344 182.296875 163.652344 181.308594 163.652344 C 180.320312 163.652344 179.578125 163.898438 178.34375 163.898438 L 165 206.148438 C 166.238281 206.394531 167.226562 206.394531 168.214844 206.640625 C 169.203125 206.640625 169.941406 206.886719 170.683594 206.886719 C 171.425781 206.886719 172.167969 206.886719 172.90625 206.886719 C 173.648438 206.886719 174.390625 206.640625 175.378906 206.640625 L 177.601562 198.488281 C 178.589844 198.734375 179.578125 198.980469 180.566406 199.230469 C 181.554688 199.476562 182.542969 199.476562 183.285156 199.476562 C 184.273438 199.476562 185.261719 199.476562 186.25 199.230469 C 187.238281 198.980469 188.226562 198.734375 189.460938 198.488281 L 191.683594 206.640625 C 192.671875 206.886719 193.414062 206.886719 194.15625 206.886719 C 194.898438 206.886719 195.636719 206.886719 196.625 206.886719 C 198.355469 206.886719 200.332031 206.640625 202.554688 206.394531 L 189.460938 164.144531 C 188.472656 163.898438 187.484375 163.652344 186.496094 163.652344 Z M 185.507812 190.582031 C 184.765625 190.582031 184.273438 190.828125 183.53125 190.828125 C 182.789062 190.828125 182.296875 190.828125 181.800781 190.582031 C 181.308594 190.335938 180.566406 190.335938 179.824219 190.085938 L 183.777344 175.015625 L 187.484375 190.335938 C 186.992188 190.335938 186.25 190.582031 185.507812 190.582031 Z M 185.507812 190.582031 " fill-opacity="1" fill-rule="nonzero"/><path fill="currentcolor" d="M 231.464844 186.132812 C 232.203125 185.394531 232.699219 184.652344 233.191406 183.664062 C 233.6875 182.675781 234.179688 181.6875 234.429688 180.453125 C 234.675781 179.214844 234.921875 177.980469 234.921875 176.5 C 234.921875 173.78125 234.429688 171.558594 233.441406 169.828125 C 232.453125 168.097656 230.96875 166.617188 229.238281 165.628906 C 227.511719 164.640625 225.535156 163.898438 223.558594 163.402344 C 221.332031 162.910156 219.109375 162.664062 217.132812 162.664062 C 215.402344 162.664062 213.675781 162.664062 211.945312 162.910156 C 210.214844 163.15625 208.484375 163.15625 206.507812 163.402344 L 206.507812 205.652344 C 208.484375 205.898438 210.214844 206.148438 211.699219 206.148438 C 212.933594 206.148438 214.664062 205.898438 216.886719 205.652344 L 216.886719 172.296875 C 216.886719 172.296875 217.132812 172.296875 217.378906 172.296875 C 217.628906 172.296875 217.875 172.296875 218.367188 172.296875 C 220.097656 172.296875 221.332031 172.792969 222.570312 173.78125 C 223.804688 174.769531 224.296875 176.003906 224.296875 177.980469 C 224.296875 178.96875 224.050781 179.957031 223.804688 180.945312 C 223.558594 181.933594 223.0625 182.675781 222.570312 183.417969 C 222.074219 184.15625 221.582031 184.898438 221.085938 185.394531 C 220.59375 185.886719 220.097656 186.382812 219.605469 186.628906 L 219.109375 186.875 L 227.511719 206.148438 C 228.25 206.394531 229.238281 206.394531 230.226562 206.394531 C 231.214844 206.394531 232.203125 206.394531 232.945312 206.394531 C 233.933594 206.394531 234.921875 206.394531 235.910156 206.394531 C 237.144531 206.394531 238.132812 206.148438 239.121094 206.148438 L 229.980469 187.863281 C 230.226562 187.371094 230.96875 186.875 231.464844 186.132812 Z M 231.464844 186.132812 " fill-opacity="1" fill-rule="nonzero"/><path fill="currentcolor" d="M 270.007812 166.367188 C 270.007812 165.628906 269.757812 164.886719 269.757812 163.898438 L 239.371094 163.898438 C 239.121094 165.628906 238.875 167.109375 238.875 168.34375 C 238.875 169.828125 239.121094 171.308594 239.371094 173.039062 L 249.253906 173.039062 L 249.253906 206.148438 C 251.230469 206.394531 252.957031 206.640625 254.441406 206.640625 C 255.921875 206.640625 257.652344 206.394531 259.628906 206.148438 L 259.628906 173.039062 L 269.511719 173.039062 C 269.757812 171.308594 270.007812 169.582031 270.007812 168.34375 C 270.007812 167.605469 270.007812 167.109375 270.007812 166.367188 Z M 270.007812 166.367188 " fill-opacity="1" fill-rule="nonzero"/><g fill="currentcolor" fill-opacity="1"><g transform="translate(135.314607, 245.689731)"><g><path d="M 2.960938 -1.136719 L 3.449219 -0.363281 L 4.21875 0.0820312 L 5.03125 0.0390625 L 6.65625 0.121094 L 7.507812 0.0390625 L 9.210938 0.0820312 L 10.0625 -0.40625 L 10.386719 -1.175781 L 10.46875 -1.949219 L 10.386719 -2.839844 L 10.386719 -10.023438 L 10.753906 -10.875 L 11.605469 -11.402344 L 16.390625 -11.441406 L 17.246094 -11.320312 L 17.976562 -11.320312 L 18.746094 -10.875 L 19.152344 -10.101562 L 19.191406 -1.136719 L 19.636719 -0.488281 L 20.816406 0.0390625 L 22.925781 0.0390625 L 23.738281 -0.0390625 L 25.398438 0.0820312 L 26.171875 -0.445312 L 26.65625 -1.136719 L 26.578125 -4.828125 L 26.699219 -6.125 L 26.578125 -6.777344 L 26.617188 -27.144531 L 26.253906 -27.996094 L 25.441406 -28.320312 L 20.773438 -28.363281 L 19.597656 -28.078125 L 19.191406 -27.105469 L 19.152344 -25.5625 L 19.234375 -24.871094 L 19.152344 -23.207031 L 19.273438 -22.4375 L 19.234375 -19.273438 L 18.785156 -18.460938 L 17.976562 -18.015625 L 17.203125 -18.136719 L 15.621094 -17.976562 L 14.769531 -18.054688 L 14.039062 -17.976562 L 11.644531 -18.015625 L 10.875 -18.378906 L 10.46875 -19.152344 L 10.429688 -20.042969 L 10.429688 -20.894531 L 10.386719 -21.625 L 10.429688 -24.792969 L 10.507812 -25.683594 L 10.429688 -27.183594 L 10.0625 -27.957031 L 9.210938 -28.402344 L 8.316406 -28.320312 L 4.300781 -28.402344 L 3.410156 -27.996094 L 3.003906 -27.183594 L 2.921875 -26.292969 L 3.003906 -23.128906 L 2.921875 -22.316406 L 3.082031 -20.652344 L 3.003906 -19.109375 L 3.042969 -18.136719 L 2.960938 -17.324219 L 2.960938 -5.195312 L 3.082031 -4.464844 Z M 2.960938 -1.136719 "/></g></g></g><g fill="currentcolor" fill-opacity="1"><g transform="translate(165.012126, 245.689731)"><g><path d="M 14.121094 0.121094 L 19.921875 0.0390625 L 20.773438 -0.324219 L 21.222656 -1.175781 L 21.222656 -5.273438 L 20.773438 -6.085938 L 19.921875 -6.453125 L 18.988281 -6.371094 L 18.21875 -6.492188 L 16.148438 -6.53125 L 14.808594 -6.371094 L 14 -6.453125 L 13.105469 -6.410156 L 12.335938 -6.53125 L 11.441406 -6.453125 L 10.589844 -6.855469 L 10.265625 -7.585938 L 10.265625 -10.144531 L 10.628906 -10.996094 L 11.359375 -11.441406 L 12.578125 -11.484375 L 13.875 -11.359375 L 15.417969 -11.441406 L 17.082031 -11.402344 L 17.894531 -11.484375 L 18.828125 -11.441406 L 19.636719 -11.765625 L 19.921875 -12.578125 L 20.042969 -16.230469 L 19.636719 -17.367188 L 18.703125 -17.894531 L 16.3125 -17.894531 L 15.460938 -17.8125 L 13.753906 -17.933594 L 11.402344 -17.851562 L 10.550781 -18.21875 L 10.226562 -19.476562 L 10.226562 -20.734375 L 10.589844 -21.503906 L 11.484375 -21.828125 L 12.253906 -21.789062 L 13.023438 -21.949219 L 18.828125 -21.871094 L 19.597656 -21.910156 L 20.449219 -22.398438 L 20.855469 -23.128906 L 20.816406 -23.9375 L 20.855469 -24.75 L 20.773438 -27.183594 L 20.410156 -27.957031 L 19.597656 -28.28125 L 18.746094 -28.28125 L 18.015625 -28.441406 L 14.730469 -28.402344 L 13.835938 -28.320312 L 13.023438 -28.402344 L 12.335938 -28.363281 L 11.523438 -28.441406 L 8.195312 -28.363281 L 7.382812 -28.484375 L 6.613281 -28.320312 L 5.882812 -28.402344 L 5.070312 -28.320312 L 4.261719 -28.363281 L 3.410156 -28.039062 L 2.960938 -27.183594 L 3.042969 -25.644531 L 2.921875 -23.980469 L 3.042969 -23.085938 L 2.960938 -19.109375 L 3.082031 -18.257812 L 3.003906 -17.488281 L 2.960938 -14.160156 L 3.082031 -13.429688 L 3.042969 -6.855469 L 2.960938 -6.085938 L 3.082031 -5.273438 L 2.960938 -2.476562 L 3.042969 -1.582031 L 3.367188 -0.488281 L 4.585938 0.0390625 L 7.507812 0.0820312 L 8.398438 0 L 9.128906 0.0390625 L 10.792969 -0.0820312 L 11.5625 0.0820312 L 12.496094 0.121094 L 13.308594 0.0390625 Z M 14.121094 0.121094 "/></g></g></g><g fill="currentcolor" fill-opacity="1"><g transform="translate(188.258954, 245.689731)"><g><path d="M 3.042969 -1.664062 L 3.449219 -0.40625 L 4.625 0.121094 L 5.4375 0 L 6.734375 0.121094 L 7.382812 0.0390625 L 8.601562 0.0390625 L 9.898438 -0.363281 L 10.265625 -1.542969 L 10.265625 -2.921875 L 10.347656 -3.652344 L 10.226562 -4.503906 L 10.304688 -7.101562 L 10.671875 -7.914062 L 11.441406 -8.359375 L 13.796875 -8.035156 L 14.605469 -7.34375 L 15.09375 -6.53125 L 15.417969 -5.800781 L 16.269531 -4.585938 L 17.042969 -3.125 L 17.488281 -2.515625 L 17.8125 -1.703125 L 18.257812 -1.015625 L 19.152344 -0.285156 L 20.53125 0.0820312 L 23.738281 0.0390625 L 24.507812 0.121094 L 25.847656 0.0820312 L 26.617188 -0.285156 L 26.859375 -1.175781 L 26.414062 -2.070312 L 25.925781 -2.636719 L 25.601562 -3.410156 L 24.222656 -5.476562 L 23.859375 -6.207031 L 22.558594 -8.316406 L 22.074219 -8.925781 L 22.03125 -9.898438 L 22.398438 -10.792969 L 22.964844 -11.402344 L 23.535156 -11.886719 L 25.117188 -14.730469 L 25.644531 -17.082031 L 25.5625 -19.636719 L 25.441406 -20.449219 L 24.710938 -22.761719 L 24.386719 -23.453125 L 23.9375 -24.101562 L 21.625 -26.535156 L 20.207031 -27.308594 L 18.664062 -27.835938 L 16.351562 -28.363281 L 15.054688 -28.402344 L 13.875 -28.320312 L 11.441406 -28.320312 L 10.628906 -28.484375 L 9.820312 -28.484375 L 9.089844 -28.28125 L 8.277344 -28.28125 L 7.464844 -28.441406 L 6.574219 -28.484375 L 4.179688 -28.28125 L 3.449219 -27.875 L 2.960938 -26.738281 L 3.003906 -17.445312 L 3.082031 -16.636719 L 2.960938 -15.011719 L 3.003906 -14.121094 L 3.003906 -13.308594 L 3.082031 -12.539062 L 3.003906 -11.765625 L 2.960938 -8.480469 L 3.042969 -7.667969 Z M 11.441406 -14.851562 L 10.628906 -15.296875 L 10.304688 -15.945312 L 10.304688 -18.378906 L 10.226562 -19.070312 L 10.304688 -20.773438 L 10.671875 -21.546875 L 11.523438 -21.871094 L 12.335938 -21.828125 L 13.957031 -21.992188 L 15.09375 -21.75 L 16.148438 -21.667969 L 16.917969 -21.464844 L 17.933594 -20.207031 L 18.175781 -19.558594 L 18.339844 -18.503906 L 18.21875 -17.285156 L 17.851562 -16.472656 L 17.40625 -15.863281 L 16.960938 -15.5 L 16.230469 -15.175781 L 15.054688 -14.890625 L 14.28125 -14.851562 L 12.335938 -14.929688 Z M 11.441406 -14.851562 "/></g></g></g><g fill="currentcolor" fill-opacity="1"><g transform="translate(216.414794, 245.689731)"><g><path d="M 14.121094 0.121094 L 19.921875 0.0390625 L 20.773438 -0.324219 L 21.222656 -1.175781 L 21.222656 -5.273438 L 20.773438 -6.085938 L 19.921875 -6.453125 L 18.988281 -6.371094 L 18.21875 -6.492188 L 16.148438 -6.53125 L 14.808594 -6.371094 L 14 -6.453125 L 13.105469 -6.410156 L 12.335938 -6.53125 L 11.441406 -6.453125 L 10.589844 -6.855469 L 10.265625 -7.585938 L 10.265625 -10.144531 L 10.628906 -10.996094 L 11.359375 -11.441406 L 12.578125 -11.484375 L 13.875 -11.359375 L 15.417969 -11.441406 L 17.082031 -11.402344 L 17.894531 -11.484375 L 18.828125 -11.441406 L 19.636719 -11.765625 L 19.921875 -12.578125 L 20.042969 -16.230469 L 19.636719 -17.367188 L 18.703125 -17.894531 L 16.3125 -17.894531 L 15.460938 -17.8125 L 13.753906 -17.933594 L 11.402344 -17.851562 L 10.550781 -18.21875 L 10.226562 -19.476562 L 10.226562 -20.734375 L 10.589844 -21.503906 L 11.484375 -21.828125 L 12.253906 -21.789062 L 13.023438 -21.949219 L 18.828125 -21.871094 L 19.597656 -21.910156 L 20.449219 -22.398438 L 20.855469 -23.128906 L 20.816406 -23.9375 L 20.855469 -24.75 L 20.773438 -27.183594 L 20.410156 -27.957031 L 19.597656 -28.28125 L 18.746094 -28.28125 L 18.015625 -28.441406 L 14.730469 -28.402344 L 13.835938 -28.320312 L 13.023438 -28.402344 L 12.335938 -28.363281 L 11.523438 -28.441406 L 8.195312 -28.363281 L 7.382812 -28.484375 L 6.613281 -28.320312 L 5.882812 -28.402344 L 5.070312 -28.320312 L 4.261719 -28.363281 L 3.410156 -28.039062 L 2.960938 -27.183594 L 3.042969 -25.644531 L 2.921875 -23.980469 L 3.042969 -23.085938 L 2.960938 -19.109375 L 3.082031 -18.257812 L 3.003906 -17.488281 L 2.960938 -14.160156 L 3.082031 -13.429688 L 3.042969 -6.855469 L 2.960938 -6.085938 L 3.082031 -5.273438 L 2.960938 -2.476562 L 3.042969 -1.582031 L 3.367188 -0.488281 L 4.585938 0.0390625 L 7.507812 0.0820312 L 8.398438 0 L 9.128906 0.0390625 L 10.792969 -0.0820312 L 11.5625 0.0820312 L 12.496094 0.121094 L 13.308594 0.0390625 Z M 14.121094 0.121094 "/></g></g></g></svg>