<svg xmlns="http://www.w3.org/2000/svg" xmlns:xlink="http://www.w3.org/1999/xlink" width="500" zoomAndPan="magnify" viewBox="0 0 375 374.999991" height="500" preserveAspectRatio="xMidYMid meet" version="1.0"><defs><clipPath id="8ec91e1ff0"><path d="M 126 286 L 145 286 L 145 298.390625 L 126 298.390625 Z M 126 286 " clip-rule="nonzero"/></clipPath><clipPath id="267d31137e"><path d="M 26 286 L 46 286 L 46 298.390625 L 26 298.390625 Z M 26 286 " clip-rule="nonzero"/></clipPath><clipPath id="cb07a42b6e"><path d="M 315 284 L 339 284 L 339 298.390625 L 315 298.390625 Z M 315 284 " clip-rule="nonzero"/></clipPath><clipPath id="875bedb433"><path d="M 170 280 L 195 280 L 195 298.390625 L 170 298.390625 Z M 170 280 " clip-rule="nonzero"/></clipPath><clipPath id="866650b980"><path d="M 327 127 L 352.722656 127 L 352.722656 145 L 327 145 Z M 327 127 " clip-rule="nonzero"/></clipPath></defs><g clip-path="url(#8ec91e1ff0)"><path fill="#ffffff" d="M 133.996094 298.597656 C 135.417969 298.597656 136.863281 298.296875 138.238281 297.65625 C 142.664062 295.59375 144.882812 290.726562 143.773438 286.160156 C 139.578125 288.929688 131.773438 292.792969 126.238281 294.925781 C 128.164062 297.261719 131.023438 298.597656 133.996094 298.597656 Z M 133.996094 298.597656 " fill-opacity="1" fill-rule="nonzero"/></g><g clip-path="url(#267d31137e)"><path fill="#ffffff" d="M 33.707031 298.058594 C 34.710938 298.375 35.722656 298.527344 36.722656 298.523438 C 40.480469 298.523438 44.003906 296.398438 45.71875 292.96875 C 40.359375 291.707031 32.199219 289.136719 26.820312 286.671875 C 25.925781 291.59375 28.808594 296.523438 33.707031 298.058594 Z M 33.707031 298.058594 " fill-opacity="1" fill-rule="nonzero"/></g><path fill="#ffffff" d="M 139.671875 178.984375 L 146.222656 177.863281 C 149.371094 177.324219 151.488281 174.332031 150.949219 171.179688 C 150.410156 168.027344 147.421875 165.910156 144.265625 166.449219 L 140.632812 167.074219 C 140.914062 169.359375 139.871094 174.882812 139.671875 178.984375 Z M 139.671875 178.984375 " fill-opacity="1" fill-rule="nonzero"/><g clip-path="url(#cb07a42b6e)"><path fill="#ffffff" d="M 326.007812 298.179688 C 327.785156 298.179688 329.59375 297.800781 331.3125 297 C 336.097656 294.769531 338.816406 289.917969 338.5625 284.953125 C 331.371094 287.945312 322.128906 291.488281 315.894531 293.085938 C 318.292969 296.328125 322.078125 298.179688 326.007812 298.179688 Z M 326.007812 298.179688 " fill-opacity="1" fill-rule="nonzero"/></g><g clip-path="url(#875bedb433)"><path fill="#ffffff" d="M 171.390625 281.707031 C 169.308594 288.339844 172.996094 295.402344 179.628906 297.484375 C 180.882812 297.878906 182.152344 298.066406 183.402344 298.066406 C 188.300781 298.066406 192.871094 295.171875 194.902344 290.558594 C 184.667969 287.203125 176.882812 283.199219 171.863281 280.203125 Z M 171.390625 281.707031 " fill-opacity="1" fill-rule="nonzero"/></g><g clip-path="url(#866650b980)"><path fill="#ffffff" d="M 327.714844 144.84375 L 345.179688 143.167969 C 349.605469 142.742188 352.851562 138.804688 352.425781 134.378906 C 352 129.949219 348.0625 126.699219 343.636719 127.128906 L 327.214844 128.710938 C 327.160156 131.257812 327.074219 138.554688 327.714844 144.84375 Z M 327.714844 144.84375 " fill-opacity="1" fill-rule="nonzero"/></g><path fill="#ffffff" d="M 271.757812 188.519531 L 269.726562 166.09375 C 269.925781 165.414062 270.203125 164.769531 270.570312 164.171875 C 274.300781 158.0625 286.292969 156.21875 298.34375 155.753906 C 309.855469 155.308594 321.417969 156.121094 325.882812 155.675781 C 327.472656 155.519531 328.160156 155.199219 327.621094 154.605469 C 323.917969 150.535156 324.527344 129.230469 324.566406 127.960938 C 324.566406 127.921875 324.566406 127.898438 324.566406 127.898438 C 324.566406 127.898438 323.609375 127.992188 321.929688 128.15625 C 312.222656 129.105469 278.078125 132.507812 260.882812 135.132812 C 260.824219 135.125 260.769531 135.113281 260.710938 135.105469 C 260.722656 135.101562 260.734375 135.097656 260.75 135.097656 L 260.695312 135.101562 C 260.179688 135.042969 259.648438 135.035156 259.109375 135.085938 L 220.371094 138.589844 C 219.355469 138.679688 218.40625 138.96875 217.550781 139.402344 L 217.476562 139.070312 C 208.691406 141.117188 191.839844 150.886719 190.714844 173.210938 C 190.710938 173.269531 190.703125 173.332031 190.703125 173.394531 C 190.703125 173.402344 190.699219 173.40625 190.699219 173.414062 C 190.695312 173.484375 190.703125 173.550781 190.699219 173.621094 C 190.695312 173.878906 190.691406 174.136719 190.703125 174.398438 C 190.714844 174.625 190.742188 174.847656 190.769531 175.070312 C 190.78125 175.171875 190.785156 175.269531 190.800781 175.367188 C 190.800781 175.375 190.800781 175.382812 190.804688 175.390625 C 190.832031 175.570312 190.871094 175.746094 190.910156 175.921875 C 190.9375 176.0625 190.960938 176.199219 190.996094 176.335938 C 191.035156 176.496094 191.085938 176.648438 191.132812 176.804688 C 191.179688 176.957031 191.222656 177.113281 191.277344 177.261719 C 191.324219 177.394531 191.378906 177.519531 191.433594 177.648438 C 191.5 177.820312 191.570312 177.988281 191.644531 178.152344 C 191.699219 178.261719 191.757812 178.371094 191.8125 178.480469 C 191.902344 178.652344 191.992188 178.828125 192.09375 178.996094 C 192.152344 179.09375 192.210938 179.1875 192.273438 179.285156 C 192.382812 179.453125 192.492188 179.621094 192.609375 179.78125 C 192.675781 179.875 192.746094 179.964844 192.8125 180.054688 C 192.933594 180.210938 193.0625 180.359375 193.191406 180.507812 C 193.269531 180.597656 193.347656 180.683594 193.429688 180.773438 C 193.558594 180.910156 193.691406 181.039062 193.828125 181.167969 C 193.917969 181.257812 194.011719 181.34375 194.105469 181.429688 C 194.238281 181.546875 194.375 181.65625 194.515625 181.765625 C 194.621094 181.851562 194.726562 181.9375 194.835938 182.015625 C 194.972656 182.117188 195.113281 182.207031 195.253906 182.300781 C 195.375 182.378906 195.492188 182.460938 195.613281 182.53125 C 195.78125 182.632812 195.957031 182.722656 196.128906 182.8125 C 196.308594 182.902344 196.484375 182.988281 196.667969 183.070312 C 196.867188 183.160156 197.066406 183.246094 197.269531 183.324219 C 197.378906 183.363281 197.488281 183.394531 197.601562 183.429688 C 197.792969 183.496094 197.988281 183.558594 198.1875 183.613281 C 198.292969 183.640625 198.402344 183.660156 198.511719 183.6875 C 198.71875 183.734375 198.929688 183.777344 199.144531 183.8125 C 199.25 183.828125 199.359375 183.84375 199.464844 183.855469 C 199.683594 183.882812 199.898438 183.90625 200.121094 183.917969 C 200.179688 183.921875 200.238281 183.933594 200.296875 183.9375 C 200.421875 183.941406 200.546875 183.945312 200.671875 183.945312 C 200.695312 183.945312 200.71875 183.949219 200.742188 183.949219 C 201.039062 183.949219 201.335938 183.929688 201.632812 183.902344 C 201.746094 183.894531 201.859375 183.878906 201.96875 183.863281 C 202.0625 183.855469 202.152344 183.847656 202.246094 183.832031 L 211.214844 182.492188 L 232.15625 179.355469 C 237.65625 178.53125 234.652344 158.617188 229.171875 159.441406 L 209.332031 162.414062 L 209.113281 160.105469 L 228.832031 157.152344 C 229.054688 157.117188 229.28125 157.101562 229.503906 157.101562 C 230.800781 157.101562 231.9375 157.65625 232.921875 158.574219 L 238.710938 157.707031 C 239.222656 157.632812 239.742188 157.59375 240.253906 157.59375 C 245.339844 157.59375 249.746094 161.390625 250.503906 166.425781 C 250.914062 169.167969 250.230469 171.902344 248.585938 174.128906 C 246.9375 176.355469 244.523438 177.808594 241.78125 178.21875 L 236.011719 179.082031 C 235.179688 180.53125 233.996094 181.421875 232.496094 181.644531 L 216.664062 184.015625 L 217.878906 197.480469 C 242.429688 199.972656 267.285156 190.355469 271.757812 188.519531 Z M 271.757812 188.519531 " fill-opacity="1" fill-rule="nonzero"/><path fill="#ffffff" d="M 256.351562 95.453125 C 256.753906 96.078125 257.121094 96.71875 257.460938 97.378906 C 257.800781 98.039062 258.105469 98.714844 258.378906 99.40625 C 258.648438 100.097656 258.886719 100.796875 259.089844 101.511719 C 259.292969 102.226562 259.460938 102.949219 259.59375 103.679688 C 259.726562 104.40625 259.820312 105.144531 259.878906 105.882812 C 259.941406 106.621094 259.964844 107.363281 259.953125 108.105469 C 259.9375 108.847656 259.890625 109.585938 259.804688 110.324219 C 259.71875 111.058594 259.597656 111.789062 259.441406 112.515625 C 259.28125 113.242188 259.089844 113.957031 258.863281 114.664062 C 258.636719 115.367188 258.375 116.0625 258.078125 116.742188 C 257.78125 117.421875 257.453125 118.085938 257.09375 118.734375 C 256.730469 119.382812 256.339844 120.011719 255.917969 120.621094 C 255.492188 121.230469 255.042969 121.820312 254.5625 122.386719 C 254.082031 122.949219 253.574219 123.492188 253.039062 124.007812 C 252.507812 124.523438 251.949219 125.007812 251.367188 125.46875 C 250.785156 125.929688 250.183594 126.363281 249.558594 126.765625 C 248.933594 127.164062 248.292969 127.535156 247.632812 127.875 C 246.972656 128.210938 246.296875 128.515625 245.605469 128.789062 C 244.917969 129.0625 244.214844 129.296875 243.5 129.5 C 242.789062 129.703125 242.066406 129.871094 241.335938 130.003906 C 240.605469 130.136719 239.871094 130.234375 239.132812 130.292969 C 238.390625 130.351562 237.652344 130.375 236.910156 130.363281 C 236.167969 130.351562 235.429688 130.300781 234.691406 130.214844 C 233.953125 130.128906 233.222656 130.007812 232.496094 129.851562 C 231.773438 129.695312 231.058594 129.503906 230.351562 129.273438 C 229.644531 129.046875 228.953125 128.785156 228.269531 128.488281 C 227.589844 128.195312 226.925781 127.867188 226.277344 127.503906 C 225.628906 127.144531 225 126.75 224.390625 126.328125 C 223.78125 125.90625 223.195312 125.453125 222.628906 124.972656 C 222.0625 124.492188 221.523438 123.984375 221.007812 123.453125 C 220.492188 122.917969 220.003906 122.363281 219.542969 121.78125 C 219.082031 121.199219 218.652344 120.59375 218.25 119.972656 C 217.847656 119.347656 217.480469 118.707031 217.140625 118.046875 C 216.800781 117.386719 216.496094 116.710938 216.222656 116.019531 C 215.953125 115.328125 215.714844 114.628906 215.511719 113.914062 C 215.308594 113.199219 215.140625 112.476562 215.007812 111.746094 C 214.875 111.019531 214.78125 110.28125 214.722656 109.542969 C 214.660156 108.804688 214.636719 108.0625 214.648438 107.320312 C 214.664062 106.578125 214.710938 105.839844 214.796875 105.101562 C 214.882812 104.367188 215.003906 103.636719 215.160156 102.910156 C 215.320312 102.183594 215.511719 101.46875 215.738281 100.761719 C 215.964844 100.058594 216.226562 99.363281 216.523438 98.683594 C 216.820312 98.003906 217.148438 97.339844 217.507812 96.691406 C 217.871094 96.042969 218.261719 95.414062 218.683594 94.804688 C 219.109375 94.195312 219.558594 93.605469 220.039062 93.039062 C 220.519531 92.476562 221.027344 91.933594 221.5625 91.417969 C 222.09375 90.902344 222.652344 90.417969 223.234375 89.957031 C 223.816406 89.496094 224.417969 89.0625 225.042969 88.664062 C 225.667969 88.261719 226.308594 87.890625 226.96875 87.550781 C 227.628906 87.214844 228.304688 86.910156 228.996094 86.636719 C 229.683594 86.363281 230.386719 86.128906 231.101562 85.925781 C 231.8125 85.722656 232.535156 85.554688 233.265625 85.421875 C 233.996094 85.289062 234.730469 85.191406 235.46875 85.132812 C 236.210938 85.074219 236.949219 85.050781 237.691406 85.0625 C 238.433594 85.074219 239.171875 85.125 239.910156 85.210938 C 240.648438 85.296875 241.378906 85.417969 242.105469 85.574219 C 242.828125 85.730469 243.542969 85.921875 244.25 86.152344 C 244.957031 86.378906 245.648438 86.640625 246.332031 86.9375 C 247.011719 87.230469 247.675781 87.558594 248.324219 87.921875 C 248.972656 88.28125 249.601562 88.675781 250.210938 89.097656 C 250.820312 89.519531 251.40625 89.972656 251.972656 90.453125 C 252.539062 90.933594 253.078125 91.441406 253.59375 91.972656 C 254.109375 92.507812 254.597656 93.066406 255.058594 93.644531 C 255.519531 94.226562 255.949219 94.832031 256.351562 95.453125 Z M 256.351562 95.453125 " fill-opacity="1" fill-rule="nonzero"/><path fill="#ffffff" d="M 241.441406 175.925781 C 245.839844 175.269531 248.875 171.167969 248.214844 166.765625 C 247.554688 162.367188 243.457031 159.335938 239.054688 159.992188 L 234.566406 160.664062 C 236.125 163.296875 237.050781 167.019531 237.316406 170.597656 C 237.488281 172.917969 237.359375 174.9375 236.960938 176.597656 Z M 241.441406 175.925781 " fill-opacity="1" fill-rule="nonzero"/><path fill="#ffffff" d="M 238.363281 203.242188 C 234.488281 203.679688 230.460938 203.941406 226.359375 203.941406 C 223.742188 203.941406 221.089844 203.824219 218.433594 203.589844 L 219.023438 210.117188 L 195.738281 219.496094 C 192.242188 220.902344 189.558594 223.804688 188.429688 227.402344 L 188.253906 227.964844 L 187.769531 229.03125 L 167.628906 273.394531 C 167.628906 273.394531 179.613281 283.050781 201.078125 289.347656 C 201.226562 289.394531 201.371094 289.4375 201.519531 289.480469 C 208.40625 282.394531 211.320312 261.351562 212.527344 247.003906 C 216.042969 244.242188 224.007812 238.082031 231.171875 233.203125 C 231.039062 240.015625 231.082031 245.789062 231.492188 247.996094 L 235.019531 247.34375 L 237.429688 246.898438 C 236.664062 242.765625 237.527344 219.433594 238.363281 203.242188 Z M 238.363281 203.242188 " fill-opacity="1" fill-rule="nonzero"/><path fill="#ffffff" d="M 251.929688 200.957031 C 248.816406 201.648438 245.492188 202.277344 242.011719 202.777344 C 241.605469 210.585938 241.191406 220.140625 240.953125 228.417969 L 241.769531 228.089844 C 243.746094 227.296875 245.402344 226.050781 246.6875 224.527344 C 247.109375 224.855469 247.5625 225.15625 248.035156 225.433594 C 248.316406 227.734375 249.328125 230.53125 252.457031 231.679688 C 252.566406 231.71875 252.699219 231.761719 252.828125 231.804688 C 253.46875 237.582031 253.433594 242.851562 252.15625 246.433594 L 257.84375 248.464844 C 257.976562 248.097656 258.089844 247.710938 258.199219 247.320312 C 261.945312 234.234375 254.648438 209.390625 251.929688 200.957031 Z M 251.929688 200.957031 " fill-opacity="1" fill-rule="nonzero"/><path fill="#ffffff" d="M 343.261719 279.371094 C 332.691406 250.011719 322.484375 235.25 314.628906 226.988281 C 312.828125 225.09375 311.152344 223.539062 309.621094 222.230469 C 308.273438 220.816406 306.609375 219.714844 304.734375 219.050781 L 273.519531 207.992188 L 272.324219 194.804688 C 269.070312 196.078125 262.984375 198.265625 255.238281 200.179688 C 257.0625 205.742188 261.828125 221.320312 262.683594 234.550781 C 271.628906 236.949219 283.710938 240.335938 290.511719 244.207031 C 296.152344 257.96875 307.464844 286.347656 306.507812 290.179688 C 306.25 291.222656 307.222656 291.566406 309.003906 291.433594 C 315.929688 290.910156 335.222656 283.011719 343.261719 279.371094 Z M 343.261719 279.371094 " fill-opacity="1" fill-rule="nonzero"/><path fill="#ffffff" d="M 88.421875 252.925781 L 107.117188 260.445312 C 107.210938 260.667969 107.304688 260.90625 107.402344 261.160156 C 110.683594 269.6875 116.621094 293.359375 119.679688 293.871094 C 123.082031 294.4375 145.117188 283.765625 145.976562 280.976562 C 145.984375 280.953125 146 280.921875 146.007812 280.898438 C 146.476562 278.269531 131.453125 252.691406 125.964844 247.941406 C 124.863281 246.449219 123.367188 245.273438 121.621094 244.570312 L 97.085938 234.707031 C 97.097656 234.460938 97.097656 234.222656 97.082031 234.003906 L 96.167969 222.640625 C 91.804688 224.808594 87.242188 226.425781 82.75 227.628906 C 84.480469 232.054688 87.582031 241.375 88.421875 252.925781 Z M 88.421875 252.925781 " fill-opacity="1" fill-rule="nonzero"/><path fill="#ffffff" d="M 95.644531 216.097656 L 93.949219 195.027344 C 102.464844 190.546875 128.882812 187.003906 136.421875 184.789062 C 137.957031 184.335938 138.714844 183.941406 138.375 183.605469 C 136.132812 181.363281 139.832031 167.519531 138.289062 166.132812 C 138.253906 166.105469 138.222656 166.070312 138.1875 166.054688 C 136.738281 165.371094 110.335938 171.566406 96.621094 174.617188 L 87.21875 176.226562 C 87.03125 176.226562 86.84375 176.230469 86.65625 176.246094 L 54.433594 178.835938 C 54.089844 178.863281 53.757812 178.921875 53.4375 179.003906 C 46.773438 179.972656 42.011719 185.011719 39.199219 194.023438 C 37.785156 198.542969 36.859375 204.0625 36.433594 210.578125 C 36.289062 212.800781 37.203125 214.960938 38.898438 216.40625 C 40.1875 217.5 41.808594 218.085938 43.464844 218.085938 C 43.992188 218.085938 44.523438 218.023438 45.046875 217.90625 L 68.511719 212.511719 C 72.304688 211.636719 69.148438 197.894531 65.351562 198.773438 L 51.671875 201.917969 C 52.167969 199.421875 52.734375 197.578125 53.289062 196.226562 L 55.648438 196.597656 C 55.394531 197.15625 55.113281 197.878906 54.820312 198.816406 L 64.832031 196.515625 C 65.117188 196.449219 65.410156 196.417969 65.699219 196.417969 C 66.5 196.417969 67.222656 196.660156 67.878906 197.074219 L 73.453125 195.726562 C 74.082031 195.574219 74.722656 195.496094 75.363281 195.496094 C 79.117188 195.496094 82.355469 198.046875 83.234375 201.699219 C 84.285156 206.039062 81.605469 210.429688 77.261719 211.480469 L 71.578125 212.855469 C 70.785156 214.15625 69.691406 214.613281 69.027344 214.765625 L 51.851562 218.714844 L 52.347656 224.902344 C 57.472656 225.097656 79.109375 225.289062 95.644531 216.097656 Z M 95.644531 216.097656 " fill-opacity="1" fill-rule="nonzero"/><path fill="#ffffff" d="M 76.71875 209.230469 C 79.824219 208.476562 81.734375 205.351562 80.984375 202.242188 C 80.234375 199.136719 77.109375 197.226562 73.996094 197.976562 L 69.777344 198.996094 C 71.277344 201.171875 72.152344 204.3125 72.429688 206.757812 C 72.585938 208.160156 72.566406 209.308594 72.429688 210.269531 Z M 76.71875 209.230469 " fill-opacity="1" fill-rule="nonzero"/><path fill="#ffffff" d="M 87.238281 147.863281 C 87.457031 148.472656 87.644531 149.089844 87.804688 149.714844 C 87.960938 150.339844 88.089844 150.972656 88.183594 151.609375 C 88.28125 152.25 88.34375 152.890625 88.378906 153.535156 C 88.410156 154.179688 88.410156 154.824219 88.382812 155.46875 C 88.351562 156.113281 88.289062 156.757812 88.195312 157.394531 C 88.101562 158.035156 87.976562 158.667969 87.820312 159.292969 C 87.664062 159.917969 87.480469 160.535156 87.261719 161.144531 C 87.046875 161.753906 86.800781 162.347656 86.527344 162.933594 C 86.25 163.515625 85.949219 164.085938 85.617188 164.640625 C 85.285156 165.195312 84.929688 165.730469 84.546875 166.25 C 84.164062 166.769531 83.753906 167.269531 83.320312 167.75 C 82.890625 168.226562 82.433594 168.683594 81.957031 169.117188 C 81.480469 169.554688 80.980469 169.964844 80.464844 170.347656 C 79.945312 170.734375 79.410156 171.09375 78.855469 171.425781 C 78.304688 171.757812 77.734375 172.0625 77.152344 172.339844 C 76.570312 172.617188 75.972656 172.867188 75.367188 173.085938 C 74.757812 173.304688 74.144531 173.492188 73.515625 173.648438 C 72.890625 173.808594 72.257812 173.933594 71.621094 174.03125 C 70.980469 174.125 70.339844 174.191406 69.695312 174.222656 C 69.050781 174.257812 68.40625 174.257812 67.761719 174.226562 C 67.117188 174.195312 66.472656 174.132812 65.835938 174.039062 C 65.195312 173.949219 64.566406 173.824219 63.9375 173.667969 C 63.3125 173.511719 62.695312 173.324219 62.085938 173.109375 C 61.476562 172.890625 60.882812 172.648438 60.296875 172.371094 C 59.714844 172.097656 59.144531 171.792969 58.589844 171.464844 C 58.035156 171.132812 57.5 170.773438 56.980469 170.390625 C 56.460938 170.007812 55.960938 169.601562 55.480469 169.167969 C 55.003906 168.734375 54.546875 168.28125 54.113281 167.800781 C 53.675781 167.324219 53.265625 166.828125 52.882812 166.308594 C 52.496094 165.789062 52.136719 165.253906 51.804688 164.703125 C 51.472656 164.148438 51.167969 163.582031 50.890625 163 C 50.613281 162.414062 50.363281 161.820312 50.144531 161.210938 C 49.925781 160.605469 49.738281 159.988281 49.582031 159.363281 C 49.421875 158.738281 49.296875 158.105469 49.199219 157.464844 C 49.105469 156.828125 49.039062 156.1875 49.007812 155.542969 C 48.972656 154.894531 48.972656 154.25 49.003906 153.605469 C 49.035156 152.960938 49.097656 152.320312 49.191406 151.679688 C 49.28125 151.042969 49.40625 150.410156 49.5625 149.785156 C 49.71875 149.15625 49.90625 148.539062 50.121094 147.929688 C 50.339844 147.324219 50.582031 146.726562 50.859375 146.144531 C 51.132812 145.558594 51.4375 144.988281 51.765625 144.433594 C 52.097656 143.882812 52.457031 143.34375 52.839844 142.824219 C 53.222656 142.304688 53.628906 141.808594 54.0625 141.328125 C 54.496094 140.847656 54.953125 140.390625 55.429688 139.957031 C 55.90625 139.523438 56.402344 139.113281 56.921875 138.726562 C 57.441406 138.34375 57.976562 137.984375 58.527344 137.648438 C 59.082031 137.316406 59.648438 137.011719 60.234375 136.734375 C 60.816406 136.457031 61.410156 136.210938 62.019531 135.992188 C 62.625 135.773438 63.242188 135.585938 63.867188 135.425781 C 64.496094 135.269531 65.125 135.140625 65.765625 135.046875 C 66.402344 134.949219 67.042969 134.886719 67.6875 134.851562 C 68.335938 134.820312 68.980469 134.820312 69.625 134.847656 C 70.269531 134.878906 70.910156 134.941406 71.550781 135.035156 C 72.1875 135.128906 72.820312 135.253906 73.445312 135.410156 C 74.074219 135.566406 74.691406 135.75 75.300781 135.96875 C 75.90625 136.183594 76.503906 136.429688 77.085938 136.703125 C 77.671875 136.980469 78.242188 137.28125 78.796875 137.613281 C 79.347656 137.945312 79.886719 138.300781 80.40625 138.683594 C 80.925781 139.066406 81.425781 139.476562 81.902344 139.910156 C 82.382812 140.339844 82.839844 140.796875 83.273438 141.273438 C 83.707031 141.75 84.117188 142.25 84.503906 142.765625 C 84.886719 143.285156 85.246094 143.820312 85.582031 144.375 C 85.914062 144.925781 86.21875 145.496094 86.496094 146.078125 C 86.773438 146.660156 87.019531 147.257812 87.238281 147.863281 Z M 87.238281 147.863281 " fill-opacity="1" fill-rule="nonzero"/><path fill="#ffffff" d="M 50.621094 291.199219 C 51.390625 291.269531 52.0625 290.617188 52.671875 289.472656 C 55.40625 284.320312 56.804688 268.796875 59.613281 260.050781 L 63.839844 258.347656 C 64.175781 261.445312 64.597656 264.316406 65.132812 266.679688 L 68.679688 265.878906 L 71.023438 265.351562 C 68.863281 255.78125 68.632812 236.308594 68.617188 230.277344 C 63.480469 230.867188 59.003906 231.019531 55.820312 231.019531 C 54.628906 231.019531 53.632812 230.996094 52.835938 230.972656 L 53.359375 237.515625 C 53.425781 238.332031 53.585938 239.460938 53.84375 240.667969 L 43.746094 244.734375 C 41.285156 245.726562 39.328125 247.644531 38.28125 250.050781 C 34.460938 256.210938 22.386719 275.957031 22.128906 279.917969 C 22.121094 280.046875 22.117188 280.167969 22.132812 280.261719 C 22.769531 283.820312 45.023438 290.691406 50.621094 291.199219 Z M 50.621094 291.199219 " fill-opacity="1" fill-rule="nonzero"/><path fill="#ffffff" d="M 79.96875 228.328125 C 77.355469 228.9375 74.792969 229.414062 72.335938 229.785156 C 72.339844 233.566406 72.429688 244.800781 73.261719 254.554688 L 74.460938 254.074219 C 76.40625 253.289062 77.972656 251.960938 79.058594 250.339844 C 79.429688 253.605469 79.621094 257.09375 79.523438 260.71875 L 85.5625 260.882812 C 85.5625 260.855469 85.5625 260.828125 85.5625 260.800781 C 85.941406 246.308594 82.136719 234.0625 79.96875 228.328125 Z M 79.96875 228.328125 " fill-opacity="1" fill-rule="nonzero"/></svg>