<svg xmlns="http://www.w3.org/2000/svg" xmlns:xlink="http://www.w3.org/1999/xlink" width="500" zoomAndPan="magnify" viewBox="0 0 375 374.999991" height="500" preserveAspectRatio="xMidYMid meet" version="1.0"><defs><clipPath id="79c918fb0c"><path d="M 43.53125 43.53125 L 331.53125 43.53125 L 331.53125 331.53125 L 43.53125 331.53125 Z M 43.53125 43.53125 " clip-rule="nonzero"/></clipPath></defs><g clip-path="url(#79c918fb0c)"><path fill="#ffffff" d="M 187.488281 43.53125 C 187.171875 43.53125 186.851562 43.539062 186.539062 43.539062 L 186.539062 43.53125 L 148.230469 43.53125 L 148.230469 76.414062 C 144.292969 77.808594 140.449219 79.402344 136.710938 81.183594 L 113.460938 57.921875 L 57.933594 113.449219 L 81.183594 136.703125 C 79.402344 140.441406 77.808594 144.28125 76.414062 148.21875 L 43.53125 148.21875 L 43.53125 226.734375 L 76.414062 226.734375 C 77.808594 230.671875 79.402344 234.523438 81.183594 238.25 L 57.933594 261.503906 L 113.460938 317.023438 L 136.710938 293.769531 C 140.441406 295.550781 144.292969 297.144531 148.230469 298.542969 L 148.230469 331.421875 L 186.539062 331.421875 L 186.539062 331.414062 C 186.851562 331.414062 187.171875 331.421875 187.488281 331.421875 C 266.996094 331.421875 331.441406 266.96875 331.441406 187.46875 C 331.441406 107.976562 266.988281 43.53125 187.488281 43.53125 Z M 305.058594 247.464844 L 258.574219 247.464844 C 264.359375 230.445312 267.765625 212.3125 268.363281 193.480469 L 319.308594 193.480469 C 318.605469 209.183594 315.179688 224.410156 309.082031 238.847656 C 307.839844 241.769531 306.5 244.644531 305.058594 247.464844 Z M 196.234375 319.15625 C 195.3125 319.214844 194.394531 319.269531 193.480469 319.308594 L 193.480469 259.464844 L 240.9375 259.464844 C 232.292969 278.496094 220.378906 295.65625 205.492188 310.542969 C 202.496094 313.539062 199.410156 316.40625 196.234375 319.15625 Z M 196.234375 55.808594 C 199.402344 58.550781 202.496094 61.421875 205.484375 64.421875 C 220.367188 79.304688 232.285156 96.476562 240.925781 115.507812 L 193.472656 115.507812 L 193.472656 55.65625 C 194.402344 55.703125 195.3125 55.75 196.234375 55.808594 Z M 245.859375 127.5 C 252.214844 144.796875 255.734375 162.894531 256.363281 181.480469 L 193.480469 181.480469 L 193.480469 127.5 Z M 181.492188 235.09375 C 170.941406 233.78125 161.1875 229.039062 153.5625 221.410156 C 144.5 212.34375 139.5 200.292969 139.5 187.488281 C 139.5 174.667969 144.5 162.621094 153.5625 153.550781 C 161.1875 145.914062 170.941406 141.171875 181.492188 139.863281 Z M 193.480469 247.464844 L 193.480469 193.480469 L 256.363281 193.480469 C 255.734375 212.066406 252.214844 230.167969 245.859375 247.464844 Z M 319.308594 181.480469 L 268.363281 181.480469 C 267.765625 162.648438 264.367188 144.519531 258.574219 127.5 L 305.058594 127.5 C 306.5 130.316406 307.839844 133.191406 309.070312 136.125 C 315.179688 150.554688 318.605469 165.789062 319.308594 181.480469 Z M 280.789062 94.171875 C 287.335938 100.726562 293.113281 107.863281 298.105469 115.507812 L 254.019531 115.507812 C 245.109375 94.316406 232.398438 75.113281 216.734375 58.765625 C 224.277344 60.476562 231.65625 62.855469 238.847656 65.890625 C 254.558594 72.53125 268.667969 82.046875 280.789062 94.171875 Z M 152.222656 287.242188 C 148.675781 285.980469 145.203125 284.539062 141.882812 282.953125 L 134.21875 279.28125 L 128.222656 285.289062 L 113.449219 300.058594 L 74.894531 261.503906 L 89.667969 246.734375 L 95.671875 240.726562 L 92.007812 233.070312 C 90.414062 229.742188 88.972656 226.269531 87.730469 222.730469 L 84.902344 214.734375 L 55.53125 214.734375 L 55.53125 160.222656 L 84.894531 160.222656 L 87.722656 152.222656 C 88.972656 148.695312 90.40625 145.210938 92 141.890625 L 95.660156 134.226562 L 89.667969 128.222656 L 74.894531 113.449219 L 113.449219 74.894531 L 128.222656 89.667969 L 134.21875 95.671875 L 141.875 92.007812 C 145.203125 90.414062 148.675781 88.972656 152.203125 87.730469 L 160.222656 84.894531 L 160.222656 55.523438 L 181.492188 55.523438 L 181.492188 127.792969 C 151.179688 130.800781 127.511719 156.378906 127.511719 187.476562 C 127.511719 218.574219 151.179688 244.152344 181.492188 247.160156 L 181.492188 319.429688 L 160.222656 319.429688 L 160.222656 290.058594 Z M 280.789062 280.789062 C 268.667969 292.914062 254.558594 302.429688 238.839844 309.070312 C 231.648438 312.117188 224.265625 314.488281 216.726562 316.195312 C 232.398438 299.851562 245.109375 280.648438 254.007812 259.453125 L 298.105469 259.453125 C 293.125 267.101562 287.335938 274.246094 280.789062 280.789062 Z M 280.789062 280.789062 " fill-opacity="1" fill-rule="nonzero"/></g></svg>