<svg xmlns="http://www.w3.org/2000/svg" xmlns:xlink="http://www.w3.org/1999/xlink" width="500" zoomAndPan="magnify" viewBox="0 0 375 374.999991" height="500" preserveAspectRatio="xMidYMid meet" version="1.0"><defs><clipPath id="f1d4bba381"><path d="M 43 72.484375 L 332 72.484375 L 332 302 L 43 302 Z M 43 72.484375 " clip-rule="nonzero"/></clipPath></defs><g clip-path="url(#f1d4bba381)"><path fill="currentcolor" d="M 331.882812 296.914062 L 331.882812 77.074219 C 331.882812 74.324219 329.695312 72.09375 326.902344 72.09375 L 48.082031 72.09375 C 45.394531 72.09375 43.105469 74.324219 43.105469 77.074219 L 43.105469 296.914062 C 43.105469 299.664062 45.394531 301.894531 48.082031 301.894531 L 326.902344 301.894531 C 329.695312 301.894531 331.882812 299.664062 331.882812 296.914062 Z M 321.925781 127.101562 L 321.925781 291.9375 C 321.925781 291.9375 53.0625 291.9375 53.0625 291.9375 L 53.0625 127.101562 Z M 295.636719 233.304688 C 295.636719 230.554688 293.34375 228.324219 290.65625 228.324219 L 84.429688 228.324219 C 81.640625 228.324219 79.449219 230.554688 79.449219 233.304688 L 79.449219 270.046875 C 79.449219 272.804688 81.640625 275.027344 84.429688 275.027344 L 290.65625 275.027344 C 293.34375 275.027344 295.636719 272.804688 295.636719 270.046875 Z M 285.675781 238.28125 L 285.675781 265.070312 C 285.675781 265.070312 89.40625 265.070312 89.40625 265.070312 C 89.40625 265.070312 89.40625 238.28125 89.40625 238.28125 Z M 180.726562 149.269531 C 180.726562 146.519531 178.53125 144.289062 175.746094 144.289062 L 84.429688 144.289062 C 81.640625 144.289062 79.449219 146.519531 79.449219 149.269531 L 79.449219 208.488281 C 79.449219 211.238281 81.640625 213.46875 84.429688 213.46875 L 175.746094 213.46875 C 178.53125 213.46875 180.726562 211.238281 180.726562 208.488281 Z M 207.609375 204.855469 L 285.875 204.855469 C 288.667969 204.855469 290.855469 202.625 290.855469 199.875 C 290.855469 197.125 288.667969 194.894531 285.875 194.894531 L 207.609375 194.894531 C 204.917969 194.894531 202.628906 197.125 202.628906 199.875 C 202.628906 202.625 204.917969 204.855469 207.609375 204.855469 Z M 170.765625 154.246094 L 170.765625 203.507812 C 170.765625 203.507812 89.40625 203.507812 89.40625 203.507812 C 89.40625 203.507812 89.40625 154.246094 89.40625 154.246094 Z M 207.609375 183.851562 L 285.875 183.851562 C 288.667969 183.851562 290.855469 181.621094 290.855469 178.875 C 290.855469 176.125 288.667969 173.894531 285.875 173.894531 L 207.609375 173.894531 C 204.917969 173.894531 202.628906 176.125 202.628906 178.875 C 202.628906 181.621094 204.917969 183.851562 207.609375 183.851562 Z M 207.609375 162.851562 L 285.875 162.851562 C 288.667969 162.851562 290.855469 160.621094 290.855469 157.871094 C 290.855469 155.125 288.667969 152.894531 285.875 152.894531 L 207.609375 152.894531 C 204.917969 152.894531 202.628906 155.125 202.628906 157.871094 C 202.628906 160.621094 204.917969 162.851562 207.609375 162.851562 Z M 321.925781 117.144531 L 53.0625 117.144531 L 53.0625 82.054688 L 321.925781 82.054688 Z M 75.769531 94.679688 C 78.753906 94.679688 81.144531 97.058594 81.144531 99.988281 C 81.144531 102.914062 78.753906 105.292969 75.769531 105.292969 C 72.882812 105.292969 70.488281 102.914062 70.488281 99.988281 C 70.488281 97.058594 72.882812 94.679688 75.769531 94.679688 Z M 96.082031 94.679688 C 98.96875 94.679688 101.359375 97.058594 101.359375 99.988281 C 101.359375 102.914062 98.96875 105.292969 96.082031 105.292969 C 93.09375 105.292969 90.804688 102.914062 90.804688 99.988281 C 90.804688 97.058594 93.09375 94.679688 96.082031 94.679688 Z M 116.296875 94.679688 C 119.28125 94.679688 121.675781 97.058594 121.675781 99.988281 C 121.675781 102.914062 119.28125 105.292969 116.296875 105.292969 C 113.40625 105.292969 111.019531 102.914062 111.019531 99.988281 C 111.019531 97.058594 113.40625 94.679688 116.296875 94.679688 Z M 116.296875 94.679688 " fill-opacity="1" fill-rule="evenodd"/></g></svg>