<svg xmlns="http://www.w3.org/2000/svg" xmlns:xlink="http://www.w3.org/1999/xlink" width="500" zoomAndPan="magnify" viewBox="0 0 375 374.999991" height="500" preserveAspectRatio="xMidYMid meet" version="1.0"><defs><clipPath id="1a155cb262"><path d="M 44 104 L 314 104 L 314 331 L 44 331 Z M 44 104 " clip-rule="nonzero"/></clipPath><clipPath id="c3ace193a1"><path d="M 285 43.75 L 295 43.75 L 295 58 L 285 58 Z M 285 43.75 " clip-rule="nonzero"/></clipPath></defs><g clip-path="url(#1a155cb262)"><path fill="#ffffff" d="M 104.496094 326.609375 L 104.496094 308.0625 L 164.777344 308.0625 C 165.082031 308.0625 165.382812 308.03125 165.679688 307.972656 C 165.980469 307.914062 166.269531 307.824219 166.550781 307.707031 C 166.832031 307.589844 167.101562 307.449219 167.351562 307.28125 C 167.605469 307.109375 167.839844 306.917969 168.054688 306.703125 C 168.269531 306.488281 168.464844 306.253906 168.632812 306 C 168.800781 305.746094 168.945312 305.480469 169.0625 305.199219 C 169.175781 304.917969 169.265625 304.628906 169.324219 304.328125 C 169.382812 304.03125 169.414062 303.726562 169.414062 303.425781 L 169.414062 284.875 L 234.332031 284.875 C 234.636719 284.875 234.9375 284.847656 235.238281 284.785156 C 235.535156 284.726562 235.824219 284.640625 236.105469 284.523438 C 236.386719 284.40625 236.65625 284.265625 236.910156 284.09375 C 237.160156 283.925781 237.394531 283.734375 237.609375 283.519531 C 237.828125 283.300781 238.019531 283.066406 238.1875 282.816406 C 238.355469 282.5625 238.5 282.292969 238.617188 282.011719 C 238.734375 281.730469 238.820312 281.441406 238.878906 281.144531 C 238.941406 280.84375 238.96875 280.542969 238.96875 280.238281 L 238.96875 266.328125 L 289.976562 266.328125 C 290.28125 266.328125 290.582031 266.296875 290.882812 266.238281 C 291.179688 266.179688 291.46875 266.089844 291.75 265.976562 C 292.03125 265.859375 292.300781 265.714844 292.554688 265.546875 C 292.804688 265.378906 293.039062 265.183594 293.253906 264.96875 C 293.472656 264.753906 293.664062 264.519531 293.832031 264.265625 C 294 264.015625 294.144531 263.746094 294.261719 263.464844 C 294.378906 263.183594 294.464844 262.894531 294.523438 262.59375 C 294.582031 262.296875 294.613281 261.996094 294.613281 261.691406 L 294.613281 182.859375 L 308.523438 182.859375 C 309.378906 182.859375 310.175781 182.640625 310.90625 182.203125 C 311.640625 181.761719 312.210938 181.164062 312.613281 180.410156 C 313.015625 179.65625 313.199219 178.855469 313.15625 178 C 313.113281 177.144531 312.855469 176.363281 312.382812 175.652344 L 293.835938 147.828125 C 293.609375 147.527344 293.355469 147.257812 293.066406 147.019531 C 292.78125 146.777344 292.46875 146.574219 292.132812 146.40625 C 291.800781 146.238281 291.449219 146.109375 291.085938 146.023438 C 290.722656 145.9375 290.351562 145.894531 289.976562 145.894531 C 289.601562 145.894531 289.230469 145.9375 288.867188 146.023438 C 288.503906 146.109375 288.152344 146.238281 287.816406 146.40625 C 287.484375 146.574219 287.171875 146.777344 286.886719 147.019531 C 286.597656 147.257812 286.34375 147.527344 286.117188 147.828125 L 267.570312 175.652344 C 267.09375 176.363281 266.835938 177.144531 266.796875 178 C 266.753906 178.855469 266.9375 179.660156 267.339844 180.414062 C 267.742188 181.167969 268.3125 181.761719 269.046875 182.203125 C 269.777344 182.640625 270.574219 182.859375 271.429688 182.859375 L 285.339844 182.859375 L 285.339844 257.054688 L 234.332031 257.054688 C 234.027344 257.054688 233.726562 257.082031 233.425781 257.140625 C 233.128906 257.203125 232.839844 257.289062 232.558594 257.40625 C 232.277344 257.523438 232.007812 257.664062 231.753906 257.835938 C 231.503906 258.003906 231.269531 258.195312 231.054688 258.410156 C 230.835938 258.625 230.644531 258.859375 230.476562 259.113281 C 230.308594 259.367188 230.164062 259.632812 230.046875 259.914062 C 229.929688 260.195312 229.84375 260.488281 229.785156 260.785156 C 229.722656 261.085938 229.695312 261.386719 229.695312 261.691406 L 229.695312 275.601562 L 216.839844 275.601562 L 201.976562 226.789062 C 201.8125 225.457031 201.441406 224.183594 200.859375 222.972656 C 200.28125 221.761719 199.523438 220.675781 198.585938 219.714844 C 198.414062 219.539062 198.230469 219.382812 198.039062 219.234375 L 183.394531 208.351562 L 183.394531 175.636719 L 201.722656 184.144531 C 202.828125 184.652344 203.960938 184.71875 205.121094 184.34375 L 235.820312 174.285156 C 236.558594 174.164062 237.277344 173.972656 237.980469 173.714844 C 238.683594 173.457031 239.355469 173.136719 239.996094 172.753906 C 240.640625 172.371094 241.242188 171.933594 241.800781 171.4375 C 242.359375 170.941406 242.871094 170.398438 243.328125 169.808594 C 243.789062 169.21875 244.1875 168.59375 244.53125 167.925781 C 244.875 167.261719 245.152344 166.570312 245.363281 165.855469 C 245.578125 165.136719 245.722656 164.410156 245.800781 163.664062 C 245.875 162.921875 245.882812 162.175781 245.820312 161.429688 C 245.761719 160.6875 245.628906 159.953125 245.429688 159.234375 C 245.234375 158.511719 244.96875 157.816406 244.640625 157.144531 C 244.3125 156.472656 243.925781 155.835938 243.476562 155.238281 C 243.03125 154.636719 242.53125 154.085938 241.980469 153.578125 C 241.429688 153.074219 240.839844 152.621094 240.207031 152.226562 C 239.570312 151.828125 238.90625 151.496094 238.210938 151.222656 C 237.511719 150.953125 236.796875 150.746094 236.0625 150.609375 C 235.328125 150.472656 234.585938 150.402344 233.839844 150.402344 C 233.511719 150.402344 233.1875 150.4375 232.871094 150.503906 L 204.761719 156.511719 L 176.917969 142.402344 C 176.722656 142.304688 176.523438 142.222656 176.320312 142.152344 C 174.699219 141.703125 173.046875 141.4375 171.371094 141.347656 C 172.957031 139.332031 174.175781 137.117188 175.023438 134.695312 C 175.867188 132.273438 176.296875 129.78125 176.304688 127.214844 C 176.304688 126.457031 176.269531 125.699219 176.191406 124.945312 C 176.117188 124.1875 176.007812 123.4375 175.859375 122.695312 C 175.710938 121.949219 175.527344 121.214844 175.304688 120.488281 C 175.085938 119.761719 174.828125 119.046875 174.539062 118.347656 C 174.246094 117.644531 173.921875 116.960938 173.5625 116.292969 C 173.207031 115.621094 172.816406 114.972656 172.394531 114.339844 C 171.972656 113.710938 171.519531 113.101562 171.039062 112.515625 C 170.558594 111.929688 170.046875 111.367188 169.511719 110.828125 C 168.972656 110.292969 168.414062 109.785156 167.824219 109.300781 C 167.238281 108.820312 166.628906 108.371094 166 107.949219 C 165.367188 107.527344 164.714844 107.136719 164.046875 106.777344 C 163.378906 106.421875 162.691406 106.097656 161.992188 105.804688 C 161.289062 105.515625 160.574219 105.261719 159.847656 105.039062 C 159.121094 104.820312 158.386719 104.636719 157.640625 104.488281 C 156.898438 104.339844 156.148438 104.230469 155.390625 104.152344 C 154.636719 104.078125 153.878906 104.042969 153.121094 104.042969 C 152.363281 104.042969 151.605469 104.078125 150.847656 104.152344 C 150.09375 104.230469 149.34375 104.339844 148.597656 104.488281 C 147.855469 104.636719 147.117188 104.820312 146.390625 105.039062 C 145.664062 105.261719 144.953125 105.515625 144.25 105.804688 C 143.550781 106.097656 142.863281 106.421875 142.195312 106.777344 C 141.523438 107.136719 140.875 107.527344 140.242188 107.949219 C 139.613281 108.371094 139.003906 108.820312 138.414062 109.300781 C 137.828125 109.785156 137.265625 110.292969 136.730469 110.828125 C 136.191406 111.367188 135.683594 111.929688 135.203125 112.515625 C 134.71875 113.101562 134.269531 113.710938 133.847656 114.339844 C 133.425781 114.972656 133.035156 115.621094 132.675781 116.292969 C 132.320312 116.960938 131.996094 117.644531 131.703125 118.347656 C 131.414062 119.046875 131.15625 119.761719 130.9375 120.488281 C 130.714844 121.214844 130.53125 121.949219 130.382812 122.695312 C 130.234375 123.4375 130.121094 124.1875 130.046875 124.945312 C 129.972656 125.699219 129.9375 126.457031 129.933594 127.214844 C 129.945312 129.765625 130.367188 132.246094 131.203125 134.65625 C 132.039062 137.0625 133.242188 139.269531 134.816406 141.277344 C 132.839844 141.460938 130.917969 141.886719 129.050781 142.558594 C 127.179688 143.230469 125.429688 144.128906 123.792969 145.25 C 122.152344 146.371094 120.683594 147.683594 119.382812 149.179688 C 118.078125 150.679688 116.988281 152.320312 116.105469 154.097656 L 91.925781 201.101562 C 91.578125 201.820312 91.300781 202.566406 91.085938 203.335938 C 90.875 204.105469 90.730469 204.886719 90.65625 205.683594 C 90.585938 206.476562 90.582031 207.273438 90.652344 208.070312 C 90.722656 208.863281 90.863281 209.648438 91.070312 210.417969 C 91.28125 211.191406 91.558594 211.933594 91.898438 212.65625 C 92.242188 213.378906 92.648438 214.0625 93.113281 214.710938 C 93.578125 215.359375 94.097656 215.964844 94.671875 216.519531 C 95.246094 217.074219 95.863281 217.574219 96.523438 218.019531 C 98.039062 219.042969 99.695312 219.71875 101.492188 220.054688 C 103.285156 220.386719 105.074219 220.347656 106.855469 219.9375 C 108.683594 219.523438 110.351562 218.757812 111.859375 217.640625 C 113.367188 216.519531 114.585938 215.148438 115.511719 213.515625 L 130.714844 183.847656 L 132.019531 216.023438 C 132.066406 217.050781 132.226562 218.0625 132.5 219.058594 C 132.769531 220.050781 133.148438 221.003906 133.632812 221.914062 C 134.113281 222.824219 134.691406 223.671875 135.363281 224.453125 C 136.03125 225.234375 136.78125 225.9375 137.605469 226.550781 L 130.121094 260.34375 L 115.214844 298.785156 L 99.859375 298.785156 C 99.554688 298.785156 99.253906 298.816406 98.953125 298.875 C 98.65625 298.933594 98.363281 299.023438 98.082031 299.140625 C 97.800781 299.257812 97.535156 299.398438 97.28125 299.566406 C 97.027344 299.738281 96.792969 299.929688 96.578125 300.144531 C 96.363281 300.359375 96.171875 300.59375 96.003906 300.847656 C 95.832031 301.101562 95.691406 301.367188 95.574219 301.648438 C 95.457031 301.929688 95.371094 302.21875 95.308594 302.519531 C 95.25 302.816406 95.222656 303.121094 95.222656 303.425781 L 95.222656 321.972656 L 44.214844 321.972656 L 44.214844 331.246094 L 99.859375 331.246094 C 100.164062 331.246094 100.464844 331.214844 100.761719 331.15625 C 101.0625 331.097656 101.351562 331.011719 101.632812 330.894531 C 101.914062 330.777344 102.179688 330.632812 102.433594 330.464844 C 102.6875 330.296875 102.921875 330.105469 103.136719 329.886719 C 103.351562 329.671875 103.542969 329.4375 103.714844 329.183594 C 103.882812 328.933594 104.027344 328.664062 104.140625 328.382812 C 104.257812 328.101562 104.347656 327.8125 104.40625 327.515625 C 104.464844 327.214844 104.496094 326.914062 104.496094 326.609375 Z M 289.976562 158.761719 L 299.863281 173.585938 L 280.089844 173.585938 Z M 164.777344 275.601562 C 164.472656 275.601562 164.171875 275.632812 163.871094 275.691406 C 163.574219 275.75 163.28125 275.835938 163 275.953125 C 162.71875 276.070312 162.453125 276.214844 162.199219 276.382812 C 161.945312 276.550781 161.710938 276.742188 161.496094 276.960938 C 161.28125 277.175781 161.089844 277.410156 160.921875 277.664062 C 160.75 277.914062 160.609375 278.183594 160.492188 278.464844 C 160.375 278.746094 160.289062 279.035156 160.226562 279.332031 C 160.167969 279.632812 160.140625 279.933594 160.140625 280.238281 L 160.140625 298.785156 L 147.875 298.785156 L 157.617188 267.457031 L 164.832031 238.648438 L 172.566406 241.953125 L 183.785156 275.601562 Z M 153.121094 113.304688 C 154.035156 113.304688 154.9375 113.394531 155.835938 113.574219 C 156.730469 113.75 157.601562 114.015625 158.445312 114.363281 C 159.289062 114.714844 160.089844 115.140625 160.847656 115.648438 C 161.609375 116.15625 162.3125 116.734375 162.957031 117.378906 C 163.601562 118.027344 164.179688 118.726562 164.6875 119.488281 C 165.195312 120.246094 165.625 121.050781 165.972656 121.894531 C 166.324219 122.738281 166.585938 123.605469 166.765625 124.503906 C 166.941406 125.398438 167.03125 126.304688 167.03125 127.214844 C 167.03125 128.128906 166.941406 129.035156 166.765625 129.929688 C 166.585938 130.828125 166.324219 131.695312 165.972656 132.539062 C 165.625 133.382812 165.195312 134.1875 164.6875 134.945312 C 164.179688 135.703125 163.601562 136.40625 162.957031 137.054688 C 162.3125 137.699219 161.609375 138.277344 160.847656 138.785156 C 160.089844 139.289062 159.289062 139.71875 158.445312 140.070312 C 157.601562 140.417969 156.730469 140.683594 155.835938 140.859375 C 154.9375 141.039062 154.035156 141.128906 153.121094 141.128906 C 152.207031 141.128906 151.300781 141.039062 150.40625 140.859375 C 149.511719 140.683594 148.640625 140.417969 147.796875 140.070312 C 146.953125 139.71875 146.152344 139.289062 145.390625 138.785156 C 144.632812 138.277344 143.929688 137.699219 143.285156 137.054688 C 142.636719 136.40625 142.0625 135.703125 141.554688 134.945312 C 141.046875 134.1875 140.617188 133.382812 140.269531 132.539062 C 139.917969 131.695312 139.65625 130.828125 139.476562 129.929688 C 139.296875 129.035156 139.210938 128.128906 139.210938 127.214844 C 139.210938 126.304688 139.300781 125.398438 139.480469 124.503906 C 139.65625 123.609375 139.921875 122.738281 140.273438 121.894531 C 140.621094 121.050781 141.050781 120.25 141.558594 119.492188 C 142.066406 118.734375 142.644531 118.03125 143.289062 117.382812 C 143.933594 116.738281 144.636719 116.160156 145.394531 115.65625 C 146.15625 115.148438 146.957031 114.71875 147.800781 114.367188 C 148.644531 114.019531 149.511719 113.753906 150.40625 113.574219 C 151.304688 113.394531 152.207031 113.304688 153.121094 113.304688 Z M 135.632812 161.5 C 135.132812 161.386719 134.628906 161.359375 134.117188 161.417969 C 133.609375 161.472656 133.121094 161.613281 132.660156 161.828125 C 132.195312 162.046875 131.78125 162.335938 131.410156 162.691406 C 131.042969 163.050781 130.742188 163.457031 130.511719 163.910156 L 107.410156 209.015625 C 107.144531 209.460938 106.804688 209.839844 106.390625 210.15625 C 105.980469 210.46875 105.523438 210.695312 105.023438 210.835938 C 104.523438 210.976562 104.015625 211.019531 103.5 210.964844 C 102.984375 210.910156 102.496094 210.765625 102.035156 210.523438 C 101.578125 210.28125 101.179688 209.964844 100.839844 209.570312 C 100.503906 209.175781 100.25 208.734375 100.078125 208.246094 C 99.910156 207.753906 99.839844 207.25 99.863281 206.730469 C 99.886719 206.210938 100.007812 205.71875 100.21875 205.246094 L 124.402344 158.242188 C 124.976562 157.070312 125.699219 156 126.574219 155.03125 C 127.445312 154.058594 128.4375 153.230469 129.542969 152.535156 C 130.648438 151.84375 131.828125 151.316406 133.082031 150.953125 C 134.335938 150.589844 135.613281 150.40625 136.917969 150.402344 L 166.949219 150.402344 C 169.023438 150.425781 171.085938 150.589844 173.136719 150.882812 L 202.03125 165.527344 C 203.007812 166.019531 204.027344 166.152344 205.097656 165.925781 L 234.210938 159.699219 C 234.539062 159.746094 234.851562 159.847656 235.144531 160.007812 C 235.441406 160.167969 235.695312 160.371094 235.914062 160.625 C 236.132812 160.875 236.300781 161.160156 236.417969 161.472656 C 236.53125 161.785156 236.589844 162.109375 236.585938 162.441406 C 236.585938 162.777344 236.523438 163.097656 236.40625 163.410156 C 236.285156 163.722656 236.117188 164.003906 235.894531 164.253906 C 235.671875 164.503906 235.414062 164.707031 235.117188 164.863281 C 234.824219 165.015625 234.507812 165.117188 234.179688 165.15625 C 233.882812 165.195312 233.59375 165.257812 233.308594 165.351562 L 203.96875 174.960938 L 180.707031 164.164062 C 180.355469 164 179.984375 163.882812 179.601562 163.8125 C 179.21875 163.738281 178.835938 163.71875 178.445312 163.742188 C 178.058594 163.769531 177.679688 163.84375 177.308594 163.964844 C 176.9375 164.085938 176.589844 164.253906 176.261719 164.460938 C 175.933594 164.671875 175.636719 164.917969 175.371094 165.203125 C 175.101562 165.488281 174.875 165.800781 174.691406 166.140625 C 174.503906 166.484375 174.359375 166.84375 174.265625 167.21875 C 174.167969 167.597656 174.117188 167.980469 174.117188 168.371094 L 174.117188 210.683594 C 174.117188 211.417969 174.28125 212.109375 174.613281 212.765625 C 174.941406 213.421875 175.402344 213.96875 175.988281 214.40625 L 192.140625 226.40625 C 192.527344 226.890625 192.742188 227.441406 192.785156 228.058594 C 192.8125 228.398438 192.875 228.730469 192.96875 229.058594 L 207.140625 275.601562 L 193.558594 275.601562 L 180.703125 237.039062 C 180.492188 236.410156 180.164062 235.851562 179.714844 235.363281 C 179.265625 234.875 178.738281 234.5 178.125 234.242188 L 144.09375 219.707031 C 143.695312 219.53125 143.324219 219.308594 142.984375 219.03125 C 142.648438 218.753906 142.355469 218.433594 142.105469 218.074219 C 141.859375 217.714844 141.664062 217.328125 141.523438 216.914062 C 141.382812 216.5 141.304688 216.074219 141.285156 215.640625 L 139.269531 165.839844 C 139.246094 165.328125 139.144531 164.832031 138.960938 164.355469 C 138.773438 163.878906 138.519531 163.441406 138.1875 163.050781 C 137.859375 162.65625 137.476562 162.328125 137.039062 162.0625 C 136.601562 161.796875 136.132812 161.609375 135.632812 161.5 Z M 138.898438 263.367188 C 138.980469 263.148438 139.050781 262.921875 139.101562 262.695312 L 146.191406 230.683594 L 156.199219 234.960938 L 148.691406 264.949219 L 138.164062 298.785156 L 125.164062 298.785156 Z M 138.898438 263.367188 " fill-opacity="1" fill-rule="nonzero"/></g><path fill="#ffffff" d="M 253.382812 90.261719 C 253.105469 91.085938 253.066406 91.921875 253.257812 92.765625 C 253.453125 93.613281 253.855469 94.347656 254.460938 94.96875 L 269.054688 109.925781 L 265.601562 131.105469 C 265.53125 131.535156 265.519531 131.964844 265.570312 132.398438 C 265.625 132.832031 265.734375 133.246094 265.902344 133.648438 C 266.070312 134.050781 266.289062 134.417969 266.5625 134.757812 C 266.835938 135.097656 267.152344 135.394531 267.507812 135.644531 C 267.863281 135.894531 268.246094 136.089844 268.65625 136.234375 C 269.066406 136.375 269.492188 136.460938 269.925781 136.484375 C 270.359375 136.507812 270.789062 136.46875 271.210938 136.371094 C 271.636719 136.273438 272.039062 136.121094 272.421875 135.910156 L 290.238281 126.0625 L 308.058594 135.910156 C 308.4375 136.121094 308.839844 136.273438 309.265625 136.371094 C 309.691406 136.46875 310.117188 136.507812 310.554688 136.484375 C 310.988281 136.460938 311.410156 136.375 311.820312 136.234375 C 312.234375 136.089844 312.617188 135.894531 312.972656 135.644531 C 313.328125 135.394531 313.640625 135.097656 313.914062 134.757812 C 314.1875 134.417969 314.40625 134.050781 314.578125 133.648438 C 314.746094 133.246094 314.855469 132.832031 314.90625 132.398438 C 314.957031 131.964844 314.949219 131.535156 314.878906 131.105469 L 311.421875 109.925781 L 326.019531 94.96875 C 326.625 94.347656 327.023438 93.613281 327.21875 92.765625 C 327.414062 91.921875 327.371094 91.085938 327.09375 90.261719 C 326.820312 89.4375 326.351562 88.746094 325.683594 88.1875 C 325.019531 87.625 324.257812 87.28125 323.398438 87.148438 L 303.417969 84.09375 L 294.4375 64.964844 C 294.25 64.566406 294.011719 64.203125 293.71875 63.871094 C 293.429688 63.539062 293.097656 63.257812 292.726562 63.019531 C 292.355469 62.785156 291.957031 62.605469 291.535156 62.484375 C 291.109375 62.359375 290.679688 62.296875 290.238281 62.296875 C 289.796875 62.296875 289.367188 62.359375 288.945312 62.484375 C 288.519531 62.605469 288.125 62.785156 287.753906 63.019531 C 287.378906 63.257812 287.050781 63.539062 286.757812 63.871094 C 286.46875 64.203125 286.226562 64.566406 286.042969 64.964844 L 277.0625 84.09375 L 257.078125 87.148438 C 256.21875 87.28125 255.457031 87.625 254.792969 88.1875 C 254.128906 88.746094 253.660156 89.4375 253.382812 90.261719 Z M 280.910156 92.886719 C 281.675781 92.769531 282.367188 92.480469 282.984375 92.015625 C 283.605469 91.554688 284.078125 90.972656 284.40625 90.273438 L 290.238281 77.847656 L 296.070312 90.273438 C 296.398438 90.972656 296.875 91.554688 297.492188 92.019531 C 298.113281 92.480469 298.804688 92.769531 299.566406 92.886719 L 313.074219 94.953125 L 303.148438 105.128906 C 302.636719 105.652344 302.269531 106.269531 302.046875 106.96875 C 301.824219 107.671875 301.773438 108.386719 301.890625 109.113281 L 304.1875 123.175781 L 292.480469 116.707031 C 291.785156 116.320312 291.035156 116.125 290.238281 116.125 C 289.441406 116.125 288.695312 116.320312 287.996094 116.707031 L 276.292969 123.175781 L 278.589844 109.113281 C 278.707031 108.386719 278.652344 107.671875 278.433594 106.96875 C 278.210938 106.269531 277.84375 105.652344 277.328125 105.128906 L 267.402344 94.953125 Z M 280.910156 92.886719 " fill-opacity="1" fill-rule="nonzero"/><g clip-path="url(#c3ace193a1)"><path fill="#ffffff" d="M 285.605469 43.75 L 294.878906 43.75 L 294.878906 57.660156 L 285.605469 57.660156 Z M 285.605469 43.75 " fill-opacity="1" fill-rule="nonzero"/></g><path fill="#ffffff" d="M 251.921875 65.574219 L 258.480469 59.015625 L 268.316406 68.851562 L 261.761719 75.410156 Z M 251.921875 65.574219 " fill-opacity="1" fill-rule="nonzero"/><path fill="#ffffff" d="M 314.21875 68.859375 L 324.054688 59.023438 L 330.613281 65.582031 L 320.777344 75.417969 Z M 314.21875 68.859375 " fill-opacity="1" fill-rule="nonzero"/><path fill="#ffffff" d="M 56.050781 290 L 102.421875 266.816406 L 106.566406 275.113281 L 60.199219 298.296875 Z M 56.050781 290 " fill-opacity="1" fill-rule="nonzero"/><path fill="#ffffff" d="M 60.6875 262.179688 L 107.058594 238.996094 L 111.207031 247.289062 L 64.835938 270.476562 Z M 60.6875 262.179688 " fill-opacity="1" fill-rule="nonzero"/></svg>