<svg xmlns="http://www.w3.org/2000/svg" xmlns:xlink="http://www.w3.org/1999/xlink" width="500" zoomAndPan="magnify" viewBox="0 0 375 374.999991" height="500" preserveAspectRatio="xMidYMid meet" version="1.0"><defs><clipPath id="edfc95cb8e"><path d="M 31.617188 95.59375 L 177 95.59375 L 177 121 L 31.617188 121 Z M 31.617188 95.59375 " clip-rule="nonzero"/></clipPath><clipPath id="4d049a59f2"><path d="M 31.617188 112 L 84 112 L 84 144 L 31.617188 144 Z M 31.617188 112 " clip-rule="nonzero"/></clipPath><clipPath id="affcfd8936"><path d="M 173 176 L 202 176 L 202 250.265625 L 173 250.265625 Z M 173 176 " clip-rule="nonzero"/></clipPath><clipPath id="642374c421"><path d="M 151.375 155.765625 L 264.625 155.765625 L 264.625 176 L 151.375 176 Z M 151.375 155.765625 " clip-rule="nonzero"/></clipPath><clipPath id="1ef695666c"><path d="M 151.375 168 L 193 168 L 193 193 L 151.375 193 Z M 151.375 168 " clip-rule="nonzero"/></clipPath><clipPath id="d64d647e2f"><path d="M 225 168 L 264.625 168 L 264.625 193 L 225 193 Z M 225 168 " clip-rule="nonzero"/></clipPath><clipPath id="3ea39fcfb0"><path d="M 215 178 L 240 178 L 240 250.265625 L 215 250.265625 Z M 215 178 " clip-rule="nonzero"/></clipPath><clipPath id="add6c5b10d"><path d="M 269 220 L 293 220 L 293 279.605469 L 269 279.605469 Z M 269 220 " clip-rule="nonzero"/></clipPath><clipPath id="34877e1f40"><path d="M 252.003906 203.105469 L 343.503906 203.105469 L 343.503906 219 L 252.003906 219 Z M 252.003906 203.105469 " clip-rule="nonzero"/></clipPath><clipPath id="df05171a70"><path d="M 252.003906 213 L 285 213 L 285 234 L 252.003906 234 Z M 252.003906 213 " clip-rule="nonzero"/></clipPath><clipPath id="d41b25c2cf"><path d="M 311 213 L 343.503906 213 L 343.503906 234 L 311 234 Z M 311 213 " clip-rule="nonzero"/></clipPath><clipPath id="1728a1652d"><path d="M 303 221 L 323 221 L 323 279.605469 L 303 279.605469 Z M 303 221 " clip-rule="nonzero"/></clipPath></defs><path fill="#ffffff" d="M 120.390625 117.25 L 112.894531 113.746094 C 111.371094 113.035156 109.59375 113.316406 108.367188 114.464844 L 106.3125 116.382812 L 114.101562 133.414062 L 121.882812 123.484375 C 122.65625 122.496094 122.933594 121.230469 122.640625 120.007812 C 122.347656 118.789062 121.527344 117.78125 120.390625 117.25 Z M 120.390625 117.25 " fill-opacity="1" fill-rule="nonzero"/><path fill="#ffffff" d="M 83.410156 142.511719 C 83.230469 142.988281 82.777344 143.28125 82.296875 143.28125 C 82.15625 143.28125 82.015625 143.257812 81.875 143.203125 C 81.261719 142.96875 80.949219 142.28125 81.183594 141.667969 C 83.183594 136.414062 85.949219 131.785156 89.410156 127.898438 L 87.210938 122.460938 C 69.464844 145.464844 59.640625 175.589844 59.476562 207.628906 L 82.882812 216.851562 C 82.335938 201.171875 82.863281 188.015625 84.492188 176.6875 C 86.457031 163.015625 90.015625 151.867188 95.347656 142.613281 L 90.410156 130.382812 C 87.503906 133.859375 85.152344 137.933594 83.410156 142.511719 Z M 83.410156 142.511719 " fill-opacity="1" fill-rule="nonzero"/><g clip-path="url(#edfc95cb8e)"><path fill="#ffffff" d="M 46.554688 115.847656 C 54.648438 117.785156 65.425781 119.285156 77.511719 120.175781 L 79.074219 116.097656 C 80.316406 112.847656 83.488281 110.667969 86.964844 110.667969 L 98.269531 110.667969 C 101.023438 110.667969 103.578125 112.023438 105.144531 114.214844 L 106.742188 112.722656 C 108.683594 110.910156 111.496094 110.464844 113.902344 111.589844 L 121.402344 115.09375 C 123.199219 115.933594 124.496094 117.523438 124.957031 119.457031 C 125.046875 119.820312 125.101562 120.191406 125.125 120.558594 C 139.8125 119.738281 153.015625 118.035156 162.417969 115.738281 C 175.847656 112.457031 176.894531 109.273438 176.894531 108.375 C 176.894531 106.058594 171.46875 102.5625 156.238281 99.6875 C 142.367188 97.066406 123.902344 95.621094 104.253906 95.621094 C 84.605469 95.621094 66.144531 97.066406 52.269531 99.6875 C 37.042969 102.5625 31.617188 106.058594 31.617188 108.375 C 31.617188 110.261719 35.539062 113.214844 46.554688 115.847656 Z M 46.554688 115.847656 " fill-opacity="1" fill-rule="nonzero"/></g><g clip-path="url(#4d049a59f2)"><path fill="#ffffff" d="M 75.203125 136.308594 L 67.535156 136.308594 C 66.875 136.308594 66.34375 135.773438 66.34375 135.117188 C 66.34375 134.460938 66.875 133.925781 67.535156 133.925781 L 76.578125 133.925781 C 77.632812 132.144531 78.722656 130.390625 79.855469 128.667969 L 70.96875 128.667969 C 70.3125 128.667969 69.777344 128.136719 69.777344 127.476562 C 69.777344 126.820312 70.3125 126.289062 70.96875 126.289062 L 81.460938 126.289062 C 82.238281 125.164062 83.035156 124.0625 83.84375 122.96875 C 69.015625 122.164062 55.644531 120.472656 46 118.164062 C 39.054688 116.503906 34.25 114.597656 31.617188 112.464844 L 31.617188 131.828125 C 31.617188 132.578125 32.394531 135.257812 42.417969 138.207031 C 49.605469 140.320312 59.6875 142.023438 71.617188 143.140625 C 72.75 140.816406 73.949219 138.539062 75.203125 136.308594 Z M 75.203125 136.308594 " fill-opacity="1" fill-rule="nonzero"/></g><path fill="#ffffff" d="M 125.972656 122.894531 C 126.898438 124.367188 127.789062 125.867188 128.648438 127.390625 L 141.117188 127.390625 C 141.777344 127.390625 142.308594 127.925781 142.308594 128.582031 C 142.308594 129.238281 141.777344 129.773438 141.117188 129.773438 L 129.953125 129.773438 C 130.542969 130.886719 131.113281 132.023438 131.671875 133.167969 L 138.378906 133.167969 C 139.035156 133.167969 139.570312 133.699219 139.570312 134.359375 C 139.570312 135.015625 139.035156 135.550781 138.378906 135.550781 L 132.800781 135.550781 C 133.945312 138.035156 135.015625 140.59375 136.011719 143.222656 C 162.855469 140.792969 176.894531 135.671875 176.894531 131.828125 L 176.894531 112.460938 C 174.320312 114.546875 169.675781 116.417969 162.980469 118.050781 C 153.597656 120.34375 140.519531 122.050781 125.972656 122.894531 Z M 125.972656 122.894531 " fill-opacity="1" fill-rule="nonzero"/><path fill="#ffffff" d="M 123.757812 124.953125 L 120.902344 128.59375 C 123.417969 132.023438 125.339844 136.160156 126.621094 140.902344 C 126.792969 141.535156 126.417969 142.191406 125.785156 142.363281 C 125.679688 142.390625 125.574219 142.402344 125.472656 142.402344 C 124.949219 142.402344 124.46875 142.054688 124.324219 141.523438 C 123.1875 137.316406 121.523438 133.632812 119.371094 130.546875 L 115.191406 135.886719 C 115.863281 137.804688 115.800781 139.925781 114.992188 141.808594 C 114.742188 142.390625 114.425781 142.933594 114.054688 143.4375 C 125.304688 163.207031 125.554688 190.386719 125.558594 216.875 L 143.898438 209.652344 C 143.804688 173.082031 137.507812 145.902344 124.128906 124.425781 C 124.011719 124.605469 123.890625 124.785156 123.757812 124.953125 Z M 123.757812 124.953125 " fill-opacity="1" fill-rule="nonzero"/><path fill="#ffffff" d="M 103.789062 116.59375 C 102.804688 114.441406 100.636719 113.046875 98.269531 113.046875 L 86.964844 113.046875 C 84.46875 113.046875 82.191406 114.617188 81.296875 116.949219 L 79.996094 120.351562 C 81.832031 120.472656 83.699219 120.582031 85.585938 120.671875 C 85.785156 120.417969 85.984375 120.164062 86.183594 119.910156 L 85.5625 118.375 C 85.316406 117.765625 85.613281 117.070312 86.222656 116.824219 C 86.832031 116.578125 87.527344 116.875 87.773438 117.484375 L 97.773438 142.257812 C 98.925781 145.113281 102.109375 146.566406 105.023438 145.558594 L 109.375 144.058594 C 110.933594 143.519531 112.152344 142.386719 112.804688 140.871094 C 113.453125 139.351562 113.433594 137.6875 112.746094 136.183594 Z M 103.789062 116.59375 " fill-opacity="1" fill-rule="nonzero"/><path fill="#ffffff" d="M 220.660156 172.667969 L 214.804688 169.9375 C 213.621094 169.378906 212.234375 169.601562 211.273438 170.496094 L 209.667969 171.992188 L 215.746094 185.285156 L 221.820312 177.535156 C 222.425781 176.761719 222.640625 175.773438 222.414062 174.820312 C 222.1875 173.867188 221.546875 173.085938 220.660156 172.667969 Z M 220.660156 172.667969 " fill-opacity="1" fill-rule="nonzero"/><g clip-path="url(#affcfd8936)"><path fill="#ffffff" d="M 191.796875 192.386719 C 191.65625 192.753906 191.304688 192.984375 190.929688 192.984375 C 190.820312 192.984375 190.707031 192.964844 190.597656 192.921875 C 190.117188 192.742188 189.878906 192.203125 190.058594 191.722656 C 191.621094 187.625 193.777344 184.011719 196.476562 180.980469 L 194.765625 176.734375 C 180.914062 194.6875 173.246094 218.199219 173.121094 243.203125 L 191.386719 250.398438 C 190.957031 238.164062 191.367188 227.898438 192.640625 219.054688 C 194.175781 208.386719 196.949219 199.683594 201.113281 192.464844 L 197.257812 182.917969 C 194.992188 185.632812 193.15625 188.808594 191.796875 192.386719 Z M 191.796875 192.386719 " fill-opacity="1" fill-rule="nonzero"/></g><g clip-path="url(#642374c421)"><path fill="#ffffff" d="M 163.03125 171.574219 C 169.347656 173.085938 177.761719 174.253906 187.195312 174.953125 L 188.414062 171.769531 C 189.382812 169.234375 191.859375 167.53125 194.570312 167.53125 L 203.394531 167.53125 C 205.542969 167.53125 207.535156 168.589844 208.761719 170.300781 L 210.007812 169.136719 C 211.523438 167.722656 213.714844 167.375 215.59375 168.25 L 221.445312 170.984375 C 222.851562 171.640625 223.863281 172.882812 224.222656 174.390625 C 224.289062 174.675781 224.332031 174.964844 224.351562 175.25 C 235.816406 174.609375 246.117188 173.28125 253.457031 171.488281 C 263.9375 168.925781 264.753906 166.441406 264.753906 165.742188 C 264.753906 163.933594 260.519531 161.207031 248.636719 158.960938 C 237.808594 156.917969 223.398438 155.789062 208.066406 155.789062 C 192.730469 155.789062 178.320312 156.917969 167.496094 158.960938 C 155.609375 161.207031 151.375 163.933594 151.375 165.742188 C 151.375 167.214844 154.4375 169.519531 163.03125 171.574219 Z M 163.03125 171.574219 " fill-opacity="1" fill-rule="nonzero"/></g><g clip-path="url(#1ef695666c)"><path fill="#ffffff" d="M 185.390625 187.542969 L 179.40625 187.542969 C 178.894531 187.542969 178.476562 187.125 178.476562 186.613281 C 178.476562 186.101562 178.894531 185.683594 179.40625 185.683594 L 186.464844 185.683594 C 187.285156 184.292969 188.140625 182.921875 189.023438 181.582031 L 182.085938 181.582031 C 181.574219 181.582031 181.15625 181.164062 181.15625 180.652344 C 181.15625 180.136719 181.574219 179.722656 182.085938 179.722656 L 190.277344 179.722656 C 190.882812 178.847656 191.503906 177.984375 192.136719 177.132812 C 180.5625 176.503906 170.128906 175.183594 162.601562 173.382812 C 157.179688 172.085938 153.429688 170.597656 151.375 168.933594 L 151.375 184.046875 C 151.375 184.632812 151.984375 186.722656 159.804688 189.023438 C 165.414062 190.675781 173.28125 192.003906 182.59375 192.875 C 183.476562 191.0625 184.410156 189.285156 185.390625 187.542969 Z M 185.390625 187.542969 " fill-opacity="1" fill-rule="nonzero"/></g><g clip-path="url(#d64d647e2f)"><path fill="#ffffff" d="M 225.015625 177.074219 C 225.734375 178.222656 226.433594 179.390625 227.101562 180.582031 L 236.835938 180.582031 C 237.347656 180.582031 237.765625 181 237.765625 181.511719 C 237.765625 182.027344 237.347656 182.441406 236.835938 182.441406 L 228.121094 182.441406 C 228.582031 183.3125 229.027344 184.199219 229.464844 185.089844 L 234.695312 185.089844 C 235.210938 185.089844 235.625 185.507812 235.625 186.019531 C 235.625 186.535156 235.210938 186.949219 234.695312 186.949219 L 230.34375 186.949219 C 231.238281 188.890625 232.070312 190.886719 232.847656 192.9375 C 253.796875 191.042969 264.753906 187.046875 264.753906 184.046875 L 264.753906 168.929688 C 262.746094 170.558594 259.121094 172.019531 253.898438 173.292969 C 246.574219 175.082031 236.363281 176.414062 225.015625 177.074219 Z M 225.015625 177.074219 " fill-opacity="1" fill-rule="nonzero"/></g><g clip-path="url(#3ea39fcfb0)"><path fill="#ffffff" d="M 223.285156 178.679688 L 221.058594 181.523438 C 223.019531 184.199219 224.519531 187.425781 225.519531 191.125 C 225.65625 191.621094 225.363281 192.132812 224.867188 192.265625 C 224.785156 192.289062 224.703125 192.300781 224.625 192.300781 C 224.214844 192.300781 223.839844 192.027344 223.726562 191.613281 C 222.839844 188.328125 221.542969 185.453125 219.863281 183.046875 L 216.597656 187.210938 C 217.125 188.710938 217.074219 190.363281 216.445312 191.832031 C 216.25 192.289062 216.003906 192.714844 215.710938 193.105469 C 224.492188 208.535156 224.6875 229.746094 224.691406 250.421875 L 239.003906 244.78125 C 238.933594 216.242188 234.015625 195.027344 223.574219 178.269531 C 223.484375 178.410156 223.386719 178.546875 223.285156 178.679688 Z M 223.285156 178.679688 " fill-opacity="1" fill-rule="nonzero"/></g><path fill="#ffffff" d="M 207.703125 172.15625 C 206.933594 170.476562 205.242188 169.390625 203.394531 169.390625 L 194.570312 169.390625 C 192.621094 169.390625 190.84375 170.613281 190.148438 172.433594 L 189.132812 175.089844 C 190.566406 175.183594 192.023438 175.269531 193.496094 175.339844 C 193.648438 175.140625 193.804688 174.941406 193.960938 174.746094 L 193.476562 173.546875 C 193.285156 173.070312 193.515625 172.53125 193.992188 172.335938 C 194.46875 172.144531 195.007812 172.375 195.199219 172.851562 L 203.003906 192.183594 C 203.90625 194.414062 206.390625 195.546875 208.664062 194.761719 L 212.058594 193.589844 C 213.277344 193.171875 214.230469 192.285156 214.738281 191.101562 C 215.242188 189.917969 215.226562 188.617188 214.691406 187.445312 Z M 207.703125 172.15625 " fill-opacity="1" fill-rule="nonzero"/><path fill="#ffffff" d="M 307.839844 216.730469 L 303.125 214.523438 C 302.167969 214.078125 301.050781 214.253906 300.277344 214.976562 L 298.984375 216.183594 L 303.882812 226.894531 L 308.777344 220.648438 C 309.265625 220.027344 309.4375 219.230469 309.253906 218.460938 C 309.070312 217.695312 308.554688 217.0625 307.839844 216.730469 Z M 307.839844 216.730469 " fill-opacity="1" fill-rule="nonzero"/><g clip-path="url(#add6c5b10d)"><path fill="#ffffff" d="M 284.582031 232.617188 C 284.46875 232.914062 284.183594 233.101562 283.882812 233.101562 C 283.792969 233.101562 283.703125 233.085938 283.613281 233.050781 C 283.230469 232.902344 283.035156 232.472656 283.179688 232.085938 C 284.4375 228.78125 286.175781 225.871094 288.351562 223.425781 L 286.972656 220.003906 C 275.808594 234.472656 269.632812 253.421875 269.527344 273.570312 L 284.25 279.371094 C 283.902344 269.507812 284.234375 261.234375 285.261719 254.109375 C 286.496094 245.511719 288.734375 238.5 292.089844 232.679688 L 288.984375 224.988281 C 287.15625 227.175781 285.675781 229.734375 284.582031 232.617188 Z M 284.582031 232.617188 " fill-opacity="1" fill-rule="nonzero"/></g><g clip-path="url(#34877e1f40)"><path fill="#ffffff" d="M 261.398438 215.847656 C 266.492188 217.0625 273.269531 218.007812 280.871094 218.570312 L 281.851562 216.003906 C 282.636719 213.960938 284.628906 212.585938 286.816406 212.585938 L 293.925781 212.585938 C 295.660156 212.585938 297.265625 213.441406 298.25 214.820312 L 299.257812 213.878906 C 300.476562 212.742188 302.246094 212.460938 303.757812 213.167969 L 308.476562 215.371094 C 309.605469 215.902344 310.421875 216.902344 310.710938 218.113281 C 310.765625 218.34375 310.800781 218.578125 310.816406 218.808594 C 320.054688 218.292969 328.359375 217.222656 334.273438 215.777344 C 342.71875 213.710938 343.375 211.710938 343.375 211.144531 C 343.375 209.691406 339.964844 207.488281 330.386719 205.679688 C 321.660156 204.03125 310.050781 203.125 297.691406 203.125 C 285.332031 203.125 273.722656 204.03125 264.996094 205.679688 C 255.417969 207.488281 252.003906 209.691406 252.003906 211.144531 C 252.003906 212.332031 254.472656 214.191406 261.398438 215.847656 Z M 261.398438 215.847656 " fill-opacity="1" fill-rule="nonzero"/></g><g clip-path="url(#df05171a70)"><path fill="#ffffff" d="M 279.417969 228.714844 L 274.597656 228.714844 C 274.183594 228.714844 273.847656 228.378906 273.847656 227.964844 C 273.847656 227.550781 274.183594 227.214844 274.597656 227.214844 L 280.285156 227.214844 C 280.945312 226.09375 281.632812 224.992188 282.34375 223.910156 L 276.753906 223.910156 C 276.34375 223.910156 276.007812 223.574219 276.007812 223.160156 C 276.007812 222.746094 276.34375 222.410156 276.753906 222.410156 L 283.355469 222.410156 C 283.84375 221.707031 284.34375 221.011719 284.851562 220.324219 C 275.527344 219.820312 267.117188 218.753906 261.050781 217.304688 C 256.683594 216.257812 253.660156 215.058594 252.003906 213.71875 L 252.003906 225.898438 C 252.003906 226.367188 252.496094 228.054688 258.796875 229.910156 C 263.320312 231.238281 269.660156 232.308594 277.164062 233.011719 C 277.875 231.550781 278.628906 230.117188 279.417969 228.714844 Z M 279.417969 228.714844 " fill-opacity="1" fill-rule="nonzero"/></g><g clip-path="url(#d41b25c2cf)"><path fill="#ffffff" d="M 311.351562 220.277344 C 311.933594 221.203125 312.492188 222.144531 313.035156 223.105469 L 320.875 223.105469 C 321.289062 223.105469 321.625 223.441406 321.625 223.855469 C 321.625 224.269531 321.289062 224.605469 320.875 224.605469 L 313.851562 224.605469 C 314.226562 225.304688 314.585938 226.019531 314.9375 226.738281 L 319.152344 226.738281 C 319.566406 226.738281 319.902344 227.074219 319.902344 227.488281 C 319.902344 227.902344 319.566406 228.238281 319.152344 228.238281 L 315.644531 228.238281 C 316.367188 229.800781 317.039062 231.410156 317.664062 233.0625 C 334.546875 231.535156 343.375 228.316406 343.375 225.898438 L 343.375 213.714844 C 341.757812 215.027344 338.835938 216.203125 334.625 217.230469 C 328.722656 218.671875 320.5 219.746094 311.351562 220.277344 Z M 311.351562 220.277344 " fill-opacity="1" fill-rule="nonzero"/></g><g clip-path="url(#1728a1652d)"><path fill="#ffffff" d="M 309.957031 221.574219 L 308.160156 223.863281 C 309.742188 226.019531 310.953125 228.621094 311.757812 231.601562 C 311.867188 232.003906 311.628906 232.414062 311.230469 232.523438 C 311.167969 232.539062 311.101562 232.546875 311.035156 232.546875 C 310.707031 232.546875 310.402344 232.328125 310.3125 231.992188 C 309.597656 229.347656 308.550781 227.03125 307.199219 225.089844 L 304.566406 228.449219 C 304.992188 229.65625 304.953125 230.988281 304.445312 232.171875 C 304.289062 232.539062 304.089844 232.882812 303.855469 233.199219 C 310.929688 245.632812 311.085938 262.726562 311.089844 279.386719 L 322.625 274.84375 C 322.566406 251.84375 318.605469 234.75 310.191406 221.242188 C 310.117188 221.355469 310.039062 221.464844 309.957031 221.574219 Z M 309.957031 221.574219 " fill-opacity="1" fill-rule="nonzero"/></g><path fill="#ffffff" d="M 297.398438 216.316406 C 296.777344 214.960938 295.417969 214.085938 293.925781 214.085938 L 286.816406 214.085938 C 285.246094 214.085938 283.8125 215.070312 283.253906 216.539062 L 282.433594 218.679688 C 283.589844 218.753906 284.761719 218.824219 285.949219 218.882812 C 286.074219 218.71875 286.199219 218.558594 286.324219 218.402344 L 285.933594 217.433594 C 285.78125 217.050781 285.964844 216.617188 286.347656 216.460938 C 286.734375 216.304688 287.167969 216.492188 287.324219 216.875 L 293.613281 232.457031 C 294.339844 234.253906 296.34375 235.164062 298.175781 234.535156 L 300.910156 233.589844 C 301.890625 233.25 302.660156 232.539062 303.066406 231.582031 C 303.476562 230.628906 303.464844 229.582031 303.03125 228.636719 Z M 297.398438 216.316406 " fill-opacity="1" fill-rule="nonzero"/></svg>